<?xml version="1.0" encoding="UTF-8" standalone="no"?>
<!-- Created with Inkscape (http://www.inkscape.org/) -->

<svg
   width="800"
   height="600"
   viewBox="0 0 211.66666 158.75"
   version="1.1"
   id="svg8">
  <g
     id="layer1"
     transform="translate(0,-138.24998)">
    <path
       style="fill:#1c1e21;stroke-width:1"
       d="m 167.61438,190.5924 c -0.34695,8.61111 -2.80624,17.29329 -7.85531,24.34465 -3.90168,6.64531 -9.46113,12.44107 -16.25176,16.15736 -5.1469,2.65232 -9.32025,6.8619 -14.95314,8.58396 -3.86893,1.28011 -7.74674,2.35059 -11.64649,3.39481 -6.42138,0.94384 -13.12079,1.49291 -19.451158,-0.36109 -2.891582,-0.33427 -6.881108,-5.73682 -8.276036,-1.21923 -2.357189,1.93898 -2.74842,4.99791 -4.43712,6.87619 -3.358234,1.99682 -4.893167,6.19458 -7.532101,9.11385 -6.53906,9.36313 -12.883627,18.85389 -19.267699,28.31747 -1.957336,3.49532 -7.42546,3.79946 -10.316276,1.21122 -3.229672,-2.11299 -4.713456,-6.5182 -1.780162,-9.52129 4.66793,-7.13985 10.517529,-13.41327 15.134838,-20.59479 6.551587,-8.96146 13.010176,-17.94834 19.890334,-26.654 -1.280831,-3.81273 -3.522259,-7.63748 -4.339132,-11.76618 -1.421022,-8.1279 -4.03276,-16.61245 -1.512154,-24.78543 1.885885,-12.99078 11.851757,-22.87904 21.758798,-30.58444 3.535538,-3.08456 7.262378,-5.94139 10.844418,-8.96824 2.16196,-4.14666 7.30294,-6.52333 11.93806,-6.64539 6.77673,-0.31575 13.76749,-2.09447 20.41488,0.10698 11.50767,3.51944 19.9687,13.71616 24.38979,24.55964 1.90395,5.90757 3.27798,12.20065 3.24742,18.43395 z m -5.6222,-1.89828 c -0.9753,-8.12049 -2.64844,-16.41595 -7.41421,-23.24333 -5.47522,-8.00521 -13.91861,-15.39534 -24.15226,-15.19851 -6.47741,0.15277 -12.75336,1.95735 -18.48981,4.94365 -4.57806,0.59134 -7.24686,5.02401 -10.89181,7.3887 -8.649327,6.83201 -18.110906,14.58113 -20.591634,25.89327 -1.103369,4.64264 -2.067805,9.33609 -0.785252,14.0373 1.499827,8.81194 2.707091,18.02162 7.749823,25.64375 2.976407,4.93297 8.550657,7.65373 13.689773,9.86294 8.04721,2.22243 16.78384,1.40957 24.66738,-1.1648 6.96488,-1.25004 12.22233,-6.12545 18.32917,-9.26645 4.35273,-2.35923 7.10229,-6.80834 9.79777,-10.78799 5.6856,-8.17248 8.44043,-18.18165 8.09106,-28.10853 z m -6.04085,3.78136 c -0.59171,8.31572 -3.13076,16.55106 -8.29913,23.17913 -5.25405,8.67507 -13.97786,14.85915 -23.40449,18.21728 -10.70747,2.69571 -23.98062,2.83146 -31.960483,-5.99926 -6.915073,-7.49683 -8.122589,-18.38207 -8.30329,-28.14909 -0.02362,-11.12883 5.620301,-21.86617 14.563569,-28.43566 7.002124,-5.9282 14.608634,-12.08333 23.978984,-13.4151 5.94325,-3.0464 13.18304,-1.59122 17.98666,2.84859 9.12345,7.89947 16.07769,19.32056 15.43818,31.75411 z m -5.64741,-2.71567 c -0.98186,-10.97459 -7.74217,-20.97419 -16.46859,-27.37519 -3.06454,-1.91766 -6.64854,-2.71926 -10.11813,-1.33942 -3.4127,0.88141 -6.6801,-0.43075 -9.76239,1.70891 -6.98051,3.55322 -12.82884,9.01939 -18.470651,14.39366 -6.598276,8.56289 -7.429961,20.17231 -5.230798,30.35682 1.302489,8.3883 4.958842,17.70558 13.390289,21.183 8.0511,3.14433 17.33985,2.3216 25.37653,-0.47825 5.17251,-2.14731 10.02551,-5.37724 12.72232,-10.4132 6.13702,-7.93091 9.20428,-18.00873 8.56142,-28.03633 z m -62.476245,47.64026 c -3.003356,-3.86894 -4.907079,-3.07622 -6.397494,1.15711 -3.327983,2.69007 3.757761,5.24761 4.417482,2.20646 0.452226,-0.95205 2.538841,-2.37752 1.980012,-3.36357 z m -7.904951,9.35224 c -2.486451,-4.44213 -4.282069,1.98987 -6.024636,3.96307 -2.067483,3.33767 -5.505554,4.2212 -7.254507,7.7936 -2.574644,3.71799 -4.299004,8.77261 -8.724909,10.4948 -2.923006,3.58995 -5.979557,7.06929 -9.05792,10.52714 1.384302,3.69484 6.350922,5.49882 7.358968,0.62068 5.488808,-8.19875 10.715822,-16.51201 17.084517,-24.02242 2.477547,-2.90435 4.64841,-6.0347 6.991502,-9.01065 l -0.372965,-0.36634 z"
       id="path843" />
    <path
       id="path846"
       d="m 136.16006,181.46769 c -3.21989,2.79085 -4.81157,4.3799 -2.76862,8.47054 0.72118,4.77049 -2.52847,8.64493 -4.42848,12.72152 -2.9864,4.11055 -6.93818,7.53559 -11.06594,10.4484 -4.77217,2.39058 -11.89379,5.16349 -15.97688,0.0256 -3.01961,-3.30806 -3.173669,-8.55921 -2.306559,-12.70604 3.893849,-9.60551 12.116209,-17.88906 22.380669,-20.19411 0.16511,-1.77129 5.31447,-7.26443 5.13746,-3.43954 -3.03926,4.1221 4.11364,9.30055 6.21461,4.25846 0.98109,-1.03509 2.78366,-1.62826 2.81374,0.41517 z m -8.40989,9.65756 c -0.45521,-5.98741 -7.70181,-7.50101 -12.28411,-5.46105 -2.23764,0.83602 -6.79393,3.24836 -2.51523,4.71169 4.30834,2.65917 10.37797,5.30791 14.82243,5.1113 0.30494,-1.41637 0.0379,-2.92844 -0.0231,-4.36194 z m -2.29908,8.51473 c -3.06128,-0.29853 -8.31582,-4.08408 -9.73653,-0.12037 -2.70242,3.57828 -4.88182,7.48671 -7.37548,11.18344 4.53281,1.46531 9.85645,-0.92718 13.35459,-3.99034 1.6586,-1.85366 4.0236,-4.86796 3.75742,-7.07273 z m -11.80005,-3.18782 c -2.84235,0.14481 -5.89953,-6.24137 -7.44329,-2.17163 -3.21026,4.31394 -3.00902,10.70931 -0.13397,15.10855 1.84461,0.19269 1.89006,-4.04997 3.39657,-5.19234 1.31721,-2.48599 3.56637,-5.22768 4.18069,-7.74458 z m -5.51168,14.18877 c -0.24368,0.0804 0.23725,0.16437 0,0 z"
       style="fill:#4285f4;fill-opacity:1;stroke-width:1"/>
  </g>
</svg>
