<?xml version="1.0" encoding="UTF-8" standalone="no"?>
<!-- Created with Inkscape (http://www.inkscape.org/) -->

<svg
   width="800"
   height="400"
   viewBox="0 0 211.66666 105.83333"
   version="1.1"
   id="svg8">
  <g
     id="layer1"
     transform="translate(0,-191.16665)">
    <path
       style="fill:#FFD970;stroke-width:0.99999994"
       d="m 209.13183,201.40288 c -6.4657,3.41975 -14.30597,1.2039 -21.42723,1.82927 -8.96242,-0.66645 -17.91055,0.13967 -26.87749,-0.0567 -10.1622,0.27324 -20.61751,0.3544 -30.71347,0.19597 -4.05225,0.13726 -9.44348,0.24838 -13.92565,0.24252 -18.498764,-0.24921 -37.120024,0.23946 -55.562691,0.5094 -8.949072,0.6316 -18.502195,0.57715 -27.718224,1.07378 -7.822471,0.0828 -15.614374,1.33448 -23.4004865,0.68594 -4.469929,-2.93078 1.7118235,-6.0524 4.8300695,-5.8566 18.014858,-0.28302 36.030618,-1.63766 54.082456,-1.38498 36.417296,-0.50404 72.615136,0.41462 109.027956,-0.40576 10.3375,-0.10093 20.66405,0.4726 30.96476,0.93718 0.34159,0.66181 1.33469,1.41734 0.72,2.22999 z m -2.00309,77.41291 c -1.1075,2.2234 -5.08285,2.74545 -7.63682,2.85146 -22.199,-0.324 -44.41563,-0.62815 -66.62931,-0.44389 -20.47943,0.36478 -41.094674,1.72448 -61.437313,3.73368 -15.512017,1.35336 -31.008196,2.50172 -46.538973,3.34111 -5.398439,1.01309 -11.075956,0.5194 -16.6045275,1.17769 -4.697979,2.16064 -9.10736503,-3.81486 -2.842075,-4.99428 6.6609625,-1.53168 13.7516395,-0.77353 20.5741515,-1.56114 23.246344,-1.45002 46.551964,-3.06492 69.785313,-4.93711 35.655374,-2.67401 71.433354,-1.53966 107.133884,-0.87135 1.35635,0.35631 4.0424,-0.38995 4.19567,1.70383 z m -12.98002,-51.44003 c -3.636,9.47272 -8.37546,18.42716 -12.78316,27.54033 -1.51304,3.29756 -2.61189,7.6148 -5.24982,9.74542 -1.68083,0.93534 -4.60825,0.61547 -2.75283,-2.29549 1.58915,-6.03928 5.08361,-11.1426 7.19485,-16.90397 -3.18745,-5.31061 -4.769,-11.39047 -7.22609,-16.99512 0.799,-2.89159 6.32497,-5.68576 6.52288,-1.28267 1.34797,2.46064 2.28168,5.31239 3.3744,8.11429 0.2461,5.47536 2.57285,-0.71012 3.45487,-2.68345 0.68559,-3.15011 3.78061,-7.28559 7.04619,-6.69232 0.60308,0.22092 0.33559,0.98946 0.41871,1.45298 z m -24.28566,-1.82368 c -0.93539,3.16444 -3.15276,4.58814 -4.89683,7.53699 -4.51234,3.4789 -1.99184,9.39282 1.3192,12.56586 1.79451,2.53383 4.89537,6.63665 1.21547,9.05418 -2.75896,4.32184 -8.17447,5.51375 -12.72703,4.58048 -3.20536,0.49579 -5.47269,-2.11232 -6.7052,-3.55652 -2.74487,-0.92546 -0.86382,-7.29335 -1.39518,-10.43272 0.25802,-4.29645 -0.41019,-8.51505 -0.15951,-12.79259 4.99042,-4.31399 0.25493,-1.37882 -3.46238,-1.37337 -3.75986,-2.88697 2.18258,-5.40406 4.58677,-6.63264 6.42849,-2.23845 13.53005,-3.95349 20.28262,-2.78187 1.46605,0.70426 2.4593,2.14192 1.94207,3.8322 z m -7.4759,2.41749 c -2.68043,0.86078 -12.47349,-1.16691 -9.82369,3.67044 0.65477,7.0059 0.30824,14.15364 -0.67111,21.03536 2.76403,-0.22016 10.39762,3.09503 10.11302,-0.49053 -3.33029,-4.47936 -8.34237,-10.40427 -4.53054,-16.13216 1.38315,-2.78525 5.00145,-5.38173 4.91232,-8.08311 z m -13.57708,27.64054 c -0.2259,0.0747 0.22009,0.15238 0,0 z m 19.60105,-26.96094 c -0.13889,-0.0774 0.37565,-0.20108 0,0 z m -0.13902,0.27015 c -0.24357,-0.0767 0.23523,-0.22169 0,0 z m -11.24473,30.76856 c -0.2259,-0.0747 0.22009,-0.15239 0,0 z m -0.28833,-0.0103 c -0.21683,0.24972 -0.15295,-0.21276 0,0 z m -15.17812,-32.74677 c -0.22026,1.71692 -2.66735,2.55217 -4.32955,2.14764 -4.06188,-2.28401 -9.41192,2.10955 -10.46819,6.13223 0.84577,4.17954 5.59237,5.65441 8.71356,7.94992 2.97815,1.72202 7.57186,5.47535 4.24959,9.06476 -2.3343,4.13309 -6.94146,5.89338 -11.52131,5.53713 -2.33895,-0.265 -3.64364,-1.2202 -5.09079,-2.2938 -1.86098,-1.414 -1.26655,-3.8201 0.98955,-5.05412 2.57782,0.12095 6.40687,2.61585 9.92723,1.41486 -0.45921,-2.29616 -4.00486,-3.09413 -5.7951,-4.71897 -3.92348,-1.81528 -6.64302,-8.77208 -7.0434,-0.67647 -1.89343,4.81105 -5.7702,8.80369 -9.88474,11.80776 -2.84471,1.44108 -6.73895,1.34992 -8.7046,-1.49009 -1.93366,2.71341 -6.572454,4.46941 -8.682064,0.92833 -2.13621,-3.78982 -2.19942,-4.49005 -5.0165,-0.67963 -4.723814,5.63627 -15.677462,7.40194 -19.968121,0.2972 -3.296446,-4.26815 -1.526962,-10.08369 -1.466229,-15.03275 0.773623,-4.88808 1.95978,-9.25314 1.156827,-14.33835 2.06685,-3.10128 5.204295,-4.19259 8.74859,-4.4746 4.390247,-0.81067 8.925501,-2.12437 13.276303,-0.58352 -1.0412,2.2825 -0.28749,2.96105 -2.203177,3.73415 -1.247998,1.49817 -4.240733,2.1672 -6.760952,2.63149 -1.224587,0.25618 -8.180229,-0.14513 -7.977419,3.51734 0.57737,2.14303 -3.271516,9.27348 1.130926,6.8141 4.722856,-0.86516 9.362531,-2.50175 14.238762,-2.52425 -0.2675,1.41093 -0.474692,3.41115 -2.031569,4.38955 -1.239073,1.23022 -4.035866,2.21281 -6.459419,3.05219 -2.83948,1.20951 -5.535622,1.00802 -8.398202,2.32972 -0.568232,4.89913 3.806389,9.29049 8.809537,8.52008 6.321113,-0.0754 12.597093,-3.4939 11.120543,-10.50232 0.52255,-4.80377 2.22545,-9.8759 0.79999,-14.60155 1.7828,-3.30785 6.75164,-5.12285 6.24118,0.20436 0.31964,7.0792 -3.30362,14.55895 -0.69047,21.36841 2.717634,4.57872 6.781924,-6.48206 8.987924,-1.04952 2.25403,3.41426 6.8179,1.13386 7.16495,-2.4054 2.3825,-6.02511 2.04143,-14.2791 -3.10118,-18.63173 -1.37848,1.90326 -2.50909,1.99884 -3.66412,2.60267 -2.82693,-0.44984 -0.86987,-4.61006 1.56909,-5.9004 2.10753,-3.17463 6.97769,-3.10308 7.9346,0.524 2.2642,0.97225 2.91957,7.31397 4.78732,7.13863 3.22989,-5.16066 8.0856,-9.05679 13.75032,-11.56372 2.96834,-1.08221 6.24765,1.65438 5.66031,4.41467 z m -23.89011,0.1659 c -0.2201,-0.15237 0.22589,-0.0748 0,0 z m -51.661235,29.42034 c 0.285012,1.95982 -1.680392,1.90578 -3.357649,3.92571 -4.962122,2.68708 -12.598744,1.61884 -14.920532,-4.18381 -0.297898,2.95285 -1.32573,4.81464 -3.897841,5.0127 -3.074815,0.92657 -0.729942,-6.03342 -0.432637,-8.1328 1.907752,-7.42517 2.621894,-15.24679 0.696643,-22.65212 4.263552,-2.82182 3.395358,-4.85783 -0.784726,-2.35506 -4.799252,1.71937 -1.537259,-6.41572 1.771943,-7.13112 5.859124,-3.07674 14.596483,0.13978 16.874825,6.15802 2.504663,7.85503 -3.219335,14.55984 -6.799222,20.94485 -2.906572,3.03865 -0.593997,7.47584 3.475419,6.75618 2.220835,0.9783 6.741305,-1.003 7.593571,0.66489 -0.135543,0.3373 0.174291,0.71888 -0.219794,0.99256 z M 56.65437,233.94608 c -0.02611,-3.4688 -2.572848,-6.63892 -6.18164,-6.82634 -3.357717,0.0855 1.619188,8.75882 -0.259384,12.56325 0.127263,4.06542 -1.278642,9.29336 -1.704744,12.51355 2.414925,-6.22316 8.671185,-11.01742 8.145768,-18.25046 z m -8.832151,20.70765 c -0.253222,0.20691 0.159152,0.0854 0,0 z m -0.04098,0.75433 c -0.238501,0.36521 0.253412,0.0521 0,0 z m -9.844745,-1.4788 c -1.055091,2.96645 -3.647419,4.72599 -5.688103,6.90467 -3.558494,2.89711 -8.474818,5.19984 -12.938107,3.78487 -7.258427,-1.25391 -11.6225535,-9.97012 -9.7298425,-16.93892 1.8301405,-11.07449 8.3759435,-21.46295 17.8361565,-27.54411 3.62211,-2.01052 9.467021,0.0987 10.279028,3.97829 -0.943862,0.41866 -0.83765,2.91688 -2.937314,2.74853 -3.545585,-0.75927 -8.450989,-2.72319 -11.314426,1.50577 -5.561272,6.00171 -9.84344,14.17955 -8.691971,22.49284 1.75908,4.40642 6.545613,7.70936 11.535965,6.94687 4.497545,-0.40126 8.220852,-3.38816 11.610192,-6.02754 -0.269417,0.6569 0.339294,1.58118 0.0384,2.14873 z m -2.068027,-26.95612 c -0.220097,-0.15237 0.225888,-0.0748 0,0 z"
       id="path877"/>
  </g>
</svg>
