<?xml version="1.0" encoding="UTF-8" standalone="no"?>
<!-- Created with Inkscape (http://www.inkscape.org/) -->

<svg
   width="800"
   height="600"
   viewBox="0 0 211.66666 158.75"
   version="1.1"
   id="svg8">
  <g
     id="layer1"
     transform="translate(0,-138.24998)">
    <path
       style="fill:#1c1e21;stroke-width:0.99999994"
       d="m 198.81266,282.72604 c -7.33868,1.04521 -14.84878,-0.24766 -22.25303,0.27057 -34.20937,0.35912 -68.34723,0.094 -102.56615,1.91919 -20.038036,0.29604 -40.022298,2.97003 -60.025416,2.65555 -5.1219635,-4.12453 7.892295,-3.45517 10.567708,-3.39011 14.692409,-0.16789 29.322557,-1.49054 43.989944,-2.10101 l 16.933934,-0.52388 c 21.06949,-0.85956 42.15246,-1.00172 63.22763,-1.07271 -1.20774,-9.18694 -5.11798,-17.77934 -5.63786,-27.08709 -1.04686,-2.71012 -7.41658,-6.2127 -1.06014,-8.89928 6.44103,-2.26945 13.11762,-3.94772 20.02934,-3.69882 7.48783,-0.42661 14.88366,0.56638 22.18076,2.03936 3.63019,1.00268 5.40792,6.42577 1.26436,8.06114 -3.60317,-0.2174 -0.78056,3.79572 -2.57595,5.89635 -2.26882,7.6102 -2.53241,15.63766 -4.46232,23.31591 6.46737,0.57849 13.45742,-0.25902 19.96057,0.84284 0.30202,0.41937 0.64337,1.30951 0.42662,1.77199 z m -14.56338,-36.03696 c -4.37579,-3.43375 -11.30582,-2.85151 -16.8077,-3.48202 -7.42821,0.13539 -15.14861,-0.41344 -22.17696,2.09432 -5.26428,4.21396 4.83502,5.08422 7.59394,5.2106 9.73558,0.55017 19.61599,0.37172 29.24446,-1.06666 0.87767,-0.62382 2.42079,-1.44186 2.14626,-2.75624 z m -4.96762,5.35429 c -4.87549,1.19447 -11.34643,-0.91428 -15.26434,2.28605 -4.54109,2.92645 -8.6424,6.47069 -12.9265,9.75212 -2.83185,0.75888 1.62816,5.88221 1.07513,8.47422 1.10268,2.37911 0.085,7.10951 2.59583,7.91006 6.35043,-3e-4 12.70783,0.14644 19.05353,-0.0859 1.53644,-9.38219 2.69803,-18.899 5.59997,-27.99108 l -0.13353,-0.3454 z m -3.13356,11.82293 c -3.37787,5.12062 -9.10818,8.34959 -12.95793,13.20578 -2.74608,3.99893 -5.19481,-0.14255 -1.21661,-2.21456 4.1752,-4.42657 8.21049,-9.41521 13.72116,-12.22736 0.10628,0.42261 0.67948,0.74947 0.45338,1.23614 z m -0.50476,-10.19923 c -3.10127,4.77085 -8.65355,7.31713 -12.43435,11.56482 -2.82548,2.16714 -4.95039,5.5511 -8.42311,5.94026 -3.27065,0.0423 5.86219,-6.38316 7.54162,-8.34386 4.00861,-3.67213 8.09788,-7.35816 12.66916,-10.30236 0.1754,0.38944 0.70846,0.58956 0.64668,1.14114 z m -15.94214,-0.57238 c -5.60885,0.23353 -14.61147,-3.12155 -11.17338,5.29457 1e-5,6.80524 2.86352,2.96275 6.19988,-0.49629 0.87375,-1.31259 7.45001,-4.84691 4.9735,-4.79828 z m 17.90836,-44.52466 c -0.47503,1.74461 -1.89956,4.85589 -4.30494,6.17903 -0.50464,6.21078 -6.4425,7.41525 -8.4586,12.58105 -3.74909,4.06419 -6.41858,9.61016 -11.33109,12.35367 -3.34695,0.17299 -6.35618,-2.24709 -9.07197,-3.98427 -1.19859,-2.78715 -5.71966,-3.7719 -7.92987,-6.4115 -5.17153,-4.65803 -10.2158,-9.49611 -15.0036,-14.55613 -2.65853,0.0314 -1.81018,-4.12942 1.30225,-6.78287 4.64721,-6.34186 10.2993,-12.47596 15.35591,-18.07074 -2.95081,-1.63066 -5.04717,-5.34455 -8.5634,-5.45188 -5.3478,1.41232 -12.3468,5.04266 -16.77886,-0.12139 -4.74529,-5.85183 -3.26042,-14.54578 -0.87999,-21.09066 1.83411,-3.36878 -0.88549,-8.22364 2.91378,-11.39092 1.71367,0.79062 3.12314,-6.74595 4.13683,-3.23081 -1.90379,6.30294 2.97163,-3.88687 2.72112,0.24103 -2.52337,3.26078 2.92862,5.09236 -0.99239,8.97348 -1.31362,4.9378 -7.09573,3.04952 -7.30082,7.83067 -1.20608,5.50247 -2.08726,13.21346 3.61191,16.53016 5.81172,2.01488 11.60293,-4.69912 17.11411,-1.32226 3.60096,2.92256 7.17082,8.117 11.01923,4.76234 7.40461,2.83846 12.74185,9.09228 19.28724,13.37789 1.95762,2.09121 3.93021,2.73121 6.26776,3.12799 3.5962,-0.60095 8.03054,7.39332 2.71536,5.87023 -2.42032,-0.39799 -5.77556,-5.12453 -7.34821,-1.4156 -2.3408,2.93908 -4.74316,5.54672 -6.79654,8.50088 -4.55263,5.3381 -8.60087,11.0955 -13.07945,16.52053 0.77153,2.02799 6.21854,4.39781 8.35727,4.77182 3.60197,-4.64188 7.6115,-8.99587 11.05124,-13.75629 -5.36806,-0.73384 -7.70609,-6.93951 -3.50965,-10.61909 2.46999,-3.85615 9.28099,-3.97647 10.62345,0.71151 -0.0632,2.45531 4.71536,-8.03692 4.87192,-4.12787 z m -8.12763,6.32711 c -0.8096,-4.23046 -9.33845,-0.96052 -6.02546,2.22277 2.37476,1.51885 7.97578,2.67495 6.02546,-2.22277 z m -5.49586,-10.52713 c -6.48356,-4.66103 -12.29716,-10.34005 -19.24844,-14.28618 -5.16815,0.59185 -9.39593,7.46673 -13.44465,11.35441 -2.66587,3.36094 -5.53658,6.60842 -7.87111,10.20971 3.3098,6.30653 8.34646,-8.4418 9.67064,-4.27513 -0.32079,2.12664 -3.72184,5.28508 -5.44412,7.61131 2.82278,4.47526 6.71708,-9.66771 10.49404,-7.6966 0.51979,3.19843 -4.99648,5.55639 -6.5553,8.56818 -4.02482,4.7434 3.10667,-1.66449 4.1579,-3.70226 2.39479,-4.3247 5.22129,-3.08838 2.44006,0.17319 -2.45899,3.7798 -8.6468,7.26805 -2.75776,10.47564 2.90049,2.52703 5.72648,5.22851 9.1443,7.05136 5.74119,-7.30104 11.53565,-14.55152 16.9176,-22.1095 0.92681,-0.48886 3.51134,-2.46609 2.49684,-3.37413 z m -41.8517,8.76729 c -0.35237,0.0985 0.22973,0.48108 0,0 z m -2.6898,-57.79298 c -2.96439,-1.99212 -6.67404,0.79082 -2.65581,2.69214 1.14251,-0.19678 2.60426,-1.51062 2.65581,-2.69214 z m 37.43997,77.33278 c -0.57329,3.12124 -5.4705,0.85744 -2.01018,-1.55138 1.13087,-2.12427 2.31488,0.50815 2.01018,1.55138 z m -41.02052,-68.94182 c -0.90598,1.19137 -0.004,-0.68502 0,0 z"
       id="path859" />
    <path
       id="path862"
       d="m 74.182468,282.17547 -5.656752,-0.0952 c -0.971326,-8.67048 -0.03187,-17.46882 -0.06032,-26.18383 -3.223941,0.85435 -7.379957,-1.17672 -9.960038,-0.81344 -3.323453,4.28354 -8.247474,7.15714 -13.211588,8.90908 -2.727224,1.96485 -11.490192,0.79052 -6.0717,-3.13554 2.317331,-4.51028 2.734195,-12.24793 -3.100316,-14.16756 -7.755102,-6.59378 -12.015603,-16.82539 -10.858689,-27.00962 0.579922,-12.38972 7.542294,-24.45835 18.570776,-30.3783 8.685941,-5.44176 18.908445,-9.23872 29.314296,-7.29226 11.501993,0.89164 23.036743,6.51722 28.938103,16.73659 5.94181,9.00229 8.50407,20.78461 4.45284,31.06318 -2.20044,6.34431 -6.80958,11.59478 -12.16737,15.49585 4.96986,2.53736 8.84415,6.80355 13.47857,9.89655 2.82382,1.67636 5.97587,7.332 8.26006,2.09642 1.20946,-3.93041 10.56976,-8.58042 4.84217,-1.88135 -2.83906,2.86086 -6.23496,8.16751 -9.61837,9.13905 -5.53147,-5.38143 -12.21261,-9.43929 -17.92387,-14.59694 -4.49115,-3.95216 -8.22305,3.27234 -13.01895,3.49074 -7.558626,-0.27164 -8.263396,5.23847 -7.443996,11.73885 1.183106,4.46362 -3.236006,16.78456 4.625186,14.23676 4.39137,-1.89412 7.09412,0.20591 7.88714,2.13189 z m 29.741852,-64.88448 c -1.18213,-11.02788 -7.15974,-22.41385 -17.35367,-27.40854 -11.95753,-5.51572 -26.787895,-6.89216 -38.482788,0.0229 -8.757504,3.62339 -14.481941,12.15315 -16.89692,21.04123 -2.482674,10.50323 -1.306899,22.77619 6.949722,30.53724 2.684937,2.88884 6.42483,3.33278 6.846665,7.53777 2.252767,3.63792 -1.926324,11.08694 -0.433027,11.69326 5.691033,-0.49791 10.069416,-4.8594 11.364372,-10.04362 4.246687,-3.30807 8.79766,2.4622 13.684251,0.89658 7.724665,-0.70592 16.146235,-2.03062 22.095935,-7.46532 8.14896,-6.16861 12.81509,-16.5986 12.22546,-26.81152 z"
       style="fill:#4285f4;fill-opacity:1;stroke-width:0.99999994" />
  </g>
</svg>
