<?xml version="1.0" encoding="UTF-8" standalone="no"?>
<!-- Created with Inkscape (http://www.inkscape.org/) -->

<svg
   width="800"
   height="600"
   viewBox="0 0 211.66666 158.75"
   version="1.1"
   id="svg8">
  <g
     id="layer1"
     transform="translate(0,-138.24998)">
    <path
       style="fill:#1c1e21;stroke-width:0.99999994"
       d="m 24.663223,284.20098 c -3.871301,-0.7859 -2.841107,-6.59265 -3.842524,-9.72335 -2.077538,-9.75062 -1.868638,-20.06699 2.075462,-29.33384 2.27054,-5.80495 5.688318,-12.29323 11.969491,-14.34478 6.350558,-0.25696 9.735813,6.02548 12.499304,10.78188 4.570513,12.12943 0.717149,25.49011 3.082797,37.85831 -0.25579,4.49463 -3.919557,1.31235 -3.239328,-2.20385 -1.275657,-12.14548 2.207494,-26.04828 -5.329506,-36.65901 -1.947337,-4.26196 -7.121324,-6.90444 -10.370674,-2.42066 -7.747728,8.42997 -10.866413,20.83655 -8.530073,32.01057 0.349661,4.6141 2.405703,9.16106 2.217439,13.71789 l -0.252415,0.34967 -0.280023,-0.0328 z m 107.323647,-3.5281 c -1.9838,-14.04584 -1.35677,-28.81826 1.99628,-42.72984 0.95015,-5.37006 4.86098,-10.18534 10.46548,-10.9606 4.8669,0.79152 7.60441,6.13678 8.02015,10.73284 1.05165,9.02707 -0.74128,18.08892 0.51686,27.11864 -0.49959,4.37431 2.81876,12.76691 -1.35343,14.77668 -1.33525,-5.83327 -0.86795,-13.05503 -1.71199,-19.41721 -0.8918,-8.4367 2.41173,-17.82182 -2.15671,-25.5356 -2.23211,-5.11723 -7.6495,-1.05561 -9.71384,1.80883 -3.4503,6.75708 -3.51674,14.71366 -4.24132,22.12091 -0.68413,7.1051 0.12143,14.3711 -5.8e-4,21.34652 -0.39784,0.69008 -1.03307,1.01132 -1.8209,0.73883 z m 27.3855,-0.96511 c -3.23116,-4.51161 0.36929,-12.59335 -0.42169,-18.40845 1.42596,-10.56188 1.30443,-21.74364 6.11989,-31.50636 2.71453,-5.96652 10.8108,-4.70127 15.33412,-1.61786 6.19398,4.61259 8.72844,12.90972 6.94052,20.35624 -1.09296,9.59567 -0.98761,19.45268 -2.55619,28.92377 -3.3782,4.41757 -1.24978,-8.21282 -1.36941,-10.36654 -0.17481,-8.56576 2.11398,-17.17591 0.67593,-25.67588 -1.80488,-6.22272 -8.01271,-13.03508 -15.04479,-10.04628 -4.73932,4.11434 -4.90145,11.11833 -6.02415,16.89153 -0.84142,7.94949 -1.96798,15.78107 -2.22162,23.79736 -0.66076,2.34184 0.38361,5.91849 -1.43261,7.65247 z M 33.427096,225.06705 c -3.928365,-2.00937 -4.754445,-7.12591 -7.160307,-10.60065 -1.967617,-4.13247 -5.213745,-7.44459 -7.360634,-11.46031 -0.56062,-1.62508 -0.526024,-4.65538 1.850721,-5.51781 7.520638,-0.41465 15.028969,-1.60816 22.587349,-0.81055 3.054057,-2.51343 5.03162,1.52257 2.831097,4.04889 -2.118839,4.62968 -5.481804,8.79641 -7.13006,13.69689 -1.5001,3.66174 -2.771092,7.8242 -5.618166,10.64354 z m 0.246679,-5.39526 c 3.129172,-6.39059 5.606326,-13.21075 9.826961,-18.9656 -6.507872,0.27827 -13.419952,1.00556 -20.05436,1.7543 4.33565,5.20455 7.269109,11.31855 10.144626,17.34419 l 0.08273,-0.13349 z m 112.318425,1.8394 c -7.067,-1.2892 -10.46074,-10.09439 -8.66627,-16.5248 1.02247,-6.08666 3.5418,-13.04506 9.89921,-15.27406 6.00824,0.0931 7.81416,6.85982 8.52308,11.68235 1.30661,7.62874 -1.86728,15.79554 -8.32592,20.07032 l -1.43014,0.0463 z m 2.11312,-5.32214 c 5.60539,-2.86066 4.3708,-10.0275 3.19487,-15.15687 0.0481,-4.71176 -5.73264,-8.31171 -7.47198,-5.51376 -3.77758,4.87938 -5.916,12.82015 -1.27082,17.8809 1.14694,1.92496 3.19354,3.61723 5.54793,2.78973 z m 27.17476,3.34735 c -5.85292,0.95745 -9.46828,-3.83165 -7.21511,-9.30194 0.67864,-4.84189 1.20116,-10.43257 1.09122,-14.9128 -0.79188,-6.59153 11.81155,-3.13317 16.2994,-3.7189 5.26249,0.1618 9.45564,2.39786 6.76373,7.90202 -2.48717,5.8585 -1.56227,12.5879 -4.72224,18.16522 -2.34425,0.95648 -4.96031,2.28003 -8.28808,1.68862 -1.29164,0.26902 -2.62141,0.14936 -3.92892,0.17778 z m 10.57985,-4.49106 c -0.11237,-6.01341 2.87634,-11.45057 3.03163,-17.38697 -5.37283,-2.4789 -11.51039,-1.27113 -17.21128,-1.28527 1.08496,5.72166 -3.54683,13.98592 0.55984,18.04246 4.47328,0.46346 9.29076,0.32549 13.61981,0.62978 z m -136.206306,2.59418 c -5.321596,0.13215 -4.439122,-4.18992 -0.370348,-5.5468 2.620323,-2.05319 8.609679,-3.04055 7.458251,-7.45067 2.75758,-7.26599 -6.863295,-2.79917 -6.178715,-9.46372 -0.986186,-6.86467 -0.933642,-13.86537 -1.672823,-20.78108 -1.135905,-3.02744 -0.697114,-6.17355 2.121472,-7.82252 6.1522,-1.39462 13.363282,-0.5773 19.871857,-1.46827 12.871765,-0.95505 25.806501,-0.33979 38.670332,-0.17492 2.32608,1.62791 -1.14491,1.90156 -1.88823,3.20529 1.79846,-1.57963 4.66763,-2.14351 4.90373,1.26462 0.75963,4.83505 -1.07951,9.78819 0.44284,14.59962 -0.58888,4.45227 2.87523,10.4806 -0.77922,13.94469 -0.62304,0.86879 -2.55172,1.30215 -3.92904,1.16963 -7.27763,1.27742 -14.923382,-0.11918 -22.297329,0.96625 -3.616703,0.87036 -10.107674,-0.59381 -12.221614,1.54231 -1.218304,6.71437 -7.568823,11.97662 -13.611914,13.61247 -3.321218,1.20084 -6.943322,2.40825 -10.519249,2.4031 z m 4.73072,-4.99954 c 5.396659,-1.72171 13.622837,-1.73954 14.992336,-8.53353 -0.06423,-3.08651 0.913929,-8.50053 4.622701,-7.0573 10.03549,0.13741 20.043651,-1.48491 30.087669,-0.76277 8.91528,2.91032 3.58967,-7.57016 4.1053,-12.21663 -1.90439,-4.71445 2.85668,-13.89245 -2.47791,-15.67033 -7.321814,-0.0559 -14.208871,0.40623 -21.478782,0.10151 -10.824657,0.23732 -21.88579,1.28872 -32.527466,1.86434 1.311302,7.01222 1.528923,14.19629 2.375568,21.24765 -0.705417,5.02714 3.829418,2.77428 6.33305,4.1252 0.71219,4.72093 1.281921,10.04338 -2.175195,13.88054 -0.147761,1.16659 -5.0748,3.08326 -3.857271,3.02131 z"
       id="path841" />
    <path
       id="path844"
       d="m 67.926504,189.56955 c -2.783244,-0.3578 -3.864633,-3.96531 -5.453361,-6.08271 -3.165767,-3.17935 2.451774,-6.27417 5.485795,-5.35686 2.743942,0.69822 9.663935,-2.35888 9.525241,0.57264 -1.50609,2.92391 -4.961648,5.1653 -5.995888,8.03741 0.234551,1.87468 -1.853706,2.7372 -3.561787,2.82952 z m 1.696882,-5.04079 c 2.625642,-2.58282 5.647593,-5.86003 -0.16872,-3.54293 -4.214416,-0.34762 -1.162048,2.96482 0.16872,3.54293 z m 4.393846,-4.6366 c -0.04024,-0.51686 -0.582905,0.3644 0,0 z m 13.049306,8.97913 c -3.882729,-0.99142 -5.730767,-5.2529 -7.671949,-8.33231 3.555251,-4.83917 9.801398,-0.39242 14.710664,-1.83254 1.828556,-0.0388 8.802267,-0.28034 5.542951,2.5046 -2.74043,0.44996 -6.450573,3.79703 -9.521744,5.59487 -0.821897,1.12713 -1.425875,2.14943 -3.059922,2.06538 z m 1.533575,-3.65747 c 3.265154,-2.02269 6.580647,-3.96634 1.006327,-2.94192 -4.826384,-0.99374 -2.235507,1.63584 -1.006327,2.94192 z m 44.446217,7.07015 c -3.10202,-1.06754 -0.53356,-5.54058 1.60924,-5.91131 0.73853,1.11419 0.49691,4.93098 -1.60948,5.91125 z m 32.67894,-4.54122 c -5.08709,-1.7061 0.52068,-8.98605 2.36714,-6.63336 2.66871,0.32995 -0.0178,7.17739 -2.36714,6.63336 z m -36.09163,-2.26262 c -6.22343,-1.22572 -3.63243,-8.59315 -0.83814,-11.96586 2.85206,-3.52511 6.74382,-13.99608 -1.50836,-10.91444 -2.34519,0.71631 -9.62601,5.54137 -6.64232,-0.0194 2.99501,-3.4587 11.51153,-6.96289 14.18705,-1.87359 1.67135,7.19811 -4.20625,12.93465 -6.20802,19.24718 1.7231,3.17976 6.1645,-2.66309 5.60234,1.54018 -0.75459,2.04969 -1.97927,4.42374 -4.59255,3.98586 z m 35.70153,-9.49081 c -4.98472,-2.08972 -2.41042,-8.44111 -0.99589,-12.18405 0.15083,-2.88217 7.13215,-8.75624 1.0055,-8.67779 -4.94428,2.62661 -9.18414,-2.05992 -2.92314,-3.88398 3.40946,-0.60541 10.91425,-0.3461 8.20762,5.16666 -1.69856,5.00898 -6.53872,10.00741 -4.70426,15.52008 2.26689,0.92498 1.01021,3.66225 -0.58983,4.05908 z"
       style="fill:#DB4437;fill-opacity:1;stroke-width:0.99999994" />
  </g>
</svg>
