<?xml version="1.0" encoding="UTF-8" standalone="no"?>
<!-- Created with Inkscape (http://www.inkscape.org/) -->

<svg
   width="160mm"
   height="90mm"
   viewBox="0 0 160 90"
   version="1.1"
   id="svg8">
  <g
     id="layer1"
     transform="translate(0,-207)">
    <path
       style="opacity:1;fill:#151515;fill-opacity:1;stroke:none;stroke-width:1;stroke-linecap:round;stroke-miterlimit:4;stroke-dasharray:none;stroke-dashoffset:36.14061737;stroke-opacity:1"
       id="path831"
       d="m 17.643211,265.9505 c 0.824293,0.17833 1.660497,0.30024 2.494388,0.42488 1.16342,0.14165 2.326876,0.28301 3.490998,0.41868 1.073822,0.11515 2.15086,0.19254 3.228055,0.26784 1.203104,0.0788 2.409092,0.0917 3.614298,0.10342 1.370155,0.0175 2.739808,0.0107 4.109622,-0.0206 1.601477,-0.0605 3.201308,-0.15556 4.800712,-0.25567 1.901572,-0.12658 3.797763,-0.31893 5.69685,-0.47676 1.907081,-0.14393 3.80657,-0.36174 5.705531,-0.58532 2.538318,-0.30021 5.062944,-0.70011 7.587464,-1.09702 3.32473,-0.51416 6.642359,-1.0744 9.95169,-1.67958 3.841491,-0.74339 7.653399,-1.63042 11.454074,-2.55771 4.164275,-0.99627 8.306801,-2.07673 12.422378,-3.25771 3.43566,-0.96145 6.828821,-2.06401 10.205489,-3.21322 3.27222,-1.13994 6.5185,-2.35313 9.74579,-3.61426 3.42206,-1.35732 6.8212,-2.77228 10.20852,-4.21395 1.74025,-0.71724 3.45525,-1.49257 5.15832,-2.29336 1.11022,-0.55018 2.23543,-1.06535 3.36692,-1.56961 0.83362,-0.36311 1.68895,-0.67231 2.53224,-1.01152 0.48946,-0.17725 0.97273,-0.36717 1.46569,-0.53429 0.18302,-0.0903 0.38175,-0.13662 0.56792,-0.21776 0,0 -2.53424,1.98537 -2.53424,1.98537 v 0 c -0.18806,0.0611 -0.37087,0.13601 -0.55862,0.19802 -0.47487,0.16619 -0.94704,0.33981 -1.41869,0.51492 -0.83035,0.31908 -1.6649,0.62843 -2.47955,0.98661 -1.12402,0.49386 -2.22989,1.02506 -3.33782,1.55388 -1.64436,0.75631 -3.30694,1.47167 -4.98765,2.14371 -3.35324,1.38343 -6.70724,2.76569 -10.07883,4.10382 -3.26223,1.2858 -6.53263,2.55671 -9.8543,3.68218 -0.670539,0.22408 -2.463593,0.82544 -3.116375,1.03452 -2.324631,0.74455 -4.666923,1.43555 -7.01454,2.10336 -4.124348,1.13688 -8.262376,2.22304 -12.417366,3.2427 -1.543971,0.38285 -2.318297,0.58133 -3.856795,0.9378 -2.534149,0.58715 -5.085133,1.09927 -7.631996,1.62731 -1.565854,0.29981 -2.099885,0.408 -3.6438,0.68117 -2.131856,0.37721 -4.273185,0.6976 -6.406814,1.06432 -2.566243,0.42575 -5.136414,0.83688 -7.715391,1.17726 -1.902955,0.22534 -3.807268,0.43765 -5.718415,0.5823 -1.899473,0.16068 -3.797127,0.34371 -5.699191,0.47229 -1.619388,0.11576 -3.238473,0.23926 -4.86191,0.28442 -1.377684,0.034 -2.755493,0.0347 -4.133552,0.0257 -1.216325,-0.009 -2.433263,-0.0244 -3.647488,-0.10296 -1.081116,-0.0766 -2.162273,-0.15559 -3.239283,-0.27901 -1.158072,-0.14576 -2.315918,-0.29319 -3.474266,-0.4368 -0.867984,-0.11043 -1.735188,-0.22585 -2.601024,-0.35145 0,0 2.620957,-1.848 2.620957,-1.848 z" />
    <path
       style="opacity:1;fill:#151515;fill-opacity:1;stroke:none;stroke-width:1;stroke-linecap:round;stroke-miterlimit:4;stroke-dasharray:none;stroke-dashoffset:36.14061737;stroke-opacity:1"
       id="path833"
       d="m 118.76173,237.19463 c 0.63853,0.0381 1.27721,-0.002 1.91545,-0.0256 0.91873,-0.0122 1.83209,-0.11074 2.7453,-0.20218 1.02005,-0.0751 2.03622,-0.19084 3.05333,-0.29665 1.20449,-0.13571 2.41218,-0.23975 3.61769,-0.36564 1.08924,-0.1022 2.17919,-0.19606 3.27195,-0.25011 0.99276,-0.044 1.98656,-0.0463 2.98006,-0.0509 0.92507,-0.0353 1.85019,-0.0675 2.77567,-0.09 0.76075,0.003 1.51925,-0.0539 2.27865,-0.0897 0.5834,0.0161 1.16996,0.0107 1.75137,0.0647 0.37846,0.0216 0.75,0.0851 1.09452,0.24697 0.21001,0.0865 0.37857,0.22907 0.51094,0.41116 0.15687,0.15753 0.21158,0.35207 0.22109,0.56806 -0.0222,0.22105 -0.13099,0.4119 -0.28189,0.57049 -0.14652,0.16617 -0.30883,0.31602 -0.46262,0.47578 -0.24607,0.2646 -0.49526,0.52618 -0.7367,0.79513 -0.33662,0.34484 -0.62418,0.7306 -0.90471,1.12107 -0.34188,0.50204 -0.70538,0.989 -1.07046,1.4743 -0.42032,0.55048 -0.82976,1.10795 -1.21793,1.68157 -0.43297,0.65439 -0.88611,1.29529 -1.35644,1.92329 -0.59198,0.75 -1.1458,1.52731 -1.69025,2.31207 0,0 -2.82751,1.23354 -2.82751,1.23354 v 0 c 0.52476,-0.78252 1.03906,-1.57263 1.63381,-2.30498 0.47534,-0.61626 0.92333,-1.253 1.35339,-1.90153 0.38255,-0.57689 0.77451,-1.14561 1.19996,-1.69198 0.35939,-0.48137 0.72151,-0.9611 1.0628,-1.45555 0.26077,-0.4029 0.54057,-0.7992 0.86778,-1.15126 0.12642,-0.14104 0.24645,-0.2896 0.37536,-0.4283 0.034,-0.0366 0.20983,-0.20462 0.24498,-0.24452 0.0346,-0.0391 0.0638,-0.0827 0.0957,-0.12414 0.15048,-0.15968 0.29257,-0.32497 0.4573,-0.46781 0.11743,-0.13145 0.28256,-0.22739 0.35139,-0.39839 0.0932,-0.12749 -0.006,-0.23476 -0.0923,-0.33591 -0.10722,-0.13053 -0.25361,-0.21257 -0.40915,-0.27505 -0.32612,-0.11438 -0.66582,-0.15682 -1.00955,-0.18297 -0.5679,-0.0358 -1.13761,-0.0579 -1.70665,-0.0483 -0.7541,0.0337 -1.50795,0.0716 -2.26312,0.0688 -0.92244,0.0172 -1.84411,0.057 -2.76647,0.0765 -0.98787,0.003 -1.97612,0.0107 -2.9631,0.0571 -1.0827,0.0591 -2.16345,0.14881 -3.24321,0.24745 -1.21263,0.11713 -2.42553,0.2313 -3.63476,0.38051 -1.0199,0.11073 -2.04044,0.21285 -3.06253,0.30177 -0.92256,0.0955 -1.8464,0.17621 -2.7741,0.20008 -0.66459,0.0303 -1.32896,0.0553 -1.99414,0.0667 0,0 2.6091,-1.89562 2.6091,-1.89562 z" />
    <text
       xml:space="preserve"
       style="font-style:normal;font-weight:normal;font-size:19.62073898px;line-height:1.25;font-family:sans-serif;letter-spacing:0px;word-spacing:0px;fill:#4285f4;fill-opacity:1;stroke:none;stroke-width:0.26458332"
       x="-39.500347"
       y="264.21503"
       id="text817"
       transform="rotate(-17.195297)"><tspan
         id="tspan815"
         x="-39.500347"
         y="264.21503"
         style="font-style:normal;font-variant:normal;font-weight:bold;font-stretch:normal;font-family:sans-serif;-inkscape-font-specification:'sans-serif Bold';fill:#4285f4;fill-opacity:1;stroke-width:0.26458332">Doing</tspan></text>
  </g>
</svg>
