<?xml version="1.0" encoding="UTF-8" standalone="no"?>
<!-- Created with Inkscape (http://www.inkscape.org/) -->

<svg
   width="800"
   height="400"
   viewBox="0 0 211.66666 105.83333"
   version="1.1"
   id="svg8">
  <g
     id="layer1"
     transform="translate(0,-191.16665)">
    <path
       style="fill:#78A9f7;stroke-width:1"
       d="m 87.269853,287.06549 c 0.335243,-0.54371 0.979224,-2.84053 1.021371,-4.10368 0.03131,-0.97803 0.06274,-1.95607 0.09405,-2.9341 -0.03555,-0.85767 0.158098,-1.67367 0.122611,-2.53134 -0.118371,-1.80758 -0.465987,-3.65683 -0.584383,-5.46441 -0.04229,-1.66075 -0.529227,-3.24512 -0.710539,-4.95792 -0.785439,-3.70557 -2.035433,-8.26451 -3.728089,-11.838 -0.695134,-2.01074 -1.745306,-3.95725 -3.054235,-5.95911 -4.641979,3.75993 -10.6281,5.74236 -16.623151,5.51027 5.120752,8.67715 8.366988,21.93113 9.206911,32.00307 l -3.772844,-0.67499 c -0.765446,-8.95938 -3.765248,-20.97797 -7.927955,-28.88621 -4.086945,-7.12629 -9.861669,-12.94254 -15.382201,-18.8923 -4.092258,-5.51248 -9.123365,-10.23218 -13.346742,-15.25262 -2.321831,-2.58124 -5.106582,2.32964 -7.893902,2.63884 -1.600043,0.678 -4.398028,2.36498 -6.473363,2.45259 -1.718962,0.69042 -6.151316,1.35665 -7.34165,-1.09544 1.648289,-2.93488 5.167003,-4.79057 7.690726,-7.1427 4.276214,-2.18874 4.086271,-4.64287 3.528293,-8.75728 0.638281,-4.16929 2.488175,2.61829 4.098009,3.34479 3.013872,3.95812 8.202503,4.18268 10.765791,8.56622 4.96349,5.93246 10.552138,11.43906 15.263593,17.74056 4.600954,3.00685 6.281873,11.12983 12.08546,11.22029 5.101705,-0.32117 10.742105,-1.8895 14.150668,-5.91453 2.299491,-9.88698 2.658459,-20.13899 3.665162,-30.20971 -0.538208,-4.40738 3.196854,-7.73573 3.156179,-12.24946 -1.188675,-6.37823 4.694678,-2.75854 2.757871,1.79229 3.788198,0.20332 9.876536,-4.27186 12.870396,0.15517 -1.70596,4.49362 -7.638857,6.41748 -12.113795,7.54276 -6.405583,-0.23006 -2.691288,8.73412 -4.648764,12.71089 -0.620606,5.68762 -0.702331,12.89061 -2.611385,18.91646 2.776094,4.07241 5.725267,8.28644 6.947869,13.06132 2.990535,6.79826 4.147253,15.01498 4.167635,22.67762 -1.032124,7.39198 -0.369021,4.91388 -1.032124,7.39198 z m 44.031487,-1.16172 c 5.5513,-4.91821 6.48089,-12.91094 7.223,-19.89656 -0.99887,-4.81787 2.08893,-14.09941 -5.59972,-13.38506 -5.39715,-1.35649 -10.26376,-4.67305 -13.14624,-9.46641 -2.76128,-3.69027 -5.28455,-7.60856 -7.51175,-11.58407 -4.78223,2.74234 -10.23412,4.02561 -15.708379,4.04243 -2.835205,-1.59388 1.066637,-3.54834 2.507721,-4.73848 2.049128,-2.25416 6.261658,-2.97932 7.356198,-5.60212 -3.11901,-6.22638 2.04865,-1.73077 3.99893,0.96941 6.12929,0.81704 6.20733,7.53766 9.62818,11.36697 3.29051,4.91293 6.60674,10.16647 12.37941,12.45017 3.4644,2.37686 6.29618,0.55675 9.84858,-0.14116 4.24813,-1.17801 9.46971,-0.79232 12.96092,-3.41163 8.08675,-9.90008 16.21751,-19.75876 23.98427,-29.89406 1.15494,-3.57616 6.37445,-5.45942 7.4421,-9.71116 0.53695,-6.38676 5.55999,-3.06787 2.6673,1.66343 2.9254,0.0706 14.38205,-2.7741 10.75761,3.22242 -3.3859,2.64863 -7.79609,3.68751 -11.66601,5.32033 -3.12859,1.23283 -7.03847,-0.28101 -8.66195,3.58122 -7.12442,9.13397 -14.66739,18.05548 -22.19096,26.93467 -3.28947,2.09322 1.08309,5.38711 0.53019,8.1823 2.72692,10.62859 -0.20464,22.22567 -6.9451,30.693 l -3.50238,-0.64004 c 0.0926,-2.27069 1.6685,-2.92838 2.83807,-4.99474 2.21566,-3.04982 2.90327,-6.28998 4.06984,-9.92232 1.54294,-6.54547 0.91912,-13.44194 -1.29082,-19.76927 -3.87567,0.65815 -9.36225,0.66313 -12.50674,2.73086 1.56475,7.31106 1.66883,14.98767 -0.71839,22.11926 -0.94995,5.85588 -2.29159,7.37568 -5.70292,10.94255 z m 66.18997,-75.63516 c -3.0296,-1.05767 -6.78845,1.14117 -10.11228,0.86116 -3.04028,2.76133 -4.85386,5.64287 0.3798,3.50969 3.21941,-1.30971 7.20619,-2.31239 9.73248,-4.37085 z m -86.32261,18.29012 c -3.01153,-2.48912 -5.45209,1.66848 -8.17092,2.65201 -4.632879,3.20251 2.8139,1.35962 4.40028,0.19414 0.97943,-1.03778 3.84976,-1.17392 3.77064,-2.84615 z m -4.54585,-2.67062 c -0.34031,0.36501 0.3516,0.24329 0,0 z M 96.838737,206.1661 c -3.257599,-0.22994 -6.073333,1.72346 -9.129676,1.91569 -3.291003,4.26905 2.295687,2.81143 4.631975,1.48295 1.598808,-0.71338 4.24558,-1.42561 4.497701,-3.39864 z m -10.576734,4.79008 c 0.05339,0.50087 0.56374,0.17339 0,0 z m -0.148781,0.26735 c -0.09792,0.39595 0.334782,0.0137 0,0 z m -0.205247,-0.3298 c -0.168464,0.38056 0.309461,0.3707 0,0 z m -46.149346,15.57202 c -0.340532,0.24251 0.340532,0.24251 0,0 z m -6.229211,-6.90574 c -0.199534,0.376 0.214003,0.0887 0,0 z m -0.03754,-0.2631 c -0.347043,0.11501 0.338124,0.23414 0,0 z m -5.409732,0.78499 c -2.208425,-3.05524 -4.708811,-0.76006 -6.862765,0.81292 -1.223625,1.54896 -2.717458,2.01124 -3.707883,3.22326 -4.750609,2.68037 -1.982983,3.61198 2.835467,1.46363 2.81783,-1.07623 5.655979,-2.95437 8.110638,-4.96601 l -0.375595,-0.53397 z m -1.159725,-1.18217 c 0.04116,0.18282 0.416182,-0.13606 0,0 z m -4.207523,-9.0848 c -0.503433,0.43252 0.485595,0.17148 0,0 z M 150.94918,241.1278 c 0.57414,4.05466 -4.30765,7.30194 -7.69474,4.70028 -4.19434,-3.6916 -4.81152,-10.81074 -2.00677,-15.38211 5.09982,-4.11238 10.15206,3.01587 9.5335,7.95527 0.0429,0.90613 0.27675,1.81561 0.16801,2.72656 z m -2.84766,-3.0147 c -0.566,-1.7013 -3.13392,-9.62413 -4.54512,-4.7713 -1.38585,2.69343 1.35975,14.88173 4.3436,9.23406 0.24526,-1.3909 0.23181,-3.00388 0.20152,-4.46276 z m -71.30613,4.25705 c -1.100838,4.55275 -8.27617,6.19048 -11.014732,2.08534 -4.508054,-4.06957 -5.453887,-11.92453 -0.90411,-16.24486 3.162527,-1.94436 7.832571,-1.89386 9.201198,2.0838 1.839254,3.53942 2.737402,7.93091 2.717644,12.07572 z m -0.765694,-6.21932 c -0.347043,0.11501 0.338124,0.23414 0,0 z m -2.110597,5.1347 c 0.403446,-3.49593 -0.761554,-6.09656 -2.176731,-9.06512 -0.465588,-3.01711 -4.657583,-4.85829 -5.650066,-1.20244 -1.758565,5.07244 0.811359,12.00557 5.829332,14.08564 1.481646,-0.39474 2.079289,-2.44072 1.997465,-3.81808 z m -2.280895,-13.77381 c -0.307665,0.36738 0.638855,0.0869 0,0 z"
       id="path827" />
  </g>
</svg>
