<?xml version="1.0" encoding="UTF-8" standalone="no"?>
<!-- Created with Inkscape (http://www.inkscape.org/) -->

<svg
   width="800"
   height="600"
   viewBox="0 0 211.66666 158.75"
   version="1.1"
   id="svg8">
  <g
     id="layer1"
     transform="translate(0,-138.24998)">
    <path
       style="fill:#1c1e21;stroke-width:0.99999994"
       d="m 207.13982,151.65035 c -1.97691,15.85874 -2.99781,31.86682 -3.855,47.85322 -0.3315,10.67953 -0.92006,21.45832 -0.97965,32.14964 0.4666,12.14515 -0.42226,35.17024 -0.2216,47.21959 -1.27467,1.93968 -4.09288,3.585 -6.42122,3.2904 -10.24373,2.6422 -20.5601,1.43504 -31.0798,1.69589 -7.12539,0.0172 -14.2,-0.95862 -21.24656,-0.0553 -17.15103,0.30784 -34.14512,-0.22469 -51.32517,0.82154 -16.350711,1.54497 -32.739479,-0.75093 -49.141496,0.30233 -11.220782,0.75586 -22.519497,2.18434 -33.827691,2.41903 -2.9759994,-2.14194 -3.4152039,-6.33121 -4.0834218,-9.71941 -1.3325739,-20.95404 0.702017,-41.95254 -0.1725148,-62.92121 -0.474223,-18.09341 2.1448145,-36.00305 4.0063656,-53.94736 1.316567,-3.52971 -0.2494343,-4.95451 2.870501,-7.29778 5.603384,-2.85251 12.656759,-0.94633 18.805544,-1.60084 26.903012,-0.56137 53.817924,-1.59484 80.727983,-1.76321 22.99147,-0.72482 46.0214,-2.28595 69.07676,-2.19961 8.40314,-0.10055 16.88221,-0.58051 25.2191,0.61753 1.10986,0.6639 1.87805,1.79114 1.64787,3.13555 z m -6.00807,0.19088 c -7.05251,-1.19969 -14.53116,-0.2587 -21.6122,-0.52721 -12.18015,0.42267 -24.23534,0.39733 -36.38854,1.26641 -12.56673,0.50591 -25.06605,1.28226 -37.56967,1.58791 -4.95457,-0.13489 -10.177374,0.56653 -15.26614,0.0604 -7.134911,0.6511 -14.004657,0.25071 -21.081502,0.88402 -6.968115,-0.0386 -14.087671,0.549 -21.06192,0.53823 -11.470589,0.821 -22.971357,0.65826 -34.45247,1.12524 0.04406,4.45812 -1.465792,9.21244 -0.856602,13.56793 14.307636,-3.02979 29.160511,-1.93907 43.659852,-3.71406 21.069443,-0.9215 42.180968,-1.8744 63.250882,-1.3691 26.52813,0.7006 53.08361,-0.0142 79.61987,-0.097 1.67307,-3.24657 1.23806,-7.50069 1.86363,-11.14943 -0.0403,-0.7261 0.30794,-1.48637 -0.10519,-2.17333 z m -1.69651,17.73825 c -1.19762,-2.33709 -7.68853,-0.63697 -10.93385,-1.01797 -23.52672,0.14147 -47.01149,1.17691 -70.54133,0.28593 -16.20986,-0.1073 -32.490765,-0.0372 -48.552791,1.05775 -14.992604,0.25216 -29.929651,2.33207 -44.941879,2.65891 -3.663401,1.8663 -11.482702,-1.97735 -12.496763,2.39078 -2.523294,18.23277 -1.893781,36.76971 -1.668101,55.06813 -0.3967068,15.15256 -1.2922968,30.43643 0.02276,45.56905 0.357804,4.95553 3.353762,7.44459 8.36011,5.51448 22.197317,-1.33686 44.37509,0.61151 66.554309,-0.93106 19.039835,-1.27129 38.027415,-0.58608 57.142845,-0.80298 6.44093,0.60086 12.70351,-0.35638 19.19682,0.60648 11.59617,-0.57755 23.61701,1.88551 34.7073,-1.53971 -0.0222,-10.78751 0.60024,-32.87736 0.32787,-43.38739 -0.1051,-17.41061 0.83722,-34.83293 1.95358,-52.17727 0.36599,-4.4121 0.72908,-8.8684 0.86912,-13.29513 z M 9.948308,203.61196 c -0.1278711,0.24175 0.137979,0.0565 0,0 z"
       id="path827" />
    <path
       id="path830"
       d="m 191.33047,155.57103 c 0.27072,3.96582 -5.13424,4.31937 -6.89486,7.16895 -2.08882,3.84562 -5.27354,0.79117 -6.20042,-1.79561 -2.27965,-4.20768 1.84844,-4.80673 3.41565,-1.25109 2.56886,-0.83838 9.78508,-9.94396 9.67974,-4.12152 z m -8.68765,54.17628 c -0.6104,4.17519 -4.95092,4.06112 -8.30638,4.38817 -5.71725,0.37807 -5.84136,4.34837 0.24851,2.2937 4.53711,1.28113 2.05168,6.79447 0.94893,9.85035 -1.55614,3.11156 -5.51737,7.32525 -8.9767,5.09166 -2.41923,-3.93739 7.29687,-2.42344 6.86729,-7.29727 1.58444,-6.8961 -7.38651,-0.58605 -9.67734,-2.16083 -0.18098,-2.91116 4.60414,-5.28467 4.51141,-8.87955 0.49096,-2.32718 4.71184,-2.95789 7.01404,-3.5154 2.17195,-0.19096 5.7534,-0.95983 7.37024,0.22917 z m -19.72653,16.46315 c -0.58075,4.04846 -4.38995,10.29592 -9.09255,7.65012 -5.06837,-3.73377 -1.94688,-10.45789 0.0302,-15.00075 0.1664,-2.41228 6.23239,-11.83691 5.25437,-6.00536 0.3715,2.54467 -4.31164,6.38236 -0.18587,6.76391 2.30622,1.11324 4.79499,3.84682 3.99383,6.59208 z m -3.25202,-0.4194 c -1.09813,-3.40331 -6.95644,-3.05247 -5.03351,1.5972 1.1517,3.93468 5.95952,1.85595 5.03351,-1.5972 z m -9.95145,-15.14311 c 1.02371,4.49715 -7.12631,6.85699 -4.43859,10.73021 3.41921,3.48097 4.83602,9.7439 0.26825,12.95257 -2.26514,2.39395 -8.81625,-1.08289 -4.62965,-3.44486 2.79108,-0.30085 5.12961,-1.15526 2.46977,-3.98541 -2.44038,-2.97719 -3.66488,-7.54069 -0.31507,-10.4739 4.34756,-4.50386 -3.28628,0.67275 -4.69176,-1.51775 -1.76637,-3.49209 4.70697,-4.72716 7.2663,-5.48591 1.12076,-0.0971 5.13566,-1.21247 4.07075,1.22505 z m -20.63537,10.36724 c -0.87805,1.48759 3.36684,-1.10624 -3.08198,5.72153 2.18766,2.97045 1.58708,8.11039 -2.29583,3.1752 -1.35583,-0.97349 -6.4489,4.62428 -4.79556,-1.08224 3.69985,-1.68918 1.85305,-4.0437 0.35966,-6.29033 -1.64034,-1.61921 3.22215,-4.91724 3.75518,-2.0535 1.85338,6.09883 3.53258,-0.0838 6.05853,0.52934 z m -25.0022,-9.05443 c -0.96871,4.2733 -3.96231,10.08839 -1.04961,11.32319 -3.187375,1.7623 -3.764161,0.84705 -4.137959,3.66885 -1.244859,2.23687 -0.619126,6.69021 -3.499876,7.35767 -2.991107,-3.76608 2.809527,-9.004 -3.048355,-10.55784 2.028557,-0.83491 10.0196,-3.79359 5.581863,-7.38898 -2.910019,-0.1266 -7.56645,2.33728 -8.708284,-1.66686 3.068376,-4.42713 8.986663,-2.95326 13.547281,-3.55314 0.93692,-0.53035 1.17076,0.27596 1.31494,0.81711 z m -27.888691,11.27445 c 4.644572,1.12031 -3.789563,4.33095 -2.624243,6.78366 2.791374,3.94242 0.05414,6.00263 -1.714231,2.96924 -0.75204,-3.26293 -7.458428,5.2576 -5.769903,-1.65166 6.565128,-2.46708 -2.186353,-7.1166 1.870019,-9.91179 2.371652,-2.72037 2.8859,5.74507 5.274381,3.37543 0.501616,-0.35869 3.293133,-2.64098 2.963977,-1.56488 z m -24.137987,-7.46095 c -0.171155,5.76688 -1.070658,11.587 -3.127504,16.92165 -3.824486,-0.24883 0.784843,-7.74918 -5.124484,-4.85969 -5.624117,-2.16226 -2.833487,-8.6731 -1.197862,-12.70052 1.024813,-4.15955 4.180013,-5.44086 3.250409,-0.58758 -0.725742,2.84588 -4.351076,8.79493 1.407067,8.3431 1.989277,-0.47867 1.07895,-8.71605 4.792374,-7.11696 z m -12.359397,-0.74629 c 0.692905,4.50496 -3.86286,6.57252 -5.44586,10.17646 -4.870426,4.67114 0.969707,7.31218 4.85447,6.02474 -0.537536,2.99514 -2.503058,6.48318 -6.373367,5.4918 -5.716168,-1.09243 -4.515945,-7.79793 -1.630826,-11.07656 1.769348,-2.95928 5.018129,-5.28455 5.550349,-8.83042 -3.158951,-1.18263 -6.932425,5.6105 -8.297335,0.75771 1.014339,-3.63314 12.081867,-10.03606 11.342569,-2.54373 z"
       style="fill:#4285f4;fill-opacity:1;stroke-width:0.99999994" />
  </g>
</svg>
