<?xml version="1.0" encoding="UTF-8" standalone="no"?>
<svg
   id="svg8"
   version="1.1"
   viewBox="0 0 211.66666 158.75"
   height="600"
   width="800">
  <g
     transform="translate(-79.374999,-138.24998)"
     id="layer1">
    <path
       id="path826"
       d="m 98.175902,286.48984 c 0.776119,-2.14253 8.170668,-1.45445 11.693448,-2.17959 6.49101,-0.27416 13.09112,-0.46996 19.6221,0.11764 2.35582,-7.26136 0.1841,-14.98786 0.45409,-22.40046 9.89961,-1.19529 19.77857,-2.91584 29.78758,-2.83399 -0.8899,-7.78808 -0.0995,-15.70081 -1.48145,-23.43704 7.49956,0.68909 15.1196,-0.0916 22.66101,0.42869 5.1204,-0.17587 12.45083,1.72057 9.42682,-6.05976 1.17093,-5.05034 -2.46496,-15.38373 0.59729,-17.57364 8.20525,-0.38667 16.50722,-0.42719 24.68517,-0.36437 3.77225,0.35321 10.12517,0.60159 2.62452,-1.91507 -4.404,-0.67435 -8.13431,-5.94642 -1.47091,-2.9125 3.40185,2.7653 9.37947,3.00786 11.06975,6.98208 -3.21502,2.68267 -6.44107,5.36558 -9.575,8.13573 -11.55004,1.1175 7.65438,-8.90721 0.65657,-8.1698 -8.22698,-0.22831 -16.89912,-0.73561 -24.84761,0.23282 0.63261,7.70032 0.70091,15.83682 0.71952,23.33541 -10.56965,0.0215 -21.13589,-0.64508 -31.70598,-0.27666 0.68684,7.72798 0.32192,15.48374 1.15059,23.2279 -9.96509,-0.26953 -19.91031,1.09766 -29.75047,2.26331 0.0816,7.51637 1.79016,15.55312 -0.52392,22.80987 -8.29997,-0.14109 -16.74506,-1.0236 -25.13634,-0.19845 -3.54951,0.27419 -7.09177,0.83121 -10.656778,0.78788 z m 5.445678,-1.85179 c -6.853452,-2.14277 -13.362065,-6.20893 -17.344892,-12.33549 1.28726,-0.98016 3.630107,-1.88435 4.338727,-3.92738 4.236628,-4.60322 7.054574,-10.64032 6.414811,-17.0597 0.223181,-7.56384 -1.110526,-14.90663 -0.736342,-22.61338 0.545251,-7.48502 2.92866,-15.89915 9.450316,-20.30476 3.66198,-1.51303 9.8863,-1.52076 10.74684,3.31735 1.94433,4.76853 3.20425,9.81953 2.34435,15.04454 0.0802,1.90409 0.0471,3.81665 -0.54559,5.64082 6.62338,2.07536 10.29649,9.15021 13.05179,14.84859 1.60801,3.06297 1.66849,5.32682 2.16735,8.90455 0.83012,2.41248 5.11,-2.59923 7.01074,-3.21156 0.76149,-2.62769 8.08926,-3.56482 6.14516,-0.86578 -4.07164,3.75307 -9.10096,6.4602 -14.09425,8.70799 -5.01454,2.42019 -7.21605,-4.3772 -11.45417,-6.04957 -2.10121,-1.24092 -5.12091,-3.02011 -7.22043,-2.51029 -0.32154,5.91193 -4.71232,11.12078 -9.03718,15.01322 -3.55947,2.43576 -6.75146,5.57112 -10.867739,7.06262 2.832933,3.77864 7.691989,5.5882 11.933589,7.32438 2.95296,0.4626 -1.35723,2.02825 -1.92976,2.93391 l -0.37332,0.0801 z M 93.030896,273.12004 c 3.709625,-1.97646 6.701393,-4.33567 9.903264,-6.87842 2.6209,-2.50222 4.55531,-5.08563 6.25381,-8.53314 0.87397,-2.40049 2.32388,-5.31501 0.41245,-7.56673 0.51289,-1.00158 1.53658,-1.69772 3.07708,-1.39719 2.70776,1.02408 6.5067,0.63284 9.38472,2.15776 2.73115,1.11487 5.14196,3.79048 7.40095,4.81228 -0.23996,-3.41637 -1.46837,-6.44367 -2.98708,-9.51299 -1.58483,-3.48518 -3.69891,-6.41618 -6.56285,-9.30973 -1.50253,-1.60862 -2.77002,-1.40036 -4.06341,-2.75448 -2.40946,-1.02598 -1.23507,-4.30412 -1.51099,-6.37651 0.52237,-5.3806 -0.4199,-11.19633 -2.42965,-16.46223 -1.71367,-2.18486 -5.89092,-2.21844 -7.13228,0.61239 -2.44808,2.56764 -2.92991,6.30017 -4.08708,9.54872 -0.64712,3.7314 -1.20687,7.17836 -0.27881,10.82198 -0.15623,1.58836 -0.34614,3.28919 -0.2197,4.76569 -0.543101,2.42597 1.08549,2.47357 1.58424,4.42989 1.33235,2.47881 -0.74639,5.20875 0.0448,7.68783 0.0966,5.34419 -0.30146,10.983 -3.662315,15.30847 -0.762342,1.79911 -3.518154,3.92536 -4.553369,5.62404 -0.635557,1.26493 -3.683592,2.22339 -0.573723,3.02237 z m 5.076592,-8.51371 c 0.303373,-0.0987 0.02921,0.13219 0,0 z m 14.871862,-15.74452 c 0.0598,-0.36504 0.16403,0.36263 0,0 z m -2.48799,-38.13855 c -0.7075,-1.34488 0.24858,0.45827 0,0 z m -1.90056,-0.66808 c 0.17045,-0.24619 0.0836,0.25269 0,0 z m 22.28838,36.14523 c 0.17657,-0.24794 0.17657,0.24793 0,0 z m -4.72968,-7.85842 c 0.0753,-0.17392 0.14893,0.30861 0,0 z m -7.39354,-6.00816 c 0.13543,-0.15632 0.15024,0.38128 0,0 z m -11.88238,-33.29791 c -5.90187,-3.94706 -5.88207,-12.05441 -3.52089,-17.9583 0.97068,-6.5129 10.95966,-8.00261 14.35858,-2.46468 2.60809,5.09824 1.22976,11.44561 -2.00748,15.98857 -1.96294,2.63613 -5.61964,4.3822 -8.83021,4.43441 z m 3.46008,-3.0751 c 1.40581,-3.07959 3.47203,-5.81325 3.61476,-9.64738 0.47039,-3.26092 -0.0973,-7.15906 -3.35345,-8.62696 -2.04197,-1.69455 -2.21564,2.01679 -2.75765,3.26727 -2.27006,4.77803 -1.51253,11.29004 2.26335,15.16395 l 0.23308,-0.15688 z m 8.07092,-6.63896 c -0.0836,-0.25268 -0.17045,0.24619 0,0 z m -2.89556,5.88597 c 0.15904,-0.20748 0.15904,0.20748 0,0 z m 0.995,-1.7393 c 0.17045,-0.24619 0.0836,0.25269 0,0 z m 1.00211,-2.00422 c 0.17044,-0.24619 0.0836,0.25266 0,0 z"
       style="fill:#000000;stroke-width:0.99999988"
       />
    <path
       style="fill:#4285f4;fill-opacity:1;stroke-width:0.99999988"
       d="m 228.84436,246.23021 c -5.43726,-0.0768 -10.80502,-2.10093 -14.55051,-5.9043 -9.06618,0.81937 -15.87171,-7.63039 -16.23855,-16.12173 0.32675,-5.59224 6.40344,1.12798 5.29251,4.9257 1.26411,4.26059 4.51279,8.80645 8.91526,9.77592 5.29163,-1.67632 7.70816,3.23937 11.72637,5.1945 6.24806,1.6665 13.89944,0.073 18.64204,-4.48569 3.89985,1.23214 7.54829,3.65908 11.90812,1.64247 5.77424,-1.66671 10.91823,-6.97211 10.54488,-13.24121 6.3109,-2.38718 13.97346,-5.88791 15.11428,-13.39931 0.68145,-5.2934 -0.23983,-11.57476 -4.71674,-14.95053 1.21734,-6.42974 3.65526,-14.0716 0.21972,-20.27236 -2.45166,-4.13941 -7.49289,-6.7657 -12.15529,-5.46721 -4.19448,0.10352 -3.4519,-3.58027 -4.66576,-6.41555 -2.1085,-5.64361 -5.43444,-12.58834 -12.04412,-13.56993 -4.57325,-0.77454 -8.48014,4.62708 -12.51643,1.92856 -2.77187,-4.82184 -10.56739,-7.12839 -14.44668,-2.13998 -3.35182,2.47048 -5.06586,6.47208 -7.58801,9.61423 -3.50087,1.79886 -7.46653,5.36307 -10.10947,8.9121 -3.04892,5.60757 -6.14791,13.10654 -2.35462,19.05143 1.70807,3.03198 -5.41458,6.89032 -4.26115,11.52577 -0.28683,3.8671 5.19304,7.97209 -1.51094,6.36284 -5.38452,-4.88179 -2.39918,-12.94827 1.72542,-17.55798 -4.39774,-6.56565 -1.28998,-15.25018 2.48798,-21.35574 2.41631,-5.05758 8.57991,-6.16999 11.12691,-10.5603 3.692,-5.40268 8.87419,-12.68419 16.47034,-10.59859 3.65611,0.73343 7.09916,2.38697 10.0825,4.52752 7.53789,-4.26676 17.04229,-0.79156 21.9707,5.71366 2.67506,3.50396 4.41772,7.65448 5.69346,11.84781 7.42479,1.48858 15.78187,6.02071 17.26551,14.06245 0.65853,5.23418 -0.0958,10.66653 -1.65275,15.54571 5.74246,5.64211 6.66823,15.97578 1.66604,22.38492 -3.23452,3.24564 -7.61214,5.11778 -11.84079,6.5607 0.41556,9.40695 -10.42184,15.55625 -18.91008,13.57267 -4.49546,-2.51141 -7.41691,1.6009 -11.71826,2.20262 -3.14504,0.6832 -6.36111,0.93337 -9.57189,0.68883 z m -55.39938,-42.68417 c -6.20059,-2.02322 -1.64585,-11.93661 4.66501,-8.86165 5.36413,0.79677 0.87081,4.68313 1.1011,7.56127 -1.35942,1.97532 -3.79198,1.21651 -5.76611,1.30038 z m 1.79911,-1.74608 c 0.0458,-1.51743 2.65225,-5.42009 1.5788,-5.52914 -2.27753,0.75718 -2.06723,0.0268 -3.69531,1.91283 1.52697,-1.251 -0.78275,1.29061 1.36784,2.8871 0.31215,0.23634 -0.0134,1.18427 0.74867,0.72921 z m -1.13008,-4.40936 c 0.49767,-0.77733 -0.17451,-0.48248 0,-1e-5 z m -1.34892,1.45133 c -0.12097,0.0691 0.11217,0.38058 0,0 z m 7.92836,-2.45345 c -0.413,-1.12714 -0.16138,0.76227 0,0 z m -24.08702,0.60281 c -3.49241,1.47306 -8.52378,-3.36187 -4.72841,-6.10325 4.9728,-2.22632 4.3874,2.06783 6.32872,4.57873 0.38615,0.97207 -0.88967,1.46374 -1.60031,1.52452 z m -1.57837,-1.98302 c -1.00062,-2.83415 -3.02809,-2.61993 -0.80477,0.0857 0.15104,0.32681 0.28748,0.76984 0.80477,-0.0857 z m -1.4959,-2.64552 c -0.0836,-0.25268 -0.17045,0.2462 0,0 z m -0.19246,-0.23267 c 0.12937,-0.66495 -0.58211,0.26653 0,0 z m -16.37086,-1.22705 c -4.71977,1.3784 -4.04932,-5.18556 -0.0637,-2.79068 -0.35813,0.78203 4.73974,2.46776 0.0637,2.79068 z"
       id="path814"
      />
  </g>
</svg>
