<?xml version="1.0" encoding="UTF-8" standalone="no"?>
<!-- Created with Inkscape (http://www.inkscape.org/) -->

<svg
   width="60mm"
   height="90mm"
   viewBox="0 0 60 90"
   version="1.1"
   id="svg8">
  <g
     id="layer1"
     transform="translate(0,-207)">
    <path
       style="fill:#151515;stroke-width:1"
       d="m 12.828402,291.772 c -0.923714,-1.8417 -1.202116,-3.86599 -1.255303,-6.00963 -0.259671,-3.63662 -0.49919,-7.31372 -0.0131,-10.96766 0.629077,-3.23498 2.048119,-6.22515 3.94813,-8.8932 1.687524,-2.96575 3.645449,-5.78358 5.771219,-8.45601 1.595343,-1.46677 3.336481,-3.77904 5.540031,-3.91101 0.51182,2.21754 -2.774267,3.37479 -3.579316,5.45203 -0.860101,1.41684 -2.074606,2.60884 -2.818119,4.08055 1.230301,0.30917 3.283834,-2.41747 4.038235,-0.7329 -0.65594,1.84788 -1.076519,4.29487 -3.36336,4.63806 -1.439339,1.02307 -3.854707,1.18405 -4.56877,2.92503 -0.338721,0.96234 -2.304888,5.53688 -0.469093,4.34909 3.328091,-0.97639 7.498971,-2.52056 10.869425,-3.24282 1.085728,1.55694 -0.982108,3.62975 -1.785609,4.97895 -3.027178,0.94847 -7.074506,2.04761 -9.988246,3.26808 -0.0209,2.33515 -0.456622,6.49362 2.834792,4.43963 2.926806,-0.66734 5.846236,-1.48708 8.829131,-1.80483 1.143118,1.37201 -1.187721,4.33611 -2.38561,5.02393 -2.612389,0.5019 -5.319974,1.01204 -7.80459,1.85638 1.043041,2.41439 -1.969112,2.65751 -3.57541,3.23425 -0.08485,-0.0649 -0.141464,-0.16095 -0.22444,-0.22792 z m 24.41497,-44.6826 c -2.376663,0.26877 -0.779981,-1.74306 -0.13179,-3.00408 0.498999,-1.58717 4.277161,-3.81867 2.8433,-4.99138 -1.502612,0.11806 -5.712624,3.05383 -5.7655,0.61331 0.79588,-2.53055 3.237554,-3.5838 5.48794,-4.51027 2.091297,-0.69688 3.306143,-1.84128 3.395048,-4.3237 0.876648,-2.19333 -2.348376,-0.32569 -3.373278,-0.11337 -1.31451,0.34873 -4.193444,2.25207 -4.87079,0.59482 0.805684,-2.30985 2.628485,-3.76506 4.84902,-4.65145 2.020814,-1.4684 6.053789,-1.16927 4.756147,-4.77368 0.01771,-2.6823 -3.201061,-0.25734 -4.684037,-0.10789 -1.721388,0.50399 -3.560286,1.71821 -5.316286,0.90553 1.279679,-1.61844 1.950593,-4.0054 3.963156,-4.85924 2.115319,-1.30722 5.382177,-1.01747 5.504677,-3.7611 1.47327,-1.16063 4.438165,-3.68666 4.056255,0.13861 0.618607,4.35784 1.331192,8.84608 0.0462,13.16313 -0.96616,3.81975 -2.05731,7.64051 -3.638869,11.25201 -1.117098,1.77226 -2.089752,3.52076 -2.936322,5.43546 -0.766618,1.78142 -2.802665,2.11043 -4.184875,2.99329 z m -3.07455,-24.29541 c 0.230771,-0.19535 0.225359,0.0168 0,0 z"
       id="path830"/>
    <path
       id="path834"
       d="m 42.610711,288.07742 c -0.803613,-1.48714 0.909937,-4.05374 -1.737659,-2.95828 -3.46264,-0.17837 -6.77078,1.29529 -10.19034,1.4458 -2.817554,-0.33066 0.267139,-2.43182 0.77235,-3.64845 1.835571,-2.07314 5.046739,-1.65157 7.534212,-2.40854 2.025879,-0.34976 5.024753,-0.0963 3.700018,-3.00991 -0.236949,-1.0868 -0.03697,-5.40768 -1.629385,-4.03239 -3.024791,0.11313 -6.358489,1.54629 -9.373092,1.56379 -2.584247,-0.20171 -0.351589,-2.93732 0.276407,-4.04338 2.067799,-1.17734 6.138994,-1.32962 8.36489,-2.09037 -0.08399,-1.61775 -1.566004,-3.21561 -2.31312,-4.778 -0.892287,-3.14279 -5.027033,-0.32388 -7.252923,-0.14774 -2.017374,1.18683 -4.600105,-0.29103 -2.326827,-2.2244 0.779727,-1.77287 4.039076,-2.13538 5.75124,-2.79807 -0.452281,-1.49611 -1.931904,-2.76097 -2.81971,-4.16741 -1.117475,-1.7965 -2.227769,-3.42708 -3.78617,-4.72563 -1.571076,-2.31959 -3.695456,-4.25595 -5.06466,-6.78269 -1.093682,-1.47688 -2.38824,-2.99828 -3.19298,-4.76464 -0.920063,-1.5616 -1.318627,-3.50175 -2.40075,-4.87359 -2.020333,-4.62805 -2.923476,-10.323 -0.39297,-14.94154 0.600783,-2.76992 2.566317,-4.70682 4.822073,-6.19811 1.881929,0.37081 -0.342796,3.66313 -0.803833,5.01675 -0.439828,1.18581 -2.184009,5.17541 0.46929,3.81424 2.525761,-1.20478 5.479699,-1.52218 8.24629,-2.09713 0.980269,0.56413 2.959762,-0.26626 1.75417,1.7899 -0.533637,2.83507 -2.447054,3.96232 -5.21484,3.91456 -1.772832,0.79614 -5.51271,0.41627 -5.63974,2.5841 0.638851,1.87065 1.261395,6.14107 3.82027,3.71694 2.357374,-1.35066 5.056477,-2.29487 7.733648,-2.57968 1.02604,1.28965 -0.821299,3.11147 -0.981944,4.6409 -2.256354,0.78721 -4.795383,0.90133 -6.867604,2.22251 0.654109,1.80046 1.944295,3.69392 3.315555,5.09679 1.611823,-0.66852 5.885133,-3.46812 4.317295,0.2422 -0.04824,2.35272 -3.476682,2.72158 -0.74738,4.64705 3.857891,4.59174 7.508215,9.42286 10.893608,14.37976 2.254462,3.51102 4.1391,7.27715 4.877736,11.40198 0.810282,4.47641 0.997301,9.1625 0.03523,13.63071 -0.747727,1.36834 -2.459302,2.70328 -3.948355,3.16197 z"
       style="fill:#4285f4;fill-opacity:1;stroke-width:1" />
  </g>
</svg>
