<?xml version="1.0" encoding="UTF-8" standalone="no"?>
<!-- Created with Inkscape (http://www.inkscape.org/) -->

<svg
   width="700"
   height="300"
   viewBox="0 0 700.00001 300.00001"
   id="svg2"
   version="1.1"
  >
  
  <g
     id="layer1"
     transform="translate(0,-752.36216)">
    <path
       style="fill:#151515;fill-opacity:1"
       d="m 653.86205,984.32012 c -0.40527,1.7212 -0.95973,2.63541 -1.98312,3.26993 -0.51622,0.32006 -1.07938,0.63642 -1.25145,0.70301 -0.17207,0.0666 -0.68829,0.29802 -1.14716,0.51428 -0.98426,0.46385 -2.79104,0.981 -3.96291,1.13428 -1.55268,0.20309 -2.29286,0.35063 -2.71147,0.54047 -1.1966,0.54264 -5.02554,0.24337 -6.88296,-0.538 -0.98397,-0.41394 -2.78843,-1.68355 -3.2329,-2.27469 -0.69559,-0.92511 -1.22813,-2.03023 -1.6795,-3.48534 -0.39704,-1.27993 -0.47591,-2.00799 -0.47853,-4.41697 -0.002,-1.93004 0.0752,-2.93284 0.23363,-3.03076 0.13022,-0.0805 0.22804,-0.33115 0.21741,-0.55704 -0.022,-0.46509 0.49611,-3.13957 1.08957,-5.62509 0.57831,-2.42209 1.14448,-3.82528 1.72894,-4.285 0.39098,-0.30756 0.57194,-0.74045 0.75818,-1.81382 0.27968,-1.61199 0.76762,-2.27651 1.81601,-2.47319 0.38443,-0.0721 0.74628,-0.2077 0.80415,-0.30131 0.12823,-0.20747 2.94874,-0.30527 7.81603,-0.271 6.06846,0.0427 5.4268,-0.0687 6.55204,1.13806 0.90994,0.97591 0.9609,1.08576 0.65858,1.41981 -0.38506,0.42547 -0.42064,0.88281 -0.0941,1.20938 0.17239,0.17238 0.0252,0.29111 -0.56186,0.45321 -0.43748,0.12079 -0.84001,0.17504 -0.89451,0.12053 -0.0545,-0.0545 -0.26956,0.0552 -0.47791,0.24375 -0.29486,0.26684 -0.63368,0.31651 -1.52908,0.22409 -0.63266,-0.0653 -1.15028,-0.0416 -1.15028,0.0527 0,0.0943 -0.21118,0.17385 -0.4693,0.17679 -2.27093,0.0259 -8.91207,0.28775 -9.28448,0.36605 -0.45169,0.095 -0.45849,0.12583 -0.15643,0.70995 0.37989,0.73463 0.39606,1.13564 0.0702,1.74009 -0.13511,0.25058 -0.26595,0.64331 -0.29078,0.87274 -0.0248,0.22943 -0.11615,0.91908 -0.20296,1.53254 -0.11411,0.80637 -0.0863,1.15965 0.10047,1.27508 0.29514,0.18238 7.0722,0.11019 7.25973,-0.0774 0.0677,-0.0677 1.04025,-0.12308 2.16118,-0.12308 1.96505,0 2.06224,0.022 2.71095,0.61455 0.58839,0.53741 0.66828,0.7356 0.63637,1.57899 -0.077,2.03505 -0.93573,2.60367 -3.93222,2.60367 -0.78166,0 -1.74205,0.092 -2.13426,0.2045 -0.39218,0.11249 -1.04856,0.22214 -1.45863,0.24369 -0.41007,0.0215 -0.82238,0.0798 -0.91624,0.12945 -0.0939,0.0497 -0.75087,0.12835 -1.46002,0.17488 -2.66151,0.17461 -3.30515,0.26777 -3.61253,0.52287 -0.25527,0.21185 -0.35001,0.20678 -0.49416,-0.0265 -0.30028,-0.48586 -0.45101,0.5918 -0.35462,2.53498 0.0632,1.2732 0.19888,1.94055 0.48275,2.37377 0.21719,0.33146 0.35837,0.65371 0.31376,0.71612 -0.30779,0.43056 3.04819,1.25927 4.66975,1.15312 1.76611,-0.11562 5.14329,-0.73398 6.36152,-1.16478 0.77575,-0.27434 1.52091,-0.96335 1.34671,-1.24524 -0.0575,-0.0931 0.0589,-0.54704 0.25894,-1.00865 0.30379,-0.70126 0.57045,-0.93351 1.62115,-1.41201 0.69165,-0.31498 1.31631,-0.60379 1.38812,-0.64178 0.19003,-0.10052 1.52889,1.82195 1.77981,2.55563 0.15109,0.44175 0.14181,0.93235 -0.0315,1.6686 z m -23.46629,4.69292 c -0.11121,0.17207 -0.20363,0.5365 -0.20539,0.80983 -0.004,0.52571 -0.60976,1.17553 -1.30196,1.39523 -1.22331,0.38826 -4.03775,-0.54235 -4.79661,-1.58604 -0.5955,-0.819 -1.83812,-4.57833 -1.85925,-5.6248 -0.0104,-0.51623 -0.0935,-1.03245 -0.18474,-1.14717 -0.0912,-0.11471 -0.21858,-0.95944 -0.28309,-1.87716 -0.0646,-0.91773 -0.21825,-2.02069 -0.34165,-2.451 l -0.22434,-0.78241 -0.66798,0.34417 c -0.3674,0.1893 -0.79064,0.51791 -0.94054,0.73026 -0.14991,0.21235 -0.37006,0.38609 -0.48924,0.38609 -0.11918,0 -0.46994,0.18033 -0.77946,0.40073 -0.30952,0.2204 -0.88717,0.43156 -1.28365,0.46929 l -0.72087,0.0686 -0.11971,1.88981 c -0.0659,1.0394 -0.17322,1.97799 -0.2386,2.08575 -0.17749,0.29248 0.45128,3.46264 0.79239,3.99508 0.37862,0.59103 0.37239,0.88498 -0.036,1.70376 -0.49313,0.98851 -1.04703,1.25621 -2.32892,1.12557 -0.98727,-0.10061 -1.15882,-0.19638 -1.72074,-0.96046 -0.34327,-0.46678 -0.62414,-0.98186 -0.62414,-1.14461 0,-0.16277 -0.13731,-0.73089 -0.30512,-1.2625 -0.28911,-0.91588 -0.79695,-3.61087 -0.8503,-4.51235 -0.0136,-0.22943 -0.041,-0.69872 -0.0611,-1.04288 l -0.0365,-0.62572 -0.44155,0.73001 c -0.24287,0.40151 -0.52409,0.7613 -0.62496,0.79954 -0.10086,0.0382 -0.18337,0.18851 -0.18337,0.33394 0,0.34887 -0.95502,2.1347 -1.52806,2.85733 -0.24937,0.31448 -0.62204,0.81229 -0.82815,1.10624 -0.20611,0.29396 -0.52001,0.53447 -0.69757,0.53447 -0.17759,0 -0.95238,0.42236 -1.72179,0.93858 -0.76943,0.51622 -1.52749,0.93859 -1.68459,0.93859 -0.15712,0 -0.4669,0.16425 -0.68837,0.365 -0.535,0.48489 -4.42773,0.62939 -6.5131,0.24177 -0.80301,-0.14926 -1.60081,-0.27645 -1.77288,-0.28265 -0.34386,-0.0124 -3.79482,1.05211 -4.52511,1.39582 -0.28489,0.1341 -1.58508,0.17385 -3.44148,0.10523 -2.43838,-0.0901 -3.21225,-0.1984 -4.23502,-0.59251 -0.68829,-0.26522 -1.29838,-0.54412 -1.35573,-0.61977 -0.0573,-0.0756 -0.38587,-0.28881 -0.73001,-0.4737 -1.12291,-0.60325 -1.91238,-1.47548 -2.29699,-2.5378 -0.20766,-0.57358 -0.52667,-1.27373 -0.70889,-1.55589 -0.34387,-0.53245 -0.40002,-0.99576 -0.41813,-3.4499 -0.0125,-1.69755 0.47285,-3.12961 1.66126,-4.9015 0.71591,-1.0674 1.90166,-2.60764 2.56912,-3.33719 0.95771,-1.0468 2.42653,-2.93508 2.42653,-3.11948 0,-0.3897 -0.72577,-0.36332 -3.2329,0.11759 -0.91773,0.17604 -2.09096,0.39942 -2.60719,0.49643 -1.31916,0.24787 -2.51369,0.56955 -2.66063,0.71651 -0.0686,0.0686 0.12656,0.38697 0.43367,0.70751 0.64915,0.67758 0.68172,0.95713 0.21112,1.81145 -0.48237,0.87564 -0.61703,9.34406 -0.18082,11.37038 0.38011,1.76568 0.66652,2.49959 1.19626,3.06511 0.54534,0.5822 0.41875,1.98409 -0.23409,2.5923 -0.40982,0.3818 -0.4877,0.38652 -1.38009,0.0836 -0.52016,-0.1766 -1.12299,-0.3211 -1.33961,-0.3211 -0.49812,0 -1.60311,-0.92008 -1.97979,-1.6485 -0.15812,-0.30577 -0.35291,-0.90467 -0.43287,-1.33089 -0.08,-0.42622 -0.23882,-0.77494 -0.35306,-0.77494 -0.11421,0 -0.14815,-0.15512 -0.0754,-0.3447 0.0727,-0.18959 0.0385,-0.63541 -0.076,-0.99073 -0.19936,-0.61837 -0.45452,-5.22402 -0.42295,-7.63328 0.008,-0.63094 0.15205,-2.00529 0.31949,-3.05413 0.16743,-1.04882 0.24748,-2.0554 0.17786,-2.2368 -0.10974,-0.28595 -0.46665,-0.31261 -2.68175,-0.20035 -2.88041,0.14597 -3.57544,0.0425 -3.76693,-0.56088 -0.3414,-1.07564 -0.5111,0.12748 -0.50933,3.61092 0.002,4.17916 0.2345,5.8237 0.93433,6.61273 0.58848,0.66348 0.76428,1.3874 0.81038,3.33719 0.0212,0.89495 0.15737,1.75165 0.3183,2.00212 0.37788,0.5881 0.1377,1.45148 -0.52445,1.88535 -0.42087,0.27575 -0.67009,0.30386 -1.21408,0.13691 -0.63886,-0.19608 -0.73643,-0.15623 -1.46371,0.59772 -1.44655,1.49962 -2.46916,1.83317 -5.99958,1.95698 l -2.46373,0.0864 -1.6179,-0.84755 c -1.99484,-1.04501 -2.56555,-1.56339 -3.76463,-3.4193 -0.51882,-0.80301 -0.97488,-1.49856 -1.01346,-1.54565 -0.16327,-0.19929 -0.83852,0.65066 -1.09708,1.3809 -0.15393,0.43476 -0.58195,1.16591 -0.95112,1.62477 -0.36918,0.45886 -0.70928,0.94124 -0.75575,1.07195 -0.11607,0.32641 -2.22858,2.01987 -3.04634,2.44206 -0.36713,0.18954 -1.12747,0.34462 -1.68961,0.34462 -0.56218,0 -1.32156,0.10439 -1.68754,0.23197 -0.55141,0.19221 -0.9155,0.15156 -2.12466,-0.23724 -1.29183,-0.41538 -1.6043,-0.6274 -2.72409,-1.84841 -1.27103,-1.38593 -2.42049,-3.45532 -2.87998,-5.18487 -0.12969,-0.4882 -0.22275,-2.2099 -0.20738,-3.83683 0.0229,-2.42141 0.11378,-3.23597 0.50625,-4.53734 1.03628,-3.43612 1.62874,-4.40279 4.39177,-7.16585 0.85553,-0.85553 1.55788,-1.63954 1.56074,-1.74222 0.0117,-0.41675 1.42049,-1.99799 2.4832,-2.78711 1.84134,-1.36729 2.70371,-1.13851 5.34729,1.41857 1.42506,1.37845 2.59301,3.04868 2.59301,3.70813 0,0.27391 0.0761,0.49803 0.16916,0.49803 0.093,0 0.2875,0.46185 0.43217,1.02633 0.2375,0.92664 0.8587,1.6425 0.8587,0.98954 0,-0.14596 0.22518,-0.72963 0.50037,-1.29707 0.27521,-0.5674 0.66135,-1.38364 0.85807,-1.81382 0.19673,-0.43018 0.42395,-0.78215 0.50494,-0.78215 0.081,0 0.54647,-0.34169 1.03439,-0.75934 l 0.8871,-0.75934 0.55831,0.44456 c 0.30707,0.24452 0.87247,0.58524 1.25646,0.75717 0.67664,0.30297 0.69494,0.3432 0.5946,1.30551 -0.0981,0.94077 -1.30757,4.85877 -1.91615,6.20726 -0.15531,0.34414 -0.34056,1.09501 -0.41165,1.66859 -0.071,0.57358 -0.17845,1.32445 -0.2386,1.6686 -0.1794,1.02648 -0.19713,3.2738 -0.0334,4.23868 0.0841,0.49582 0.34694,1.17394 0.58407,1.50694 0.85512,1.20091 7.61352,1.73062 5.74821,0.4753 l 1.17402,-0.55587 -0.12001,-0.85107 c -0.066,-0.46809 -0.21158,-1.282 -0.32352,-1.80869 -0.1994,-0.93832 -0.51883,-4.32979 -0.74985,-7.96152 -0.0711,-1.11799 0.0102,-2.85916 0.20966,-4.48435 0.34261,-2.7928 0.65956,-4.01247 1.04271,-4.01247 0.12652,0 0.53932,-0.31908 0.91729,-0.70905 l 0.68723,-0.70905 0.89681,0.60524 c 0.49323,0.33287 1.19597,0.94597 1.56161,1.36243 0.66179,0.75373 0.66875,0.75598 1.53334,0.49238 0.4777,-0.14562 1.52555,-0.38839 2.32856,-0.53946 0.80302,-0.15107 2.11704,-0.42027 2.92005,-0.59825 0.80301,-0.17798 1.56281,-0.2847 1.68841,-0.23717 0.12562,0.0476 0.60976,-0.0843 1.07591,-0.29299 1.07215,-0.48003 2.95045,-0.88448 4.4315,-0.95423 1.73096,-0.0815 4.17578,-0.27627 5.08853,-0.40536 0.7197,-0.10181 0.88733,-0.0365 1.46446,0.57026 0.35845,0.37688 0.83745,0.79265 1.06442,0.92393 0.35543,0.20559 0.37629,0.29966 0.15021,0.67787 -0.23277,0.38947 -0.21372,0.43917 0.16813,0.43917 0.23684,0 1.01197,-0.29487 1.72252,-0.65526 1.31452,-0.66671 1.62719,-0.70567 4.49753,-0.56016 0.65225,0.033 0.98422,-0.0535 1.16779,-0.30453 0.14104,-0.19291 0.31699,-0.29021 0.39097,-0.2162 0.074,0.074 0.29937,0.002 0.50083,-0.16148 0.85668,-0.69228 3.64331,-1.79842 4.38647,-1.74116 0.26094,0.0201 0.52047,-0.0379 0.57672,-0.12897 0.14778,-0.23906 1.7946,-0.0399 2.66006,0.32169 0.40701,0.17007 1.14637,0.58633 1.64302,0.92501 1.24707,0.85042 3.85229,3.55607 4.03413,4.18965 0.0823,0.2868 0.42046,0.77426 0.75143,1.08326 0.33098,0.309 0.6018,0.70789 0.6018,0.88644 0,0.17854 0.0938,0.32463 0.20857,0.32463 0.11471,0 0.20857,0.15686 0.20857,0.34858 0,0.19172 0.14913,0.51337 0.33139,0.71475 0.31751,0.35086 0.6227,1.30463 0.81254,2.53946 0.11309,0.7355 0.27002,0.98584 0.61805,0.98584 0.49736,0 0.57387,-1.31247 0.13482,-2.31284 -0.22209,-0.50604 -0.46739,-1.2955 -0.54511,-1.75436 -0.0777,-0.45886 -0.27515,-1.30359 -0.43876,-1.87717 -0.16362,-0.57358 -0.35547,-1.85435 -0.42632,-2.84614 -0.11517,-1.612 -0.0829,-1.86781 0.30429,-2.41157 0.23821,-0.33453 0.77446,-0.71301 1.19162,-0.84105 0.74234,-0.22782 0.78231,-0.21045 1.87302,0.81399 1.09784,1.0311 1.46336,1.71036 1.40826,2.61698 -0.019,0.31207 0.30439,0.74967 1.00178,1.35573 0.56641,0.49219 1.03088,1.00074 1.03217,1.1301 0.002,0.12934 0.13712,0.34701 0.30181,0.48371 0.16471,0.13668 0.35987,0.5236 0.43373,0.85982 0.0738,0.33622 0.21728,0.61131 0.31875,0.61131 0.30998,0 1.21968,-1.49221 1.58593,-2.60148 0.19043,-0.57672 0.48069,-1.25562 0.64504,-1.50869 0.16436,-0.25306 0.23825,-0.5581 0.16426,-0.67787 -0.074,-0.11976 -0.0474,-0.21774 0.0591,-0.21774 0.14955,0 0.59552,-1.19103 0.78101,-2.08575 0.0119,-0.0573 0.36963,-0.85655 0.79498,-1.77599 0.70469,-1.52328 0.85941,-1.71162 1.74259,-2.12116 l 0.96927,-0.44944 1.08801,0.92952 c 1.22788,1.04901 1.35832,1.38547 1.44594,3.72993 0.0343,0.91773 0.14911,2.20828 0.25513,2.8679 0.10602,0.65962 0.1133,1.1993 0.016,1.1993 -0.0971,0 -0.13325,1.0024 -0.0802,2.22752 0.053,1.22512 0.0406,2.31782 -0.0276,2.42818 -0.29275,0.47368 -0.0434,4.74763 0.45532,7.80493 0.45448,2.78604 0.60679,3.34165 0.99974,3.64711 0.25496,0.19821 0.58088,0.36245 0.72427,0.36501 0.1434,0.002 0.26073,0.14542 0.26073,0.3175 0,0.17207 0.0938,0.31286 0.20857,0.31286 0.11471,0 0.20857,0.12984 0.20857,0.28853 0,0.1587 0.18772,0.33763 0.41715,0.39763 0.44408,0.11613 0.54196,0.67512 0.20857,1.19101 z m -25.21148,-12.89165 c -0.19475,-0.62484 -0.61646,-1.42438 -1.28626,-2.43857 -0.22726,-0.34415 -0.46555,-0.76651 -0.52951,-0.93859 -0.064,-0.17207 -0.5358,-0.63166 -1.04854,-1.0213 -0.87351,-0.66381 -0.98107,-0.69379 -1.70633,-0.47562 -0.90869,0.27334 -3.31963,2.46087 -4.06686,3.69002 -0.28,0.46054 -0.66262,0.96479 -0.8503,1.12055 -0.18767,0.15576 -0.34123,0.37384 -0.34123,0.48464 0,0.11079 -0.28158,0.80979 -0.62572,1.55333 -1.1034,2.38388 -0.79813,5.2897 0.69161,6.58354 1.6765,1.45606 5.45983,0.92352 8.28871,-1.16671 1.10287,-0.81492 1.64648,-2.07776 1.85216,-4.30264 0.11795,-1.27583 0.0732,-1.64178 -0.37773,-3.08865 z m -14.55483,-4.00288 c 1.29783,0 -1.45805,0.0538 -2.45074,0.82191 -1.21362,0.93912 -3.08177,2.85384 -3.98044,4.07959 -0.33643,0.45886 -0.77123,0.99452 -0.96624,1.19034 -0.19502,0.19582 -0.55733,0.89977 -0.80514,1.56431 -0.24783,0.66455 -0.64752,1.41908 -0.88823,1.67673 -0.2407,0.25766 -0.3755,0.5306 -0.29958,0.60653 0.0759,0.0759 0.0546,0.24056 -0.0476,0.36583 -0.1141,0.13999 0.02,0.72709 0.34819,1.52334 0.48335,1.1731 0.63417,1.34355 1.59531,1.80298 1.65307,0.79018 2.24968,0.9181 3.90294,0.83678 3.14604,-0.15472 3.19082,-0.17874 2.85557,-1.53221 -0.10005,-0.40399 -0.2213,-0.9898 -0.26943,-1.30181 -0.0481,-0.31202 -0.17421,-0.73438 -0.28014,-0.93859 -0.40561,-0.78187 0.72694,-6.35852 1.48622,-7.31814 0.45265,-0.57209 1.15567,-2.2549 1.17142,-2.80401 0.0163,-0.56993 -2.7523,-0.57358 -1.37215,-0.57358 z m -47.31711,3.54577 c -0.44549,-1.54402 -0.90943,-2.47454 -1.35181,-2.71128 -0.35214,-0.18848 -0.41749,-0.15892 -0.41749,0.18873 0,0.22671 -0.0938,0.47019 -0.20857,0.54109 -0.11471,0.0709 -0.20858,0.30777 -0.20858,0.5264 0,0.21863 -0.18142,0.49459 -0.40315,0.61327 -0.32446,0.17364 -0.42755,0.13878 -0.52834,-0.17873 -0.28518,-0.89854 -0.89142,-0.65876 -2.59454,1.02614 -1.50971,1.49357 -1.67449,1.73887 -1.91306,2.84796 -0.14359,0.66749 -0.4086,1.49519 -0.58893,1.83934 -0.63144,1.20501 -0.28786,7.19582 0.4127,7.19582 0.10581,0 0.19239,0.12323 0.19239,0.27384 0,0.33638 1.03119,1.33806 1.46002,1.41822 0.81999,0.15328 2.29849,-0.27584 2.69733,-0.78287 0.22799,-0.28986 0.50095,-0.47361 0.60657,-0.40833 0.1056,0.0653 0.61221,-0.35016 1.12576,-0.92319 1.28807,-1.43723 1.82292,-3.28614 2.00833,-6.94264 0.14729,-2.90495 0.13845,-3.04354 -0.28863,-4.52377 z m -44.66843,-6.46581 c -0.20858,0 -0.31286,0.20857 -0.31286,0.62572 0,0.56832 -0.18378,0.73644 -0.70225,0.64231 -0.0994,-0.0182 -0.47489,0.0636 -0.8343,0.18145 -0.35942,0.11785 -1.09931,0.23059 -1.64422,0.25052 -0.54489,0.0198 -0.99072,0.0975 -0.99072,0.17232 0,0.0749 -1.24363,0.13003 -2.76361,0.12263 -4.52784,-0.0221 -5.52268,0.13516 -4.98137,0.78741 0.11922,0.14365 0.20971,0.44457 0.20107,0.66873 -0.0384,0.99778 0.28577,2.92113 0.74421,4.41514 0.70613,2.30108 0.81755,2.98908 1.05664,6.5254 0.35569,5.26092 0.36401,5.63151 0.12636,5.63151 -0.16307,0 -0.19834,0.23427 -0.10788,0.71642 0.16607,0.88523 -0.25271,2.27564 -0.64057,2.12681 -0.15109,-0.058 -0.32584,0.0278 -0.38833,0.19064 -0.26537,0.69157 -3.18635,-0.47301 -3.65322,-1.45651 -0.17973,-0.37862 -0.31782,-1.53402 -0.3615,-3.02433 -0.0933,-3.18331 -0.25544,-4.96559 -0.63659,-6.99519 -0.58735,-3.12764 -0.68803,-3.75777 -0.99561,-6.23175 -0.16905,-1.35979 -0.41193,-2.59833 -0.53975,-2.75231 -0.17591,-0.212 -0.64873,-0.25063 -1.94623,-0.15907 -1.41835,0.1001 -1.77263,0.0621 -2.05469,-0.21987 -0.18744,-0.18745 -0.64004,-0.34081 -1.00577,-0.34081 -0.59397,0 -0.64928,0.0501 -0.5183,0.46929 0.0807,0.25811 0.31643,1.31402 0.52394,2.34646 0.32838,1.63378 0.4675,2.86289 0.72523,6.4072 0.0656,0.90107 0.32838,1.34305 1.64738,2.77008 1.07408,1.16204 1.11152,1.26901 0.63022,1.80083 -0.21774,0.24059 -0.28079,0.50642 -0.17707,0.74644 0.28094,0.65011 0.27355,0.86227 -0.0341,0.98032 -0.25889,0.0993 -0.25714,0.19707 0.0129,0.71916 0.17184,0.33231 0.45671,0.65955 0.63302,0.72721 0.17633,0.0677 0.32058,0.25671 0.32058,0.42012 0,0.34705 -0.56455,0.61272 -0.88335,0.41568 -0.13987,-0.0864 -0.18443,0.0502 -0.12233,0.37494 0.089,0.46579 0.0411,0.50322 -0.54334,0.42389 -0.52455,-0.0712 -0.59364,-0.0371 -0.38029,0.18753 0.1434,0.151 0.26071,0.39362 0.26071,0.53915 0,0.32336 -0.65638,0.11831 -0.8968,-0.28016 -0.21212,-0.35155 -0.66287,-0.35413 -1.01762,-0.006 -0.58036,0.56988 -2.19591,1.54624 -3.19565,1.9313 -1.03307,0.39789 -3.55448,0.48447 -5.21436,0.17904 -0.34414,-0.0633 -1.02462,-0.10497 -1.51216,-0.0925 -0.48916,0.0125 -0.88645,-0.0746 -0.88645,-0.19434 0,-0.11931 -0.21118,-0.21784 -0.46929,-0.21896 -1.47199,-0.007 -4.56624,-2.36517 -5.46892,-4.16903 -1.06954,-2.13725 -1.23706,-3.03277 -1.20035,-6.41639 0.0386,-3.55814 0.0436,-3.55216 -1.29965,-1.55106 -0.96265,1.43409 -1.8197,2.26692 -4.18054,2.65189 l -2.08574,0.57801 0.0322,1.27355 c 0.0846,3.35346 0.15727,4.05842 0.51811,5.02788 0.45089,1.21148 0.49486,1.79437 0.12981,1.72074 -0.14221,-0.0287 -0.34932,0.2529 -0.46028,0.62573 -0.1303,0.43775 -0.33424,0.67787 -0.57577,0.67787 -0.20572,0 -0.37402,0.14078 -0.37402,0.31286 0,0.17207 -0.1076,0.31286 -0.23913,0.31286 -0.49378,0 -2.50827,-1.52219 -2.71812,-2.05384 -0.1201,-0.30434 -0.343,-0.79302 -0.49532,-1.08595 -0.2729,-0.52484 -0.40583,-1.73434 -0.61615,-5.60617 -0.12271,-2.25935 -0.23002,-2.44216 -1.78383,-3.03921 -0.59607,-0.22904 -1.49915,-0.78081 -2.00682,-1.22615 -0.77377,-0.67873 -0.91283,-0.91488 -0.85977,-1.46001 0.0471,-0.4832 0.15625,-0.63477 0.42497,-0.5898 0.25138,0.0421 0.32409,-0.0375 0.2384,-0.26072 -0.0876,-0.22834 0.007,-0.32124 0.32851,-0.32124 0.24847,0 0.399,-0.0854 0.33451,-0.18975 -0.0645,-0.10436 -0.0629,-0.33161 0.004,-0.50501 0.0913,-0.23785 0.25789,-0.27246 0.67856,-0.14097 0.30664,0.0959 1.57245,0.23607 1.21119,0.28637 l 0.65364,0.11209 -0.17936,-0.77209 c -0.0986,-0.42465 -0.18161,-1.20228 -0.18434,-1.72806 -0.003,-0.52579 -0.0754,-1.0267 -0.16142,-1.11316 -0.086,-0.0864 -0.15643,-0.5479 -0.15643,-1.02547 0,-0.6021 -0.0832,-0.85126 -0.27122,-0.81267 -0.14918,0.0306 -0.52082,-0.24094 -0.82585,-0.60345 l -0.55461,-0.65912 -2.92849,0.13567 c -1.61067,0.0746 -3.33485,0.19528 -3.83151,0.26814 -0.80806,0.11855 -0.88644,0.17868 -0.74551,0.57208 0.21325,0.59516 0.2213,2.27594 0.0242,5.02824 -0.1726,2.40903 0.0974,7.11861 0.51415,8.9687 0.21302,0.94571 0.55297,1.59729 1.55061,2.97219 0.33055,0.45554 0.32366,0.4693 -0.23459,0.4693 -0.55172,0 -1.56151,0.81623 -1.56151,1.26219 0,0.29409 -0.18964,0.243 -0.75832,-0.20432 -0.37315,-0.29353 -0.74279,-0.37911 -1.36856,-0.31685 -0.99514,0.099 -1.17915,-0.066 -1.962,-1.75948 -0.93034,-2.01252 -1.18411,-4.02728 -1.159,-9.20169 0.0125,-2.58111 0.0487,-5.25608 0.0803,-5.94438 l 0.0575,-1.25145 -1.25145,0.01 c -1.70735,0.0134 -3.90785,0.26084 -4.0526,0.45582 -0.0654,0.0881 -0.23621,0.16953 -0.37961,0.181 -0.14339,0.0114 -0.35457,0.0349 -0.46929,0.0521 -0.12951,0.0194 -0.20857,1.35682 -0.20857,3.52816 0,3.84216 0.20726,4.67184 1.30194,5.21159 0.58643,0.28915 1.43025,1.88502 1.45489,2.75154 0.009,0.30568 -0.0993,1.03561 -0.23999,1.62205 -0.20678,0.86196 -0.2034,1.15951 0.0175,1.55293 0.15036,0.26767 0.28837,0.62745 0.30666,0.79953 0.0184,0.17207 0.10052,0.47711 0.18269,0.67786 0.0857,0.20938 0.057,0.36501 -0.0674,0.36501 -0.11927,0 -0.27491,0.18292 -0.34586,0.4065 -0.0781,0.24596 -0.24838,0.36071 -0.43121,0.29055 -0.18662,-0.0716 -0.30218,0.0123 -0.30218,0.21922 0,0.4196 -0.2676,0.42321 -1.05836,0.0143 -0.6925,-0.35811 -2.36225,-0.31046 -3.94743,0.11266 -1.47963,0.39494 -5.91928,0.13912 -7.02932,-0.40505 -0.48199,-0.23629 -1.05067,-0.42962 -1.26373,-0.42962 -0.21304,0 -0.56953,-0.1378 -0.79223,-0.30623 -0.22267,-0.16842 -0.56584,-0.30921 -0.76261,-0.31286 -0.70825,-0.0131 -2.28407,-1.717 -3.18897,-3.44811 -0.28448,-0.54422 -1.1462,-0.68889 -1.1462,-0.19242 0,0.19691 -0.31562,0.74313 -0.70138,1.21381 -0.60472,0.73786 -1.33108,1.4639 -4.03343,4.03167 -0.64024,0.60835 -1.25303,0.92857 -2.14816,1.12254 -0.4015,0.087 -1.10544,0.2679 -1.5643,0.40199 -1.51999,0.44418 -4.39371,0.47695 -5.70479,0.0651 -1.4905,-0.46827 -3.66927,-1.73383 -4.51409,-2.62204 -2.24369,-2.359 -3.70695,-6.0087 -3.7112,-9.25676 -0.002,-0.92973 0.0794,-1.82138 0.17922,-1.98146 0.0998,-0.16008 0.2095,-0.4714 0.24379,-0.69183 0.0343,-0.22043 0.14398,-0.502 0.24378,-0.62573 0.0998,-0.12371 0.18004,-0.49076 0.17835,-0.81566 -0.002,-0.3249 0.0891,-0.79419 0.20169,-1.04288 1.15394,-2.54765 1.61868,-3.47647 1.73951,-3.47647 0.0786,0 0.25505,-0.2706 0.39204,-0.60132 0.13699,-0.33074 0.47688,-0.7994 0.75533,-1.0415 0.61465,-0.53443 0.64129,-1.15744 0.0883,-2.06443 -0.49851,-0.81761 -0.50308,-1.20009 -0.0242,-2.02855 0.42264,-0.73117 2.93131,-2.71681 3.98789,-3.15644 0.4015,-0.16705 0.91773,-0.38866 1.14716,-0.49247 2.58882,-1.17118 5.44168,-0.92025 7.97617,0.70158 0.88991,0.56946 3.28311,2.91108 4.55986,4.46156 0.47071,0.57164 1.02894,1.52072 1.24049,2.10902 0.40627,1.12977 0.60781,1.30251 0.82214,0.70467 0.1634,-0.45577 1.91318,-1.92932 2.29098,-1.92932 0.15374,0 0.79467,0.41966 1.4243,0.93254 1.04301,0.84963 1.15156,1.01761 1.22089,1.88915 0.0419,0.5261 -0.0979,1.63165 -0.31061,2.45678 -0.8435,3.27246 -1.01899,6.71473 -0.45398,8.9052 0.39015,1.51258 0.7089,1.96101 1.77434,2.49629 0.93518,0.46984 2.02111,0.66787 3.90618,0.71233 1.08622,0.0256 1.53726,-0.0417 1.61374,-0.24108 0.0584,-0.15217 -0.0303,-1.32807 -0.19708,-2.61313 -0.32934,-2.53756 -0.45073,-9.85383 -0.19967,-12.03518 0.13297,-1.15544 0.25131,-1.43906 0.80097,-1.91966 0.83543,-0.73051 1.38551,-0.85536 2.22099,-0.50406 0.62002,0.2607 0.76225,0.24161 1.65658,-0.22238 0.55176,-0.28627 1.65199,-0.59652 2.52339,-0.71155 0.84981,-0.11219 1.78596,-0.29852 2.08032,-0.41404 0.33574,-0.13176 0.72444,-0.13873 1.04288,-0.0187 0.30921,0.11658 0.71029,0.11576 1.0261,-0.002 0.46566,-0.17373 2.81111,-0.31653 7.58882,-0.46206 1.58072,-0.0481 1.66965,-0.078 2.4039,-0.80789 0.90287,-0.8975 2.95612,-1.8896 3.85762,-1.86397 0.35174,0.01 0.69714,-0.075 0.76756,-0.18897 0.34575,-0.55945 4.67919,-0.76707 6.03395,-0.28908 0.48771,0.17208 1.09954,0.31286 1.35964,0.31286 0.26008,0 0.52091,0.12512 0.57961,0.27805 0.0586,0.15292 0.61787,0.43884 1.24266,0.63536 0.90592,0.28495 1.41313,0.64189 2.50472,1.76268 1.50078,1.54091 2.26064,2.79281 2.67393,4.40543 0.14842,0.57908 0.37112,1.05288 0.49486,1.05288 0.12377,0 0.55185,-0.2214 0.95131,-0.49198 1.21608,-0.82379 1.6313,-0.87487 1.87617,-0.23083 0.12698,0.33397 0.32348,0.51372 0.49121,0.44936 0.40429,-0.15512 1.32322,0.77685 1.48293,1.50396 0.0814,0.37047 0.0281,0.81703 -0.13176,1.10371 -0.43865,0.78698 -0.79575,1.90337 -0.79909,2.49829 -0.002,0.3062 -0.15639,1.15093 -0.34367,1.87717 -0.48656,1.88675 -0.29453,6.8543 0.31084,8.04093 0.54213,1.06264 0.73029,1.20125 2.21404,1.63108 0.99409,0.28798 1.66768,0.33324 3.33417,0.22402 1.90839,-0.12506 3.2416,-0.44534 3.2416,-0.77874 0,-0.0723 -0.13897,-0.52532 -0.30884,-1.00674 -0.16984,-0.48142 -0.36484,-1.73685 -0.43333,-2.78984 -0.10373,-1.59479 -0.37685,-4.11754 -0.83958,-7.75461 -0.0438,-0.34414 -0.14539,-0.86037 -0.2258,-1.14716 -0.0804,-0.28679 -0.16661,-0.66223 -0.19157,-0.83429 -0.025,-0.17208 -0.18046,-0.87602 -0.34557,-1.56431 -0.44733,-1.86468 -0.17364,-3.44148 0.59734,-3.44148 0.15803,0 0.47504,-0.18772 0.70447,-0.41715 0.22944,-0.22944 0.5434,-0.41715 0.69769,-0.41715 0.1543,0 0.45041,0.18771 0.65805,0.41715 0.20764,0.22943 0.46952,0.41715 0.58198,0.41715 0.11247,0 0.42683,0.23992 0.69861,0.53318 0.45289,0.48867 1.0836,0.54308 0.7901,0.0681 -0.17656,-0.28567 0.67536,-1.04915 1.78794,-1.60235 0.73745,-0.36667 1.54195,-0.51021 3.75434,-0.66984 4.19814,-0.30289 5.23298,-0.30508 5.41449,-0.0114 0.11707,0.18945 0.19475,0.16401 0.29476,-0.0966 0.0948,-0.24714 0.21364,-0.29229 0.39401,-0.14971 0.14204,0.11227 1.94903,0.257 4.01552,0.32166 4.06591,0.12719 6.46532,0.54532 6.66439,1.16136 0.0607,0.18772 0.3921,0.50119 0.73654,0.6966 0.65499,0.3716 0.85199,1.00043 0.3134,1.00043 z m -44.03103,0.99215 c -0.47739,-1.37257 -1.01653,-1.73574 -3.13669,-2.11291 -2.81767,-0.50126 -4.53707,-0.4487 -5.81019,0.17757 -0.57359,0.28213 -1.1602,0.51593 -1.30359,0.51951 -0.32206,0.008 -0.34457,0.88212 -0.0308,1.19592 0.23979,0.2398 0.2973,0.20597 1.75668,-1.03296 0.37159,-0.31547 0.71027,-0.57358 0.75264,-0.57358 0.1912,0 2.43279,2.23813 2.6497,2.64562 0.13338,0.25056 0.24253,0.83334 0.24253,1.29506 0,0.78272 0.31981,3.49451 0.53763,4.55873 0.0805,0.39316 0.23241,0.46929 0.93673,0.46929 1.46665,0 2.69741,-0.94164 3.35587,-2.56755 0.42239,-1.04291 0.44817,-3.42836 0.0495,-4.5747 z m -51.05049,2.44933 c -0.70815,-2.64245 -2.74612,-5.58897 -4.62871,-6.69224 -0.75443,-0.44212 -1.01951,-0.48752 -2.15445,-0.36888 -1.49823,0.1566 -1.63364,0.50746 -0.44213,1.14575 0.55891,0.29941 0.74102,0.53888 0.78054,1.02647 0.0437,0.53893 -0.0436,0.66912 -0.57253,0.8535 -0.36837,0.12842 -0.62412,0.36525 -0.62412,0.57796 0,0.48604 -0.79707,1.17924 -1.5643,1.36045 -0.66578,0.15724 -2.34322,1.76174 -2.74235,2.62311 -1.04589,2.25704 -1.2684,3.19362 -1.46269,6.15633 -0.0958,1.4603 -0.0429,1.84174 0.40986,2.95588 1.2251,3.01495 2.3679,3.93516 4.83804,3.89565 1.70623,-0.0273 3.04275,-0.53818 4.47184,-1.7094 0.51683,-0.42358 1.29416,-1.00825 1.72739,-1.29928 0.43322,-0.29103 0.9714,-0.88949 1.19593,-1.3299 0.35499,-0.69631 0.5068,-1.24897 0.92158,-3.35532 0.20307,-1.03128 0.10147,-4.88719 -0.1539,-5.84008 z m -249.99857,-9.49014 c -0.11035,0.17207 -0.15451,0.46136 -0.0982,0.64286 0.16162,0.52051 -0.60703,1.06895 -1.4021,1.00045 -0.38355,-0.033 -0.81562,0.0129 -0.96017,0.10235 -0.14454,0.0893 -0.51862,0.10706 -0.83129,0.0394 -0.31267,-0.0677 -1.31936,-0.023 -2.23709,0.0993 -0.91773,0.12229 -2.17265,0.26729 -2.78871,0.32225 -0.61607,0.055 -1.29037,0.19104 -1.49846,0.3024 -0.20808,0.11137 -0.62585,0.20248 -0.92838,0.20248 -0.97223,0 -1.04234,0.26906 -1.03263,3.96291 0.005,1.89282 -0.0621,3.76999 -0.14903,4.17149 -0.087,0.40151 -0.31543,1.48088 -0.50775,2.39861 -0.19232,0.91773 -0.4249,1.81662 -0.51687,1.99753 -0.092,0.18091 -0.19843,0.55635 -0.23659,0.83429 -0.0382,0.27795 -0.12496,0.59923 -0.19289,0.71395 -0.35457,0.59886 -0.64008,3.21438 -0.51482,4.71633 0.0894,1.07219 0.0629,1.64518 -0.0763,1.64518 -0.1174,0 -0.21346,-0.0938 -0.21346,-0.20857 0,-0.35232 -0.43579,-0.23176 -0.80343,0.22226 -0.29565,0.36511 -0.43704,0.39731 -0.92678,0.21111 -0.42276,-0.16073 -0.68614,-0.15212 -0.98111,0.0321 -0.34422,0.21497 -0.49437,0.16446 -1.02635,-0.34521 -1.62887,-1.56056 -1.65609,-3.36743 -0.13849,-9.19324 0.62704,-2.4071 0.78795,-3.13523 0.88465,-4.00315 0.17602,-1.57983 0.38657,-5.40076 0.3174,-5.75995 -0.0733,-0.38048 -0.23975,-0.38115 -6.51788,-0.0263 l -2.62191,0.14819 -0.6573,-0.70331 c -0.99626,-1.066 -1.04433,-1.67287 -0.21482,-2.71189 0.95383,-1.19471 2.15843,-1.69101 4.28274,-1.76449 0.94191,-0.0325 2.02128,-0.16034 2.3986,-0.28389 0.37732,-0.12359 1.48383,-0.32501 2.45892,-0.44761 0.97509,-0.1226 2.37827,-0.3091 3.11819,-0.41445 0.957,-0.13624 1.38707,-0.12396 1.48998,0.0425 0.16345,0.26448 0.59447,0.18516 2.36139,-0.43456 0.67857,-0.23798 1.47637,-0.42312 1.77288,-0.4114 0.29652,0.0117 1.8208,-0.049 3.38728,-0.13498 l 2.84815,-0.15631 1.00247,0.58749 c 1.76283,1.0331 2.27176,1.79032 1.75006,2.60392 z m -26.22643,22.15924 c -0.0965,1.51542 -0.4293,1.75158 -1.99531,1.41573 -0.74133,-0.15899 -1.10159,-0.16351 -1.15127,-0.0145 -0.12056,0.36168 -0.5058,0.24607 -1.11051,-0.33329 -0.63154,-0.60505 -0.68336,-0.59548 -2.88997,0.53364 -0.4015,0.20545 -1.1993,0.49258 -1.77288,0.63807 -0.57358,0.14548 -1.44505,0.39368 -1.9366,0.55154 -2.35745,0.7571 -5.29796,-0.18648 -6.49223,-2.08327 -0.22649,-0.35972 -0.67862,-1.02947 -1.00472,-1.48834 -0.85595,-1.20437 -1.46733,-2.45288 -1.65075,-3.37104 -0.19821,-0.99222 -0.18413,-0.94024 -0.3645,-1.34541 -0.0824,-0.18502 -0.11163,-1.63982 -0.0651,-3.2329 0.0851,-2.90826 0.46782,-5.5438 1.06738,-7.34953 0.17712,-0.53345 0.46265,-1.49336 0.63452,-2.13312 0.38509,-1.43351 1.60769,-3.11257 2.26641,-3.11257 0.25601,0 0.65061,0.12879 0.87689,0.2862 0.22628,0.15741 0.71034,0.35126 1.0757,0.43075 0.96342,0.20959 1.13067,1.30851 0.49402,3.24596 -0.24016,0.73089 -0.55803,1.94585 -0.95493,3.65005 -0.18701,0.80302 -0.46854,1.97624 -0.6256,2.60718 -0.28345,1.13862 -0.26769,3.42092 0.0353,5.11008 0.0823,0.45886 0.16112,0.92815 0.17514,1.04287 0.0712,0.58275 0.38324,1.35573 0.54728,1.35573 0.10227,0 0.18595,0.13244 0.18595,0.29432 0,0.44744 1.21571,1.37427 1.80261,1.37427 0.28552,0 0.69064,0.0918 0.90025,0.20397 0.56612,0.30298 2.37572,-0.29252 3.92246,-1.29081 1.17425,-0.75787 1.38274,-1.00364 2.05736,-2.42528 0.71246,-1.50136 0.74992,-1.68859 0.73531,-3.67569 -0.008,-1.15157 -0.0791,-3.43795 -0.15685,-5.08085 l -0.14144,-2.9871 0.90652,-0.92367 c 1.08182,-1.10229 1.51223,-1.14597 2.79066,-0.28318 0.85098,0.57433 0.94904,0.72344 0.94904,1.44319 0,0.44146 0.1343,1.34993 0.29845,2.01881 0.16415,0.6689 0.35643,2.15474 0.4273,3.3019 0.16119,2.60915 0.26587,10.02698 0.16408,11.62624 z m -21.74395,-17.77918 c -0.36182,0.56365 -0.65203,2.40441 -0.46064,2.92178 0.24896,0.673 -1.08433,2.75766 -2.60145,4.06744 -1.65077,1.42517 -3.424588,2.07941 -7.430023,2.74044 -0.922615,0.15226 -1.109535,0.42768 -1.270327,1.87172 -0.06528,0.58614 -0.213901,1.31618 -0.330293,1.62231 -0.116393,0.30614 -0.24954,1.62004 -0.29588,2.91978 -0.04632,1.29974 -0.179808,2.54169 -0.296587,2.7599 -0.116772,0.21819 -0.572708,0.51869 -1.013179,0.66775 -0.440472,0.14907 -1.008846,0.37283 -1.263047,0.49725 -0.567492,0.27778 -0.842416,0.0789 -1.717473,-1.24215 -0.604976,-0.91335 -0.624736,-1.01761 -0.550219,-2.90296 0.04252,-1.07558 0.168568,-2.07139 0.280139,-2.2129 0.111564,-0.14152 0.208022,-0.39809 0.214353,-0.57017 0.0066,-0.17207 0.121112,-1.14228 0.255069,-2.156 0.282736,-2.13963 0.183667,-2.75765 -0.46862,-2.92326 -0.25911,-0.0658 -0.578761,-0.29405 -0.710333,-0.50726 -0.203718,-0.33011 -0.105357,-0.52734 0.662542,-1.32864 l 0.901768,-0.94098 -0.0741,-1.75559 c -0.04077,-0.96556 -0.135285,-2.22625 -0.210072,-2.80152 -0.133235,-1.02495 -0.11861,-1.06202 0.728219,-1.84552 0.783676,-0.72509 0.896976,-0.77016 1.216124,-0.48388 0.193564,0.17364 0.686532,0.37778 1.095478,0.45361 0.408947,0.0759 0.833867,0.20113 0.944264,0.27838 0.333394,0.2333 0.886202,2.33859 1.039905,3.96032 0.208831,2.20348 0.278381,2.23541 2.829501,1.29887 2.266875,-0.83219 3.089311,-1.49761 3.104231,-2.51155 0.004,-0.28679 0.14546,-0.70363 0.31389,-0.9263 0.2283,-0.30183 0.30615,-1.01845 0.3059,-2.81575 -4.1e-4,-3.53371 -0.52298,-4.34674 -2.817548,-4.38411 -1.188537,-0.0194 -3.233998,0.39875 -3.668153,0.74982 -0.405489,0.3279 -2.144888,0.66881 -2.786532,0.54616 -0.312036,-0.0597 -0.530438,-0.005 -0.530438,0.13148 0,0.12808 -0.140784,0.23289 -0.31286,0.23289 -0.172069,0 -0.312861,0.0827 -0.312861,0.18382 0,0.20277 -1.224891,0.54016 -2.777458,0.76505 -0.915561,0.13263 -1.058789,0.0936 -1.616448,-0.4407 -0.765732,-0.73361 -0.785244,-1.44225 -0.06922,-2.51267 0.978773,-1.46315 1.622452,-1.99137 3.524525,-2.89224 2.578524,-1.22126 5.11928,-1.73377 8.311184,-1.67648 1.359104,0.0244 2.532339,0.13593 2.607169,0.24785 0.0748,0.11192 0.67577,0.52346 1.33539,0.91455 0.65961,0.39108 1.1993,0.78299 1.1993,0.87091 0,0.0879 0.12237,0.15985 0.27195,0.15985 0.34302,0 1.60522,1.28699 1.60522,1.63674 0,0.14363 0.14931,0.54987 0.3318,0.90276 0.2046,0.39567 0.35883,1.33114 0.40233,2.44038 0.0388,0.98933 0.12314,2.22115 0.18743,2.73737 0.0643,0.51622 0.0266,1.07938 -0.0839,1.25145 z m -25.687885,0.47799 c -0.171215,0.30596 -0.284975,1.13381 -0.482573,3.51179 -0.0461,0.55523 -0.181515,1.316 -0.300833,1.69062 -0.192077,0.60301 -0.620878,3.91412 -0.979589,7.56408 -0.06762,0.68829 -0.10966,1.90846 -0.09337,2.71147 0.01627,0.80301 0.01896,1.55388 0.0058,1.66859 -0.01306,0.11472 -0.05018,0.83859 -0.08249,1.60861 -0.07068,1.68423 -0.358514,2.12549 -1.287905,1.97466 -0.364613,-0.0592 -0.768009,-0.002 -0.89643,0.12592 -0.172273,0.17227 -0.456482,0.0174 -1.08399,-0.59069 -0.990822,-0.96016 -1.274324,-1.42516 -1.370023,-2.24712 -0.04143,-0.35561 -0.6016,-1.24359 -1.384356,-2.19437 -0.723149,-0.87838 -2.009851,-2.51918 -2.859342,-3.64624 -1.406881,-1.86656 -1.560072,-2.00719 -1.718866,-1.57793 -0.09588,0.2592 -0.125095,0.5996 -0.06492,0.75643 0.06339,0.16528 0.01678,0.2279 -0.110995,0.14895 -0.267148,-0.16511 -0.220458,2.76275 0.06171,3.86816 0.102584,0.40191 0.22878,1.17491 0.28043,1.71778 0.09118,0.95839 0.06973,1.00302 -0.739028,1.53823 -1.213104,0.8028 -1.818008,0.72783 -2.768377,-0.34311 -0.436503,-0.49188 -0.955052,-1.23102 -1.152322,-1.64252 -0.38656,-0.80636 -0.379821,-0.48967 -0.227023,-10.67017 0.0822,-5.47669 0.08805,-5.43526 -1.09402,-7.75189 -0.293859,-0.57591 -0.220888,-0.91866 0.33664,-1.58123 0.286791,-0.34084 0.521436,-0.71344 0.521436,-0.82801 0,-0.8496 2.307409,-0.18917 3.558837,1.01864 0.799321,0.77146 1.011793,1.15219 1.327345,2.3785 0.206628,0.80301 0.671966,1.97624 1.034091,2.60718 0.362118,0.63093 0.976212,1.8511 1.364647,2.71147 0.388435,0.86037 1.113911,2.20077 1.61216,2.97868 0.498256,0.77792 0.905918,1.48776 0.905918,1.57744 0,0.32432 1.157012,1.2625 1.379535,1.11862 0.125488,-0.0811 0.2924,-0.89838 0.370914,-1.81611 0.07852,-0.91773 0.231772,-2.27868 0.340557,-3.02434 0.108792,-0.74565 0.285252,-2.13407 0.39214,-3.08538 0.106889,-0.95132 0.293663,-2.17149 0.415052,-2.71146 0.121389,-0.54 0.270912,-1.23714 0.33227,-1.54921 0.06134,-0.31205 0.368581,-0.80901 0.682719,-1.10434 0.471056,-0.44286 0.699107,-0.51403 1.301173,-0.40607 1.135633,0.20363 2.031435,0.70473 2.153779,1.20481 0.06134,0.25071 0.199189,0.79527 0.306355,1.21013 0.112271,0.43463 0.117712,0.89207 0.01284,1.07943 z m -23.075479,-0.16513 c -0.0372,0.34415 -0.210713,1.28274 -0.385524,2.08575 -0.174819,0.80301 -0.397276,1.88238 -0.494347,2.39861 -0.09708,0.51622 -0.386531,1.40787 -0.643234,1.98145 -0.256703,0.57358 -0.48544,1.41831 -0.5083,1.87717 -0.02283,0.45886 -0.100061,1.16281 -0.171573,1.56431 -0.211647,1.18836 -0.358172,3.50884 -0.360097,5.7029 -0.0015,1.50104 -0.08875,2.18555 -0.32529,2.54656 -0.21587,0.32945 -0.277156,0.70471 -0.184206,1.12791 0.117421,0.53461 0.07645,0.63421 -0.260941,0.63421 -0.398297,0 -0.88435,-0.76009 -0.88435,-1.38294 0,-0.43606 -0.470334,-0.24999 -0.744302,0.29447 -0.220888,0.43898 -0.225958,0.43927 -0.573575,0.0333 -0.192894,-0.22528 -0.350717,-0.46061 -0.350717,-0.52296 0,-0.0624 -0.209634,-0.55402 -0.465877,-1.09262 -0.419924,-0.88281 -0.466972,-1.30806 -0.477183,-4.31648 -0.0073,-1.83546 0.05762,-3.47798 0.142017,-3.65006 0.145372,-0.2964 0.977765,-5.17466 0.996555,-5.84008 0.0051,-0.17207 0.09552,-0.92294 0.201472,-1.6686 0.105954,-0.74565 0.244952,-2.84706 0.308892,-4.66977 0.08032,-2.28984 0.201486,-3.41789 0.392046,-3.65005 0.151689,-0.18482 0.400237,-0.58535 0.552335,-0.8901 0.236884,-0.47465 0.355203,-0.52928 0.825296,-0.3811 0.301824,0.0951 0.891308,0.22964 1.30997,0.29888 0.962222,0.15915 1.160076,0.40508 1.302895,1.61944 0.06339,0.53881 0.306128,1.54635 0.539461,2.23901 0.38869,1.15378 0.44441,1.94272 0.258577,3.66081 z"
       id="path4193"
       />
    <path
       style="fill:#151515;fill-opacity:1"
       d="m 620.62442,825.80167 c -10.34328,8.25527 -27.54526,4.12586 -34.50859,17.39369 -9.71855,11.55786 41.16463,-1.02855 20.61452,11.29527 -8.84101,5.61251 -31.97214,-6.587 -28.43752,11.46495 7.71517,2.54063 38.23688,-5.60724 31.95838,5.86512 -7.36339,8.05984 -34.31648,-3.877 -28.42684,9.60218 5.19113,17.4265 26.80304,11.381 35.7872,12.50444 -7.38524,10.2423 -24.23235,14.73005 -36.53813,12.38186 -16.92752,-2.53275 -13.29388,-28.29099 -24.51034,-29.92222 -14.953,-3.0868 13.40618,-9.08307 11.07683,-18.28391 0.99949,-5.24184 -23.08283,2.61905 -6.03614,-8.46927 17.95404,0.88458 25.24485,-19.73733 41.4675,-24.81142 4.68548,-2.2504 14.95673,-4.45378 17.55313,0.97931 z m -119.49162,23.2803 c -3.52477,20.89388 -13.47357,40.58143 -25.07376,58.10533 -13.42058,14.30647 -36.3949,12.04782 -53.04898,5.17215 -21.16067,-11.1255 -29.93606,-41.33607 -15.31802,-61.03189 7.99525,-15.2075 20.23663,-28.04782 34.52283,-37.36072 17.65945,-2.92488 27.24269,-5.88054 40.95322,-1.01694 13.96406,5.0718 18.3189,22.68031 17.96471,36.13207 z m -10.72621,6.72992 c 0.45244,-16.14246 -11.65126,-33.09239 -28.99322,-32.00343 -10.22627,-2.88713 -19.04242,8.76893 -27.40122,6.77805 -10.21425,8.41189 -19.06799,18.68735 -24.76614,30.6509 -0.50298,22.16369 19.60583,42.15764 42.04151,39.94089 15.33081,1.72818 30.26084,-7.79028 34.12359,-22.89801 3.3255,-6.94775 6.45191,-14.59888 4.99548,-22.4684 z M 172.47985,821.4292 c -0.0261,15.86898 -10.13427,28.68778 -12.97268,43.88655 -4.22263,14.36478 -3.79868,29.97949 -9.01722,43.97294 -12.28497,1.57918 -27.8383,-1.31598 -41.48288,0.0523 -14.509071,-2.88968 -38.371106,9.36051 -47.093469,-1.0463 2.518125,-20.80326 3.505367,-41.83594 6.577162,-62.55069 -6.096898,-10.93218 5.056463,-21.14621 17.167985,-20.22738 7.747711,-1.25232 9.897143,-1.52284 1.950177,-1.67557 27.273715,-2.25939 54.654585,-7.71952 82.101345,-5.17649 l 2.7733,0.8082 -0.004,1.95648 z m -9.93921,13.76101 c -29.31216,-1.8033 -58.28311,4.56462 -87.498333,5.83925 -0.412141,18.42076 -5.695007,36.77377 -4.699407,55.11293 25.448446,-3.17261 51.18238,-5.01042 76.83502,-3.27696 4.07006,-19.10388 6.57609,-38.98599 15.45401,-56.71136 z m -84.622689,60.8887 c -7.385418,1.35965 6.243396,-0.10416 0,0 z"
       id="path4195"
       />
    <path
       id="path4205"
       d="m 349.03557,858.61629 c -2.98495,9.29499 -7.29304,17.22872 -15.68214,22.90288 -9.59893,9.2139 -20.36127,16.68217 -30.2433,25.6062 -11.39587,11.57076 -9.14149,-7.37882 -8.91503,-14.66903 0.62243,-13.1683 -26.21308,-2.97395 -36.44954,-6.75663 -11.01644,-2.59669 -42.53722,11.88542 -32.01338,-10.40088 3.79523,-10.00412 2.24309,-21.51521 10.00878,-29.69762 6.61549,-3.90281 24.69301,-1.19974 39.10629,-1.26004 14.03053,0.81752 29.55191,7.11406 28.50138,-12.7565 3.63153,-11.76966 8.34432,-11.15102 15.34346,-5.15923 10.0435,10.06024 23.78405,20.46593 30.34348,32.19085 z m -16.53695,5.6501 c -6.52666,-5.40073 -21.31633,-28.74436 -24.7782,-21.8128 -0.76909,6.75963 -1.09144,23.86877 -11.06744,20.30449 -20.16254,-3.08311 -40.60193,-3.20001 -60.96472,-3.38234 -9.73118,21.09878 17.92259,6.19636 28.88598,10.04469 13.2602,3.87277 45.54303,-9.18864 37.58839,14.62302 -4.07451,22.69729 17.16832,-6.98507 25.34734,-10.22441 1.95721,-2.72519 11.98792,-6.0626 4.98865,-9.55265 z"
       style="fill:#4285f4;fill-opacity:1" />
    <path
       id="path4207"
       d="m 338.86244,983.17296 c -0.32733,0.59492 -1.10845,2.47774 -1.14159,2.75167 -0.0462,0.38227 -2.08349,1.85535 -3.35467,2.42567 -1.86215,0.83546 -3.69817,1.24815 -6.25723,1.40647 -2.03671,0.126 -5.26449,-0.31859 -5.53912,-0.76297 -0.085,-0.13756 -0.29797,-0.1951 -0.47321,-0.12786 -0.20578,0.079 -0.51245,-0.13185 -0.86596,-0.59532 -0.30104,-0.39468 -0.64637,-0.7176 -0.76743,-0.7176 -0.12103,0 -0.56209,0.26565 -0.98011,0.59034 -0.418,0.32469 -1.46396,0.84789 -2.32434,1.16266 -1.48071,0.54174 -1.98954,0.67775 -4.48434,1.19872 -1.2026,0.25113 -5.36804,0.22709 -6.05726,-0.0349 -0.52817,-0.20082 -1.39748,-1.02137 -1.9088,-1.80177 -0.35984,-0.54915 -0.32809,-0.54658 -2.35838,-0.19063 -0.28679,0.0503 -1.08459,0.14962 -1.77288,0.22075 -0.6883,0.0711 -1.72894,0.22149 -2.31253,0.33414 -0.72503,0.13994 -1.2464,0.13434 -1.64625,-0.0177 -0.32186,-0.12238 -1.06453,-0.2669 -1.65039,-0.32119 -1.00719,-0.0933 -1.776,-0.33585 -3.46382,-1.09273 -1.04073,-0.46669 -1.38201,-0.49727 -1.67052,-0.14964 -0.13966,0.16827 -0.3378,0.2541 -0.44034,0.19073 -0.10251,-0.0634 -0.24693,0.055 -0.32093,0.26302 -0.24495,0.68878 -0.74474,1.09839 -1.50762,1.23564 -0.41443,0.0746 -0.86498,0.22381 -1.0012,0.33166 -0.13624,0.10786 -2.34191,0.20532 -4.9015,0.21657 -3.83845,0.0168 -4.86066,-0.0422 -5.83437,-0.33693 -1.20583,-0.36506 -3.62116,-2.01337 -4.23903,-2.89286 -1.44523,-2.05727 -2.18323,-3.67586 -2.30658,-5.05882 -0.0409,-0.45886 -0.0818,-0.88122 -0.0908,-0.93858 -0.0179,-0.11433 -0.56454,0.86234 -1.64154,2.93307 -0.38409,0.73849 -1.06805,1.68702 -1.51988,2.10783 -0.81793,0.76173 -2.2724,1.63349 -2.72542,1.63349 -0.13082,0 -0.38606,0.13296 -0.56716,0.29548 -0.1811,0.16252 -0.82208,0.48201 -1.4244,0.71001 -0.90635,0.34309 -1.55337,0.40898 -3.75434,0.38238 l -2.65922,-0.0322 -1.18434,-0.88196 c -0.65138,-0.48509 -1.30839,-1.05902 -1.46003,-1.27541 -0.36899,-0.5266 -1.30717,-0.23688 -1.12202,0.34649 0.38928,1.22655 -2.84047,2.08256 -6.14089,1.62757 -2.15814,-0.29751 -4.54776,-1.48468 -6.15295,-3.05679 -0.57358,-0.56176 -1.1398,-0.95421 -1.25827,-0.8721 -0.29638,0.20541 -0.7177,2.01252 -0.76882,3.29749 -0.0419,1.05249 -0.0501,1.06465 -0.88475,1.29701 -1.56214,0.4349 -2.54903,0.38803 -3.00955,-0.14295 -0.53259,-0.61407 -0.76019,-2.41512 -0.4696,-3.7162 0.12322,-0.55177 0.33042,-1.56636 0.4604,-2.25466 0.12999,-0.68829 0.33198,-1.72073 0.44886,-2.29432 0.13632,-0.66903 0.15257,-2.42607 0.0453,-4.90149 -0.0919,-2.12225 -0.17345,-4.35955 -0.18112,-4.97177 -0.0146,-1.16779 -0.0784,-1.06793 1.48907,-2.33322 0.16789,-0.13553 0.58161,-0.0806 1.24363,0.16523 0.83728,0.31088 1.01353,0.47332 1.12968,1.04129 0.0757,0.37013 0.231,0.79085 0.34508,0.93495 0.19012,0.24011 0.33003,1.20127 0.58464,4.01636 0.0519,0.57357 0.1464,1.26648 0.21008,1.53978 0.11273,0.484 0.12512,0.48671 0.47684,0.10429 0.1986,-0.21594 0.57814,-0.90885 0.84343,-1.53979 0.73512,-1.74838 1.3602,-3.00964 1.56529,-3.15836 0.21852,-0.15848 0.92993,-1.4445 1.79825,-3.25071 1.32111,-2.74816 0.51392,-4.90342 -2.35689,-6.29317 -0.88824,-0.42998 -1.05318,-0.44535 -2.27324,-0.21161 -0.72352,0.13861 -1.64401,0.41 -2.04551,0.60312 -0.57452,0.2763 -0.85685,0.304 -1.32543,0.13003 -1.06014,-0.39363 -1.44319,0.60403 -1.6337,4.25488 -0.009,0.17206 -0.14854,0.46536 -0.31017,0.65175 -0.16162,0.1864 -0.27455,0.42105 -0.25096,0.52144 0.0803,0.34162 -0.29371,1.43227 -0.68164,1.98762 -0.2127,0.3045 -0.38674,0.61351 -0.38674,0.68667 0,0.0732 -0.0979,0.24639 -0.2175,0.38494 -0.37045,0.42905 -1.65967,2.52301 -1.65967,2.69564 0,0.0899 -0.1431,0.16347 -0.31803,0.16347 -0.17491,0 -0.40376,0.22552 -0.50857,0.50118 -0.10478,0.27563 -0.29019,0.56275 -0.41198,0.63802 -0.12178,0.0753 -0.22144,0.31904 -0.22144,0.5417 0,0.22266 -0.13063,0.40484 -0.29029,0.40484 -0.15969,0 -0.7463,0.3989 -1.30359,0.88644 -0.55732,0.48755 -1.38873,1.17274 -1.8476,1.52265 -0.92962,0.70889 -3.2329,2.03646 -3.2329,1.86338 0,-0.0611 -0.44508,0.12578 -0.98906,0.41537 -0.54401,0.28959 -1.14342,0.52652 -1.33206,0.52652 -0.20903,0 -0.38503,0.22402 -0.45062,0.57358 -0.0592,0.31547 -0.21598,1.18078 -0.34845,1.92292 -0.13246,0.74213 -0.36236,1.63378 -0.51088,1.98145 -0.41002,0.95978 -1.21902,3.68088 -1.30337,4.38396 -0.0411,0.34277 -0.22753,1.02324 -0.41425,1.51216 -0.33031,0.8649 -0.53248,0.99026 -1.51506,0.9395 -0.16152,-0.008 -0.50104,0.0637 -0.75452,0.16004 -0.37153,0.14126 -0.54289,0.0643 -0.88402,-0.39714 -0.8657,-1.17092 -0.679,-2.78201 0.99349,-8.57358 0.21531,-0.74565 0.4535,-1.91559 0.52927,-2.59986 0.0758,-0.68428 0.17944,-1.43515 0.23033,-1.6686 0.26704,-1.22466 0.5235,-4.13941 0.63371,-7.20206 l 0.12379,-3.44042 0.85797,-0.97079 0.85796,-0.97079 1.19348,0.63069 c 0.66996,0.35403 1.25879,0.82514 1.34234,1.07401 0.12435,0.37034 0.11757,4.10181 -0.0127,7.04159 -0.0267,0.60255 0.032,0.73327 0.28597,0.63682 0.17579,-0.0667 0.4904,-0.33721 0.69915,-0.60101 0.20875,-0.26379 1.05348,-0.99097 1.87717,-1.61599 1.7875,-1.35629 3.06193,-2.6477 3.06193,-3.10273 0,-0.18167 0.11732,-0.40538 0.26072,-0.49711 0.64353,-0.41171 2.0336,-3.0304 2.0336,-3.83105 0,-0.20808 0.083,-0.42963 0.18446,-0.49234 0.10147,-0.0627 0.29791,-0.71512 0.43653,-1.44985 0.34877,-1.84838 -0.0773,-2.57683 -2.04447,-3.49569 -2.0482,-0.95668 -8.75685,-1.14778 -10.51818,-0.29961 -0.73898,0.35584 -0.78099,0.42826 -0.74841,1.28988 0.0228,0.6011 -0.0849,1.0449 -0.31528,1.29942 -0.32842,0.36293 -0.32394,0.41943 0.0733,0.92449 l 0.42315,0.53795 -0.80985,-0.31811 c -0.71519,-0.28093 -0.87827,-0.28229 -1.3949,-0.0117 -0.57692,0.30229 -0.59684,0.29216 -1.43512,-0.73049 -1.19559,-1.45849 -1.75447,-2.43567 -1.64107,-2.86929 0.0535,-0.20467 -0.004,-0.43519 -0.12943,-0.51228 -0.40863,-0.25254 -0.23937,-0.7872 0.5554,-1.75443 0.43019,-0.52352 0.87709,-1.13983 0.99311,-1.3696 0.32587,-0.64537 2.47697,-1.74717 4.33945,-2.22271 2.71252,-0.69255 8.43375,-0.52626 10.40249,0.30237 2.24935,0.94673 3.62275,1.72414 4.93854,2.79541 0.80197,0.65297 0.93442,0.70027 1.10536,0.39477 0.10683,-0.19089 0.28792,-0.34706 0.40241,-0.34706 0.1145,0 0.41487,-0.21348 0.6675,-0.47441 0.25264,-0.26092 1.14978,-0.69192 1.99366,-0.95775 1.99468,-0.62837 4.11139,-0.62894 5.78817,-0.002 3.21056,1.20123 6.69532,4.52197 7.08585,6.75239 0.0402,0.22943 0.16225,0.77783 0.2713,1.21865 0.18903,0.76428 0.0958,1.36675 -0.39229,2.53569 -0.33562,0.80375 -0.62573,1.83872 -0.62573,2.23233 0,0.50501 -2.62061,5.28771 -3.08971,5.6388 -0.19348,0.1448 -0.38288,0.49792 -0.42092,0.78471 -0.0381,0.28678 -0.19742,0.72185 -0.35414,0.96681 -0.70367,1.09969 -1.77308,4.15918 -1.64999,4.72046 0.20897,0.95295 1.96053,1.64843 5.09762,2.02406 2.04136,0.24443 3.12861,0.54522 3.12861,0.86552 0,0.1008 0.14079,0.18327 0.31286,0.18327 0.39544,0 0.39728,0.0188 -0.12622,-1.29587 -0.38972,-0.9787 -0.42725,-1.39599 -0.3336,-3.70992 0.11574,-2.86001 0.39104,-4.24431 1.60776,-8.08453 0.6796,-2.14494 0.77521,-2.65782 0.59291,-3.18076 -0.2185,-0.62674 -0.65778,-0.81741 -0.917,-0.39798 -0.19858,0.32131 -1.02806,0.0639 -1.64927,-0.51186 -1.06745,-0.98925 -0.60462,-2.65428 1.21586,-4.3741 2.44689,-2.3116 3.51992,-2.89168 5.52543,-2.98706 2.02029,-0.0961 2.72926,0.11978 4.94884,1.50706 1.72252,1.07659 4.25694,3.28112 4.25694,3.70284 0,0.1004 0.40337,0.71343 0.89639,1.36226 1.00765,1.32611 2.63238,4.58084 2.80141,5.61189 0.0611,0.37282 0.1927,0.67786 0.2924,0.67786 0.0997,0 0.18273,0.44583 0.18448,0.99073 0.006,1.77156 0.28364,1.70687 1.2581,-0.29286 0.4945,-1.01475 0.90576,-1.90212 0.91392,-1.97189 0.008,-0.0697 0.41372,-0.66025 0.90127,-1.31218 0.48754,-0.65194 0.88643,-1.24458 0.88643,-1.31698 0,-0.15943 1.81711,-2.29432 3.10703,-3.65042 0.51454,-0.54095 1.01612,-1.12756 1.11465,-1.3036 0.0985,-0.17604 0.28491,-0.32007 0.41421,-0.32007 0.12929,0 0.71126,-0.32461 1.29322,-0.72136 1.0446,-0.71213 1.07621,-0.71906 2.47111,-0.54102 1.16099,0.14817 1.55617,0.30471 2.21585,0.87778 1.33438,1.15918 1.73311,2.47034 0.75124,2.47034 -0.58421,0 -0.63082,0.15741 -0.2768,0.93443 0.19307,0.42372 0.1866,0.59066 -0.0307,0.79196 -0.22195,0.20561 -0.25044,0.1843 -0.1469,-0.10994 0.0707,-0.20075 0.0376,-0.36501 -0.0736,-0.36501 -0.11112,0 -0.20203,0.0851 -0.20203,0.18905 0,0.10398 -0.16426,0.14837 -0.36501,0.0986 -0.76223,-0.18882 -4.79464,3.12741 -6.1008,5.01726 -0.28679,0.41496 -0.68289,0.95092 -0.88025,1.191 -0.19735,0.24011 -0.41485,0.61313 -0.48335,0.82894 -0.0685,0.21581 -0.19158,0.39237 -0.27352,0.39237 -0.0819,0 -0.27521,0.42755 -0.42952,0.95012 -0.15428,0.52256 -0.39677,1.06634 -0.53881,1.2084 -0.29161,0.2916 -0.72744,2.22007 -0.85559,3.78586 -0.107,1.30737 0.53845,2.70664 1.56257,3.38747 0.58835,0.39113 0.99572,0.47169 2.39861,0.47435 0.92943,10e-4 1.8064,0.0772 1.9488,0.16761 0.5757,0.36562 4.81064,-0.54385 6.66501,-1.43134 1.26895,-0.6073 1.2886,-0.62951 1.08165,-1.22316 -0.11593,-0.33254 -0.17773,-1.62267 -0.13731,-2.86695 0.0578,-1.77845 0.22404,-2.79766 0.77732,-4.76522 0.63365,-2.25333 0.70563,-2.78455 0.72204,-5.32779 0.015,-2.32372 0.0833,-2.92425 0.3852,-3.38499 0.42297,-0.64558 1.45585,-1.24229 1.87316,-1.08215 0.15683,0.0602 0.9327,-0.31593 1.72419,-0.83578 0.79147,-0.51985 1.53731,-0.94575 1.65741,-0.94647 0.1201,0 0.453,-0.12083 0.73979,-0.26695 1.35204,-0.68886 5.18958,-1.61414 6.8843,-1.65988 1.5263,-0.0412 2.71013,0.20683 2.71013,0.56778 0,0.15915 0.17286,0.34424 0.38415,0.41129 0.74768,0.2373 1.31861,1.06679 1.24722,1.81205 -0.053,0.55254 -0.20816,0.76643 -0.73652,1.01484 -0.5146,0.24195 -0.62392,0.38685 -0.47249,0.62635 0.10833,0.17137 0.19842,0.37074 0.20017,0.44308 0.002,0.0723 -1.00579,0.19571 -2.23899,0.27415 -1.23319,0.0784 -2.53603,0.27646 -2.8952,0.44007 -0.35918,0.16358 -1.25084,0.43417 -1.98145,0.6013 -1.79733,0.4111 -3.09525,0.76507 -3.7522,1.02326 -0.5144,0.20218 -0.55624,0.32616 -0.71024,2.10517 -0.26517,3.06356 -0.25975,3.14307 0.21396,3.13243 1.56302,-0.0351 4.79288,-0.37429 5.84008,-0.61333 0.6883,-0.15712 2.25201,-0.39823 3.47488,-0.53583 l 2.22344,-0.25018 1.27018,0.77159 c 1.04922,0.63737 1.26964,0.86876 1.267,1.33008 -0.004,0.6786 -0.16602,0.94182 -0.77896,1.26461 -0.25811,0.13592 -0.46929,0.42006 -0.46929,0.63141 0,0.75336 -0.58886,0.9161 -5.07891,1.40358 -0.55644,0.0604 -1.53202,0.2815 -2.16796,0.4913 -0.63595,0.2098 -1.27779,0.33482 -1.42632,0.27782 -0.14853,-0.057 -0.76854,-0.002 -1.3778,0.12105 -0.60924,0.12356 -1.89127,0.24166 -2.84892,0.26242 l -1.74116,0.0378 0.0727,1.59927 c 0.0678,1.49241 0.12515,1.66336 0.85871,2.55857 0.9449,1.15313 1.61386,1.31012 4.82439,1.13228 2.15063,-0.11913 4.1636,-0.6364 5.50373,-1.41428 1.01271,-0.58784 2.00785,-0.30222 2.70375,0.77605 0.51595,0.79943 0.58589,1.11535 0.24687,1.11535 -0.12235,0 -0.19274,0.25477 -0.15643,0.56617 0.0527,0.4519 0.21333,0.60292 0.79601,0.74836 1.43974,0.35934 4.56235,-0.0657 6.4658,-0.8802 0.51623,-0.22088 1.09671,-0.45059 1.28995,-0.51047 0.686,-0.21255 0.81142,-0.83948 0.34281,-1.71377 -0.23871,-0.4454 -0.54965,-0.90536 -0.69098,-1.02212 -0.34753,-0.28714 -2.38102,-2.80307 -3.02752,-3.74577 -0.28679,-0.41819 -0.7019,-1.00288 -0.92246,-1.2993 -0.22055,-0.29642 -0.5574,-0.83206 -0.74851,-1.19028 -0.19114,-0.35823 -0.70071,-1.29209 -1.1324,-2.07522 -1.27401,-2.31128 -1.19953,-4.89916 0.19356,-6.72561 0.28823,-0.3779 0.52406,-0.7872 0.52406,-0.90957 0,-0.12238 0.0709,-0.22249 0.15756,-0.22249 0.0867,0 0.55385,-0.35197 1.03818,-0.78215 1.52518,-1.35469 2.29371,-1.92917 2.58722,-1.93395 0.15635,-0.002 0.5189,-0.1882 0.80568,-0.41252 0.28679,-0.22432 0.68102,-0.40995 0.87608,-0.41251 0.19506,-0.002 0.43509,-0.14839 0.53343,-0.32409 0.0983,-0.1757 0.5488,-0.37239 1.00107,-0.43704 0.45229,-0.0647 1.13177,-0.25593 1.50997,-0.425 0.89178,-0.39862 1.76926,-0.20338 2.85095,0.63443 1.18431,0.91726 1.74656,1.58831 1.89427,2.2609 0.14875,0.67724 0.28581,0.71241 0.8397,0.21548 0.84794,-0.76076 2.46018,-1.92932 2.66181,-1.92932 0.11552,0 0.38619,-0.15941 0.60148,-0.35424 0.21529,-0.19483 0.50427,-0.37443 0.64216,-0.39911 0.13789,-0.0247 0.66141,-0.19378 1.16337,-0.37576 1.7957,-0.65105 2.88262,-0.40608 4.89222,1.10262 1.49143,1.1197 2.09359,2.83802 1.49585,4.2686 -0.17877,0.42783 -0.56192,0.88582 -0.85146,1.01775 -0.4635,0.21118 -0.58852,0.17293 -1.04555,-0.31996 -0.28551,-0.30792 -0.739,-0.55983 -1.00776,-0.55983 -0.31326,0 -0.52785,-0.14974 -0.59776,-0.41715 -0.13697,-0.52375 -0.85718,-0.54607 -2.07325,-0.0643 -1.18885,0.47105 -1.44585,0.82514 -1.30705,1.80084 0.27499,1.93275 1.41962,3.50023 5.89381,8.07101 1.28886,1.3167 2.34357,2.46412 2.34377,2.54983 1.9e-4,0.0857 0.3182,0.50807 0.70667,0.93859 0.98658,1.09334 1.47479,3.10579 0.9742,4.01566 z m -6.12473,-2.29432 c -0.37848,-0.63094 -0.98265,-1.33488 -1.34259,-1.56431 -0.35996,-0.22943 -0.68346,-0.5281 -0.71887,-0.6637 -0.0354,-0.1356 -0.91575,-1.12602 -1.95627,-2.20093 -3.1401,-3.24385 -4.15163,-4.70041 -5.06887,-7.29896 -0.21344,-0.6047 -0.39556,-1.32123 -0.40468,-1.5923 -0.0227,-0.67196 -0.1674,-0.76761 -0.71716,-0.47383 -0.54711,0.29236 -1.37313,0.21274 -1.59992,-0.1542 -0.0869,-0.14067 -0.38425,-0.26742 -0.66072,-0.28168 -0.27646,-0.0144 -0.64345,-0.14242 -0.81552,-0.28475 -0.41613,-0.34421 -1.51684,0.0333 -3.03376,1.04046 -1.37413,0.91236 -1.67957,1.37542 -1.83224,2.77758 -0.0999,0.91748 -0.0327,1.24415 0.42897,2.08574 0.54092,0.98611 1.76269,2.69724 2.49518,3.49464 0.20766,0.22606 0.4287,0.60149 0.49123,0.8343 0.0625,0.23282 0.20872,0.42331 0.32487,0.42331 0.26417,0 1.91939,1.85127 2.73354,3.0573 0.66926,0.99137 1.00147,1.7741 1.22035,2.87526 0.18376,0.92445 0.39925,1.12399 1.66945,1.54588 0.80704,0.26805 1.49408,0.32133 3.00091,0.23272 1.07483,-0.0632 2.0327,-0.1634 2.12858,-0.22267 0.0959,-0.0593 0.33896,-0.14302 0.54013,-0.18614 1.75626,-0.37637 3.80882,-1.50229 3.8064,-2.08799 0,-0.11472 -0.31053,-0.7248 -0.68901,-1.35573 z m -56.35523,-6.88296 c -0.17207,0.14281 -0.30988,0.36548 -0.30623,0.49482 0.004,0.12936 0.14444,0.053 0.31286,-0.16967 0.3934,-0.52013 0.39064,-0.65487 -0.007,-0.32515 z m -11.40253,-0.91716 c -0.24882,-0.70008 -0.52057,-1.36673 -0.60391,-1.48145 -0.0833,-0.11471 -0.41164,-0.67786 -0.72953,-1.25145 -0.72916,-1.31557 -2.12206,-2.96846 -2.80283,-3.32599 -0.32152,-0.16886 -0.69065,-0.21003 -0.96277,-0.10743 -0.9909,0.3736 -2.78163,3.36987 -3.10174,5.18979 -0.069,0.39241 -0.25554,0.95556 -0.41449,1.25145 -0.96369,1.79372 -1.6543,7.44174 -1.07579,8.79828 0.51518,1.20804 1.16595,1.50456 3.06127,1.39484 1.90301,-0.11016 3.43838,-0.78531 5.02024,-2.20751 1.58278,-1.42307 2.01112,-2.45741 2.03877,-4.92335 0.0184,-1.63015 -0.072,-2.33204 -0.42922,-3.33718 z"
       style="fill:#4285f4;fill-opacity:1" />
  </g>
</svg>
