<?xml version="1.0" encoding="UTF-8" standalone="no"?>
<!-- Created with Inkscape (http://www.inkscape.org/) -->

<svg
   width="700"
   height="500"
   viewBox="0 0 700.00001 500.00002"
   id="svg2"
   version="1.1"
   >
  <g
     id="layer1"
     transform="translate(0,-552.36216)">
    <path
       style="fill:#000000;stroke-width:0.99999994"
       d="m 331.09835,1020.1869 c -13.04289,-17.5435 3.90336,-36.29435 13.85248,-49.88895 0.58602,-13.7052 -4.37413,-36.89429 -2.98085,-44.41397 -12.5403,3.38593 -18.42465,14.44649 -24.46371,24.73957 -10.86368,17.7908 -34.77901,6.0312 -49.7326,17.0747 -7.20585,4.1881 -25.01399,23.9072 -14.28016,4.3674 12.59994,-15.0995 30.6861,-27.7352 51.35821,-24.3712 16.58283,-2.3095 16.63473,-29.13196 35.87973,-31.82448 16.86577,-10.68614 0.56127,-35.57461 8.21487,-51.34994 4.93564,-18.92495 10.6746,-38.93423 4.60515,-58.44341 -4.86594,-19.69735 11.55635,-40.66402 -2.68503,-58.722 -7.06494,-9.68852 -19.08187,-30.74402 -7.64889,-38.39416 20.28492,-7.83548 5.56158,27.43918 21.27432,35.19968 15.92151,17.89529 -0.84324,39.66078 3.82097,59.7235 8.73898,24.69077 -4.71341,48.78502 -6.53556,73.24714 1.66217,18.21833 3.8779,-19.69549 10.65048,-23.11266 15.98215,-25.24654 1.87429,-55.54388 10.1894,-82.47808 3.77992,-20.73207 -15.21428,-42.62583 -1.7588,-62.01555 9.87733,-4.45786 17.72827,-6.6225 9.95268,7.40287 -1.02263,20.53455 12.35096,40.6224 4.30032,61.23179 -2.67003,23.88509 5.38862,50.17748 -7.71243,72.23074 -9.0605,15.58115 -9.33111,34.26193 -14.85439,51.13566 -9.77399,22.31718 21.71117,13.84256 33.93122,12.53141 14.29313,-4.18287 27.46754,3.08712 37.95054,12.18015 8.04094,12.54154 35.94859,-3.38142 34.73645,8.56887 -2.83682,15.34117 -22.81854,10.84297 -34.01972,9.15687 -14.31488,-7.73123 -26.86403,-23.39325 -44.96802,-16.78978 -13.95903,3.09835 -40.09803,-5.04612 -20.42498,11.60643 3.66948,13.52565 -0.69949,33.09835 15.49809,40.20385 9.39511,6.9623 22.18525,5.8337 32.38488,11.6919 5.91225,3.0258 21.31479,4.5461 15.56442,14.16715 -3.47618,14.1054 -17.9585,-2.4169 -27.12958,-2.4096 -14.99886,-5.57745 -34.98342,-7.17225 -40.65674,-25.52715 2.29199,-22.7988 -13.81324,-36.52606 -23.92516,-53.98534 -5.5305,13.00798 8.0911,26.07064 1.87012,39.30764 -0.67281,15.4394 -19.72751,23.8481 -17.81196,38.26455 2.36395,5.9704 1.26026,16.9504 -4.44575,19.6944 z M 132.06502,905.31587 c -3.54054,-9.80398 19.86494,-9.16046 27.4162,-10.13456 43.82282,-3.21558 88.08157,-2.87751 132.03585,-2.5231 11.70685,4.08684 43.88624,-3.24981 44.67531,5.52662 -16.31451,10.9721 -40.70924,1.43671 -60.21267,3.11648 -47.99157,-0.18772 -96.0456,0.89816 -143.91469,4.01456 z m 256.39018,-5.56833 c 5.73255,-8.33322 22.90298,-6.71483 33.52183,-8.10932 44.21836,-3.36524 88.56694,-1.83939 132.78301,-2.45406 -7.61913,14.96598 -31.0466,4.66337 -44.84805,8.35629 -40.22206,0.14311 -80.45208,1.59004 -120.64934,3.21873 l -0.78411,-0.98244 z M 353.16187,705.4066 c -34.83749,-1.33826 -70.01081,-14.01622 -95.38165,-38.31296 -18.84797,-8.62674 3.08821,-25.02474 15.1818,-28.39721 19.45522,-8.02855 42.53546,-5.65068 61.05815,3.06265 7.34369,-23.33015 21.69276,-46.4889 44.69508,-56.82375 11.49492,-2.85411 23.09339,10.27854 30.8728,19.21413 7.72189,12.25901 13.4741,27.23575 11.59511,41.87441 18.7412,-7.89997 39.38085,-16.54584 60.03089,-12.56896 1.2636,6.73272 -5.21841,21.45231 -14.74744,30.2659 -28.47007,30.16308 -72.50986,43.60938 -113.30474,41.68579 z m 25.61641,-12.52142 c 30.41067,-3.18597 63.13037,-11.64184 85.12265,-34.11971 8.71641,-9.52486 10.49713,-19.10409 -5.57127,-14.52397 -16.46982,2.04829 -32.78405,7.48517 -46.82676,16.15768 -13.74539,18.15954 -10.85639,-18.52249 -25.30111,-20.68305 -12.3038,-9.77878 -27.03772,2.4764 -35.41314,11.67188 -4.33836,11.78295 -14.50665,15.53967 -22.3673,5.5037 -18.38196,-10.42367 -42.41111,-13.89336 -61.75009,-3.89753 16.33521,19.59808 41.83798,29.87643 66.17046,36.30524 15.04058,3.32454 30.57176,4.2273 45.93656,3.58576 z M 347.10907,648.52 c 9.76416,-12.62185 24.62726,-28.72164 42.11899,-24.19841 10.82029,4.6639 23.80135,19.44658 13.95249,-0.25604 -6.05075,-11.18464 -19.70651,-32.66926 -34.2381,-24.23428 -15.82438,9.78101 -25.68864,27.15869 -30.10332,44.73261 2.47865,-0.60804 6.06012,8.05437 8.26994,3.95612 z m 131.43268,-7.6256 c 0.68606,-1.55132 -1.43244,1.59664 0,0 z"
       id="path830"
       />
    <path
       id="path835"
       d="m 188.898,689.92144 c -14.22013,-2.01058 -22.593,-16.23351 -36.63547,-5.21713 -7.18065,4.39053 -36.9392,8.03077 -24.02669,-6.19595 7.50969,-5.55619 19.82675,-2.3611 28.52043,-7.40501 19.17286,-16.59534 29.56636,13.75641 50.59746,3.9496 16.57183,-12.73847 32.2069,6.47167 50.75138,-0.62553 4.24408,8.33583 -13.05809,19.13181 -22.8787,14.26359 -18.25196,-9.04096 -27.91609,0.63337 -46.32841,1.23043 z m 287.37394,-11.01886 c -24.052,-2.20672 0.80805,-19.5378 13.46707,-12.7496 12.11465,2.54033 23.19066,-21.51041 29.36469,-8.7479 10.6832,5.70893 25.28404,5.90039 34.62226,-2.8635 6.47386,8.78374 31.86347,-0.40434 16.25275,15.428 -9.77242,8.78235 -23.78843,-8.56055 -33.39451,3.10664 -17.34981,2.77063 -29.44719,-12.16889 -43.12631,3.06675 -5.28181,2.51688 -11.37884,3.53632 -17.18595,2.75961 z"
       style="fill:#4285f4;fill-opacity:1;stroke-width:0.99999994"
       />
  </g>
</svg>
