<?xml version="1.0" encoding="UTF-8" standalone="no"?>
<!-- Created with Inkscape (http://www.inkscape.org/) -->

<svg
   width="160mm"
   height="90mm"
   viewBox="0 0 160 90"
   version="1.1"
   id="svg8">
  <g
     id="layer1"
     transform="translate(0,-207)">
    <path
       style="fill:#151515;stroke-width:1"
       d="m 146.02361,232.54154 c -0.0881,4.75035 -3.39278,8.71748 -6.31634,12.20346 -4.3138,4.77013 -12.58046,1.12162 -13.47416,-4.80223 -0.88571,-5.77123 -0.33928,-11.96795 2.25582,-17.20688 0.73315,-3.48377 6.10533,-7.61221 10.49167,-5.70987 3.14707,1.9769 5.14124,5.78443 6.28684,9.28854 0.60088,2.00519 0.90348,4.1326 0.75617,6.22698 z m -3.97468,0.38281 c -0.8872,-4.24931 -2.32971,-10.48498 -6.69233,-12.00332 -4.88455,-1.58411 -6.06198,5.37087 -5.70193,9.05 -0.62573,4.84313 1.1336,11.83718 7.13062,11.82452 5.09992,0.22449 5.84747,-4.97422 5.26364,-8.8712 z m 2.04585,13.76982 c -2.11561,4.1719 -6.98046,4.01489 -10.87923,5.30707 -12.48749,3.46513 -24.87489,7.34796 -37.419411,10.64388 -9.67047,2.63718 -19.147615,5.8104 -28.671224,8.86575 -3.827508,1.09868 -7.822228,2.91019 -11.853209,3.96694 -12.23504,3.81353 -24.724439,6.90516 -36.556227,11.88255 -3.964557,0.9956 0.08583,-6.24705 2.681534,-6.018 4.896756,-2.0486 9.950709,-3.61018 14.877626,-4.99094 -4.460523,0.99377 4.261,-1.33515 6.186019,-1.99444 18.008235,-4.87017 35.73647,-10.67034 53.670005,-15.76506 15.756697,-3.81092 31.133757,-8.98803 46.801397,-13.12704 0.81059,-0.52845 1.94357,0.46752 1.16272,1.22929 z M 40.344258,275.0498 c -0.823888,0.31659 0.701085,-0.0617 0,0 z m 85.404252,7.26076 c -1.69767,4.39991 -6.82049,3.4174 -10.65198,3.82128 -4.52329,0.25304 -8.96404,-0.33224 -13.48587,2.9e-4 -5.954543,-0.16799 -5.758722,0.6492 -4.129289,-2.0779 1.629433,-2.7271 8.811399,-12.02725 12.376379,-20.82218 1.37859,-1.28694 3.77432,-6.71985 4.39569,-3.6677 2.91904,7.55823 6.24808,12.20952 10.25843,19.40809 0.41669,1.01799 1.45722,2.21221 1.23664,3.33812 z m -7.49523,-3.284 c -2.58023,-5.39487 -4.77841,-7.80689 -6.98173,-13.36074 l -7.57634,10.72038 c -1.07762,2.22635 -4.122708,4.14662 -0.0129,4.74042 4.45256,-0.32719 9.00126,0.59392 13.24481,0.10358 2.60699,0.34369 2.77786,0.10497 1.32614,-2.20364 z m 7.58735,-36.9163 c -0.84993,5.03171 -4.7844,10.8768 -10.60598,9.78745 -3.11924,-1.04042 -4.5662,-5.44379 -3.42062,-8.47708 0.83103,-3.2782 5.33438,-6.58907 0.41294,-8.18151 -4.30545,-3.39668 -2.09868,-8.88399 0.15569,-12.29222 1.95554,-3.35127 6.72384,-4.37565 10.25314,-2.96072 2.79107,4.51373 -0.31185,9.39106 -2.64641,13.28877 3.19356,1.56455 6.22745,5.08255 5.85124,8.83531 z m -3.92424,1.6997 c -0.85833,-4.02548 -6.75966,-8.61467 -7.28322,-1.87037 -0.87494,4.42816 4.45044,7.11208 7.26799,3.53493 0.65533,-0.26475 -0.2713,-1.41256 0.0152,-1.66456 z m -1.87085,-17.03172 c 0.4351,-4.56231 -5.35645,-2.91859 -4.86886,-1.20451 -5.19576,0.39009 -0.35418,5.63943 2.22632,6.48447 1.91219,1.45635 2.67104,-3.97995 2.64254,-5.27996 z m -11.0153,37.63495 c -0.31468,-0.0991 0.30388,-0.28642 0,0 z m -75.289843,12.60109 c -1.140823,0.22795 0.643227,-0.47414 0,0 z m -8.84533,2.80736 c -0.400336,0.0975 0.304001,-0.25981 0,0 z m -0.493561,0.22456 c -2.547669,0.86155 1.182497,-0.63393 0,0 z m -2.853552,1.08919 c -0.284337,-0.19685 0.291827,-0.0965 0,0 z"
       id="path826"/>
    <path
       id="path829"
       d="m 50.772792,259.38705 c -0.641152,4.61685 -2.094739,10.14263 -6.595982,12.43145 -4.211105,1.2035 -7.75065,-2.27754 -8.706243,-6.08675 -1.935147,-6.21234 -2.828978,-13.54016 1.362328,-19.078 2.225774,-4.1061 8.168621,-3.18718 10.656429,0.0196 2.293235,3.78231 3.125242,8.34998 3.283468,12.71372 z m -3.249991,1.95307 c -0.635052,-4.72344 -1.33114,-10.70562 -6.097374,-13.10287 -4.475262,-1.25725 -6.070745,4.95962 -4.396322,8.2244 1.048653,3.89634 1.939361,9.47723 6.749333,10.19897 2.968417,-0.415 4.46916,-2.30885 3.744363,-5.3205 z m -12.219447,7.06404 c 0.021,5.31816 -5.94291,4.83267 -9.095627,7.60176 -3.121798,1.5929 -6.254571,3.5499 -9.767428,3.97421 0.476178,-2.63177 1.035476,-3.7301 2.671733,-6.19047 3.14783,-2.57361 5.420201,-6.59155 5.113829,-10.88417 1.226003,-3.65114 -0.987067,-10.86285 -5.756519,-7.70808 -1.169401,2.20516 -6.589279,4.85102 -3.684544,0.45668 1.517196,-4.27656 6.491019,-9.32138 11.082604,-5.73038 3.010805,3.36523 2.789264,8.55408 2.353028,12.79329 -0.664333,3.3724 -1.888532,6.55432 -3.884564,9.34808 2.552268,-0.0186 8.817355,-8.56235 10.967488,-3.66092 z"
       style="fill:#4285f4;fill-opacity:1;stroke-width:1" />
  </g>
</svg>
