<?xml version="1.0" encoding="UTF-8" standalone="no"?>
<!-- Created with Inkscape (http://www.inkscape.org/) -->

<svg
   width="160mm"
   height="90mm"
   viewBox="0 0 160 90"
   version="1.1"
   id="svg8">
  <g
     id="layer1"
     transform="translate(0,-207)">
    <path
       style="fill:#000000;stroke-width:3.77952766"
       d="M 391.12109 64.865234 C 377.98174 65.020318 364.91538 67.600644 353.3457 73.822266 C 341.71737 80.3963 330.93943 87.829325 321.23828 97.179688 C 311.36336 105.46384 303.18658 116.0279 297.22852 127.31055 C 295.9834 129.70434 294.86635 132.18405 293.85938 134.71484 C 291.41373 133.90591 289.05184 132.67265 286.87305 131.38477 C 282.24526 130.17532 276.6055 128.91167 271.42383 128.57227 C 265.72241 127.76621 259.15247 130.05568 254.72852 132.12891 C 251.76558 133.86775 247.48522 136.28709 245.90039 137.44922 C 242.77187 139.27537 239.78424 142.27043 236.29688 144.4082 C 233.08664 145.06342 231.54448 146.4828 229.91797 146.80859 C 227.46552 148.1473 224.66499 149.77848 222.92969 151.33398 C 219.13982 154.73783 216.14772 159.18754 214.39648 164.05273 C 209.26009 164.20353 203.00751 163.95967 197.46875 164.10938 C 190.06329 165.06551 182.65588 163.67515 175.26562 163.19727 C 170.18928 163.87528 165.97611 167.48638 162.28125 171.39062 C 152.21934 180.38118 142.96857 190.28548 132.91406 199.26172 C 127.34995 199.57641 121.78596 199.89075 116.22852 200.35352 C 107.86026 201.15364 99.498294 201.74665 91.150391 202.80469 C 87.380694 204.0093 82.753792 202.18177 79.482422 204.55078 C 80.323779 205.89214 81.291828 208.53654 80.902344 210.79492 C 80.454659 214.72038 81.948146 218.18862 80.646484 221.66016 C 79.810506 227.31754 80.246906 233.0862 79.251953 238.73633 C 78.477562 245.91203 76.012314 253.6933 79.662109 260.5 C 80.162485 264.40992 83.98389 265.27484 87.259766 265.90039 C 95.356266 266.70343 103.26492 264.15046 111.16797 262.84766 C 114.68085 261.95452 118.24586 261.96912 121.80664 261.47461 C 126.17805 261.16155 130.51088 260.37218 134.93164 260.43945 C 139.35827 259.54507 143.56878 261.07608 147.88672 261.74805 C 149.90256 256.1476 150.28632 250.12757 151.82031 244.39453 C 151.64176 244.3935 151.46162 244.39571 151.2832 244.39453 C 148.35891 244.37265 145.37209 244.33175 142.3418 244.14648 C 141.92411 247.63859 141.46234 251.66467 136.99414 250.89648 C 130.02944 250.72463 123.09304 251.33865 116.16211 251.9707 C 109.67632 252.84332 103.12768 253.48886 96.660156 254.60352 C 93.375323 254.89889 90.082035 256.11169 86.857422 256.01758 C 83.857879 253.03062 87.212879 248.40889 86.566406 244.7793 C 87.07298 240.01411 87.511726 235.22751 87.945312 230.44531 C 88.272586 225.48026 89.379447 220.49194 88.615234 215.5332 C 86.961502 210.49929 91.799877 209.92829 95.464844 210.6543 C 107.2681 209.55191 119.05561 208.0719 130.89844 207.31836 C 131.50051 209.20086 132.38801 211.08605 132.86328 212.80078 C 133.92073 215.61271 135.03712 218.26433 136.48242 220.88672 C 137.42392 223.52271 140.07181 226.03476 140.63086 228.12695 C 141.94317 229.5259 142.75876 230.60222 143.41602 231.68945 C 145.17812 231.84499 146.95426 231.98531 148.75781 232.11133 L 148.77148 232.11133 C 150.78117 232.24248 152.84223 232.29002 154.92383 232.32227 C 155.34172 230.98364 155.77362 229.64856 156.22461 228.31836 C 158.40784 221.17471 161.66485 214.38472 163.18359 207.0332 C 163.92648 202.92089 160.21035 199.21996 156.52344 198.06641 C 153.49515 197.38686 150.37083 198.09756 147.28125 198.37109 C 151.2257 194.93525 155.99189 191.52104 159.10156 186.99805 C 164.03774 182.19865 169.81305 178.32727 174.41602 173.14648 C 174.84351 173.02821 175.32135 172.97771 175.83984 172.97656 C 179.46931 172.96854 185.10186 175.42881 189.54297 174.74414 C 191.23048 174.84093 192.93465 175.06454 194.63672 175.28906 C 194.51145 175.225 194.47951 175.08118 194.80469 174.84961 C 195.21538 175.14212 195.06012 175.29312 194.85938 175.31836 C 197.27596 175.63726 199.68592 175.95023 202.0293 175.91406 C 205.56897 175.54701 209.1257 175.49975 212.68555 175.57812 C 212.65537 180.18217 212.57696 184.71177 209.33594 188.45898 C 203.02977 197.93294 203.99909 209.93892 205.12695 220.73242 C 205.56802 223.694 205.91688 226.47365 206.44141 229.17578 C 206.77638 229.13654 207.10798 229.10199 207.44336 229.0625 C 208.92441 228.88733 210.40727 228.6964 211.89062 228.49609 C 210.74541 222.8672 211.27024 216.80635 211.11328 211.11523 C 210.32322 204.57265 213.96198 198.84364 217.52734 193.8457 C 220.34627 188.32744 218.45542 181.84904 218.84375 175.81055 C 221.12421 175.92142 223.40209 176.03812 225.67188 176.12695 C 227.86447 177.50656 230.31431 180.09254 231.57812 181.89844 C 232.30582 183.96002 235.2272 185.74505 235.76172 188.56836 C 237.99024 193.57759 239.12545 199.47247 241.86133 204.03516 C 241.88816 205.31124 244.6033 208.54261 244.53516 210.57422 C 246.55917 213.99665 248.01818 218.38135 248.85156 222.54102 C 249.46308 222.43052 250.07618 222.33052 250.6875 222.21875 C 250.69506 222.21875 250.70143 222.21241 250.70898 222.21094 C 250.7139 222.21007 250.7197 222.21181 250.72461 222.21094 C 252.27453 221.91085 253.82123 221.58804 255.36914 221.26953 C 251.57058 211.23907 246.29353 201.81863 243.05078 191.55273 C 241.76533 187.37209 240.39705 184.77912 237.625 180.52734 C 234.61917 176.62109 232.70725 172.23064 230.43555 167.92383 C 227.89971 166.42268 228.48466 164.46525 225.46875 164.61719 C 224.97262 164.50458 224.44212 164.43554 223.89844 164.38477 C 225.53059 162.02458 227.49945 159.92364 229.92188 158.2793 C 235.33993 155.04614 241.55381 152.73803 247.68359 151.55859 C 252.10232 150.76297 257.78064 150.658 260.28516 146.375 C 264.43234 144.98713 268.77138 144.20009 273.12695 144.16602 C 275.7403 144.14557 278.36028 144.39523 280.94922 144.95117 C 284.05984 145.77316 286.82251 146.96132 289.62891 148.20898 C 288.49598 152.95688 287.69066 157.72479 287.18164 162.35156 C 285.9932 170.06819 286.77358 178.56408 286.61719 185.53516 C 287.45476 188.18306 288.14625 194.44644 289.88867 199.14844 C 291.65294 203.61279 292.75644 207.81488 294.95898 211.88672 C 298.10375 211.05902 301.24067 210.20366 304.37305 209.33203 C 302.73355 207.12704 301.18577 204.85451 299.75195 202.50586 C 291.95357 192.02761 294.37099 178.6476 294.44727 166.49805 C 294.99591 161.32799 296.0639 156.22544 297.58789 151.25781 C 301.17429 151.87464 305.31746 151.62781 308.01172 151.85547 C 311.81117 151.7925 316.89422 153.32241 320.28711 155.14648 C 325.50887 158.34332 329.28915 163.84315 331.89062 168.82227 C 334.52262 174.51786 338.005 179.91985 339.08789 186.1875 C 339.25136 187.43302 339.28188 188.6897 339.32227 189.94336 C 339.44133 193.08513 338.96284 196.01878 337.99609 198.80078 C 341.95756 197.39449 345.90595 195.94659 349.84375 194.46289 C 349.73804 192.79564 349.58791 191.12844 349.34766 189.50195 C 343.82312 173.63829 335.29009 158.28286 322.55469 147.08008 C 318.82238 143.63251 315.20815 139.3321 310.27734 137.98633 C 308.56447 136.6688 306.36746 136.32128 303.95508 135.95508 C 308.5306 127.31055 314.495 119.38924 321.50586 112.65625 C 331.47803 101.68617 343.2685 92.801732 356.05664 85.363281 C 365.77107 80.216018 376.8777 78.033406 387.57227 75.839844 C 390.6308 75.055176 393.68418 74.740414 396.73242 74.703125 C 405.87714 74.591259 414.98892 76.968382 424.1543 76.589844 C 421.91761 79.441233 428.1423 77.810748 431.51367 79.740234 C 445.40068 80.175976 458.99044 83.352222 472.00195 88.105469 C 479.39879 92.041469 488.03385 95.77488 493.10352 102.18945 C 500.32464 108.49348 504.69165 117.60393 509.26367 125.79492 C 513.12601 134.42937 516.32702 144.96553 516.74609 155.0625 C 516.86515 166.55226 514.6361 177.41234 510.11719 187.69141 C 508.83513 193.97298 505.2948 200.33887 501.86719 206.36328 C 498.60462 211.52048 495.07796 213.57181 490.95703 219.64453 C 478.01771 231.35332 461.41416 238.3202 445.11914 244.38086 C 425.06758 250.34552 404.29632 254.89801 383.34375 254.9668 C 368.52531 254.50823 354.55329 249.25673 341.75 242.2168 C 338.34285 240.09486 334.96926 237.83856 331.66406 235.45898 C 332.02079 233.70382 332.64627 232.05445 333.83594 230.69531 C 334.6013 228.66098 336.96612 225.25969 338.7207 224.11914 C 341.53114 221.36666 344.14394 216.29943 345.92188 214.20508 C 347.41394 211.43122 347.97568 208.2669 348.70508 205.13477 C 343.10103 207.29871 337.45269 209.41072 331.71875 211.35352 L 331.71094 211.35938 L 331.70312 211.35938 C 331.26005 212.14604 330.82095 212.91795 330.38281 213.72852 C 328.44117 215.46479 326.1309 219.16453 324.85352 221.76953 C 323.65353 223.92572 323.14679 226.22624 322.81836 228.59375 C 318.78859 225.21571 314.96056 221.59652 311.39844 217.74609 C 309.73423 218.23151 308.07073 218.72574 306.40625 219.19922 L 306.39062 219.19922 L 306.37695 219.20703 C 304.58178 219.70187 302.78386 220.18673 300.98633 220.67383 C 303.66633 224.04349 304.4693 225.70486 307.64258 228.68555 C 311.3364 232.69778 314.1815 235.09448 318.50781 238.94922 C 319.27179 239.79716 320.11113 240.59027 320.97852 241.35742 C 320.31213 244.70868 319.37661 247.5955 317.76562 250.85156 C 315.27665 254.67387 312.19846 257.37742 308.26953 259.80078 C 303.44543 264.36275 296.11093 266.64365 289.75391 264.87109 C 286.88881 264.04376 283.48941 263.44837 281.11328 262.1543 C 277.32261 261.4501 274.50234 260.87314 269.70312 260.70117 C 266.38205 260.72045 263.82656 260.47187 261.52734 260.66992 C 258.56145 260.1951 256.11026 260.37596 252.99805 258.24219 C 249.49017 257.55545 246.80241 254.6859 244.19922 252.29688 C 242.27183 250.00384 241.23139 249.0453 238.82812 248.38672 C 242.71362 244.10482 247.7461 240.83272 251.21875 236.26172 C 253.58749 234.72103 256.30097 234.89945 258.00977 232.79688 C 258.00023 232.31945 257.96924 231.84005 257.93164 231.36133 C 254.21657 232.15154 250.50879 232.91107 246.82031 233.67578 L 246.79102 233.68359 L 246.75977 233.68359 C 243.83412 234.24379 242.10626 234.57513 239.89258 234.98047 C 236.18019 238.13082 232.80149 241.66513 229.4668 245.25 C 228.3981 244.77734 227.38178 244.20179 226.48242 243.45508 C 224.01781 241.9038 221.59445 240.21089 219.30078 238.42188 C 216.59684 238.86602 213.89014 239.30634 211.17188 239.72266 C 212.38382 241.29188 213.69566 242.77161 215.31641 244.3125 C 218.51124 246.16883 221.1388 249.04304 224.02344 251.04102 C 222.14778 252.9988 220.24326 254.92256 218.23828 256.73242 C 214.3179 260.5573 209.03998 258.1835 204.82812 257.69727 C 199.72351 257.21806 196.04971 256.46085 191.22852 256.3418 C 187.70027 254.9597 184.0705 255.1146 180.64258 255.0957 C 175.6347 254.58743 170.65687 256.30099 167.01367 255.62109 C 164.69173 252.13187 162.863 249.95753 160.72461 246.87109 C 160.06644 246.08474 159.40741 245.2344 158.75 244.36914 C 156.4975 244.39775 154.25171 244.40859 152.01758 244.39648 C 153.17699 246.30129 154.69635 247.95269 155.30859 249.45703 C 158.36209 251.68113 159.26056 255.30821 162.02539 257.54297 C 163.4288 259.94509 164.49535 260.76781 165.40039 262.64453 C 167.97318 265.43133 168.51469 266.96713 171.75 269.14648 C 173.73545 268.70564 176.65156 265.47071 180.30469 265.97656 C 184.58821 265.97002 189.47518 265.89147 193.36328 266.39062 C 199.53252 266.73305 205.84396 266.17259 211.9707 267.42773 C 217.39335 268.85658 223.2436 268.77758 226.15039 263.11328 C 227.99997 260.29281 230.069 257.63232 232.29297 255.10156 C 234.04824 255.92708 235.84983 256.67028 237.71289 257.0918 C 242.22738 257.15129 245.57135 262.00876 247.94922 264.30664 C 251.14245 265.95754 254.26484 268.2144 257.76953 268.88281 C 264.86755 271.76085 273.63345 269.08039 281.05469 271.38477 C 284.88171 271.89727 291.87315 274.98271 297.20898 275.1543 C 301.7284 275.61944 305.79654 274.98508 309.89062 273.10352 C 315.4061 270.10246 320.16109 266.22312 324.75391 262.07422 C 327.46913 258.13371 328.38534 253.337 329.68945 248.75586 C 329.81591 248.88776 329.95681 249.01482 330.07812 249.14844 C 334.13346 251.75612 339.11316 254.62322 341.68555 256.94922 C 345.06932 257.91855 346.28526 259.56951 350.60742 261.38281 C 353.4328 262.75467 362.8086 266.57995 368.61719 268.1582 C 372.24103 269.26092 376.07007 270.8258 379.10742 270.38477 C 389.73028 272.204 400.65347 271.62088 411.36719 270.76758 C 427.54905 265.93458 444.80215 264.2657 460.10156 256.79883 C 468.7659 253.19289 478.10927 248.72668 484.86328 242.59961 C 495.43288 235.93596 504.20132 226.71384 511.24609 216.45703 C 518.0271 202.18066 525.94938 187.63056 526.99805 171.49023 C 527.07129 161.74771 526.69814 151.71699 523.14648 142.51758 C 517.62735 128.07687 510.49241 113.98567 500.75586 101.88086 C 494.80125 95.953652 489.28383 87.940029 482.41602 83.851562 C 472.66389 75.697346 460.63536 70.977591 448.37695 68.083984 C 437.22311 65.592936 425.5968 67.753992 414.54297 66.943359 C 406.91315 65.552186 399.00471 64.772184 391.12109 64.865234 z M 291.97266 203.61328 C 292.99915 204.32379 290.91916 203.96213 291.97266 203.61328 z M 151.11328 206.41797 C 151.73974 206.34052 152.20881 206.96077 151.93359 207.58789 C 149.93794 213.63736 148.06338 219.73754 146.39648 225.89258 C 146.36727 226.03569 146.33297 226.17743 146.30273 226.32031 C 145.00136 224.49499 143.60262 222.69855 142.52734 220.58789 C 140.06267 216.92678 138.68927 212.72738 136.74805 208.87695 C 137.26332 208.16915 137.8583 207.49041 138.48242 206.82227 C 142.59831 206.64101 146.71941 206.62567 150.83594 206.49609 C 150.93008 206.45454 151.02379 206.42903 151.11328 206.41797 z M 79.039062 257.21289 C 79.594925 258.26636 78.213747 257.76591 79.039062 257.21289 z M 144.58789 261.32812 C 144.31826 261.30237 144.01254 261.3813 144.48047 261.64062 C 145.09105 261.48435 144.85752 261.35389 144.58789 261.32812 z "
       transform="matrix(0.26458333,0,0,0.26458333,0,207)"
       id="path4531" />
    <path
       style="opacity:1;fill:#4285f4;fill-opacity:1;stroke:none;stroke-width:1;stroke-linecap:round;stroke-miterlimit:4;stroke-dasharray:none;stroke-dashoffset:36.14061737;stroke-opacity:1"
       id="path831"
       d="m 33.245076,268.68013 c 0.541184,0.11708 1.090189,0.19712 1.637675,0.27895 0.763836,0.093 1.527696,0.18581 2.291993,0.27488 0.705011,0.0756 1.412134,0.12641 2.11936,0.17585 0.78989,0.0517 1.581674,0.0602 2.372945,0.0679 0.899567,0.0115 1.798804,0.007 2.698147,-0.0135 1.05144,-0.0397 2.101799,-0.10213 3.151878,-0.16786 1.248465,-0.0831 2.493398,-0.20939 3.740232,-0.31301 1.252082,-0.0945 2.49918,-0.2375 3.745931,-0.38429 1.666517,-0.1971 3.324045,-0.45965 4.981503,-0.72024 2.182831,-0.33757 4.361,-0.70539 6.533721,-1.10272 2.522107,-0.48807 5.024792,-1.07044 7.520102,-1.67925 2.734029,-0.65409 5.453779,-1.36346 8.155836,-2.13883 2.255661,-0.63123 4.48342,-1.35511 6.700348,-2.10962 2.148361,-0.74842 4.279678,-1.54493 6.398538,-2.37292 2.24673,-0.89114 4.47842,-1.82012 6.702345,-2.76664 1.14255,-0.4709 2.26852,-0.97994 3.38666,-1.50569 0.72891,-0.36122 1.46766,-0.69945 2.21053,-1.03052 0.54731,-0.2384 1.10887,-0.4414 1.66253,-0.66411 0.32135,-0.11637 0.63864,-0.24106 0.96229,-0.35078 0.12016,-0.0593 0.25063,-0.0897 0.37286,-0.14297 0,0 -1.66384,1.30348 -1.66384,1.30348 v 0 c -0.12347,0.0401 -0.24349,0.0893 -0.36676,0.13001 -0.31177,0.10911 -0.62177,0.2231 -0.93143,0.33807 -0.54516,0.20949 -1.09308,0.41259 -1.62793,0.64775 -0.73797,0.32424 -1.46402,0.673 -2.19143,1.02019 -1.07959,0.49655 -2.17115,0.96622 -3.27461,1.40744 -2.201545,0.90828 -4.403595,1.8158 -6.617195,2.69434 -2.141793,0.84418 -4.288953,1.67859 -6.469776,2.41751 -0.440237,0.14712 -1.617456,0.54194 -2.046036,0.67921 -1.526222,0.48883 -3.064039,0.9425 -4.605353,1.38095 -2.707815,0.74641 -5.424612,1.45952 -8.152545,2.12897 -1.013685,0.25136 -1.522064,0.38167 -2.532155,0.61571 -1.66378,0.38549 -3.338613,0.72172 -5.01074,1.0684 -1.028052,0.19684 -1.378667,0.26787 -2.392315,0.44722 -1.399657,0.24765 -2.805533,0.458 -4.206354,0.69877 -1.684851,0.27952 -3.372281,0.54945 -5.065493,0.77292 -1.249373,0.14795 -2.499638,0.28734 -3.75439,0.38231 -1.247087,0.10549 -2.49298,0.22566 -3.741769,0.31008 -1.063199,0.076 -2.126199,0.15708 -3.192057,0.18673 -0.90451,0.0223 -1.809102,0.0228 -2.713858,0.0169 -0.798571,-0.006 -1.597544,-0.016 -2.394736,-0.0676 -0.7098,-0.0503 -1.419627,-0.10215 -2.126731,-0.18318 -0.760325,-0.0957 -1.520502,-0.19249 -2.281008,-0.28678 -0.56987,-0.0725 -1.139227,-0.14828 -1.707687,-0.23074 0,0 1.720774,-1.21329 1.720774,-1.21329 z"/>
    <path
       style="opacity:1;fill:#4285f4;fill-opacity:1;stroke:none;stroke-width:1;stroke-linecap:round;stroke-miterlimit:4;stroke-dasharray:none;stroke-dashoffset:36.14061737;stroke-opacity:1"
       id="path833"
       d="m 99.633813,249.80064 c 0.419227,0.025 0.838547,-10e-4 1.257577,-0.0168 0.60319,-0.008 1.20285,-0.0727 1.80241,-0.13274 0.66971,-0.0493 1.33687,-0.12529 2.00465,-0.19476 0.7908,-0.0891 1.5837,-0.15741 2.37517,-0.24006 0.71513,-0.0671 1.43073,-0.12872 2.14818,-0.16421 0.65179,-0.0289 1.30426,-0.0304 1.95654,-0.0334 0.60735,-0.0232 1.21473,-0.0443 1.82235,-0.0591 0.49946,0.002 0.99745,-0.0354 1.49603,-0.0589 0.38303,0.0106 0.76813,0.007 1.14985,0.0425 0.24848,0.0142 0.49241,0.0559 0.7186,0.16215 0.13788,0.0568 0.24855,0.15039 0.33546,0.26994 0.10299,0.10343 0.13891,0.23115 0.14515,0.37296 -0.0146,0.14513 -0.086,0.27043 -0.18507,0.37455 -0.0962,0.1091 -0.20276,0.20748 -0.30373,0.31237 -0.16156,0.17372 -0.32516,0.34546 -0.48368,0.52204 -0.221,0.2264 -0.4098,0.47967 -0.59398,0.73603 -0.22446,0.32961 -0.46311,0.64932 -0.7028,0.96794 -0.27596,0.36142 -0.54478,0.72742 -0.79963,1.10403 -0.28426,0.42963 -0.58177,0.85041 -0.89056,1.26272 -0.38866,0.49241 -0.75227,1.00275 -1.10972,1.51798 0,0 -1.85639,0.80987 -1.85639,0.80987 v 0 c 0.34453,-0.51376 0.68219,-1.0325 1.07267,-1.51332 0.31208,-0.4046 0.60621,-0.82265 0.88856,-1.24844 0.25116,-0.37875 0.5085,-0.75214 0.78783,-1.11086 0.23595,-0.31604 0.4737,-0.631 0.69777,-0.95563 0.17121,-0.26452 0.35491,-0.52471 0.56974,-0.75585 0.083,-0.0926 0.1618,-0.19014 0.24644,-0.2812 0.0223,-0.024 0.13776,-0.13434 0.16084,-0.16054 0.0227,-0.0257 0.0419,-0.0543 0.0628,-0.0815 0.0988,-0.10484 0.19209,-0.21336 0.30024,-0.30714 0.0771,-0.0863 0.18551,-0.14929 0.2307,-0.26156 0.0612,-0.0837 -0.004,-0.15413 -0.0606,-0.22054 -0.0704,-0.0857 -0.16651,-0.13956 -0.26863,-0.18058 -0.21411,-0.0751 -0.43714,-0.10296 -0.66281,-0.12013 -0.37285,-0.0235 -0.74689,-0.038 -1.12049,-0.0317 -0.4951,0.0221 -0.99004,0.047 -1.48584,0.0452 -0.60562,0.0113 -1.21074,0.0374 -1.81631,0.0502 -0.64858,0.002 -1.29741,0.007 -1.9454,0.0375 -0.71084,0.0388 -1.4204,0.0977 -2.12931,0.16246 -0.79615,0.0769 -1.59247,0.15186 -2.38638,0.24982 -0.66961,0.0727 -1.33964,0.13975 -2.01069,0.19813 -0.6057,0.0627 -1.212237,0.11569 -1.821314,0.13136 -0.436337,0.0199 -0.872522,0.0363 -1.309242,0.0438 0,0 1.712989,-1.24456 1.712989,-1.24456 z"/>
  </g>
</svg>
