<?xml version="1.0" encoding="UTF-8" standalone="no"?>
<!-- Created with Inkscape (http://www.inkscape.org/) -->

<svg
   width="700"
   height="500"
   viewBox="0 0 700.00001 500.00001"
   id="svg2"
   version="1.1"
   >
  <g
     id="layer1"
     transform="translate(0,-552.36216)">
    <path
       id="path4150"
       d="m 333.24749,1032.0688 c -0.16971,-0.1697 -0.30857,-0.9805 -0.30857,-1.8018 0,-0.9005 -0.27565,-1.5991 -0.69426,-1.7597 -0.38185,-0.1465 -0.69427,-0.6097 -0.69427,-1.0292 0,-0.7706 0.48509,-0.7619 3.1242,0.056 1.55589,0.4822 1.26944,-0.4272 -0.57856,-1.8366 -2.23185,-1.7025 -2.21289,-3.4653 0.0617,-5.7399 0.92493,-0.925 1.88489,-2.2646 2.13325,-2.977 0.37151,-1.0657 0.57094,-1.1962 1.12513,-0.7363 0.4258,0.3534 0.57017,0.971 0.39247,1.6791 -0.15461,0.616 -0.0504,1.3979 0.23155,1.7377 0.75574,0.9106 0.38662,4.1536 -0.47279,4.1536 -0.44496,0 -0.74635,-0.5402 -0.83931,-1.5043 -0.17443,-1.8092 -0.83356,-1.9396 -1.57528,-0.3117 -0.49607,1.0887 -0.39451,1.333 1.16703,2.8062 0.94072,0.8875 1.71041,1.8738 1.71041,2.1916 0,0.8246 -1.75968,2.6037 -2.57526,2.6037 -0.39394,0 -0.80645,0.5933 -0.96551,1.3886 -0.27378,1.3688 -0.63711,1.6848 -1.24196,1.0799 z m 20.69908,-2.9119 c -2.99982,-1.2434 -4.05324,-6.6026 -1.91532,-9.7438 1.57233,-2.3103 3.25693,-3.3615 5.38684,-3.3615 2.49915,0 4.05812,1.1078 4.73416,3.3643 0.61889,2.0656 0.009,5.0931 -1.32863,6.5974 -0.73631,0.8279 -2.45917,1.0863 -3.08553,0.4629 -0.19178,-0.191 -0.98235,-0.3472 -1.75681,-0.3472 -0.8275,0 -1.61789,-0.329 -1.91688,-0.7978 -0.72806,-1.1416 0.52059,-4.4215 2.13961,-5.6202 l 1.27997,-0.9474 0.98311,0.983 c 0.89502,0.895 0.93587,1.1709 0.45571,3.0777 -0.65196,2.5893 -0.65841,3.0733 -0.041,3.0733 0.7729,0 1.82777,-3.0219 1.82777,-5.2362 0,-4.9226 -5.17046,-4.6868 -7.4535,0.3399 -1.02357,2.2537 -1.1004,4.7945 -0.18166,6.0085 0.36662,0.4843 1.43173,1.0051 2.3669,1.1571 0.93517,0.152 1.67645,0.4846 1.64729,0.7391 -0.0702,0.6126 -1.91429,0.7598 -3.14207,0.2509 z m 3.33892,-5.8466 c 1.40537,-3.3635 0.21395,-4.1982 -1.25439,-0.8788 -0.89877,2.0319 -0.8376,3.3205 0.12926,2.7229 0.26294,-0.1626 0.76925,-0.9924 1.12513,-1.8441 z m 6.02093,5.5622 c -0.44321,-1.1549 0.56812,-2.5879 1.71107,-2.4244 1.16351,0.1664 1.57579,1.5032 0.76494,2.4802 -0.73735,0.8884 -2.12568,0.8571 -2.47601,-0.056 z m -22.0363,-0.6112 c 0,-0.4819 -0.31241,-0.996 -0.69426,-1.1425 -0.93867,-0.3602 -0.87723,-1.1827 0.11571,-1.5491 1.65733,-0.6115 2.01482,-2.2077 0.57855,-2.5834 -1.2826,-0.3353 -1.15674,-0.9926 0.28955,-1.5122 0.80378,-0.2886 1.39144,-0.9848 1.73566,-2.0564 0.6527,-2.0316 1.40118,-2.086 1.59117,-0.1157 0.0798,0.8274 0.28804,1.5011 0.46283,1.4972 0.75242,-0.017 1.42373,-0.7848 1.72093,-1.9691 0.17566,-0.6997 0.52788,-1.4013 0.78271,-1.5588 0.64994,-0.4018 1.3172,0.8197 1.00155,1.8333 -0.16153,0.5187 0.0653,1.0839 0.58856,1.4665 0.80084,0.5856 0.77862,0.6408 -0.37427,0.9302 -1.36405,0.3424 -2.10102,2.3233 -1.01883,2.7386 0.94445,0.3624 0.75003,1.1948 -0.27907,1.1948 -0.66962,0 -0.98465,0.4262 -1.21239,1.6402 -0.3471,1.8502 -1.28003,1.9187 -1.49584,0.1099 -0.19874,-1.6658 -1.88971,-1.1975 -2.25406,0.6244 -0.29427,1.4712 -1.5385,1.8369 -1.5385,0.4521 z m 4.55033,-5.0663 c 0.20477,-1.4461 -1.27819,-1.2 -1.83358,0.3045 -0.34673,0.9391 -0.26658,1.0547 0.64204,0.9256 0.67993,-0.097 1.09113,-0.5211 1.19154,-1.2301 z m 18.73825,1.4907 c -0.2747,-0.7159 1.53155,-9.3296 2.17454,-10.37 0.44187,-0.7149 2.87556,0.4576 2.57507,1.2407 -0.12711,0.3313 -0.81208,2.6879 -1.52214,5.2369 -1.01652,3.6493 -1.46634,4.6354 -2.11552,4.6381 -0.45349,0 -0.95386,-0.3338 -1.11195,-0.7457 z m -17.54697,-20.9262 c -7.02299,-4.55567 -14.71974,-11.91087 -17.74169,-16.95437 -1.52158,-2.5394 -1.55615,-2.6972 -0.85002,-3.8781 0.40483,-0.6771 1.35822,-1.6026 2.11864,-2.0567 l 1.38256,-0.8258 2.11095,3.1753 c 2.07336,3.1188 9.27867,10.7415 10.15332,10.7415 0.26094,0 0.31857,-0.7194 0.13904,-1.7357 -4.85509,-27.4827 -9.80158,-83.775 -13.91958,-158.4085 -0.65314,-11.8372 -1.30721,-22.8538 -1.45351,-24.4812 l -0.26598,-2.95899 -7.94013,0.3188 c -11.82697,0.47485 -41.40129,1.9917 -64.17575,3.29159 -48.87759,2.7896 -72.956,4.8478 -94.95011,8.1163 -9.16662,1.3622 -11.16232,1.8264 -11.7179,2.7253 -0.16703,0.2703 -0.8244,0.4914 -1.46081,0.4914 -1.99513,0 -0.74172,0.8534 2.96588,2.0193 4.75276,1.4946 9.54649,2.4335 17.91675,3.5094 11.27545,1.4493 15.44178,2.7108 17.79159,5.3871 2.5517,2.9062 1.57637,3.4847 -3.56093,2.112 -1.97188,-0.5268 -7.43842,-1.5956 -12.14786,-2.3751 -17.44434,-2.8871 -23.76888,-5.1267 -27.74071,-9.8233 -1.2893,-1.5246 -2.34418,-2.9692 -2.34418,-3.2103 0,-0.8867 2.18535,-2.5844 4.41676,-3.4312 1.55229,-0.5891 6.01779,-3.8696 13.805,-10.14182 6.33078,-5.0991 12.01276,-9.65757 12.6266,-10.12993 2.08613,-1.6053 6.63494,0.39304 5.44072,2.39018 -0.25747,0.43058 -4.48887,4.00373 -9.40311,7.94031 -4.91423,3.93656 -8.71454,7.23096 -8.44513,7.32076 0.26942,0.09 2.73919,-0.1566 5.4884,-0.5475 22.88207,-3.2536 71.66076,-6.61654 148.21608,-10.2184 8.00072,-0.37643 14.68109,-0.84499 14.84527,-1.04124 0.16418,-0.19626 0.14166,-3.27275 -0.05,-6.83665 -1.62198,-30.15606 -4.08799,-91.75965 -5.73257,-143.20578 -0.37762,-11.81272 -0.77808,-21.56917 -0.88991,-21.68098 -0.52256,-0.52258 -5.18144,10.85059 -5.65313,13.8003 -0.16696,1.04414 -0.57134,2.00119 -0.89861,2.12677 -0.32728,0.12558 -1.54748,-0.19297 -2.71157,-0.7079 -1.98158,-0.87655 -2.11652,-1.04915 -2.11652,-2.70723 0,-4.41826 3.8519,-14.0953 8.01654,-20.13975 1.26063,-1.82964 2.03358,-3.40435 1.87452,-3.81886 -0.19256,-0.5018 0.31137,-0.96949 1.74609,-1.62051 2.85164,-1.29397 3.41941,-1.18493 5.37157,1.03163 0.95284,1.0819 5.53446,5.86691 10.18137,10.63334 4.64691,4.76645 8.44893,8.96713 8.44893,9.33486 0,0.82823 -2.77687,2.59547 -4.07829,2.59547 -0.62681,0 -3.3264,-2.41211 -7.77009,-6.94267 -3.74525,-3.81847 -7.00629,-6.94266 -7.24674,-6.94266 -0.26895,0 -0.32445,3.16162 -0.14422,8.21549 0.16114,4.51852 0.60173,17.79637 0.97909,29.50633 1.94964,60.50099 5.31436,136.56535 6.069,137.19885 0.2138,0.17946 11.73998,-0.13522 25.61374,-0.69931 42.62406,-1.73304 70.25913,-2.63549 127.90032,-4.17676 28.23787,-0.75505 28.63624,-0.75325 29.82487,0.13418 1.39071,1.03833 3.15331,3.27073 2.83428,3.58975 -0.11937,0.11936 -12.49806,0.53941 -27.50824,0.93347 -67.07243,1.76077 -157.8226,4.96799 -158.45457,5.59996 -0.29898,0.29898 -0.17175,3.238 1.13101,26.1267 4.60436,80.8958 10.15604,141.0187 14.77847,160.0457 1.25379,5.1609 1.94362,6.8107 3.39829,8.12707 0.55474,0.5021 0.83167,1.1674 0.6738,1.6189 -0.43265,1.2371 -2.55465,3.3121 -3.38711,3.3121 -0.42204,0 -1.99723,-0.7977 -3.50045,-1.7729 z m 6.98643,-7.66257 c -2.74378,-1.1958 -2.75319,-1.265 -1.42427,-10.48 0.66438,-4.607 2.26412,-13.9347 3.55499,-20.7282 1.29087,-6.7937 2.56798,-13.6538 2.83802,-15.2447 0.42032,-2.4764 0.63106,-2.8925 1.46398,-2.8911 1.16948,0 3.91662,1.605 4.25298,2.4815 0.13224,0.3446 -1.01382,7.1884 -2.5468,15.2085 -1.53297,8.02 -3.32011,18.3071 -3.97141,22.8602 -0.65131,4.553 -1.27608,8.5385 -1.3884,8.8568 -0.2562,0.7258 -1.00829,0.7088 -2.77909,-0.062 z m -69.13961,-67.3836 c -2.64459,-0.9002 -3.27689,-1.494 -3.28828,-3.0877 -0.01,-1.4082 0.95511,-1.6051 3.64734,-0.7441 1.29006,0.4126 2.4933,0.6023 2.67385,0.4218 0.32329,-0.3233 -0.39001,-5.418 -1.3493,-9.6372 l -0.49047,-2.1572 -1.53888,1.6317 c -1.64571,1.7448 -2.83067,1.8252 -5.11732,0.3468 -2.80306,-1.8124 -5.09736,-7.435 -4.50446,-11.0391 l 0.29677,-1.804 -1.52271,0.3046 c -0.8375,0.1675 -1.58556,0.3674 -1.66235,0.4441 -0.24464,0.2447 1.5656,11.7685 1.94513,12.3826 0.39784,0.6437 -0.34882,1.8164 -1.15652,1.8164 -1.51972,0 -2.25825,-1.529 -2.79463,-5.7856 -0.97957,-7.7738 -0.711,-7.1042 -2.91356,-7.2639 -1.71175,-0.1243 -1.96807,-0.2888 -2.09048,-1.3426 -0.11791,-1.0149 0.13293,-1.3046 1.61996,-1.871 1.67217,-0.6368 1.75948,-0.7719 1.75948,-2.7225 0,-1.5937 0.18307,-2.0889 0.8187,-2.2146 0.57298,-0.1133 1.02367,0.3286 1.50155,1.4723 l 0.68284,1.6342 2.2012,-0.6679 c 1.21068,-0.3673 2.46603,-0.6702 2.7897,-0.673 0.92374,-0.01 1.76777,2.2278 1.1906,3.1536 -0.67231,1.0784 0.1224,7.3224 1.15758,9.0948 0.44684,0.7651 1.38001,1.7057 2.07371,2.0902 1.12058,0.621 1.31161,0.6215 1.71261,0.01 0.7876,-1.2115 1.39268,-4.0092 1.78378,-8.2476 0.42501,-4.606 0.64029,-5.1749 1.95817,-5.1749 1.36783,0 2.13851,2.3969 2.23234,6.9426 0.0447,2.1639 0.50982,5.9129 1.03367,8.3313 1.13225,5.2271 1.23784,5.8551 1.61021,9.5783 0.27503,2.7499 0.22898,2.9248 -1.12749,4.2813 -1.6256,1.6256 -1.78514,1.6412 -5.13274,0.5016 z m -113.62598,-8.2325 c -1.14264,-2.2096 -3.06809,-14.4208 -3.06688,-19.4501 4.4e-4,-1.841 0.18849,-2.5165 0.76179,-2.7366 1.20822,-0.4636 1.87952,0.9728 2.26683,4.8502 0.53095,5.3154 1.12018,8.8437 2.35474,14.0999 0.40351,1.7181 0.61368,3.4365 0.46704,3.8185 -0.44033,1.1476 -2.06483,0.8079 -2.78352,-0.5819 z m 5.35218,-0.4345 c -0.81619,-2.084 -1.96531,-12.3325 -1.4415,-12.8563 0.70998,-0.71 2.02752,0.3678 2.1976,1.7977 0.13365,1.1237 1.2313,1.5345 1.24479,0.4659 0.0152,-1.2037 1.35278,-3.3758 2.36192,-3.8355 2.05401,-0.936 3.05077,-0.6006 5.37139,1.807 l 2.24578,2.3299 1.23958,-1.4731 c 2.07497,-2.4659 4.70214,-4.1124 6.56194,-4.1124 2.16733,0 3.7363,1.1016 3.7363,2.6234 0,1.0997 -0.11281,1.1612 -1.61347,0.8796 -1.71908,-0.3224 -3.01987,0.1504 -4.75064,1.7269 -1.45052,1.321 -1.3036,1.8809 0.40399,1.5394 0.79496,-0.159 2.82569,-0.076 4.51273,0.1833 2.48244,0.3825 3.31006,0.7369 4.34017,1.8586 1.74631,1.9015 1.63988,3.4016 -0.37627,5.3031 -1.86875,1.7624 -5.0663,3.0109 -7.71129,3.0109 -3.15398,0 -5.30304,-3.3797 -3.0478,-4.7931 0.59607,-0.3736 1.00232,-0.2921 1.70249,0.3416 0.98101,0.8877 1.70611,0.8115 4.80442,-0.5054 3.23239,-1.3739 2.11928,-1.8783 -4.604,-2.0858 l -4.25687,-0.1314 0.30559,2.0828 c 0.59804,4.076 0.46466,4.8454 -0.86679,5 -1.41552,0.1642 -2.05024,-1.0529 -2.4868,-4.7685 -0.39781,-3.3859 -1.49577,-6.4052 -2.57412,-7.0787 -0.51933,-0.3243 -1.11345,-0.4851 -1.32028,-0.3572 -0.52925,0.3271 -1.71282,4.4936 -2.44101,8.593 -0.5701,3.2094 -0.70768,3.4819 -1.82321,3.6114 -0.95538,0.1109 -1.31236,-0.1301 -1.71464,-1.1571 z m 232.86621,-0.176 c -1.98619,-0.7384 -3.36805,-4.2605 -2.39202,-6.0968 0.88957,-1.6737 2.71217,-0.3722 2.71217,1.9366 0,1.4841 0.90097,1.1284 1.64357,-0.6489 0.82379,-1.9716 0.84844,-3.4199 0.0889,-5.2262 l -0.5817,-1.3835 -1.60374,1.0989 c -2.18303,1.4958 -5.46785,1.5235 -6.84107,0.057 -1.93787,-2.0687 -2.29841,-4.8627 -0.96384,-7.4692 0.92054,-1.798 3.31432,-3.9632 4.98456,-4.5087 0.90932,-0.2969 2.11201,-1.0299 2.67262,-1.6287 1.28467,-1.3721 1.59346,-1.3619 3.34349,0.1106 0.96226,0.8097 1.518,1.7788 1.71056,2.9831 l 0.28522,1.7837 1.50087,-1.5915 c 1.74966,-1.8551 4.29923,-3.0483 5.71974,-2.6768 0.68758,0.1798 1.25745,-0.061 1.83702,-0.777 0.73557,-0.9084 0.9606,-0.9625 1.80672,-0.4341 0.53157,0.3321 1.27646,1.2536 1.65531,2.048 0.57468,1.2052 0.96576,1.4524 2.36068,1.4919 1.41423,0.04 1.67347,-0.106 1.68208,-0.9483 0.0167,-1.6494 1.69068,-4.8195 2.71676,-5.1452 1.90909,-0.6059 4.6801,1.5776 4.05836,3.198 -0.23263,0.6062 -0.62572,0.7236 -1.66142,0.4959 -2.10798,-0.4628 -2.51427,0.7781 -2.12493,6.4906 0.33293,4.8847 -0.0352,6.6935 -1.36168,6.6935 -0.95254,0 -2.40439,-2.0609 -3.2541,-4.6191 -1.79042,-5.3904 -3.14247,-3.2018 -1.8441,2.9851 1.33087,6.3419 0.22732,10.0476 -3.07744,10.334 -1.29014,0.1118 -1.76132,-0.1043 -2.52213,-1.157 -1.06502,-1.4738 -1.39963,-4.077 -0.58846,-4.5783 0.31779,-0.1965 1.00576,0.2012 1.65586,0.9569 1.53802,1.7881 2.22201,0.9671 2.15549,-2.5872 -0.0663,-3.5431 -0.56516,-4.0753 -2.48836,-2.6546 -1.14578,0.8464 -2.04532,1.083 -4.04158,1.063 -2.21066,-0.022 -2.72006,-0.2026 -3.66274,-1.2986 -0.60223,-0.7001 -1.09496,-1.6656 -1.09496,-2.1455 0,-0.48 -0.20828,-1.0013 -0.46285,-1.1586 -0.67976,-0.4201 -0.57251,0.5451 0.46285,4.1656 1.45666,5.0937 1.10123,7.9934 -1.22544,9.9976 -1.21793,1.049 -2.09587,1.2762 -3.26031,0.8433 z m -1.47296,-14.2617 c 1.5156,-1.5156 1.7369,-1.9736 1.39756,-2.8927 -0.22176,-0.6006 -0.75191,-1.1609 -1.17813,-1.2451 -0.9966,-0.1967 -4.4433,3.2307 -4.4433,4.4184 0,2.1638 1.9061,2.0372 4.22387,-0.2806 z m 12.34689,-0.2347 c 0.68802,-0.3556 1.64919,-1.0869 2.13595,-1.6247 0.87402,-0.9658 0.87173,-0.9921 -0.1845,-2.1164 -1.04506,-1.1124 -1.10073,-1.1202 -2.4344,-0.3423 -1.37755,0.8036 -3.33403,3.9073 -2.79977,4.4417 0.48486,0.4848 1.96473,0.3234 3.28272,-0.3583 z m -215.09418,13.4721 c -0.22168,-0.583 -0.47687,-4.066 -0.5671,-7.7402 -0.14213,-5.7878 -0.0669,-6.6997 0.56342,-6.8263 1.02371,-0.2056 1.76434,1.688 2.09044,5.3448 0.15243,1.7093 0.45271,4.427 0.6673,6.0393 0.21458,1.6125 0.27696,3.2266 0.13863,3.5871 -0.41465,1.0806 -2.43549,0.7978 -2.89269,-0.4047 z m 20.67069,-0.5785 c -0.69745,-0.6467 -1.26809,-1.3757 -1.26809,-1.6199 0,-0.2443 -0.20828,-0.4442 -0.46285,-0.4442 -0.25456,0 -0.46284,0.6381 -0.46284,1.418 0,1.3207 -0.10295,1.4078 -1.50424,1.2728 l -1.50425,-0.1451 -0.23142,-5.7856 c -0.12728,-3.182 -0.39993,-6.0458 -0.60587,-6.3641 -1.05401,-1.6285 -3.00813,0.3187 -4.15007,4.1354 -2.50267,8.3647 -2.34635,8.0143 -3.57526,8.0143 -0.91013,0 -1.37711,-0.4446 -2.18782,-2.0828 -1.28501,-2.5967 -1.93111,-8.4292 -1.05121,-9.4894 1.00233,-1.2077 2.31334,0.3919 2.31334,2.8226 0,2.5372 0.72622,3.0196 1.14635,0.7615 0.47035,-2.5282 2.01194,-5.8906 3.22171,-7.0272 0.57933,-0.5442 1.7809,-1.1076 2.67014,-1.2519 1.40273,-0.2277 1.80816,-0.058 3.0619,1.2838 1.27487,1.3642 2.27622,3.6843 2.02203,4.6851 -0.26397,1.0392 0.50339,0.062 1.50749,-1.9192 1.81989,-3.5914 5.2138,-5.0979 8.30825,-3.6879 1.30498,0.5945 1.76802,1.4502 1.36008,2.5132 -0.21066,0.549 -0.68394,0.6587 -1.95256,0.4526 -3.30111,-0.5364 -6.07152,2.5592 -6.07152,6.7842 0,1.1199 0.24993,2.286 0.55541,2.5915 1.36782,1.3678 5.92871,0.1661 8.24351,-2.1718 1.42566,-1.4401 1.74742,-2.1427 2.01193,-4.3933 0.45799,-3.8967 1.7089,-6.0435 4.56244,-7.8297 2.52221,-1.5788 5.25652,-0.532 6.1299,2.3469 0.55429,1.8271 -1.00354,5.4733 -3.10796,7.2747 -2.20511,1.8874 -3.22744,2.0373 -3.9877,0.5845 -0.49138,-0.9391 -0.52024,-0.8837 -0.29348,0.564 0.13832,0.8831 0.44732,1.8013 0.68667,2.0407 0.85122,0.8513 4.45878,0.4135 6.31596,-0.7663 3.07197,-1.9516 3.38199,-2.5268 2.91828,-5.4138 -0.70659,-4.3992 1.29621,-4.5202 2.61419,-0.158 l 0.81331,2.6919 0.60846,-4.0564 c 1.12636,-7.5092 3.23904,-9.3083 7.10776,-6.053 1.51701,1.2765 1.76808,2.505 0.69408,3.3962 -0.55731,0.4626 -0.91438,0.4286 -1.83509,-0.1747 -0.62873,-0.412 -1.23424,-0.749 -1.34557,-0.749 -0.51286,0 -1.22974,3.2424 -1.71654,7.7638 -0.59234,5.5016 -0.99615,6.9392 -2.06439,7.3491 -0.80946,0.3106 -2.99188,-1.4877 -2.99188,-2.4653 0,-0.8796 -0.21577,-0.7961 -2.55222,0.9873 -1.15355,0.8805 -2.84169,1.7406 -3.75141,1.9113 -2.02138,0.3792 -5.1199,-0.4729 -6.55974,-1.8038 l -1.06084,-0.9806 -1.02196,1.2443 c -1.46983,1.7896 -4.72376,3.097 -7.73794,3.109 -2.09816,0.01 -2.77522,-0.1983 -3.81847,-1.1657 z m 18.47971,-12.5608 c 0.9516,-1.767 0.60174,-2.3524 -0.97616,-1.6335 -1.40459,0.64 -2.46143,2.2043 -2.87031,4.2488 l -0.31169,1.5585 1.67499,-1.3366 c 0.92125,-0.7351 2.03868,-2.0118 2.48317,-2.8372 z m 19.94793,11.0924 c -0.9157,-1.0149 -2.31146,-8.1925 -2.11652,-10.8841 0.10175,-1.4048 0.36575,-2.0113 0.92136,-2.1166 0.91629,-0.1737 1.5696,0.8988 1.91772,3.1482 0.13787,0.8909 0.50063,2.8695 0.8061,4.3969 0.81992,4.0998 0.80176,5.968 -0.0596,6.1391 -0.39751,0.079 -1.05853,-0.2285 -1.46895,-0.6835 z m 120.95965,-4.9345 c -0.4223,-0.5088 -0.4493,-1.3617 -0.10692,-3.3779 0.25192,-1.4835 0.80245,-5.5091 1.22341,-8.9456 1.48284,-12.1054 2.44217,-15.3029 4.6927,-15.6414 1.48781,-0.2239 2.43151,1.3749 3.38308,5.7313 0.49551,2.2685 1.97091,7.2487 3.27867,11.0672 1.30776,3.8184 2.48739,7.6372 2.62141,8.4863 0.22211,1.4072 0.14835,1.53 -0.8344,1.3885 -0.86479,-0.1244 -1.27753,-0.7355 -2.08623,-3.0886 -0.55449,-1.6135 -1.24525,-3.1707 -1.53501,-3.4605 -0.66747,-0.6674 -7.26994,1.5023 -7.10439,2.3346 0.0601,0.3024 -0.16364,1.756 -0.49728,3.2303 -0.47096,2.081 -0.81498,2.7113 -1.53837,2.8185 -0.51246,0.076 -1.18597,-0.1683 -1.49667,-0.5427 z m 8.85342,-10.4722 c 0.69751,0 0.83362,-0.1939 0.56862,-0.8099 -0.19163,-0.4455 -0.84188,-2.4762 -1.44499,-4.5128 -0.60313,-2.0366 -1.20445,-3.998 -1.33626,-4.3587 -0.44832,-1.2271 -1.02612,0.1638 -1.33006,3.2016 -0.16555,1.6546 -0.49274,3.9458 -0.72708,5.0913 -0.23434,1.1455 -0.43515,2.2297 -0.44623,2.4094 -0.0111,0.1796 0.83915,0.023 1.88941,-0.3472 1.05027,-0.3705 2.32222,-0.6737 2.82659,-0.6737 z m 46.29032,7.0901 c -1.84906,-0.7545 -2.89064,-2.7227 -2.89064,-5.462 0,-2.502 0.80025,-4.5917 2.85292,-7.4501 1.89141,-2.6337 3.92219,-3.8977 6.26219,-3.8977 1.81982,0 3.84453,1.4029 3.84453,2.6638 0,1.2073 1.00687,0.9786 2.33098,-0.5293 2.37897,-2.7095 6.15977,-3.4785 8.10732,-1.6489 1.38427,1.3006 1.57807,3.68 0.29969,3.68 -0.45821,0 -1.06783,-0.2347 -1.35466,-0.5215 -0.65973,-0.6598 -2.45983,-0.2207 -3.8864,0.948 l -1.09991,0.9011 1.87582,0.3064 c 2.79179,0.4561 6.81686,2.5777 7.59741,4.0046 1.97277,3.6067 -4.72101,7.6536 -9.85614,5.9589 -3.0669,-1.0122 -2.6053,-4.1897 0.48007,-3.3048 1.55029,0.4446 3.85576,0.094 5.63327,-0.8577 1.57349,-0.8421 0.69316,-1.4003 -3.00192,-1.9033 -4.83682,-0.6586 -5.19792,-0.8018 -6.01785,-2.3873 l -0.76055,-1.4708 -0.76707,1.4833 c -0.86598,1.6747 -4.44131,4.2535 -7.217,5.2057 -1.63513,0.5607 -1.71858,0.6553 -0.71463,0.8092 1.93034,0.2962 4.64585,-0.8189 6.7755,-2.7819 1.69409,-1.5615 2.15323,-1.78 2.73189,-1.2997 1.10541,0.9174 0.81974,2.1752 -0.93527,4.1178 -2.79119,3.0895 -7.38201,4.6226 -10.28955,3.4362 z m 5.32484,-10.4727 c 1.73924,-1.6505 1.87637,-2.1715 0.57157,-2.1715 -0.99905,0 -5.0843,3.6761 -5.0843,4.575 0,0.7728 2.65677,-0.6422 4.51273,-2.4035 z m 22.83763,7.8249 c -1.24269,-1.3228 -1.1567,-3.1956 0.15829,-3.4465 0.49229,-0.094 1.16262,0.195 1.48957,0.6422 0.54116,0.7401 0.75125,0.7534 2.34195,0.1479 1.77616,-0.676 2.55416,-2.0736 1.51267,-2.7172 -0.30964,-0.1913 -2.27192,-0.2413 -4.3606,-0.111 -4.21434,0.2628 -5.59472,-0.175 -6.28639,-1.9943 -0.87951,-2.3133 1.42921,-5.3274 5.48748,-7.1641 3.72265,-1.6847 5.85664,-0.8792 6.39077,2.4122 0.18407,1.1343 0.0435,1.7603 -0.49617,2.208 -0.64567,0.5359 -0.91032,0.4774 -1.85494,-0.41 -1.07509,-1.01 -1.1424,-1.016 -2.77096,-0.2431 -2.55097,1.2105 -2.42457,1.6045 0.517,1.612 3.06708,0.01 4.50833,0.6044 5.86082,2.426 1.54293,2.0783 1.2668,4.3304 -0.75857,6.1866 -1.44633,1.3254 -2.04646,1.5632 -3.94606,1.5632 -1.76692,0 -2.46109,-0.235 -3.28486,-1.1119 z m 11.34525,-0.4644 c -0.36223,-0.8668 -0.9,-2.7935 -1.19512,-4.2813 -0.29511,-1.4877 -0.97285,-3.7882 -1.50614,-5.1121 -0.80086,-1.9884 -0.86598,-2.5318 -0.37435,-3.1242 1.34012,-1.6147 2.90472,-0.2725 3.74997,3.217 0.59026,2.4372 1.36034,3.7865 1.36034,2.3838 0,-2.1933 3.7546,-6.7808 5.54965,-6.7808 1.60167,0 4.31542,1.7217 5.79004,3.6734 1.67606,2.2184 1.98519,2.3079 1.71957,0.4981 -0.33927,-2.3115 0.24095,-3.7908 1.42097,-3.6231 0.77013,0.1095 1.19891,0.6951 1.72414,2.3548 l 0.69908,2.209 0.89584,-1.6635 c 3.79315,-7.0434 9.77718,-2.6405 11.09263,8.1617 0.24937,2.0477 0.1656,2.7088 -0.40323,3.1809 -1.03904,0.8623 -2.10655,-0.1694 -2.10655,-2.0358 0,-1.8078 -1.21626,-6.0504 -2.23035,-7.78 -0.88284,-1.5056 -1.89244,-1.623 -2.98499,-0.3471 -0.43589,0.5091 -0.70111,0.9258 -0.58928,0.9258 0.11177,0 -0.11835,0.7695 -0.5114,1.7103 -0.39305,0.9406 -0.79502,2.128 -0.89334,2.6384 -0.0983,0.5104 -0.50487,1.6153 -0.90342,2.4552 -1.23779,2.6085 -3.29494,1.6586 -4.12552,-1.9049 l -0.3145,-1.3492 -0.83257,1.3691 c -2.30862,3.7962 -7.44615,4.3712 -11.15714,1.2485 -0.75722,-0.6372 -1.37678,-1.4401 -1.37678,-1.7843 0,-0.3442 -0.19926,-0.7489 -0.44276,-0.8994 -0.2573,-0.1591 -0.35838,0.2657 -0.24138,1.0141 0.86298,5.5185 0.87289,5.2219 -0.17439,5.2219 -0.67784,0 -1.18372,-0.4866 -1.63902,-1.5763 z m 11.87015,-4.7427 c 1.66666,-0.8478 1.60681,-1.3565 -0.3801,-3.2304 -1.88469,-1.7775 -2.06131,-1.8162 -3.9175,-0.8562 -2.37416,1.2277 -2.51057,4.4199 -0.20948,4.9034 1.55455,0.3268 2.64927,0.1284 4.50708,-0.8168 z m -288.83811,0.6722 c -0.67571,-0.6757 -0.73163,-2.5209 -0.0884,-2.9184 0.25684,-0.1587 0.88168,-0.157 1.38853,0 1.2667,0.402 1.34488,3.47 0.0884,3.47 -0.45822,0 -1.08306,-0.25 -1.38853,-0.5554 z m 18.97633,-2.1548 c -0.3311,-0.21 -1.10612,-2.2141 -1.72226,-4.4537 -0.61615,-2.2395 -1.25017,-4.1993 -1.40893,-4.3552 -0.15876,-0.1558 -1.04998,-0.2834 -1.98049,-0.2834 -1.83991,0 -1.67589,0.3002 -3.66701,-6.7113 -0.40022,-1.4093 -0.45217,-1.1685 -0.39954,1.8514 0.0564,3.2375 -0.008,3.4811 -0.9496,3.6151 -1.20798,0.1721 -1.76667,-0.7389 -2.21707,-3.6151 -0.48086,-3.0706 -1.56493,-6.6746 -2.31019,-7.6802 -0.64126,-0.8655 -0.66758,-0.8646 -1.36992,0.043 -0.39385,0.5091 -1.13681,2.3835 -1.65103,4.1655 -2.04607,7.0905 -2.31658,7.637 -3.78004,7.637 -0.48692,0 -1.39716,0.3353 -2.02276,0.7452 -1.94494,1.2745 -4.94022,-0.1909 -6.35296,-3.1078 l -0.71452,-1.4754 -0.72449,1.401 c -1.01719,1.967 -3.37878,3.8274 -4.84314,3.8152 -2.46827,-0.021 -4.24862,-2.3834 -4.24128,-5.6291 0.009,-4.1449 3.94104,-9.6344 6.90027,-9.6344 0.92919,0 1.38992,-0.2733 1.56052,-0.9258 0.27704,-1.0594 2.23294,-1.2831 3.01192,-0.3445 0.26526,0.3197 0.5739,2.3504 0.68587,4.5128 0.28232,5.4526 0.53321,6.5331 1.74461,7.5141 0.83124,0.6731 1.13598,0.7274 1.43509,0.256 0.57577,-0.9076 0.46945,-3.4823 -0.29232,-7.0786 -0.98041,-4.6286 -0.94382,-4.9495 0.54428,-4.7747 1.29025,0.1515 1.31238,0.2021 2.64622,6.0476 0.42224,1.8505 1.03819,1.5593 1.33179,-0.6297 0.38311,-2.8562 2.15377,-5.8471 3.97281,-6.7105 1.46483,-0.6952 1.63503,-0.6862 2.77707,0.1473 1.08837,0.7943 2.89159,3.8708 4.14813,7.0772 0.34637,0.8839 0.39526,0.5436 0.20698,-1.4409 -0.16376,-1.7263 -0.0648,-2.7103 0.29488,-2.9326 0.9338,-0.5772 1.74497,0.5801 2.83031,4.038 1.77581,5.6576 2.41891,5.3442 1.09185,-0.5322 -0.40933,-1.8126 -0.61548,-3.6311 -0.45813,-4.0411 0.26293,-0.6852 0.37812,-0.6853 1.42221,0 1.44907,0.9494 1.47684,0.9448 1.81338,-0.297 0.40481,-1.4938 2.38375,-2.7512 4.74957,-3.0179 1.95701,-0.2207 2.13016,-0.1371 4.04645,1.9501 l 2.00196,2.1805 0.24136,-2.1413 c 0.28418,-2.5213 0.58152,-2.9303 1.64494,-2.2625 0.63315,0.3976 0.8332,1.4481 1.0192,5.3517 0.24527,5.1478 0.73022,6.3919 2.4866,6.3792 1.27441,-0.01 1.86474,-0.4245 2.60904,-1.8357 0.61708,-1.17 0.78607,-5.6529 0.27392,-7.2665 -0.41934,-1.3212 0.65459,-2.5072 1.95575,-2.1599 1.34605,0.3592 1.93028,1.8485 1.9361,4.9352 0.003,1.5781 0.39917,3.2476 1.15711,4.8756 1.33468,2.8671 1.40103,3.4531 0.4778,4.2192 -0.54701,0.454 -0.91159,0.3233 -1.92525,-0.6904 -1.23967,-1.2396 -1.2568,-1.2424 -1.98656,-0.3212 -1.95973,2.4739 -6.64374,1.8725 -8.59356,-1.1032 l -0.82083,-1.2528 -0.59619,1.4179 c -0.66468,1.5808 -4.78588,5.0579 -6.5068,5.4898 -0.6119,0.1536 -1.11159,0.3087 -1.11041,0.3448 10e-4,0.036 0.51694,1.3152 1.14613,2.8426 1.26321,3.0665 1.45438,4.8491 0.61054,5.693 -0.64633,0.6462 -1.28621,0.6942 -2.12938,0.1594 z m -34.91747,-13.1421 c 1.9208,-2.0512 3.6251,-7.2898 2.37162,-7.2898 -1.08292,0 -4.03247,3.5431 -4.55023,5.4658 -0.7955,2.9542 0.27829,3.8533 2.17861,1.824 z m 39.21355,-2.7355 c 1.0698,-1.2715 1.22999,-1.8128 1.03865,-3.5104 -0.2445,-2.1691 -1.39384,-3.8211 -2.65856,-3.8211 -1.16441,0 -3.07545,2.1136 -3.40617,3.7673 -0.37264,1.8631 -0.37213,6.1769 9e-4,6.5498 0.49461,0.4946 3.69862,-1.4089 5.02531,-2.9856 z m 36.06833,14.6542 c -0.74313,-1.1341 -0.74446,-1.2636 -0.0205,-1.9875 1.06907,-1.0691 2.37695,-0.2062 2.37695,1.5683 0,1.782 -1.3107,2.0152 -2.35641,0.4192 z m -106.05565,-5.9019 c -0.43307,-0.5552 -1.30968,-6.4354 -2.69154,-18.055 -0.66296,-5.5744 -0.42322,-7.7485 0.85449,-7.7485 1.18535,0 2.61554,2.1281 5.45246,8.1131 3.44285,7.2633 6.34379,12.2521 7.12447,12.2521 0.3499,0 0.69237,-0.9558 0.87067,-2.43 1.75619,-14.5199 3.08342,-19.8054 5.06536,-20.172 1.23942,-0.2293 3.01182,1.1264 3.73472,2.8565 0.35096,0.84 0.88995,3.6997 1.19776,6.3551 1.16057,10.0114 1.33195,10.936 2.39439,12.9182 1.39677,2.6062 1.00536,5.5635 -0.73633,5.5635 -1.84632,0 -2.43445,-1.3486 -3.43151,-7.8684 -1.03701,-6.781 -1.90896,-13.1809 -1.90896,-14.0114 0,-0.3452 -0.15549,-0.3664 -0.45921,-0.062 -0.25257,0.2525 -0.78538,2.6374 -1.18404,5.2996 -2.09894,14.0166 -2.63951,15.7172 -4.99613,15.7172 -1.59375,0 -4.40364,-3.7051 -7.70434,-10.1589 -3.35178,-6.5536 -3.50705,-6.6072 -2.75336,-0.9494 0.77328,5.8048 1.26564,11.7422 1.02557,12.3679 -0.28978,0.7552 -1.27037,0.7621 -1.85447,0.014 z m 320.42791,-2.9257 c -0.89598,-0.896 -0.92846,-1.7695 -0.0917,-2.4639 0.87986,-0.7303 2.09567,-0.1611 2.42048,1.1332 0.49432,1.9695 -0.89569,2.7637 -2.32875,1.3307 z m -230.66061,-2.6284 c -0.26168,-0.3182 -0.79379,-1.7241 -1.18249,-3.1242 -0.66459,-2.3939 -0.88016,-3.5702 -1.48429,-8.0998 -0.13581,-1.0181 -0.34761,-2.372 -0.47066,-3.0084 -0.53685,-2.7766 -0.9972,-8.3469 -0.7826,-9.4696 0.17772,-0.9296 0.47096,-1.191 1.2169,-1.0846 0.86918,0.124 1.0468,0.6216 1.53689,4.3058 0.57494,4.322 1.28507,8.5196 2.11417,12.4968 l 0.48243,2.3143 0.63345,-2.754 c 0.72865,-3.1678 2.49521,-6.4301 4.02474,-7.4322 0.58004,-0.3801 2.35119,-0.7553 3.93587,-0.8339 3.14082,-0.1558 4.68619,0.5016 4.68619,1.9935 0,1.2505 0.61878,1.4603 1.82197,0.6176 0.93727,-0.6566 1.0157,-0.9852 0.74747,-3.1321 -0.16754,-1.3409 -0.0877,-2.956 0.18102,-3.6629 0.41272,-1.0855 0.61222,-1.1939 1.41077,-0.7665 0.5247,0.2808 0.93006,0.9697 0.93006,1.5807 0,0.5956 0.12968,1.7313 0.28819,2.5239 0.24818,1.2409 0.44143,1.4025 1.39195,1.164 0.87009,-0.2185 1.50244,0.1216 2.9869,1.6061 1.81053,1.8105 1.91699,2.0846 2.76069,7.1093 0.48266,2.8745 1.002,5.6575 1.15411,6.1844 0.38161,1.3219 -0.80841,2.2799 -2.02395,1.6294 -1.00307,-0.5369 -1.69905,-3.0844 -2.16099,-7.9101 -0.48239,-5.0396 -0.8342,-5.7231 -2.42531,-4.7125 -0.44963,0.2855 -0.37439,1.4123 0.34714,5.1989 0.50664,2.6589 0.92118,5.4142 0.92118,6.1226 0,1.8676 -1.29422,2.1818 -2.54174,0.6173 -0.89007,-1.1162 -1.07361,-1.1781 -1.60261,-0.5407 -0.8379,1.0096 -3.37502,0.8962 -4.78635,-0.214 -0.74016,-0.5822 -1.29833,-0.754 -1.48235,-0.4562 -0.16235,0.2627 -1.12163,0.8992 -2.13173,1.4145 -2.34602,1.1968 -4.55634,0.8377 -6.76192,-1.0989 -1.60736,-1.4112 -1.61009,-1.4118 -1.4644,-0.2854 0.17143,1.3254 -0.32623,2.2856 -1.18465,2.2856 -0.33566,0 -0.82438,-0.2604 -1.08605,-0.5787 z m 10.08454,-4.4438 c 1.16563,-1.1657 1.27585,-1.5142 0.94405,-2.9853 -0.2066,-0.9162 -0.27512,-1.7663 -0.15225,-1.8891 0.12287,-0.1228 0.0803,-1.0705 -0.0947,-2.1059 -0.73028,-4.3225 -4.63332,-0.9606 -5.98415,5.1545 -0.20521,0.929 -0.0145,1.4956 0.73997,2.1986 1.40915,1.3128 2.99114,1.1831 4.54703,-0.3728 z m 6.94028,-0.8065 c 0,-0.8111 0.30017,-1.2789 0.92569,-1.4425 0.94681,-0.2476 1.12223,-1.2946 0.53242,-3.178 -0.25828,-0.8248 -0.50792,-0.9068 -1.75873,-0.5774 -1.33379,0.3511 -1.47473,0.5706 -1.65774,2.5811 -0.22104,2.4283 0.24483,3.8173 1.28038,3.8173 0.42114,0 0.67798,-0.4547 0.67798,-1.2005 z m 16.89382,4.5137 c -1.78104,-1.089 -2.15933,-1.5735 -3.85116,-4.9331 -1.463,-2.9053 -2.23127,-5.8565 -1.73402,-6.661 0.62323,-1.0085 1.73823,0.1992 3.29503,3.5687 1.5695,3.3969 2.76137,5.175 3.46882,5.175 0.64286,0 0.91847,-2.3067 0.93806,-7.8509 0.0108,-3.0525 0.16377,-5.6285 0.33998,-5.7243 0.63119,-0.3433 3.32885,0.654 3.32885,1.2306 0,2.6041 -1.08289,13.1607 -1.44872,14.1229 -0.80547,2.1186 -2.10129,2.4389 -4.33684,1.0721 z m 9.11333,-1.0109 c -2.75424,-1.6792 -3.49706,-5.0911 -2.12041,-9.7396 1.36188,-4.5984 5.76364,-7.4145 8.98536,-5.7486 1.5128,0.7824 2.44641,3.0474 1.86503,4.5249 -0.58904,1.4969 -4.59776,5.2501 -6.69885,6.272 -1.69927,0.8264 -1.75478,0.9151 -0.8691,1.3891 1.62134,0.8677 5.76401,-0.9453 7.45469,-3.2625 1.26863,-1.7387 3.50421,-0.4807 2.96199,1.6668 -0.34087,1.35 -3.17809,3.9565 -5.41087,4.9708 -2.42426,1.1013 -4.27791,1.0794 -6.16784,-0.073 z m 3.6149,-10.4021 c 1.37327,-1.3992 1.7963,-2.0828 1.28899,-2.0828 -1.02563,0 -3.43571,2.0866 -3.73588,3.2344 -0.3677,1.4061 0.19799,1.1398 2.44689,-1.1516 z m 95.79117,4.2813 c -2.39704,-1.2087 -4.14796,-4.1145 -4.14796,-6.8838 0,-4.0791 3.39295,-11.3994 6.09922,-13.1593 0.76181,-0.4953 1.57421,-1.379 1.8053,-1.9636 0.36985,-0.9356 0.6285,-1.0254 2.15911,-0.749 0.95639,0.1726 2.08971,0.4948 2.51845,0.7158 0.42876,0.2211 1.20981,0.402 1.73567,0.402 0.52587,0 0.9569,0.1561 0.95786,0.3471 7.4e-4,0.1909 0.92783,0.7279 2.05974,1.1934 1.13192,0.4655 2.95076,1.7674 4.04189,2.8934 1.67255,1.7258 2.03024,1.9198 2.27929,1.2365 0.16247,-0.4458 0.19193,-1.4762 0.0655,-2.2897 -0.34505,-2.2199 0.20002,-3.8436 1.29033,-3.8436 1.23373,0 1.71901,1.3319 2.08202,5.7146 l 0.30083,3.6318 1.25447,-1.2019 c 1.93518,-1.854 3.76957,-1.6266 6.17126,0.7653 1.08637,1.0819 2.22332,2.3836 2.52655,2.8927 0.5114,0.8587 0.55382,0.8251 0.58565,-0.4628 0.0418,-1.6911 0.66383,-2.7746 1.34954,-2.3508 0.27897,0.1725 0.7937,1.2926 1.14383,2.4892 l 0.6366,2.1758 1.00807,-2.3378 c 1.18804,-2.7551 3.95261,-4.8363 6.42435,-4.8363 1.86216,0 4.06433,1.9463 4.51513,3.9906 0.59832,2.713 0.73135,2.7616 1.75664,0.642 1.15901,-2.3961 3.5248,-4.1697 5.56177,-4.1697 1.40816,0 4.93202,2.0527 4.93202,2.873 0,0.2382 0.31844,0.1145 0.70765,-0.2747 0.94448,-0.9444 1.83226,-0.5311 2.95818,1.3772 1.12767,1.9113 1.62768,1.969 2.647,0.3058 2.83206,-4.6212 3.71622,-5.369 5.04459,-4.2666 0.88144,0.7315 0.48585,2.1982 -1.46819,5.4431 -0.85691,1.4231 -1.55803,2.7437 -1.55803,2.9345 0,0.5289 0.60513,0.8016 3.30638,1.4906 1.96056,0.5 2.56846,0.8822 2.90592,1.8268 0.51557,1.4433 -0.28659,2.6435 -1.75621,2.6281 -0.54163,-0.01 -2.23443,-0.6258 -3.76182,-1.3779 l -2.77706,-1.3674 -1.26037,1.4935 c -0.69321,0.8215 -1.26598,1.6498 -1.27283,1.8407 -0.007,0.1909 -0.4471,0.3472 -0.97836,0.3472 -0.63919,0 -1.13605,-0.4508 -1.46897,-1.3329 l -0.50307,-1.3328 -1.4238,0.8682 c -2.89403,1.7649 -8.11154,0.7331 -9.51035,-1.8805 -0.75971,-1.4196 -1.24417,-1.1531 -1.3147,0.7231 -0.0668,1.7753 -0.7482,2.9549 -1.70702,2.9549 -1.24861,0 -1.64417,-1.3976 -1.7465,-6.1706 -0.11257,-5.2506 -0.48159,-6.1753 -2.26951,-5.6873 -2.10644,0.5747 -2.89546,1.6975 -4.33471,6.1681 -0.79281,2.4626 -1.76134,4.6792 -2.15231,4.9258 -1.17949,0.744 -2.14625,0 -2.7234,-2.105 l -0.5467,-1.991 -0.81862,1.9001 c -1.41971,3.2952 -5.39481,4.8307 -8.31769,3.2131 -0.80974,-0.4481 -1.32868,-0.4962 -1.73336,-0.1602 -1.07995,0.8962 -2.88879,-0.7985 -2.95122,-2.765 -0.0301,-0.9489 -0.18814,-2.3485 -0.35114,-3.1105 l -0.29638,-1.3855 -1.10279,1.5488 c -1.57133,2.2067 -5.42568,4.5135 -9.3659,5.6054 -4.37175,1.2114 -6.65734,1.1862 -9.21182,-0.102 z m 7.93703,-3.1413 c 7.29411,-2.4573 11.01866,-7.2732 8.29893,-10.7307 -1.08543,-1.3799 -4.95415,-3.3209 -8.02024,-4.0238 -2.81418,-0.6452 -4.45665,0.1102 -6.18181,2.8431 -6.24674,9.8954 -3.65239,15.1304 5.90312,11.9114 z m 20.21695,0.1834 c 1.16667,-0.3125 2.4114,-2.3293 2.4114,-3.9071 0,-1.4761 -1.78795,-4.1276 -2.78331,-4.1276 -1.07645,0 -2.50992,1.983 -3.17856,4.3971 -0.71786,2.5918 -0.65881,2.9818 0.52345,3.4569 1.28419,0.5162 1.68525,0.5401 3.02702,0.1807 z m 29.56825,-1.8555 c 3.21358,-1.5249 3.5159,-3.5329 0.84784,-5.6316 -0.90727,-0.7136 -1.50184,-0.8358 -2.72541,-0.5598 -2.23614,0.5044 -2.40565,0.6738 -3.07899,3.0789 -0.57679,2.06 -0.55504,2.206 0.45063,3.0204 1.30434,1.0562 2.42609,1.0791 4.50593,0.092 z m 6.39937,-1.0879 c 0.15733,-0.2545 0.0655,-0.4628 -0.20411,-0.4628 -0.26956,0 -0.49015,0.2083 -0.49015,0.4628 0,0.2546 0.0918,0.4628 0.20412,0.4628 0.11224,0 0.33283,-0.2082 0.49014,-0.4628 z m 13.51516,4.9756 c -1.10856,-0.8238 -3.15943,-10.2731 -2.44244,-11.2536 0.84146,-1.1507 2.06398,-0.2895 2.57347,1.8129 0.25581,1.0557 0.69459,2.5444 0.97503,3.3081 1.79241,4.8809 1.25079,7.884 -1.10606,6.1326 z m 6.53685,-1.1387 c -2.65507,-1.8186 -4.15352,-4.6421 -4.1582,-7.8352 -0.007,-5.1229 4.53084,-7.675 8.74189,-4.9158 1.39917,0.9168 3.8833,6.0707 4.1755,8.6629 0.17593,1.5613 0.007,2.1788 -0.8794,3.209 -1.46995,1.7089 -5.94029,2.2076 -7.87979,0.8791 z m 4.6943,-3.2681 c 1.41895,-1.149 0.87071,-2.9382 -1.52988,-4.993 -2.44063,-2.089 -3.62639,-1.9711 -4.21679,0.4196 -0.51835,2.099 0.25026,3.8784 2.07377,4.8011 1.56655,0.7927 2.48292,0.7358 3.6729,-0.2277 z m 8.35953,2.2772 c -1.19381,-1.2549 -2.06299,-2.8939 -2.93683,-5.5379 -1.43719,-4.3484 -1.49468,-4.9891 -0.53405,-5.9497 1.10496,-1.1049 1.87495,-0.085 2.78342,3.6853 1.67939,6.9702 3.32558,8.0629 5.28503,3.508 0.76092,-1.7687 0.92101,-2.7868 0.68538,-4.3579 -0.444,-2.9608 0.0158,-4.3764 1.42075,-4.3764 0.64308,0 1.39761,0.4055 1.72247,0.9258 0.66067,1.0579 1.28112,1.2119 1.28112,0.318 0,-0.6996 2.07025,-2.7378 3.55663,-3.5014 0.55602,-0.2857 1.73946,-0.5194 2.62984,-0.5194 1.24639,0 1.81911,0.2928 2.48941,1.2728 0.93531,1.3675 1.26046,3.5136 0.6875,4.5375 -0.51621,0.9224 -2.60937,-0.2136 -2.7971,-1.518 -0.12766,-0.8873 -0.29127,-0.9516 -1.37336,-0.5402 -0.67561,0.2568 -1.50345,0.6953 -1.83957,0.9743 -0.70487,0.5849 0.32167,1.1524 4.46228,2.4668 3.39682,1.0783 6.0697,3.5247 6.0697,5.5553 0,4.0328 -7.55205,4.8811 -9.52303,1.0697 -1.37696,-2.6627 -0.0407,-4.9183 1.6657,-2.8113 0.89643,1.1071 2.98659,1.7935 3.40407,1.1181 0.15186,-0.2458 -1.40649,-1.1416 -3.46309,-1.9907 -2.05657,-0.849 -4.26406,-2.0302 -4.9056,-2.6248 -0.6415,-0.5945 -1.25324,-0.994 -1.35942,-0.8879 -0.57948,0.5794 -0.23253,5.37 0.50061,6.9129 0.45266,0.9525 0.70251,2.046 0.55519,2.4298 -0.35093,0.9145 -1.63246,0.8896 -2.67289,-0.052 -0.77021,-0.697 -0.93101,-0.6642 -2.27048,0.4629 -2.04142,1.7177 -3.48999,1.5685 -5.52368,-0.5695 z m -275.49693,-3.5573 c -0.43124,-0.9465 -0.40037,-1.3089 0.15916,-1.8684 1.28588,-1.2858 3.05887,0.2883 2.45779,2.1821 -0.39841,1.2553 -1.98895,1.0646 -2.61695,-0.3137 z m 59.80383,-4.1426 c -0.74939,-0.903 -0.22937,-2.1992 0.80369,-2.0033 1.02563,0.1946 1.43007,2.6917 0.43594,2.6917 -0.36758,0 -0.92542,-0.3098 -1.23963,-0.6884 z m 193.55668,-5.884 c -0.78988,-0.7899 -0.069,-2.2217 1.11852,-2.2217 0.85372,0 1.10313,0.2494 1.10313,1.1031 0,1.1876 -1.43175,1.9085 -2.22165,1.1186 z M 79.658899,828.46723 c -1.10984,-0.6023 -2.21014,-1.9561 -2.21014,-2.7194 0,-0.5203 1.92825,-0.2459 3.31608,0.4718 1.02998,0.5326 1.55794,0.5944 1.92678,0.2256 0.36884,-0.3689 0.0276,-0.9042 -1.24563,-1.9536 -3.02738,-2.4954 -3.14739,-4.6117 -0.44086,-7.7736 1.84168,-2.1516 3.70016,-2.4893 5.23768,-0.9518 1.06772,1.0677 1.13089,1.7533 0.38958,4.2276 -0.8983,2.9982 -2.99223,1.8959 -2.46898,-1.2998 l 0.28992,-1.7707 -1.18806,1.2986 c -1.68293,1.8396 -1.51613,3.1149 0.66331,5.0714 1.01826,0.9141 1.85138,2.0057 1.85138,2.4258 0,1.1438 -2.55231,3.4722 -3.78286,3.451 -0.59236,-0.01 -1.64454,-0.3265 -2.3382,-0.7029 z m 7.51666,-0.1901 c -0.60433,-0.3821 -0.5877,-0.9256 0.13773,-4.5056 0.45372,-2.2391 1.15628,-5.2736 1.56123,-6.7434 0.65305,-2.3701 0.84674,-2.6389 1.71364,-2.3779 0.53754,0.1619 1.13243,0.4364 1.32197,0.6101 0.49385,0.4524 -2.92825,13.467 -3.53884,13.4584 -0.27969,0 -0.81777,-0.2026 -1.19573,-0.4416 z m 4.60229,-0.7314 c -0.47372,-0.5708 -0.48578,-1.3033 -0.0591,-3.587 0.74458,-3.9849 2.54549,-9.7092 3.11423,-9.8988 0.25998,-0.087 0.8652,0.1294 1.34493,0.4802 0.84866,0.6206 0.83877,0.7557 -0.36585,5.0005 -0.68094,2.3996 -1.23808,4.6147 -1.23808,4.9226 0,0.3313 0.66143,0.5599 1.61995,0.5599 1.1314,0 1.61996,0.2094 1.61996,0.6942 0,0.3819 0.0121,0.8393 0.0268,1.0166 0.0299,0.3591 -3.53805,1.5111 -4.71431,1.5221 -0.41432,0 -1.02118,-0.3158 -1.34859,-0.7103 z m 7.980014,-0.301 c -0.782644,-0.7826 -0.695594,-2.2126 0.394607,-6.4825 0.52409,-2.0527 0.82559,-4.2874 0.67248,-4.9844 -0.26789,-1.2197 -0.1857,-1.2821 2.36709,-1.7947 3.55352,-0.7137 4.65237,-0.6694 4.98636,0.201 0.49509,1.2902 0.31899,1.4713 -1.72958,1.7785 -1.7913,0.2686 -2.06414,0.4762 -2.50232,1.9039 -0.48285,1.5733 -0.46731,1.6024 0.85341,1.6024 1.2568,0 1.40965,0.2 1.32639,1.7357 -0.0104,0.1909 -0.78137,0.6111 -1.71337,0.9338 -2.96396,1.0261 -3.36905,2.7669 -0.58203,2.5012 1.71086,-0.1632 1.85137,-0.089 1.85137,0.9742 0,0.9754 -0.31332,1.2296 -2.05633,1.6686 -2.60262,0.6553 -3.18073,0.6497 -3.868077,-0.038 z m 8.012517,-0.078 c -0.84505,-0.6179 -0.82599,-0.8228 0.64861,-6.9762 0.86884,-3.6256 1.78164,-6.4404 2.13216,-6.5749 1.4474,-0.5554 2.46352,0.7031 2.76249,3.4215 0.50711,4.6109 0.89774,4.7784 1.77055,0.759 1.00354,-4.6214 1.27175,-5.0724 2.59542,-4.364 0.63073,0.3376 0.91914,0.8308 0.77214,1.3206 -0.12906,0.43 -0.89519,3.4428 -1.70252,6.6951 -1.37117,5.5238 -1.53248,5.8939 -2.44894,5.6178 -1.53782,-0.4631 -1.70778,-0.7858 -2.31618,-4.3966 -0.31472,-1.8677 -0.68728,-3.1957 -0.82793,-2.951 -0.14065,0.2447 -0.6233,2.007 -1.07257,3.9163 -0.95844,4.073 -1.15773,4.3773 -2.31323,3.5324 z m 12.95434,-0.1679 c -2.13444,-0.5077 -2.66474,-1.5448 -2.43054,-4.7531 0.37119,-5.085 3.20884,-9.7197 5.95103,-9.7197 2.50319,0 3.19076,0.6958 3.19076,3.2289 0,1.2488 -0.18949,2.3877 -0.42108,2.5308 -0.85564,0.5289 -1.8445,-0.3259 -1.98247,-1.7136 -0.22487,-2.2617 -1.10582,-1.988 -2.45099,0.7614 -1.30589,2.6692 -1.94059,5.7372 -1.45089,7.0133 0.25165,0.6558 0.48005,0.5971 1.71345,-0.4408 2.76037,-2.3227 4.35517,-1.0538 1.93062,1.5361 -1.35856,1.4513 -2.55691,1.9119 -4.04989,1.5567 z m 7.26666,-1.1429 c -0.78447,-0.7844 -0.69542,-2.2133 0.40705,-6.5312 0.52935,-2.0733 0.8496,-4.3339 0.71167,-5.0235 -0.23925,-1.1963 -0.13483,-1.278 2.27064,-1.7774 3.50512,-0.7277 5.04385,-0.4886 5.22859,0.8122 0.11672,0.8218 -0.0785,1.0427 -0.92568,1.0477 -2.17628,0.013 -3.021,0.5214 -3.5095,2.1131 -0.47301,1.5412 -0.45147,1.5833 0.80975,1.5833 0.75744,0 1.41303,0.3058 1.57814,0.7361 0.40791,1.063 0.0331,1.4345 -1.79263,1.777 -1.37164,0.2573 -2.55638,1.3308 -2.55638,2.3164 0,0.144 0.83312,0.2618 1.85138,0.2618 1.33711,0 1.85138,0.1929 1.85138,0.6943 0,0.3818 0.0121,0.8393 0.0268,1.0165 0.0294,0.3532 -3.52898,1.5109 -4.67842,1.5221 -0.39457,0 -0.96735,-0.2429 -1.27282,-0.5484 z m 379.56803,-1.7462 c -2.29617,-1.4 -2.40692,-2.857 -0.43405,-5.7109 2.82599,-4.0881 10.6365,-12.86937 14.82597,-16.66883 2.19657,-1.99207 3.99356,-3.86659 3.99333,-4.16561 -2.3e-4,-0.29901 -5.54363,-2.73059 -12.3187,-5.40351 -9.49899,-3.7476 -12.5709,-5.15932 -13.42207,-6.1682 -1.45542,-1.72511 -1.41862,-2.62585 0.10734,-2.62585 1.53937,0 26.19644,9.83388 28.56306,11.39169 2.09585,1.37957 3.28768,3.7887 2.65381,5.36428 -0.23536,0.58495 -3.34753,4.03216 -6.91597,7.66047 -3.56844,3.62836 -8.40224,8.99156 -10.74178,11.91826 -2.33954,2.9267 -4.38092,5.3205 -4.53638,5.3196 -0.15552,-8e-4 -0.95403,-0.4111 -1.77456,-0.9114 z M 215.89788,765.88852 c -0.25678,-0.47978 -0.90253,-3.66869 -1.435,-7.08646 -0.53247,-3.41777 -1.09337,-6.73482 -1.24644,-7.37124 -0.27163,-1.12939 -0.28821,-1.12108 -0.69235,0.34714 -0.22773,0.82733 -0.71318,1.50424 -1.0788,1.50424 -1.07946,0 -1.623,-1.59424 -1.623,-4.76037 0,-3.63863 -0.70671,-5.88506 -1.85138,-5.88506 -1.15537,0 -1.85138,2.25477 -1.85138,5.99759 0,1.92158 -0.24572,3.41842 -0.65246,3.97468 -0.64027,0.8756 -0.67056,0.87592 -1.61996,0.0168 -0.70652,-0.6394 -0.97264,-1.44924 -0.98657,-3.00235 -0.011,-1.22132 -0.45432,-3.01351 -1.0414,-4.20958 -0.86031,-1.75272 -1.23445,-2.0828 -2.36091,-2.0828 -2.30289,0 -3.26396,1.88022 -3.34433,6.5428 -0.0389,2.25664 -0.29508,4.17448 -0.59809,4.47748 -0.72711,0.72712 -1.93226,-0.0699 -2.81877,-1.86414 -0.80148,-1.62215 -1.08088,-1.54086 -4.70939,1.36995 -3.35398,2.69058 -6.46253,3.4609 -7.95271,1.97072 -0.38185,-0.38185 -0.88433,-0.69427 -1.11661,-0.69427 -0.59965,0 -2.70868,-4.10313 -3.04989,-5.9336 -0.15754,-0.84511 -0.40627,-3.65689 -0.55273,-6.2484 -0.32008,-5.66353 -0.37292,-5.85986 -1.49798,-5.56564 -1.06062,0.27735 -2.51474,-1.03796 -2.31624,-2.09515 0.0779,-0.41458 0.60045,-0.95574 1.16135,-1.20255 0.56091,-0.24682 1.08039,-0.86953 1.15441,-1.38381 0.16517,-1.14749 1.5111,-1.46262 2.9524,-0.69126 0.88195,0.472 1.67172,0.4312 4.37578,-0.22602 3.91187,-0.95078 5.40408,-0.70852 5.81901,0.9447 0.42304,1.68551 -0.38316,2.22276 -4.79711,3.19677 l -3.81847,0.8426 0,3.39563 c 0,1.86759 0.18284,3.39561 0.40632,3.39561 0.60458,0 3.72851,-1.26893 5.89701,-2.39536 2.0804,-1.08066 3.4164,-0.90166 3.4164,0.45773 0,1.23386 -1.09175,2.04984 -5.43842,4.06461 -4.27662,1.98232 -4.6625,2.73144 -2.89785,5.62567 1.44708,2.3734 3.00832,2.08584 6.91068,-1.27282 1.77464,-1.52739 3.55037,-2.77707 3.94606,-2.77707 0.84639,0 0.86718,-0.18526 0.25877,-2.30666 -0.25337,-0.88346 -0.34348,-1.97555 -0.20023,-2.42688 0.31486,-0.99205 1.72451,-1.07553 2.49451,-0.14774 0.47302,0.56996 0.82466,0.39299 2.29924,-1.15709 1.42953,-1.50277 2.0542,-1.82998 3.49349,-1.82998 1.40998,0 2.05733,0.32302 3.31081,1.65209 l 1.55812,1.65211 0.44296,-1.16505 c 0.57654,-1.51644 2.49252,-2.76148 3.67301,-2.38681 0.50592,0.16056 1.54583,1.00491 2.31093,1.8763 l 1.39109,1.58436 0.14166,-1.94965 c 0.11073,-1.52388 0.34381,-1.98621 1.06735,-2.11712 0.50913,-0.0921 1.31235,-0.51048 1.78493,-0.92969 2.2962,-2.03685 7.63957,-0.13061 10.26882,3.66338 1.25003,1.8038 2.06301,2.00734 2.06301,0.51652 0,-1.24855 3.12032,-5.55074 4.56935,-6.30007 1.07392,-0.55534 2.95394,-0.66669 5.21584,-0.30893 0.16328,0.0259 0.61235,0.83538 0.99791,1.799 0.67316,1.6824 0.77635,1.74486 2.5959,1.57134 l 1.89487,-0.18068 0,-2.28013 c 0,-1.68402 0.19796,-2.3561 0.75718,-2.5707 1.10026,-0.4222 2.22909,0.45841 2.39776,1.87054 0.10379,0.86899 0.41623,1.22613 1.07259,1.22613 0.66435,0 0.85871,-0.22895 0.6876,-0.80997 -0.1312,-0.44549 -0.3628,-2.03176 -0.51469,-3.52505 -0.15188,-1.49329 -0.57927,-3.01819 -0.94976,-3.38869 -1.37769,-1.37767 -0.40043,-4.93055 1.28989,-4.68947 1.48998,0.21251 2.12072,1.92274 2.71945,7.37369 0.50874,4.63163 1.15487,6.5499 1.69896,5.04395 0.13708,-0.3794 0.824,-1.26459 1.5265,-1.96709 3.66816,-3.66817 7.78201,0.83379 8.98348,9.83099 0.18695,1.40011 0.54353,2.9325 0.79237,3.40531 0.67858,1.2894 -0.22573,1.98642 -1.70357,1.31307 -0.83645,-0.38111 -1.17252,-0.89836 -1.17968,-1.81567 -0.017,-2.17749 -1.80901,-9.54853 -2.48596,-10.22548 -1.8357,-1.8357 -3.67011,1.16487 -4.19387,6.85994 -0.41448,4.507 -0.60341,5.09128 -1.6463,5.09128 -1.33462,0 -2.22034,-1.68137 -2.84543,-5.4015 -0.57797,-3.4397 -1.05618,-3.98261 -2.62957,-2.98535 -0.50499,0.32007 -0.52103,0.9416 -0.0864,3.34853 1.16935,6.47583 1.17053,6.42685 -0.15433,6.42685 -1.20315,0 -2.18812,-1.16092 -1.8293,-2.15609 0.10632,-0.29489 -0.026,-0.67166 -0.29397,-0.8373 -0.27665,-0.17098 -0.48727,0.0838 -0.48727,0.58943 0,1.37359 -1.77434,3.32965 -3.02031,3.32965 -1.64619,0 -3.35002,-0.91982 -3.62062,-1.95459 -0.22333,-0.85404 -0.36583,-0.8146 -2.10441,0.58257 -1.61787,1.30016 -2.11597,1.46495 -3.76099,1.24431 -1.27507,-0.17102 -2.24523,-0.66059 -2.96191,-1.49464 l -1.06576,-1.24032 -1.00735,1.62992 c -1.18846,1.92298 -4.24359,3.54698 -6.6727,3.54698 -0.93789,0 -1.70524,0.12614 -1.70524,0.28032 0,0.15417 0.32129,1.52025 0.71399,3.03572 0.41818,1.6138 0.65788,4.13438 0.57855,6.08379 -0.12284,3.019 -0.22933,3.34176 -1.14552,3.47218 -0.62188,0.0885 -1.18951,-0.19146 -1.47694,-0.72854 z m 6.44987,-17.62026 c 1.92741,-1.71044 1.97822,-1.82443 1.41707,-3.17915 -0.75582,-1.82473 -3.19112,-4.10708 -4.78008,-4.47988 -0.94098,-0.22076 -1.48654,-0.0414 -2.19851,0.72281 -1.02948,1.10501 -1.28786,3.96502 -0.48432,5.36091 0.25445,0.44203 0.66586,1.37647 0.91423,2.07652 0.6794,1.91491 2.62288,1.72508 5.13161,-0.50121 z m 10.08416,-0.82113 c 1.30309,-0.91273 1.94349,-2.47566 1.42252,-3.47173 -0.21407,-0.4093 -0.4403,-1.50277 -0.50275,-2.42993 -0.16746,-2.48657 -1.06306,-2.07535 -2.69361,1.23678 -1.1996,2.43672 -1.3602,3.12917 -0.96615,4.16559 0.54246,1.4268 1.23548,1.55309 2.73999,0.49929 z m 8.20808,-2.14899 c 0.62075,-1.37003 1.1365,-1.92582 1.69919,-1.83109 0.82147,0.13829 1.15083,-1.02655 0.41826,-1.4793 -0.2143,-0.13245 -1.40333,0.0115 -2.64228,0.31982 -1.79521,0.44679 -2.3103,0.7956 -2.53661,1.71775 -0.30846,1.25684 0.67598,3.23991 1.60836,3.23991 0.30899,0 0.96288,-0.8852 1.45308,-1.96709 z m -27.95329,-0.12001 c -0.1043,-0.89333 -0.41029,-1.76062 -0.67999,-1.9273 -0.31077,-0.19208 -0.3768,-0.007 -0.18028,0.50499 0.17054,0.44443 0.31008,1.31172 0.31008,1.9273 0,0.6156 0.16646,1.11926 0.3699,1.11926 0.20345,0 0.28458,-0.73091 0.18029,-1.62425 z m 57.40582,11.21949 c -1.71343,-1.82386 -1.12167,-3.69453 0.83709,-2.64623 0.93176,0.49867 0.95378,0.42089 0.84497,-2.98709 -0.0614,-1.92448 -0.19979,-3.49907 -0.30745,-3.49907 -0.10766,0 -0.88862,0.60835 -1.73547,1.35189 -3.24773,2.85155 -6.46274,-0.38094 -7.01832,-7.05647 -0.18708,-2.24778 -0.57368,-3.72436 -1.1964,-4.56947 -0.87054,-1.18146 -0.87838,-1.31209 -0.14594,-2.42994 0.84417,-1.28837 1.29961,-1.41665 2.58584,-0.72828 1.09476,0.5859 1.86438,2.83282 1.88979,5.51726 0.0232,2.44733 0.63251,5.94626 1.11964,6.42911 0.53116,0.52649 2.4384,-2.19271 2.98636,-4.25773 0.27632,-1.04132 0.76273,-3.12036 1.0809,-4.62009 0.63415,-2.98909 1.64527,-4.09407 2.83944,-3.10299 0.61245,0.50829 0.71292,2.12166 0.68035,10.92494 -0.0252,6.82722 -0.22011,10.69543 -0.57479,11.41075 -0.74703,1.50662 -2.60007,1.63223 -3.88601,0.26341 z m -89.86383,-31.78324 c -0.52477,-0.52478 -0.95414,-1.26656 -0.95414,-1.64841 0,-0.45865 -0.45876,-0.69427 -1.35176,-0.69427 -1.14406,0 -1.40168,-0.2273 -1.67668,-1.47934 -0.27346,-1.24507 -0.13095,-1.6462 0.89984,-2.53285 1.19325,-1.02639 1.21277,-1.12858 0.75864,-3.97128 -0.25636,-1.60479 -0.50333,-3.90162 -0.54881,-5.10409 -0.0678,-1.79294 -0.23753,-2.18631 -0.94326,-2.18631 -0.47332,0 -1.0849,-0.49233 -1.35907,-1.09407 -1.20753,-2.65024 3.69486,-6.23114 9.14997,-6.68353 3.27489,-0.27158 6.2006,0.84376 8.02764,3.06028 2.59058,3.14281 1.50993,6.77478 -3.45719,11.61933 -1.1516,1.12318 -2.09381,2.21665 -2.09381,2.42993 0,0.2133 0.57571,0.38779 1.27936,0.38779 1.09697,0 3.50533,0.74628 6.72408,2.08356 0.74465,0.30939 0.81555,0.0956 0.69426,-2.09298 -0.14479,-2.61282 0.29301,-3.17134 1.68694,-2.15208 0.56603,0.41389 0.98286,1.54155 1.22245,3.30707 0.41871,3.08545 0.9703,3.91347 2.02427,3.03876 1.32125,-1.09655 3.57159,-5.57969 3.88086,-7.73147 0.67269,-4.68047 3.76861,-3.34778 3.78967,1.63133 0.006,1.43555 0.2315,3.44321 0.50094,4.46146 0.99763,3.77013 1.00914,4.24711 0.11078,4.59184 -0.83414,0.32009 -2.49572,-1.08302 -3.07148,-2.59367 -0.16621,-0.4361 -0.446,-0.32048 -0.98293,0.40617 -0.91903,1.24377 -2.91742,2.68445 -4.33379,3.12433 -0.82497,0.2562 -1.35335,0.007 -2.42993,-1.14534 -0.75666,-0.81 -1.37575,-1.24243 -1.37575,-0.96094 0,0.73095 -1.47366,0.63207 -2.62779,-0.1763 -1.49216,-1.04515 -6.03432,-2.08898 -9.09008,-2.08898 -2.42909,0 -2.68941,0.0891 -2.36636,0.80998 0.19964,0.44549 0.37814,1.53412 0.39666,2.41918 0.041,1.9568 -1.0628,2.38562 -2.48353,0.9649 z m 6.15508,-13.93437 c 4.04146,-4.29608 4.67102,-5.72145 3.09186,-7.00018 -0.57571,-0.46617 -1.80472,-0.86495 -2.73113,-0.88617 -0.92642,-0.0212 -2.20222,-0.0942 -2.83512,-0.16213 -1.39858,-0.15016 -4.12518,0.92871 -4.4435,1.75821 -0.12717,0.33143 0.0725,2.14729 0.44367,4.03528 0.37119,1.88797 0.80656,4.21579 0.96747,5.17295 0.25251,1.50193 0.40732,1.67885 1.13045,1.29185 0.46083,-0.24664 2.43016,-2.14104 4.3763,-4.20981 z m 29.95487,12.12278 c -0.7149,-1.33578 -2.8136,-11.98569 -2.8136,-14.27764 0,-1.8659 0.0956,-2.04097 1.0414,-1.90664 0.78985,0.11217 1.14583,0.59511 1.47373,1.99928 0.23778,1.01826 0.48957,1.9296 0.55953,2.02521 0.07,0.0956 0.654,-0.45223 1.29786,-1.21741 1.51897,-1.8052 2.54618,-2.03452 4.73125,-1.05623 1.88792,0.84525 3.61431,2.80266 5.26498,5.96952 1.37122,2.63076 1.66381,2.67905 1.98608,0.32786 0.44627,-3.25591 2.13563,-6.25821 3.94736,-7.0152 0.86051,-0.35954 1.9397,-0.65371 2.3982,-0.65371 0.99729,0 3.68175,2.16043 3.68175,2.96304 0,0.31159 0.62484,1.16517 1.38853,1.89683 l 1.38854,1.3303 0,-2.80699 c 0,-1.96473 0.2142,-2.98476 0.71388,-3.39945 1.20034,-0.99621 1.68086,0.11445 1.94035,4.48491 0.13368,2.25169 0.4498,4.35434 0.70247,4.67254 0.67913,0.8553 2.10912,0.70447 3.63721,-0.38362 1.99479,-1.42042 2.60083,-3.00832 2.50237,-6.55644 -0.0699,-2.51919 0.0782,-3.27076 0.76753,-3.89459 0.80139,-0.72525 0.91857,-0.71249 1.897,0.20671 0.95306,0.89535 1.02024,1.2705 0.78027,4.35743 -0.1444,1.85775 -0.0699,4.15879 0.16572,5.1134 0.36827,1.49245 0.6106,1.73566 1.72932,1.73566 0.88689,0 1.39295,0.28956 1.58975,0.90962 0.53761,1.69388 4.20292,1.81098 7.9308,0.25337 2.42158,-1.0118 1.61907,-1.51747 -3.55345,-2.23901 -2.40474,-0.33545 -4.82829,-0.89766 -5.38566,-1.24934 -2.49834,-1.57634 -2.52061,-4.84792 -0.0521,-7.65932 1.86172,-2.1204 3.67965,-3.0308 6.24585,-3.1279 1.74991,-0.0662 2.24816,0.1243 3.19088,1.22015 0.69614,0.80923 1.11715,1.87805 1.11715,2.8361 0,2.73486 -2.30185,3.42384 -3.23541,0.96842 -0.57711,-1.51795 -1.29592,-1.47399 -3.63781,0.22246 -2.30274,1.6681 -2.51761,2.77417 -0.53893,2.77417 0.76004,0 2.37421,0.22842 3.58704,0.5076 6.38878,1.47062 8.71859,4.61281 5.7922,7.8119 -2.35387,2.57321 -9.06399,3.45943 -12.01767,1.58718 -0.56382,-0.35738 -1.55652,-0.64979 -2.206,-0.64979 -0.91579,0 -1.35795,-0.38964 -1.96965,-1.73567 -0.43381,-0.95462 -0.83333,-1.80877 -0.8878,-1.89812 -0.0545,-0.0893 -0.87756,0.43136 -1.82907,1.15711 -2.53485,1.93342 -5.32681,1.86282 -7.15286,-0.18088 l -1.34064,-1.50044 -0.69157,1.33733 c -0.85861,1.66038 -4.09204,3.28352 -6.54105,3.28352 -1.19546,0 -2.42772,-0.40669 -3.55663,-1.1738 -1.32308,-0.89906 -1.7274,-1.0112 -1.7274,-0.47913 0,0.38206 -0.41656,0.9176 -0.92568,1.19008 -1.44872,0.77533 -2.53631,-0.13093 -3.73017,-3.10826 -2.17351,-5.42038 -4.21307,-7.39307 -5.81435,-5.62368 -0.6653,0.73514 -0.87498,1.90451 -1.01127,5.63967 -0.1323,3.62577 -0.34292,4.84561 -0.91353,5.29078 -1.00482,0.78394 -1.37681,0.72981 -1.91665,-0.27889 z m 22.42771,-5.90704 c 1.59787,-1.04696 1.42179,-2.23519 -0.49916,-3.36858 -2.64968,-1.56335 -3.70169,-1.66643 -4.5562,-0.44644 -0.88483,1.26327 -0.98983,3.92435 -0.16792,4.25599 1.2623,0.50935 4.14424,0.26605 5.22328,-0.44097 z m -27.94089,5.23789 c -0.64815,-0.78097 -1.6304,-8.86372 -1.25764,-10.34892 0.21346,-0.85049 0.54769,-1.10681 1.30198,-0.99847 0.91487,0.13141 1.09956,0.66075 1.87571,5.37576 0.4735,2.8765 0.745,5.53207 0.60333,5.90127 -0.32002,0.83395 -1.85415,0.87674 -2.52338,0.0704 z m -1.8363,-13.83989 c -0.65123,-0.65124 -0.74436,-2.97593 -0.13433,-3.35296 1.26305,-0.78059 2.68527,1.21605 2.12457,2.98268 -0.33114,1.04332 -1.16252,1.198 -1.99024,0.37028 z"
       style="fill:#151515"
       />
    <path
       style="fill:#4285f4;fill-opacity:1"
       d="m 549.1752,816.09093 -0.99918,-1.0636 1.11068,-4.5943 c 0.75684,-3.13058 0.97322,-4.8511 0.67923,-5.40044 -0.61036,-1.14051 1.39325,-2.35812 3.97241,-2.41401 6.44408,-0.13965 6.14671,9.06965 -0.43096,13.34695 -2.25202,1.4645 -3.05242,1.4876 -4.33218,0.1254 z m 5.2599,-4.9083 c 1.52091,-2.2983 1.93876,-4.73768 0.95175,-5.5568 -0.40351,-0.33488 -1.02126,-0.49849 -1.37284,-0.36358 -0.55903,0.21453 -2.61248,6.59818 -2.61248,8.12158 0,0.9922 1.77038,-0.2924 3.03357,-2.2012 z m 5.0639,4.8703 c -0.84891,-0.6207 -0.85058,-0.7478 -0.0602,-4.5127 1.28879,-6.13879 2.22383,-9.19678 2.81206,-9.19678 0.29965,0 0.89903,0.26035 1.33189,0.57856 0.73138,0.53763 0.66723,1.04506 -0.90723,7.17412 -0.93189,3.6275 -1.83129,6.5955 -1.9987,6.5955 -0.16737,0 -0.69742,-0.2874 -1.17785,-0.6387 z m 4.46584,-0.4383 c -0.3774,-0.4547 -0.22193,-1.8061 0.59897,-5.207 0.6097,-2.52605 0.99748,-5.16606 0.86168,-5.86666 -0.21893,-1.12951 -0.044,-1.35902 1.54289,-2.02586 2.76109,-1.16015 5.17798,-1.06967 6.23308,0.23338 1.44477,1.78417 1.14716,3.91885 -0.81151,5.82108 -0.93003,0.90326 -1.86729,1.64226 -2.0828,1.64226 -0.75799,0 -0.3774,1.0421 1.02908,2.8179 2.61174,3.2976 0.131,3.8841 -2.72156,0.6434 l -1.84217,-2.0928 -0.55754,2.3242 c -0.55698,2.3217 -1.28397,2.8743 -2.25012,1.7101 z m 6.48677,-8.64496 c 1.4132,-1.41321 1.54451,-2.43905 0.34209,-2.6725 -1.05395,-0.20464 -2.15339,0.92442 -2.49182,2.55902 -0.39837,1.92374 0.30242,1.96074 2.14973,0.11348 z m 4.12089,7.89936 c -1.04811,-1.0481 -1.06219,-0.8319 0.45335,-6.97144 0.47127,-1.90924 0.81595,-3.9911 0.76592,-4.62635 -0.0841,-1.06772 0.13496,-1.19985 2.89796,-1.74831 3.39691,-0.67431 3.95491,-0.57294 4.30946,0.78275 0.21637,0.82737 -0.006,1.00763 -1.54698,1.25405 -2.01129,0.3216 -2.52611,0.76748 -2.98159,2.58231 -0.28836,1.14881 -0.20874,1.24036 1.00372,1.15451 1.02891,-0.0729 1.34786,0.12314 1.45843,0.89631 0.1152,0.80517 -0.22967,1.10697 -1.85088,1.61997 -1.50808,0.4771 -2.02989,0.8945 -2.1463,1.7169 -0.14158,1.0002 -0.0356,1.0607 1.33064,0.7606 1.03714,-0.2278 1.60436,-0.1369 1.88239,0.3019 0.76059,1.2004 0.40133,1.7524 -1.46819,2.2558 -1.03418,0.2785 -2.16366,0.615 -2.50987,0.7479 -0.34626,0.1329 -1.06537,-0.1943 -1.59806,-0.7269 z m 9.45957,-0.119 c -1.37419,-0.7793 -1.60506,-1.3105 -1.61288,-3.7109 -0.009,-2.91327 1.55192,-6.93122 3.49346,-8.98988 1.36682,-1.44923 1.77742,-1.63556 3.04542,-1.38195 2.28882,0.45776 2.77249,1.1021 2.61753,3.48699 -0.11498,1.76878 -0.29262,2.12334 -1.06371,2.12334 -0.69117,0 -0.98434,-0.3857 -1.15711,-1.52245 -0.12729,-0.83736 -0.43971,-1.54789 -0.69428,-1.57897 -0.8712,-0.10633 -3.07212,4.68977 -3.33909,7.27642 -0.29095,2.8193 0.36588,3.3616 1.95057,1.6106 0.7443,-0.8225 3.00849,-1.3277 3.00849,-0.6713 0,0.7442 -1.51781,3.0221 -2.28858,3.4346 -1.15263,0.6169 -2.79299,0.5852 -3.95982,-0.077 z m 9.7818,-0.5014 c -0.76787,-0.5615 -0.76046,-0.8147 0.14593,-4.9675 0.52524,-2.40667 1.07445,-4.75206 1.22043,-5.21197 0.22313,-0.70308 0.0759,-0.78862 -0.92531,-0.53734 -0.96916,0.24323 -1.267,0.0959 -1.60057,-0.79189 -0.51806,-1.37869 -0.23979,-1.53428 4.00508,-2.23945 2.64558,-0.43947 3.51665,-0.43863 4.04989,0.004 1.04103,0.86398 0.8178,1.83904 -0.42104,1.83904 -1.5491,0 -1.92864,0.63312 -3.05219,5.09129 -2.10812,8.36512 -1.89127,7.93332 -3.42222,6.81392 z m 6.99631,-0.3711 c -1.12078,-0.6528 -1.03098,-2.5949 0.36217,-7.83132 1.6363,-6.15023 1.58237,-6.01775 2.44609,-6.00989 2.06979,0.0188 2.1668,0.62192 0.83058,5.16267 -0.69899,2.3752 -1.37359,4.67824 -1.49911,5.11794 -0.19107,0.6689 0.0594,0.7822 1.53511,0.6942 1.50175,-0.09 1.78482,0.045 1.90789,0.9099 0.12293,0.8631 -0.21846,1.1227 -2.28237,1.7356 -1.33485,0.3965 -2.44123,0.7144 -2.45868,0.7067 -0.0177,-0.01 -0.3962,-0.2264 -0.84168,-0.4858 z m 7.6847,-0.4475 c -0.3307,-0.3307 -0.34033,-1.214 -0.0301,-2.7821 0.35004,-1.7703 0.27261,-3.21257 -0.33742,-6.28419 -0.5773,-2.90677 -0.65339,-4.12488 -0.28104,-4.49727 0.93772,-0.9377 2.08035,0.3563 2.58161,2.92365 0.5419,2.77525 0.73833,2.68386 2.72125,-1.26617 1.08611,-2.16354 1.3279,-2.38419 2.13769,-1.9508 0.50219,0.26875 0.91259,0.74167 0.91199,1.05092 0,0.30925 -1.05538,2.43679 -2.34394,4.72787 -1.2886,2.29108 -2.57359,5.15489 -2.85551,6.36409 -0.51473,2.2076 -1.40289,2.8155 -2.50437,1.714 z M 542.36,798.66314 c -1.8057,-0.73193 -2.20652,-1.7112 -1.95959,-4.78757 0.37662,-4.69182 3.38464,-9.58305 5.89344,-9.58305 0.65941,0 1.67249,0.33167 2.25123,0.73705 0.88191,0.6177 1.02974,1.08611 0.91297,2.89277 -0.11636,1.80073 -0.29178,2.15573 -1.06501,2.15573 -0.64191,0 -0.96814,-0.3547 -1.06408,-1.15711 -0.27206,-2.27453 -0.49223,-2.51528 -1.48152,-1.62 -1.91715,1.73501 -3.57182,8.47973 -2.27665,9.28018 0.27526,0.17011 1.09594,-0.26121 1.82376,-0.9585 0.79725,-0.76384 1.61023,-1.15768 2.04517,-0.99077 1.09717,0.42103 0.87736,1.16883 -0.85178,2.898 -1.587,1.58698 -2.50292,1.83249 -4.22794,1.13327 z m 7.74649,-0.53687 c -0.94744,-0.35441 -1.02566,-0.58822 -0.71616,-2.14024 0.19111,-0.95829 0.32408,-2.26241 0.29548,-2.89801 -0.0287,-0.63561 0.0996,-1.26046 0.28493,-1.38854 0.18531,-0.12808 0.73925,-1.77913 1.23098,-3.669 0.49172,-1.88987 1.11078,-3.50685 1.37562,-3.59329 0.26488,-0.0864 0.87459,0.13023 1.35493,0.48147 0.83363,0.60955 0.8396,0.75732 0.13158,3.24615 -0.69005,2.42576 -0.68774,2.60703 0.0338,2.60045 1.33656,-0.0122 1.73391,-0.59673 2.5909,-3.81139 0.84058,-3.15287 1.31615,-3.60114 2.70065,-2.54564 0.69465,0.52955 0.61675,1.12743 -0.91967,7.05837 -0.92323,3.56391 -1.72992,6.55092 -1.79268,6.63781 -0.0628,0.0869 -0.57268,0.0124 -1.13323,-0.1655 -0.92037,-0.29211 -0.99312,-0.54292 -0.75096,-2.58791 0.14751,-1.24544 0.18744,-2.26444 0.0887,-2.26444 -0.0987,0 -0.69326,0.19534 -1.3212,0.43408 -0.84391,0.32084 -1.21988,0.89677 -1.44138,2.20798 -0.41833,2.47608 -0.74907,2.87015 -2.01213,2.39765 z m 8.4259,-1.05128 c -0.2746,-0.71565 1.32382,-4.72365 4.03638,-10.12112 1.69344,-3.36957 1.89363,-3.58661 3.30183,-3.57996 3.04626,0.0144 3.20487,0.75475 2.35879,11.01024 -0.25673,3.11239 -0.35694,3.36925 -1.26356,3.2399 -0.77244,-0.11018 -1.01567,-0.51464 -1.12837,-1.87613 -0.16037,-1.93802 -0.1153,-1.91566 -2.51695,-1.2487 -1.18234,0.32835 -1.9601,0.91723 -2.44182,1.8488 -0.7443,1.43936 -1.93173,1.80726 -2.3463,0.72697 z m 7.02964,-6.01827 c 0.13533,-0.35273 0.18087,-1.52155 0.10117,-2.59739 l -0.14491,-1.95607 -1.26778,2.59739 -1.26783,2.59738 1.16665,0 c 0.6416,0 1.27732,-0.28859 1.4127,-0.64131 z m 4.46899,5.67549 c -0.86492,-0.88333 -0.71329,-2.41653 0.81294,-8.22057 0.76207,-2.89805 1.38557,-5.34534 1.38557,-5.43843 0,-0.39784 1.27833,-0.12044 2.05207,0.44532 0.80562,0.5891 0.78877,0.7952 -0.40698,4.97558 -0.68608,2.39857 -1.33637,4.63702 -1.44509,4.97434 -0.13539,0.42022 0.20273,0.58693 1.07403,0.52951 2.12783,-0.14022 2.42872,-0.0223 2.42872,0.95143 0,1.4982 -4.76919,2.93901 -5.90126,1.78282 z m 7.38237,-0.49831 c -0.30548,-0.30547 -0.55542,-0.91624 -0.55542,-1.35725 0,-1.2319 2.76791,-11.68577 3.2115,-12.12941 0.57466,-0.57467 2.3438,0.52046 2.3357,1.44585 -0.005,0.43652 -0.5245,2.45993 -1.15706,4.49645 -1.47917,4.76217 -1.4707,4.85987 0.42021,4.85987 1.00858,0 1.67147,0.26333 1.8529,0.73603 0.4166,1.08569 0.0533,1.4087 -2.23188,1.9841 -2.61081,0.65741 -3.18821,0.65209 -3.87595,-0.0356 z m 7.8915,-0.42493 c -0.80035,-0.8208 -0.72949,-1.97189 0.38309,-6.21952 0.5289,-2.0193 0.87478,-4.26334 0.76861,-4.98675 -0.22448,-1.52954 0.35555,-1.857 4.22775,-2.38671 1.88387,-0.2577 2.58338,-0.1875 2.8857,0.28962 0.75333,1.18904 0.40985,1.6561 -1.52114,2.06828 -1.57617,0.33645 -2.04776,0.6914 -2.54698,1.91714 -0.61059,1.49915 -0.60795,1.50425 0.7772,1.50425 0.76444,0 1.38987,0.19124 1.38987,0.42498 0,0.23375 0.12155,0.74174 0.27012,1.12889 0.20046,0.52241 -0.16338,0.78521 -1.41125,1.01931 -3.19285,0.59898 -4.34833,3.07042 -1.24061,2.6536 1.54326,-0.207 1.81916,-0.10402 2.0461,0.76371 0.20398,0.78006 -0.0125,1.11062 -0.97388,1.48726 -2.0933,0.8201 -4.43099,0.97546 -5.05458,0.33594 z m 8.00629,-0.10329 c -0.76166,-0.55693 -0.72233,-0.95126 0.67986,-6.81214 0.8186,-3.42154 1.66675,-6.41319 1.88479,-6.64812 0.24111,-0.25972 0.84243,-0.22398 1.53416,0.0912 0.90064,0.41038 1.19867,0.98135 1.43083,2.74137 0.69487,5.26759 0.76795,5.3032 1.88349,0.91748 0.57116,-2.24544 1.14471,-4.18891 1.27464,-4.31881 0.52375,-0.52374 2.20406,0.84424 1.96861,1.60266 -0.13347,0.42999 -0.85469,3.35016 -1.60268,6.48926 -0.74796,3.13911 -1.4389,5.78643 -1.5354,5.88291 -0.0965,0.0965 -0.62188,0.0587 -1.16753,-0.084 -1.12114,-0.2932 -1.80777,-1.91626 -2.2633,-5.35009 -0.36334,-2.73891 -0.66998,-2.34456 -1.78441,2.29474 -0.44387,1.84786 -0.96179,3.45536 -1.15087,3.57221 -0.18906,0.11687 -0.70759,-0.0535 -1.15219,-0.37866 z m 12.37497,-0.52911 c -1.75311,-0.75777 -2.2192,-2.11172 -1.83721,-5.33696 0.49469,-4.17694 3.5663,-8.78701 5.85461,-8.78701 2.22878,0 3.25629,1.17669 3.25629,3.729 0,1.25839 -0.19124,2.28798 -0.42498,2.28798 -1.29527,0 -1.88923,-0.67038 -1.88923,-2.13232 0,-0.86374 -0.17603,-1.57043 -0.39111,-1.57043 -1.31675,0 -3.7745,5.25962 -3.7745,8.07743 0,2.33713 1.05598,2.58728 2.18708,0.51811 0.3912,-0.71561 0.29151,-1.05354 -0.50237,-1.70282 -1.29906,-1.06243 -0.53259,-1.9008 1.80759,-1.97718 2.39827,-0.0783 2.95429,0.92335 1.8598,3.35046 -1.53743,3.40946 -3.64508,4.62472 -6.14597,3.54374 z m 8.29195,-0.79405 c -0.80641,-0.80643 -0.68427,-2.9323 0.39153,-6.81445 0.53842,-1.94298 0.82622,-3.96651 0.66718,-4.69069 -0.26715,-1.21638 -0.17352,-1.29639 2.08432,-1.78062 3.31935,-0.71186 4.945,-0.64133 5.27904,0.22904 0.41743,1.08792 0.0356,1.4248 -1.97863,1.74694 -1.50868,0.24125 -1.90173,0.53711 -2.32449,1.74982 -0.2798,0.80271 -0.50876,1.53254 -0.50876,1.62182 0,0.0893 0.62484,0.16235 1.38853,0.16235 0.92569,0 1.38854,0.23143 1.38854,0.69428 l 0,1.04139 c 0,0.19093 -0.67571,0.52212 -1.50425,0.736 -3.09638,0.79927 -3.67248,2.48024 -0.92786,2.7074 1.34997,0.11173 1.73567,0.34019 1.73567,1.02804 0,1.48754 -4.5268,2.73488 -5.69299,1.56868 z M 377.49347,748.6414 c -7.10166,-3.54874 -10.89497,-11.71332 -8.45127,-18.19022 1.18153,-3.13158 5.1095,-7.46238 8.19679,-9.0374 2.87456,-1.46649 6.55587,-1.37115 8.44531,0.21871 1.61635,1.36006 2.79596,3.36828 2.79596,4.75997 0,1.30691 -0.97156,3.28467 -1.61357,3.28467 -0.94677,0 -2.66774,-2.2237 -2.66774,-3.44704 0,-2.60773 -3.92109,-1.02658 -8.78047,3.54068 l -3.11062,2.92362 -0.27502,3.23552 c -0.34699,4.08225 0.48884,5.89153 3.60603,7.8058 2.93491,1.80232 5.98092,2.09457 8.80605,0.84488 2.42573,-1.07301 4.77596,-3.95798 5.24017,-6.43243 0.40072,-2.13599 1.4434,-2.46558 2.80228,-0.88579 1.38874,1.6145 1.38253,3.56818 -0.0208,6.53152 -2.82215,5.95951 -8.84546,7.90953 -14.97314,4.84751 z m 19.19842,-0.50821 c -0.44338,-0.24812 -1.12722,-1.07204 -1.51965,-1.83092 -0.65931,-1.27497 -0.62148,-1.86227 0.49805,-7.72965 0.66636,-3.49241 1.92284,-8.55078 2.79216,-11.24083 1.60213,-4.95763 2.89998,-6.91155 4.59088,-6.91155 1.45848,0 4.58648,3.7715 6.23032,7.512 1.44547,3.28918 1.61918,3.49503 2.62613,3.11218 0.91171,-0.34663 1.25878,-0.17329 2.24686,1.12217 1.50682,1.97552 1.49539,3.23004 -0.0358,3.92768 -1.47568,0.67237 -1.37946,1.20682 1.22926,6.82755 1.28309,2.76457 1.71837,4.17382 1.39043,4.50175 -0.82936,0.82936 -2.8252,-1.53823 -4.71802,-5.59677 -0.97946,-2.10016 -1.93879,-3.81121 -2.13184,-3.80232 -0.19306,0.009 -2.64103,0.58164 -5.43992,1.27282 l -5.08891,1.25668 -0.69664,3.788 c -0.38317,2.0834 -0.80254,3.89022 -0.93194,4.01517 -0.1294,0.12494 -0.59804,0.0242 -1.04141,-0.22396 z m 8.17059,-14.30905 c 2.20796,-0.68197 3.05714,-1.16413 3.05688,-1.73567 -4.6e-4,-1.0405 -2.62697,-6.57693 -3.1201,-6.57693 -0.83379,0 -3.8222,6.75137 -3.8222,8.63507 0,0.81539 0.27548,0.79252 3.88542,-0.32247 z m 14.74577,11.474 c -1.77803,-1.90959 -3.64236,-18.22209 -2.44309,-21.37643 1.24417,-3.27239 4.65841,-0.18293 10.29349,9.31431 4.16687,7.02279 5.10677,8.2819 5.84255,7.82713 0.77064,-0.47627 0.68788,-6.53234 -0.21138,-15.46805 -0.79581,-7.90744 -0.62401,-9.28364 0.9915,-7.94288 1.43801,1.19342 2.07193,3.15697 2.07193,6.41766 0,1.77803 0.22351,3.8191 0.49663,4.53572 0.78725,2.06528 1.12976,13.99087 0.46007,16.01994 -0.48076,1.45672 -0.76869,1.714 -1.91831,1.714 -2.43308,0 -4.40785,-2.48305 -11.19939,-14.08171 -1.33024,-2.2718 -2.67896,-4.21574 -2.99716,-4.31988 -0.80961,-0.26495 -0.74308,6.64947 0.12138,12.61603 0.36883,2.54565 0.67464,4.88879 0.6796,5.207 0.0142,0.91627 -1.12892,0.67443 -2.18782,-0.46284 z m 23.17793,-0.52074 c -2.38115,-2.0036 -3.33184,-5.86083 -1.24741,-5.06095 0.63988,0.24553 0.72152,0.13279 0.42475,-0.58636 -1.37719,-3.33731 -2.95382,-13.08649 -2.29001,-14.16054 0.46372,-0.75034 2.02286,-0.36759 2.67907,0.6577 0.52344,0.81783 1.62158,9.14097 1.80061,13.6472 0.0464,1.16804 1.76451,1.10987 3.88272,-0.13148 3.0624,-1.7947 8.91419,-7.55692 10.7265,-10.5623 0.85233,-1.41349 1.58131,-3.24913 1.61996,-4.07918 0.0637,-1.36875 -0.1021,-1.56804 -1.78117,-2.14133 -2.82103,-0.96321 -7.79675,-0.50521 -10.72836,0.9875 -1.31845,0.67132 -2.52838,1.43282 -2.6887,1.69223 -0.86233,1.3953 -3.9396,-0.79737 -3.9396,-2.80713 0,-1.09736 2.58345,-3.04055 5.53173,-4.16082 3.22371,-1.2249 8.33731,-1.19255 11.13067,0.0705 2.97327,1.34432 5.00293,3.48962 5.7813,6.11063 1.29994,4.37739 -0.55588,8.53129 -6.46959,14.48096 -4.37356,4.40016 -7.80726,6.54169 -11.22367,6.99992 -1.45619,0.19532 -2.05048,0.0181 -3.2088,-0.95648 z m 29.86338,-0.44924 c -3.01608,-1.11487 -4.98429,-3.05156 -6.86501,-6.75509 -0.89148,-1.75553 -1.01141,-2.56542 -0.82247,-5.55414 0.40356,-6.3823 3.93538,-12.22142 8.15726,-13.48634 1.54248,-0.46213 1.71753,-0.66485 1.55146,-1.79653 -0.17231,-1.17404 -0.0199,-1.3177 1.91201,-1.80421 5.89265,-1.48379 10.62182,-0.13522 12.73956,3.6328 1.9202,3.41653 2.38074,6.05488 1.65902,9.50435 -2.07659,9.92508 -11.89904,18.63695 -18.33183,16.25916 z m 8.06076,-1.93949 c 2.36583,-1.60764 2.18578,-1.90039 -0.23971,-0.38969 -2.36018,1.47002 -2.47497,1.56349 -1.92025,1.56349 0.2379,0 1.20987,-0.52821 2.15996,-1.1738 z m -3.93904,-3.71681 c 3.04454,-1.51715 7.04237,-5.82737 8.86967,-9.56273 1.50471,-3.07587 2.51311,-7.26471 2.04351,-8.48848 -0.51871,-1.35169 -4.19532,-2.04461 -6.94082,-1.3081 -0.94624,0.25384 -0.96484,0.3518 -0.34713,1.83019 0.90948,2.17664 0.89496,2.19601 -1.39113,1.8532 -4.76582,-0.71469 -8.44904,2.86021 -10.26992,9.96794 -0.88995,3.47382 -0.59248,4.80841 1.33355,5.98277 2.00583,1.22301 3.84818,1.14748 6.70227,-0.27479 z m 19.58545,4.45527 -1.57094,-1.28213 -0.57703,-9.02504 c -0.34274,-5.35991 -0.89843,-10.1703 -1.36835,-11.84512 l -0.79128,-2.82007 1.32697,-1.21092 c 2.37731,-2.16942 5.15572,-3.15725 9.42676,-3.35159 3.42139,-0.15566 4.20485,-0.039 6.01077,0.89456 2.91468,1.5068 4.78836,4.33246 4.8321,7.28712 0.0296,2.01788 -0.16246,2.50039 -1.58598,3.97889 -0.90555,0.94056 -3.44153,2.55379 -5.75058,3.65822 l -4.1306,1.9757 2.74208,1.27728 c 1.50813,0.70251 4.72073,2.09882 7.1391,3.10293 2.41836,1.0041 4.86565,2.34736 5.43842,2.98501 1.21881,1.35687 1.45615,3.68016 0.33191,3.24875 -2.28613,-0.87728 -9.53372,-3.97993 -14.27139,-6.10951 l -5.49263,-2.46892 0.32793,5.24805 c 0.18032,2.88641 0.14922,5.35848 -0.0692,5.49347 -0.21846,0.13499 -1.10407,-0.33152 -1.96806,-1.03668 z m 7.14039,-18.57105 c 6.32866,-3.09117 8.08029,-5.61503 4.28132,-6.16888 -2.3389,-0.34099 -6.68487,0.30792 -8.56142,1.2783 -2.23235,1.15441 -2.53871,1.81543 -2.17829,4.70012 0.31585,2.52796 0.36185,2.59673 1.54057,2.30241 0.66831,-0.16685 2.8813,-1.11723 4.91782,-2.11195 z m -128.14814,-8.07627 c -0.41807,-0.41807 -0.975,-1.16162 -1.23763,-1.65235 -0.53904,-1.00721 -0.6642,-21.90685 -0.13631,-22.76101 0.17985,-0.291 0.28269,-1.28028 0.22851,-2.19839 -0.0965,-1.63511 -0.0479,-1.68525 2.37761,-2.44981 3.67693,-1.15904 6.47195,-1.43106 8.34679,-0.8123 3.13183,1.0336 5.94823,5.66245 5.21728,8.57477 -0.41017,1.63426 -3.51013,4.93979 -6.32884,6.74856 -1.25334,0.80426 -2.2788,1.61926 -2.2788,1.8111 0,0.702 5.40012,3.65241 8.09978,4.42541 1.52739,0.43735 3.04245,1.00799 3.36681,1.2681 0.32435,0.26011 0.66761,0.39117 0.76277,0.29125 0.0952,-0.0999 1.11167,-3.51414 2.25888,-7.58718 4.59919,-16.32886 7.03348,-20.38723 10.36428,-17.27908 1.45165,1.35462 2.57182,3.53615 3.6439,7.09651 0.45993,1.52738 1.20382,3.19646 1.6531,3.70908 0.44928,0.51259 1.138,1.70054 1.53048,2.63989 0.65222,1.56097 0.64803,1.7446 -0.0487,2.13452 -1.02727,0.57488 -0.61536,3.49666 1.26506,8.9733 0.78357,2.28208 1.31363,4.26027 1.17795,4.39596 -1.08608,1.08609 -3.76638,-2.92098 -5.17457,-7.73599 -1.10718,-3.78578 -1.31241,-3.90543 -4.13375,-2.4099 -0.76578,0.40593 -2.63336,1.17257 -4.15018,1.70365 l -2.75788,0.96559 -1.18679,4.15164 c -0.84742,2.96442 -1.38233,4.12419 -1.87058,4.05565 -0.37608,-0.0528 -1.62104,-0.33324 -2.76658,-0.62322 -1.14554,-0.28998 -2.81178,-0.71015 -3.70275,-0.93373 -2.32473,-0.58334 -7.23822,-3.57801 -9.5921,-5.84618 -2.99641,-2.8873 -3.34358,-2.47736 -3.23057,3.81443 0.10113,5.63104 -0.29738,6.9295 -1.69715,5.52973 z m 29.84867,-18.85458 c 2.58678,-1.4065 2.74964,-1.59283 2.50637,-2.86756 -0.54439,-2.85252 -1.22426,-4.88508 -1.634,-4.88508 -0.23402,0 -0.954,0.90183 -1.59996,2.00407 -1.50846,2.57401 -3.12743,7.25281 -2.50963,7.25281 0.25888,0 1.71561,-0.6769 3.23722,-1.50424 z m -24.93744,-0.36364 c 1.16668,-0.77279 3.02484,-2.22465 4.12924,-3.22637 1.67604,-1.5202 1.89323,-1.9017 1.31375,-2.30752 -0.75475,-0.52854 -2.64064,-0.31034 -6.24841,0.72301 l -2.31421,0.66283 -0.0805,2.77655 c -0.0947,3.26663 0.16862,3.37949 3.20014,1.3715 z m 38.66412,13.99054 c -2.42172,-2.58902 -2.56138,-3.28103 -2.77346,-13.74261 -0.13278,-6.55024 -0.12932,-6.56508 1.47671,-6.31782 1.18917,0.18307 1.77878,2.89255 2.10503,9.67344 0.2016,4.18989 0.52844,7.05838 0.80426,7.05838 2.13987,0 8.2901,-6.4506 10.72615,-11.24999 2.23322,-4.39985 2.1793,-6.3102 -0.20106,-7.12195 -2.05019,-0.69915 -7.35819,-0.75313 -10.83614,-0.11019 -3.02241,0.55872 -3.98207,0.09 -4.83697,-2.36235 -0.63135,-1.81111 -0.13923,-2.0941 4.79626,-2.75794 7.24476,-0.97445 12.1954,0.61842 14.74451,4.74406 2.57713,4.17088 2.09049,8.63727 -1.57307,14.43808 -2.95327,4.67614 -9.16874,9.97442 -11.70113,9.97442 -0.35716,0 -1.58615,-1.00149 -2.73109,-2.22553 z m 11.71635,-11.27461 c 0.70273,-1.31313 0.24697,-1.00437 -0.96869,0.6562 -0.68143,0.93083 -0.79319,1.2541 -0.29319,0.84804 0.4444,-0.36091 1.01227,-1.03781 1.26188,-1.50424 z m 10.0408,12.22731 c -1.68433,-1.93096 -1.7594,-2.66658 -1.64258,-16.1015 0.0634,-7.29141 0.29478,-13.36809 0.51431,-13.50374 0.21949,-0.13564 0.95017,0.30415 1.62375,0.97735 l 1.22469,1.22399 0.13723,13.06399 c 0.16149,15.3745 0.0171,16.48895 -1.8574,14.33991 z m 14.91123,-1.4517 c -2.30227,-0.49728 -4.36128,-1.6676 -6.24108,-3.54744 -4.44377,-4.44375 -5.43773,-10.38635 -2.67566,-15.99691 3.04649,-6.18828 8.15074,-10.12612 12.27982,-9.47367 2.68316,0.42398 5.22107,2.20878 6.38503,4.49031 1.24002,2.43063 0.6467,3.08685 -1.41537,1.56549 -3.02363,-2.23077 -6.92286,-1.21062 -10.5935,2.77158 -3.48966,3.78579 -5.46911,9.69457 -4.10973,12.26768 0.96628,1.829 4.2167,3.36667 7.23782,3.42399 3.24736,0.0616 5.44796,-0.83548 6.35574,-2.59095 0.80252,-1.55194 1.37246,-1.50442 2.66135,0.22189 1.37766,1.84523 1.1835,3.82956 -0.54379,5.55683 -1.31911,1.3191 -1.75942,1.46877 -4.58985,1.56008 -1.72197,0.0555 -3.8598,-0.0564 -4.75078,-0.24888 z m -9.87603,-14.05358 c -0.12839,-0.31821 -0.23345,-0.0579 -0.23345,0.57855 0,0.63641 0.10506,0.89676 0.23345,0.57855 0.12839,-0.3182 0.12839,-0.83891 0,-1.1571 z m 24.05051,13.13912 c -1.2881,-1.4233 -1.6437,-3.50916 -1.17382,-6.88466 0.56462,-4.05615 2.03615,-9.75314 3.49846,-13.54427 0.63821,-1.65467 1.57553,-4.07838 2.0829,-5.38602 0.93503,-2.41004 2.36073,-4.33371 3.21181,-4.33371 1.02071,0 2.66585,2.49276 4.60053,6.97096 1.11754,2.58674 2.35301,4.81639 2.7455,4.95477 1.9122,0.67417 3.64134,4.37788 2.25901,4.83866 -0.35338,0.1178 0.2012,2.02494 1.61996,5.57089 2.23313,5.58119 2.59446,7.28677 1.54377,7.28677 -1.05464,0 -2.57559,-2.02363 -3.49531,-4.65052 -1.36327,-3.89346 -2.76004,-6.92059 -3.19335,-6.92059 -0.21588,0 -2.241,0.62483 -4.50029,1.38852 -2.25932,0.7637 -4.46056,1.38854 -4.89176,1.38854 -0.91795,0 -1.71793,2.70529 -2.14157,7.24196 -0.29025,3.10822 -0.7954,3.59303 -2.16584,2.0787 z m 10.282,-16.91917 1.41945,-0.73405 -1.26088,-2.8237 c -0.69348,-1.55304 -1.44199,-2.85449 -1.66337,-2.8921 -0.34019,-0.0578 -3.4412,7.15391 -3.49434,8.12656 -0.0208,0.38053 2.94342,-0.61368 4.99914,-1.67671 z m 14.92919,15.20134 c -0.77865,-0.65518 -1.6226,-1.95692 -1.87544,-2.89278 -0.25286,-0.93586 -0.52431,-7.07339 -0.60324,-13.63897 -0.14158,-11.78178 -0.13116,-11.93565 0.79856,-11.80253 0.56758,0.0812 1.29781,0.86399 1.8373,1.96942 0.77795,1.59396 0.9224,3.15697 1.1018,11.91825 0.11358,5.54603 0.33932,10.0837 0.50167,10.0837 0.16233,0 2.58245,-0.51883 5.37798,-1.15293 2.79558,-0.63411 5.61935,-1.1548 6.27502,-1.15711 1.41986,-0.005 3.13008,1.66696 3.30855,3.23457 0.114,1.00105 -0.0966,1.1566 -1.95506,1.44387 -1.14554,0.17707 -4.35791,0.96631 -7.13863,1.75384 -2.78073,0.78754 -5.31619,1.43189 -5.63435,1.43189 -0.31815,0 -1.21557,-0.53605 -1.99416,-1.19122 z M 279.34353,608.94296 c -0.48303,-0.30642 -0.40923,-1.29958 0.37933,-5.10503 0.53847,-2.59853 0.85309,-5.29801 0.69916,-5.99883 -0.24248,-1.10403 -0.0766,-1.3712 1.24248,-2.0002 3.74036,-1.78365 5.96992,-1.59367 7.1072,0.6056 1.37626,2.6614 -0.3975,5.50767 -4.84684,7.77757 -1.47588,0.75293 -1.86826,1.26486 -2.30802,3.01132 -0.51875,2.06017 -1.0687,2.47374 -2.27331,1.70957 z m 7.06999,-9.76953 c 0.78167,-1.51159 0.34681,-2.1127 -1.17823,-1.62867 -0.8976,0.28489 -1.25056,0.87183 -2.03218,3.37941 -0.33173,1.06427 -0.32096,1.06763 1.08748,0.3393 0.78239,-0.4046 1.7377,-1.34511 2.12293,-2.09004 z m 3.01657,8.54243 c -0.56246,-0.67772 -0.53003,-1.32922 0.2383,-4.78837 0.48912,-2.20216 0.87198,-4.85976 0.85078,-5.90576 l -0.0386,-1.90184 2.28784,-0.5281 c 3.45255,-0.79695 4.8442,-0.68917 5.12827,0.39713 0.28432,1.08729 0.17474,1.16998 -2.09288,1.57907 -1.44995,0.26157 -1.78989,0.55017 -2.11599,1.79645 -0.36247,1.38525 -0.30412,1.4943 0.87025,1.62632 1.75829,0.19767 2.15724,1.8345 0.59216,2.42954 -0.63279,0.24059 -1.44207,0.43744 -1.79839,0.43744 -0.61533,0 -1.60611,1.34498 -1.60611,2.18032 0,0.21437 0.80384,0.31313 1.78631,0.21944 1.51228,-0.14423 1.82615,-0.0179 2.04611,0.82315 0.28856,1.10343 -0.66748,1.6474 -3.76622,2.14291 -1.30434,0.20856 -1.89125,0.0835 -2.38187,-0.5077 z m 8.48996,-0.34538 c -0.44629,-0.71689 -0.30826,-1.89054 0.77483,-6.5886 0.6036,-2.61816 0.71036,-3.86653 0.36612,-4.28131 -0.7502,-0.90393 0.33864,-1.87447 2.98442,-2.66019 2.87066,-0.85249 4.34267,-0.51978 5.22179,1.18025 1.09824,2.12375 0.82259,3.18599 -1.40469,5.41327 -1.14554,1.14554 -2.0828,2.18163 -2.0828,2.30242 0,0.1208 0.63941,1.02695 1.42093,2.01369 2.48049,3.13189 0.22252,3.92375 -2.52299,0.8848 -0.91992,-1.01826 -1.75255,-1.85138 -1.85028,-1.85138 -0.0977,0 -0.41369,0.93726 -0.70213,2.0828 -0.51911,2.06152 -1.45911,2.70273 -2.2052,1.50425 z m 7.08123,-9.406 c 0.91654,-1.39883 0.31857,-2.3068 -1.20149,-1.82436 -0.94487,0.2999 -1.29682,0.87364 -2.0829,3.39552 -0.33188,1.06473 -0.32154,1.06792 1.09095,0.3375 0.78431,-0.40558 1.77135,-1.26448 2.19344,-1.90866 z m 3.4424,7.8606 c -0.78323,-0.65904 -1.42405,-1.38801 -1.42405,-1.61995 0,-0.57384 2.65081,-0.53759 3.00849,0.0412 0.34503,0.55829 2.54564,0.62392 2.54564,0.0759 0,-0.21281 -0.85928,-1.1583 -1.9095,-2.10112 -1.78863,-1.60568 -1.89527,-1.84054 -1.68455,-3.71007 0.39265,-3.48358 3.28018,-6.28422 5.57833,-5.41047 2.03595,0.77408 2.38184,1.65106 1.75533,4.4506 -0.61842,2.76344 -0.60752,2.7521 -1.95344,2.03179 -0.78247,-0.41877 -0.88135,-0.78598 -0.62316,-2.31423 0.37081,-2.19483 -0.35783,-2.43249 -1.38255,-0.45092 -1.04194,2.01491 -0.8954,2.58763 1.14524,4.4757 2.11862,1.96022 2.33392,3.26379 0.78014,4.72348 -1.51325,1.42164 -4.01618,1.33934 -5.83592,-0.19187 z m 10.28869,0.26774 c -2.43782,-0.98188 -2.37412,-6.7094 0.12199,-10.96872 1.7943,-3.06172 4.35325,-3.84905 6.27242,-1.92988 0.8732,0.8732 0.95871,1.3728 0.77241,4.51274 -0.39168,6.60191 -3.26083,9.95906 -7.16682,8.38586 z m 3.28791,-3.44381 c 0.41688,-0.87848 0.98784,-2.74193 1.2688,-4.141 0.83186,-4.14211 -0.26654,-5.37363 -1.91347,-2.14537 -1.10031,2.15677 -2.05519,6.24239 -1.68464,7.20804 0.44881,1.16958 1.54226,0.73693 2.32931,-0.92167 z m 4.90538,2.99745 c -0.60511,-0.38218 -0.56177,-1.05404 0.35034,-5.4309 1.75438,-8.41861 1.82628,-8.60004 3.26534,-8.23886 0.68121,0.17098 1.30264,0.37492 1.38092,0.45322 0.0783,0.0783 0.40973,1.77968 0.73651,3.78084 0.65308,3.99939 0.78365,3.90733 1.89642,-1.33709 0.74158,-3.49503 1.15097,-4.01903 2.48135,-3.17601 0.51363,0.32549 0.35843,1.59371 -0.86293,7.05129 -0.81907,3.65994 -1.56864,6.74034 -1.66572,6.84533 -0.0971,0.10499 -0.68758,-0.042 -1.31221,-0.32655 -1.13037,-0.51504 -1.55746,-1.57497 -2.36977,-5.88132 -0.34702,-1.83968 -0.3556,-1.82522 -1.35782,2.28938 -1.03373,4.24398 -1.34356,4.72786 -2.54243,3.97067 z m 9.43178,-1.13951 c -0.37706,-0.98257 4.88866,-12.7204 6.04698,-13.47937 0.66435,-0.43529 1.41817,-0.52304 2.35167,-0.27375 l 1.3739,0.36688 0.12826,6.82617 0.12828,6.82615 -1.28538,-0.14767 c -1.07449,-0.12343 -1.30918,-0.39446 -1.43041,-1.65191 -0.10699,-1.1096 -0.37231,-1.50424 -1.01128,-1.50424 -1.66689,0 -3.20245,0.89767 -3.9247,2.29433 -0.76967,1.48838 -1.94984,1.85743 -2.37732,0.74341 z m 7.1362,-6.03267 c 0.0784,-0.0785 0.0789,-1.25427 7.6e-4,-2.61293 l -0.14165,-2.47031 -1.25825,2.92849 -1.25824,2.92849 1.25729,-0.31556 c 0.69151,-0.17356 1.32148,-0.37974 1.39992,-0.45818 z m 4.61762,5.32 -1.05041,-0.85057 0.79637,-3.86145 c 1.30247,-6.31539 2.14069,-8.72223 3.03486,-8.71423 1.99172,0.0177 2.04641,0.56251 0.58061,5.7827 -0.77469,2.75889 -1.40852,5.06438 -1.40852,5.12328 0,0.0589 0.83312,-0.004 1.85137,-0.14121 1.50498,-0.20185 1.85138,-0.10701 1.85138,0.50688 0,0.41538 0.0521,0.89155 0.11571,1.05818 0.0637,0.16663 -0.97253,0.67288 -2.30262,1.12499 -2.33084,0.79227 -2.45634,0.79123 -3.46875,-0.0286 z m 6.99566,-1.08966 c -0.38178,-0.83792 -0.21159,-2.25898 0.76213,-6.36411 0.68951,-2.90691 1.43314,-5.63101 1.65251,-6.05353 0.44398,-0.85516 2.19267,-0.64616 2.55795,0.30574 0.11948,0.31139 -0.3147,2.45815 -0.96486,4.77057 -0.65018,2.31242 -1.18213,4.42397 -1.18213,4.69232 0,0.26835 0.7067,0.48791 1.57044,0.48791 1.03898,0 1.67065,0.26114 1.86655,0.77166 0.36104,0.94085 0.0287,1.2634 -2.0018,1.94223 -2.46255,0.82332 -3.70739,0.66182 -4.26079,-0.55279 z m 8.66156,0.47863 c -0.71145,-0.52022 -0.76225,-0.92226 -0.38139,-3.01771 0.34619,-1.90477 0.25946,-3.17638 -0.40897,-5.99535 -1.12666,-4.7514 -1.12053,-4.82412 0.39193,-4.64997 1.10422,0.12715 1.33307,0.43163 1.73566,2.30934 0.25506,1.18959 0.57662,2.27444 0.71457,2.41078 0.13797,0.13633 0.93936,-1.00453 1.78088,-2.53526 1.04503,-1.90092 1.77077,-2.73678 2.2895,-2.63687 1.40384,0.27034 1.09182,1.78011 -1.20477,5.82939 -1.25586,2.21428 -2.54367,5.11943 -2.86179,6.4559 -0.62,2.60473 -0.78946,2.75559 -2.05562,1.82975 z m -58.65889,-15.19519 c -0.86207,-0.86207 -0.95447,-1.35653 -0.74384,-3.9805 0.2778,-3.4608 2.167,-7.60302 4.13367,-9.06341 1.15379,-0.85675 1.38173,-0.87642 3.00849,-0.25951 1.65887,0.62908 1.76825,0.79325 1.90139,2.85391 0.11086,1.71587 -0.028,2.25138 -0.64549,2.48831 -0.96275,0.36944 -2.04142,-0.95679 -2.04142,-2.50992 0,-2.94251 -3.20015,3.01658 -3.57609,6.65916 -0.28525,2.76378 0.38259,3.29514 1.95613,1.5564 0.90149,-0.99615 3.00849,-1.26985 3.00849,-0.39082 0,0.29417 -0.5313,1.23144 -1.18066,2.08279 -0.98754,1.29473 -1.47967,1.54793 -3.00849,1.54793 -1.24701,0 -2.14062,-0.31278 -2.81218,-0.98434 z m 7.98119,-0.10749 c -0.6533,-0.78718 -0.0856,-2.47722 3.10285,-9.23669 2.27776,-4.82884 2.3689,-4.94518 3.86915,-4.93825 2.69523,0.0124 2.73232,0.11876 2.59104,7.42811 -0.11797,6.10445 -0.20269,6.68415 -0.99912,6.83703 -1.05606,0.20269 -1.65884,-0.6478 -1.66834,-2.35398 -0.008,-1.43642 -0.0477,-1.44919 -2.44028,-0.78475 -1.33809,0.37161 -1.89275,0.8511 -2.40631,2.08023 -0.71847,1.71954 -1.22633,1.95955 -2.04899,0.9683 z m 6.70079,-6.49215 c 0.13537,-0.35272 0.1809,-1.52154 0.10119,-2.59738 l -0.14491,-1.95607 -1.26779,2.59739 -1.2678,2.59738 1.16661,0 c 0.64164,0 1.27736,-0.28859 1.4127,-0.64132 z m 4.41355,5.77964 c -0.52886,-0.33503 -0.46648,-1.18419 0.37613,-5.11965 0.55558,-2.59489 0.88459,-5.28964 0.73114,-5.98832 -0.2346,-1.0681 -0.0734,-1.36673 1.01241,-1.87587 1.92381,-0.90207 4.40031,-1.40121 5.53988,-1.11657 1.25816,0.31425 2.63901,3.10564 2.26783,4.58447 -0.15157,0.60394 -1.20456,1.87458 -2.33997,2.82367 l -2.06439,1.72561 1.67404,2.04293 c 1.33705,1.63169 1.54375,2.12543 1.02683,2.45273 -1.06579,0.67483 -1.45014,0.51005 -3.49767,-1.49943 l -1.9598,-1.92342 -0.5426,2.15484 c -0.53909,2.14094 -1.00912,2.5085 -2.22383,1.73901 z m 6.62715,-9.35999 c 1.35347,-1.6085 1.03803,-2.56897 -0.66608,-2.0281 -0.91289,0.28974 -2.31856,2.67659 -2.31856,3.93696 0,0.77428 1.57397,-0.23236 2.98464,-1.90886 z m 3.47996,7.89598 c -0.39308,-0.73447 -0.28223,-1.95682 0.48146,-5.30915 0.54566,-2.39525 0.92433,-4.93387 0.84149,-5.64138 -0.13753,-1.17464 0.0304,-1.33344 1.93219,-1.82771 3.03994,-0.79006 4.94147,-0.74812 5.27319,0.11632 0.4956,1.29151 0.31867,1.47133 -1.75339,1.78206 -1.56764,0.23508 -2.0971,0.53913 -2.3079,1.32538 -0.47463,1.77014 -0.31756,2.17741 0.8397,2.17741 0.73306,0 1.23231,0.33517 1.4308,0.96057 0.36341,1.145 0.47342,1.04759 -1.97815,1.75162 -1.15796,0.33253 -1.9671,0.84282 -1.9671,1.24057 0,0.37163 -0.0521,0.83116 -0.11571,1.02118 -0.0637,0.19003 0.63784,0.28058 1.55886,0.20123 1.24941,-0.10764 1.75266,0.0593 1.98225,0.65759 0.37289,0.97173 0.0522,1.28959 -1.99022,1.97243 -2.33724,0.78142 -3.65136,0.64834 -4.22747,-0.42812 z"
       id="path4147"
       />
  </g>
</svg>
