<?xml version="1.0" encoding="UTF-8" standalone="no"?>
<!-- Created with Inkscape (http://www.inkscape.org/) -->

<svg
   width="800"
   height="600"
   viewBox="0 0 211.66666 158.75"
   version="1.1"
   id="svg8">
  <g
     id="layer1"
     transform="translate(0,-138.24998)">
    <path
       style="fill:#1c1e21;stroke-width:1"
       d="M 10.595124,285.00278 C 8.507079,279.82804 9.4622222,273.01965 8.9922429,267.23933 8.9290533,251.88634 6.1905997,236.66637 6.8281136,221.27463 6.6987678,208.40328 5.2331555,195.51828 6.4660635,182.64948 c 0.58702,-7.97655 -0.1841088,-15.96251 0.4637328,-23.91876 -0.3614807,-5.81529 4.7815757,-6.56292 9.4112927,-5.63708 25.18059,-0.74167 50.316878,1.71617 75.48497,2.00234 21.754411,0.76236 43.497911,-0.60082 65.134791,-2.76806 15.92617,-0.94484 31.88488,-2.55961 47.83998,-2.08155 2.0375,6.24256 -0.14047,14.10065 0.42265,20.9574 -1.14191,16.28919 -3.15928,32.5074 -4.27953,48.81338 -1.26689,11.88839 -1.49333,23.86746 -1.95552,35.80633 -0.0239,5.8234 1.05726,17.07428 1.30953,22.7333 -6.30391,1.66344 -13.06929,0.56414 -19.53338,1.26147 -26.90929,0.75808 -53.72864,3.36921 -80.61637,4.09962 -29.775426,1.87743 -59.766234,-2.75146 -89.419019,1.17228 l -0.133869,-0.0874 z m 4.3179,-2.67547 c 29.056551,-3.4189 58.325482,1.0281 87.507866,-0.72547 9.79276,-0.72494 19.75692,-0.14715 29.46246,-1.15788 7.12472,-1.10865 14.76104,-0.85763 22.07227,-1.54983 14.04104,-0.89328 28.11755,-1.06118 42.17425,-1.58201 -2.2013,-14.55962 -0.45116,-34.63638 0.14337,-49.28664 1.69673,-18.30307 3.37613,-36.66004 5.06946,-54.96086 0.23589,-6.83325 0.30312,-13.6883 0.4624,-20.49629 -24.81471,-0.10503 -49.5512,2.92562 -74.28119,4.75228 -25.64941,1.41472 -51.25834,0.17574 -76.896106,-0.63581 -13.380625,-0.65586 -26.867922,-1.17367 -40.25799,-0.16553 0.417439,18.34143 -2.0552419,36.75708 -0.268156,55.03746 -0.5041992,21.70904 2.873543,43.26619 2.581188,64.96969 0.677425,1.23457 -0.538149,6.91713 2.230178,5.80089 z M 29.6234,272.68386 c -2.312027,-5.16614 1.8688,-12.1451 -2.643084,-16.77463 -3.591918,1.68149 -4.984523,7.21186 -4.390638,11.11864 0.889813,1.76529 0.611985,4.48562 -1.432368,5.17604 -2.875062,-6.50756 0.06256,-14.18755 3.869358,-19.7152 2.79039,-2.8026 5.469567,1.52811 6.375522,3.31323 1.320436,-7.17943 8.658138,-3.60356 8.32606,1.04868 1.81467,-3.07217 4.19091,-9.64904 8.647288,-7.85489 1.783836,5.5636 -0.300555,12.10556 -0.11118,17.58259 -0.315344,1.68117 -2.754945,2.33336 -2.526337,-0.23346 0.111576,-4.51438 2.684136,-20.41051 -3.793559,-9.44382 -2.644381,3.46154 0.665003,8.98968 -2.877402,11.74553 -3.145314,6.47331 -2.148605,-4.27895 -2.074317,-6.95968 1.188734,-5.01731 -4.062957,-8.77029 -4.727421,-1.92507 -0.736475,3.9957 -0.175924,7.90048 -1.113946,11.93884 0.07022,0.96154 -1.113638,0.93677 -1.527976,0.9832 z m 4.719292,-25.38127 c -5.28137,-2.82209 -1.829608,-12.95827 3.08397,-13.82828 5.812614,1.51164 3.618141,8.51034 0.56797,11.80997 -0.779489,1.18149 -2.116531,2.40692 -3.65194,2.01831 z m 1.870302,-3.87626 c 5.338316,-2.15297 -1.825511,-10.56747 -1.387504,-3.11663 0.129409,0.72328 -0.179237,3.5105 1.387504,3.11663 z m -12.219103,3.33023 c -5.433569,-1.74483 -1.616697,-12.13366 3.2491,-12.08259 4.722083,2.58248 0.943108,8.26436 -1.458828,11.20188 -0.397793,0.55263 -1.110861,0.92649 -1.790272,0.88071 z m 1.432288,-3.98678 c 3.416665,-7.85373 -3.534955,-3.55892 0,0 z m 20.986373,1.87472 c -4.600764,-2.36351 -1.442473,-8.66828 1.39996,-11.31223 4.267572,-3.33482 7.2894,3.72913 4.152801,6.81772 -1.280499,1.99858 -2.770501,4.78536 -5.552761,4.49451 z m 2.231223,-3.9711 c 4.111212,-4.56718 -2.842576,-7.75637 -1.488499,-0.50711 0.09794,0.68529 1.004466,0.73988 1.488499,0.50711 z m -18.853513,-2.30126 c 0.171393,-0.11341 0.138882,0.2044 0,0 z"
       id="path861"/>
    <path
       id="path864"
       d="m 65.733641,265.94019 c -2.610518,-2.70718 -4.471086,-6.8273 -5.486585,-10.65413 -2.407549,1.78524 -10.167681,9.38534 -5.529574,1.87034 2.141015,-2.22959 6.028071,-8.89576 8.784589,-4.55804 1.088435,3.08202 3.762101,13.08726 6.600192,5.38552 2.169515,-1.10375 4.243705,-8.87546 6.759556,-4.30735 3.249773,1.53754 6.441645,-6.15009 9.474701,-8.48112 3.492315,-1.45066 5.478365,-11.64945 9.529614,-6.19488 2.129416,2.27159 4.528156,7.25125 6.525006,2.1603 5.54564,-7.49692 12.38826,-13.99116 17.69981,-21.6346 3.63707,-2.243 3.93163,6.19862 5.80515,8.36313 1.32932,6.86888 4.00626,3.831 6.21975,-0.2371 3.30791,-4.17187 6.53852,-8.44572 10.14372,-12.35166 3.43633,0.86881 2.61894,6.78732 5.29887,9.18999 1.19328,2.29401 2.44857,4.97799 3.52588,7.10111 3.61606,-5.32841 6.43683,-11.37219 10.31129,-16.65751 5.29319,-7.75952 10.59566,-15.58833 14.54856,-24.14728 -2.95118,0.78936 -6.43205,7.29116 -8.39076,4.32582 3.33822,-4.68869 8.67112,-7.39444 12.89518,-11.14927 2.45833,2.2939 1.76253,7.0094 3.7078,10.0186 1.02451,1.45686 -1.59346,4.83065 -3.05552,3.71675 -0.6299,-1.62926 -1.85859,-9.96765 -3.66051,-3.85331 -6.19522,12.10597 -15.40177,22.44267 -21.5833,34.6071 -2.10777,2.68896 -2.69125,7.75434 -6.74173,7.8998 -2.259,-5.52483 -5.72963,-10.5549 -8.22194,-16.00905 -5.61006,4.83181 -8.5113,12.06276 -14.01686,16.96356 -4.45369,-0.85429 -4.40344,-14.36427 -8.14056,-12.40475 -6.82143,7.68703 -13.29465,15.70994 -19.799974,23.62931 -2.707812,-0.67521 -4.887446,-9.70329 -7.869505,-5.27601 -5.090325,5.27242 -9.256749,11.40981 -14.72819,16.3051 -2.495432,-4.37176 -4.459454,-0.27734 -6.584217,2.78269 -1.062321,1.32102 -2.097559,3.48669 -4.020443,3.59694 z m 19.013109,-6.37936 c 0.146767,-0.21199 0.07196,0.21758 0,0 z m 35.79461,-65.81688 c 0.14677,-0.21199 0.072,0.21759 0,0 z"
       style="fill:#4285f4;fill-opacity:1;stroke-width:1" />
  </g>
</svg>
