<?xml version="1.0" encoding="UTF-8" standalone="no"?>
<!-- Created with Inkscape (http://www.inkscape.org/) -->

<svg
   width="700"
   height="500"
   viewBox="0 0 700.00001 500.00001"
   id="svg2"
   version="1.1"
   >
  <g
     id="layer1"
     transform="translate(0,-552.36216)">
    <g
       id="g7538"
       transform="matrix(3.1325035,0,0,3.1325035,1148.4404,-76.393339)"
       style="fill:#ffd970;fill-opacity:1">
      <circle
         r="0.9375"
         cy="274.46927"
         cx="-235.5515"
         id="circle7570"
         style="fill:#4285f4;fill-opacity:1;stroke:none;stroke-width:35;stroke-miterlimit:4;stroke-dasharray:none;stroke-opacity:1" />
      <circle
         r="0.9375"
         cy="281.55588"
         cx="-235.5515"
         id="circle7572"
         style="fill:#4285f4;fill-opacity:1;stroke:none;stroke-width:35;stroke-miterlimit:4;stroke-dasharray:none;stroke-opacity:1" />
      <circle
         r="0.9375"
         cy="288.64249"
         cx="-235.5515"
         id="circle7574"
         style="fill:#4285f4;fill-opacity:1;stroke:none;stroke-width:35;stroke-miterlimit:4;stroke-dasharray:none;stroke-opacity:1" />
      <circle
         r="0.9375"
         cy="295.7291"
         cx="-235.5515"
         id="circle7576"
         style="fill:#4285f4;fill-opacity:1;stroke:none;stroke-width:35;stroke-miterlimit:4;stroke-dasharray:none;stroke-opacity:1" />
      <circle
         r="0.9375"
         cy="302.81573"
         cx="-235.5515"
         id="circle7578"
         style="fill:#4285f4;fill-opacity:1;stroke:none;stroke-width:35;stroke-miterlimit:4;stroke-dasharray:none;stroke-opacity:1" />
      <circle
         r="0.9375"
         cy="267.38266"
         cx="-228.46489"
         id="circle7608"
         style="fill:#4285f4;fill-opacity:1;stroke:none;stroke-width:35;stroke-miterlimit:4;stroke-dasharray:none;stroke-opacity:1" />
      <circle
         r="0.9375"
         cy="274.46927"
         cx="-228.46489"
         id="circle7610"
         style="fill:#4285f4;fill-opacity:1;stroke:none;stroke-width:35;stroke-miterlimit:4;stroke-dasharray:none;stroke-opacity:1" />
      <circle
         r="0.9375"
         cy="281.55588"
         cx="-228.46489"
         id="circle7612"
         style="fill:#4285f4;fill-opacity:1;stroke:none;stroke-width:35;stroke-miterlimit:4;stroke-dasharray:none;stroke-opacity:1" />
      <circle
         r="0.9375"
         cy="288.64249"
         cx="-228.46489"
         id="circle7614"
         style="fill:#4285f4;fill-opacity:1;stroke:none;stroke-width:35;stroke-miterlimit:4;stroke-dasharray:none;stroke-opacity:1" />
      <circle
         r="0.9375"
         cy="295.7291"
         cx="-228.46489"
         id="circle7616"
         style="fill:#4285f4;fill-opacity:1;stroke:none;stroke-width:35;stroke-miterlimit:4;stroke-dasharray:none;stroke-opacity:1" />
      <circle
         r="0.9375"
         cy="302.81573"
         cx="-228.46489"
         id="circle7618"
         style="fill:#4285f4;fill-opacity:1;stroke:none;stroke-width:35;stroke-miterlimit:4;stroke-dasharray:none;stroke-opacity:1" />
      <circle
         r="0.9375"
         cy="267.38266"
         cx="-221.37827"
         id="circle7648"
         style="fill:#4285f4;fill-opacity:1;stroke:none;stroke-width:35;stroke-miterlimit:4;stroke-dasharray:none;stroke-opacity:1" />
      <circle
         r="0.9375"
         cy="274.46927"
         cx="-221.37827"
         id="circle7650"
         style="fill:#4285f4;fill-opacity:1;stroke:none;stroke-width:35;stroke-miterlimit:4;stroke-dasharray:none;stroke-opacity:1" />
      <circle
         r="0.9375"
         cy="281.55588"
         cx="-221.37827"
         id="circle7652"
         style="fill:#4285f4;fill-opacity:1;stroke:none;stroke-width:35;stroke-miterlimit:4;stroke-dasharray:none;stroke-opacity:1" />
      <circle
         r="0.9375"
         cy="288.64249"
         cx="-221.37827"
         id="circle7654"
         style="fill:#4285f4;fill-opacity:1;stroke:none;stroke-width:35;stroke-miterlimit:4;stroke-dasharray:none;stroke-opacity:1" />
      <circle
         r="0.9375"
         cy="295.7291"
         cx="-221.37827"
         id="circle7656"
         style="fill:#4285f4;fill-opacity:1;stroke:none;stroke-width:35;stroke-miterlimit:4;stroke-dasharray:none;stroke-opacity:1" />
      <circle
         r="0.9375"
         cy="302.81573"
         cx="-221.37827"
         id="circle7658"
         style="fill:#4285f4;fill-opacity:1;stroke:none;stroke-width:35;stroke-miterlimit:4;stroke-dasharray:none;stroke-opacity:1" />
      <circle
         r="0.9375"
         cy="267.38266"
         cx="-214.29166"
         id="circle7688"
         style="fill:#4285f4;fill-opacity:1;stroke:none;stroke-width:35;stroke-miterlimit:4;stroke-dasharray:none;stroke-opacity:1" />
      <circle
         r="0.9375"
         cy="274.46927"
         cx="-214.29166"
         id="circle7690"
         style="fill:#4285f4;fill-opacity:1;stroke:none;stroke-width:35;stroke-miterlimit:4;stroke-dasharray:none;stroke-opacity:1" />
      <circle
         r="0.9375"
         cy="281.55588"
         cx="-214.29166"
         id="circle7692"
         style="fill:#4285f4;fill-opacity:1;stroke:none;stroke-width:35;stroke-miterlimit:4;stroke-dasharray:none;stroke-opacity:1" />
      <circle
         r="0.9375"
         cy="288.64249"
         cx="-214.29166"
         id="circle7694"
         style="fill:#4285f4;fill-opacity:1;stroke:none;stroke-width:35;stroke-miterlimit:4;stroke-dasharray:none;stroke-opacity:1" />
      <circle
         r="0.9375"
         cy="295.7291"
         cx="-214.29166"
         id="circle7696"
         style="fill:#4285f4;fill-opacity:1;stroke:none;stroke-width:35;stroke-miterlimit:4;stroke-dasharray:none;stroke-opacity:1" />
      <circle
         r="0.9375"
         cy="302.81573"
         cx="-214.29166"
         id="circle7698"
         style="fill:#4285f4;fill-opacity:1;stroke:none;stroke-width:35;stroke-miterlimit:4;stroke-dasharray:none;stroke-opacity:1" />
      <circle
         r="0.9375"
         cy="267.38266"
         cx="-207.20505"
         id="circle7728"
         style="fill:#4285f4;fill-opacity:1;stroke:none;stroke-width:35;stroke-miterlimit:4;stroke-dasharray:none;stroke-opacity:1" />
      <circle
         r="0.9375"
         cy="274.46927"
         cx="-207.20505"
         id="circle7730"
         style="fill:#4285f4;fill-opacity:1;stroke:none;stroke-width:35;stroke-miterlimit:4;stroke-dasharray:none;stroke-opacity:1" />
      <circle
         r="0.9375"
         cy="281.55588"
         cx="-207.20505"
         id="circle7732"
         style="fill:#4285f4;fill-opacity:1;stroke:none;stroke-width:35;stroke-miterlimit:4;stroke-dasharray:none;stroke-opacity:1" />
      <circle
         r="0.9375"
         cy="288.64249"
         cx="-207.20505"
         id="circle7734"
         style="fill:#4285f4;fill-opacity:1;stroke:none;stroke-width:35;stroke-miterlimit:4;stroke-dasharray:none;stroke-opacity:1" />
      <circle
         r="0.9375"
         cy="295.7291"
         cx="-207.20505"
         id="circle7736"
         style="fill:#4285f4;fill-opacity:1;stroke:none;stroke-width:35;stroke-miterlimit:4;stroke-dasharray:none;stroke-opacity:1" />
      <circle
         r="0.9375"
         cy="302.81573"
         cx="-207.20505"
         id="circle7738"
         style="fill:#4285f4;fill-opacity:1;stroke:none;stroke-width:35;stroke-miterlimit:4;stroke-dasharray:none;stroke-opacity:1" />
      <circle
         r="0.9375"
         cy="267.38266"
         cx="-200.11842"
         id="circle7768"
         style="fill:#4285f4;fill-opacity:1;stroke:none;stroke-width:35;stroke-miterlimit:4;stroke-dasharray:none;stroke-opacity:1" />
      <circle
         r="0.9375"
         cy="274.46927"
         cx="-200.11842"
         id="circle7770"
         style="fill:#4285f4;fill-opacity:1;stroke:none;stroke-width:35;stroke-miterlimit:4;stroke-dasharray:none;stroke-opacity:1" />
      <circle
         r="0.9375"
         cy="281.55588"
         cx="-200.11842"
         id="circle7772"
         style="fill:#4285f4;fill-opacity:1;stroke:none;stroke-width:35;stroke-miterlimit:4;stroke-dasharray:none;stroke-opacity:1" />
      <circle
         r="0.9375"
         cy="288.64249"
         cx="-200.11842"
         id="circle7774"
         style="fill:#4285f4;fill-opacity:1;stroke:none;stroke-width:35;stroke-miterlimit:4;stroke-dasharray:none;stroke-opacity:1" />
      <circle
         r="0.9375"
         cy="295.7291"
         cx="-200.11842"
         id="circle7776"
         style="fill:#4285f4;fill-opacity:1;stroke:none;stroke-width:35;stroke-miterlimit:4;stroke-dasharray:none;stroke-opacity:1" />
      <circle
         r="0.9375"
         cy="302.81573"
         cx="-200.11842"
         id="circle7778"
         style="fill:#4285f4;fill-opacity:1;stroke:none;stroke-width:35;stroke-miterlimit:4;stroke-dasharray:none;stroke-opacity:1" />
      <circle
         style="fill:#4285f4;fill-opacity:1;stroke:none;stroke-width:35;stroke-miterlimit:4;stroke-dasharray:none;stroke-opacity:1"
         id="circle4945"
         cx="-235.64764"
         cy="267.74255"
         r="0.9375" />
    </g>
    <g
       id="g4177"
       transform="matrix(0.85769001,0,0,0.85769001,43.824223,124.57397)">
      <path
         id="path4146"
         d="m 646.09122,623.7755 c -10.49788,8.08 -34.47261,8.72361 -42.18358,-1.39 11.47851,-2.82918 47.28479,1.91063 21.90462,-14.883 -12.17342,-7.77884 8.2118,-21.57933 -12.4865,-12.6234 -17.77612,-2.81231 19.10542,-18.75642 25.24395,-10.4067 3.38599,9.75345 -18.71541,16.60819 0.21147,23.96955 3.92151,3.95153 8.16104,9.33455 7.31004,15.33355 z M 362.11136,748.7519 c -8.02348,9.27361 0.007,34.99126 -14.33313,32.4977 -3.52063,-12.27159 5.1955,-23.18057 -9.01598,-14.89751 -6.84115,-6.63062 15.53408,-28.32546 21.9383,-23.9005 1.50397,1.72218 1.74123,4.13706 1.41081,6.30031 z M 234.79958,855.41036 c 0.0318,28.61784 -46.14468,28.17556 -35.88815,-2.34698 6.16249,-17.07499 36.12938,-20.48718 35.88815,2.34698 z m -7.43893,-2.85948 c -13.13087,-23.0795 -35.09926,21.21572 -10.55639,18.07273 6.51194,-3.43252 13.02747,-9.99469 10.55639,-18.07273 z M 92.022947,926.11997 c 0.871446,9.78508 -2.060258,43.5165 -10.04617,20.93663 -0.859279,-11.26903 5.136902,-25.7948 -7.87622,-12.62339 -5.37562,-1.68424 9.058194,-25.90922 13.02722,-24.43069 4.927884,3.52962 5.051785,10.67971 4.89517,16.11745 z m -28.82036,14.05359 c -10.272251,7.78522 -39.611338,0.50699 -15.103402,-3.63584 4.582132,-1.4825 18.84334,-4.15844 15.103402,3.63584 z"
         style="fill:#000000" />
      <path
         id="path4168"
         d="m 706.75392,871.37852 c -4.76331,16.26688 -24.56383,16.05773 -38.37049,15.08364 -28.9001,2.88857 -57.5028,5.15388 -86.78513,4.12818 -46.29084,1.12985 -92.23371,3.53983 -138.33056,6.92608 -31.20137,1.39953 -62.395,1.38138 -93.43005,5.02036 -16.80594,-3.63033 -45.95237,9.4288 -55.79052,-0.38897 7.85597,-28.33036 41.49419,-18.18854 63.68725,-20.93039 60.0771,-3.61173 120.33966,-0.0242 180.3237,-5.77019 42.44852,-0.85683 84.1185,-2.91144 127.1462,-4.39222 12.99898,-1.1214 30.32534,-4.81025 41.5496,0.32351 z M 632.62257,666.79744 c -18.8052,1.66104 -46.74116,-4.14947 -60.4628,3.69697 -1.03964,18.64296 4.70144,40.18556 -3.56648,57.19165 -5.2307,17.19874 -26.26884,10.59166 -40.27066,11.78447 -34.48216,1.03463 -68.98757,2.65565 -103.45237,3.60841 -0.28466,23.37053 5.57655,49.74752 -8.13465,70.45973 -15.37648,8.77447 -34.77443,0.50041 -51.70015,4.547 -22.20507,7.51066 -61.32567,-4.00236 -72.66703,11.96994 -1.81952,17.28607 1.02285,38.55147 -1.8664,54.80706 0.2682,7.36323 -4.76878,21.99528 -13.22778,21.96769 -32.11122,2.60892 -64.07361,6.53202 -96.2902,7.91256 -32.65877,-5.8072 -22.86973,30.79877 -24.0016,52.19033 0.21472,7.64337 -3.67018,30.75959 -10.75199,23.90173 -18.85457,1.10922 -32.35639,2.29513 -63.611173,3.64425 -24.518571,0.6475 -52.883903,7.86177 -75.4186603,1.00094 -0.039465,-9.41382 7.6975313,-10.25746 7.8632103,-19.7621 21.317484,-4.20518 45.256138,-1.479 67.55514,-4.33253 19.361963,-5.74714 52.063473,3.2991 62.601403,-10.38533 2.1043,-15.34541 -4.89913,-40.67185 3.26865,-49.54043 1.92487,-19.40759 25.52105,-13.74277 39.18643,-18.34798 26.89007,-2.65525 45.97715,-2.81682 71.37329,-6.37706 25.83234,1.55036 18.74503,-35.37215 20.38085,-54.25201 0.81611,-19.36844 -0.0363,-15.18309 8.06505,-25.54101 12.75299,-12.00387 36.52268,-2.99895 53.23354,-6.5791 23.923,-1.43368 47.87421,-5.64267 71.87453,-3.58029 l -0.57877,-21.15018 c 0.8385,-18.24466 -4.04904,-33.12882 4.1653,-46.46894 10.84358,-18.54237 40.34608,-1.88245 59.17284,-7.91649 28.13064,0.16222 56.22111,-2.84968 84.31126,-0.73747 1.61543,-18.91579 -2.0926,-39.16449 0.0495,-57.11265 7.9824,-20.35874 31.28096,-14.68975 48.95961,-15.24077 27.90735,0.38555 57.15285,-0.0983 84.16203,1.90311 0.37213,18.14479 -46.56602,14.71468 -60.22192,16.7385 z M 226.59423,889.96528 c -1.2889,-0.25023 1.28887,-0.25024 0,0 z"
         style="fill:#000000" />
      <path
         style="fill:#4285f4;fill-opacity:1"
         d="m 507.92487,697.443 c -8.57082,10.89768 -41.5376,10.06746 -32.64882,-9.1054 7.35443,-8.17659 16.17105,-21.23176 -0.79131,-18.8227 -1.82849,-18.54495 34.79851,-0.0412 16.47871,12.7402 -18.549,15.98159 3.58369,12.75365 15.34293,10.6826 0.47926,1.4027 3.0543,2.79739 1.61849,4.5053 z"
         id="path4175"
         />
    </g>
  </g>
</svg>
