<svg viewBox="0 0 370.417 158.75" height="600" width="1400"><path d="M98.176 148.24c.776-2.143 8.17-1.455 11.693-2.18 6.491-.274 13.091-.47 19.622.118 2.356-7.261.185-14.988.455-22.4 9.9-1.196 19.778-2.916 29.787-2.835-.89-7.788-.1-15.7-1.481-23.437 7.5.69 15.12-.091 22.66.43 5.121-.177 12.452 1.72 9.427-6.06 1.171-5.051-2.464-15.384.598-17.574 8.205-.387 16.507-.427 24.685-.365 3.772.354 10.125.602 2.624-1.915-4.404-.674-8.134-5.946-1.47-2.912 3.401 2.765 9.379 3.008 11.07 6.982-3.216 2.683-6.442 5.365-9.576 8.136-11.55 1.117 7.655-8.908.657-8.17-8.227-.229-16.9-.736-24.848.233.633 7.7.701 15.836.72 23.335-10.57.022-21.136-.645-31.706-.277.687 7.728.322 15.484 1.15 23.228-9.965-.27-19.91 1.098-29.75 2.264.082 7.516 1.79 15.553-.524 22.81-8.3-.142-16.745-1.024-25.136-.199-3.55.274-7.092.831-10.657.788zm5.446-1.852c-6.854-2.143-13.362-6.209-17.345-12.335 1.287-.98 3.63-1.885 4.338-3.928 4.237-4.603 7.055-10.64 6.415-17.06.223-7.563-1.11-14.906-.736-22.613.545-7.485 2.929-15.899 9.45-20.305 3.662-1.513 9.887-1.52 10.747 3.318 1.944 4.768 3.204 9.82 2.344 15.044.08 1.904.047 3.817-.545 5.641 6.623 2.075 10.296 9.15 13.052 14.849 1.608 3.063 1.668 5.326 2.167 8.904.83 2.413 5.11-2.599 7.01-3.211.762-2.628 8.09-3.565 6.146-.866-4.072 3.753-9.101 6.46-14.094 8.708-5.015 2.42-7.216-4.377-11.455-6.05-2.1-1.24-5.12-3.02-7.22-2.51-.322 5.912-4.712 11.12-9.037 15.013-3.56 2.436-6.752 5.571-10.868 7.063 2.833 3.778 7.692 5.588 11.934 7.324 2.953.463-1.358 2.028-1.93 2.934l-.373.08zM93.03 134.87c3.71-1.976 6.701-4.336 9.903-6.878 2.621-2.503 4.555-5.086 6.254-8.533.874-2.401 2.324-5.316.412-7.567.513-1.002 1.537-1.698 3.078-1.397 2.707 1.024 6.506.632 9.384 2.157 2.731 1.115 5.142 3.79 7.401 4.813-.24-3.417-1.468-6.444-2.987-9.513-1.585-3.486-3.699-6.417-6.563-9.31-1.502-1.609-2.77-1.4-4.063-2.755-2.41-1.026-1.235-4.304-1.511-6.376.522-5.38-.42-11.196-2.43-16.462-1.713-2.185-5.89-2.219-7.132.612-2.448 2.568-2.93 6.3-4.087 9.549-.647 3.731-1.207 7.178-.279 10.822-.156 1.588-.346 3.289-.22 4.765-.543 2.426 1.086 2.474 1.585 4.43 1.332 2.48-.747 5.21.044 7.688.097 5.344-.301 10.983-3.662 15.309-.762 1.799-3.518 3.925-4.553 5.624-.636 1.265-3.684 2.223-.574 3.022zm5.076-8.514c.304-.098.03.133 0 0zm14.872-15.744c.06-.365.164.362 0 0zm-2.488-38.139c-.707-1.345.249.459 0 0zm-1.9-.668c.17-.246.083.253 0 0zm25.896 40.857c-.43-3.178-1.765-6.92-3.223-9.619-2.03-4.085-4.326-9.126-9-10.75-1.032.746-1.652-2.244-1.034-3.66.483-5.605.795-10.891-1.217-16.2-.998-1.641-2.556-3.407-4.75-3.149-.566-3.334 8.803-.698 9.464 2.708 1.986 4.187 1.666 8.86 1.798 13.255.101 2.007-.53 3.723-.584 5.6 5.75 1.893 8.456 8.108 10.875 13.206 1.022 1.592.987 4.125 2.149 5.29 1.002-3.012 8.729-1.643 4.642.502-2.457 2.395-5.865 2.908-9.12 2.817zm94.357-4.682c-5.437-.077-10.805-2.1-14.55-5.904-9.066.82-15.872-7.63-16.239-16.122.327-5.592 6.404 1.128 5.293 4.926 1.264 4.26 4.513 8.806 8.915 9.776 5.292-1.676 7.708 3.24 11.726 5.194 6.248 1.667 13.9.073 18.642-4.485 3.9 1.232 7.549 3.659 11.909 1.642 5.774-1.667 10.918-6.972 10.544-13.241 6.311-2.387 13.974-5.888 15.115-13.4.681-5.293-.24-11.574-4.717-14.95 1.217-6.43 3.655-14.072.22-20.272-2.452-4.14-7.493-6.766-12.156-5.468-4.194.104-3.451-3.58-4.665-6.415-2.109-5.644-5.435-12.588-12.044-13.57-4.574-.775-8.48 4.627-12.517 1.929-2.772-4.822-10.567-7.129-14.447-2.14-3.351 2.47-5.065 6.472-7.588 9.614-3.5 1.799-7.466 5.363-10.109 8.912-3.049 5.607-6.148 13.106-2.355 19.051 1.708 3.032-5.414 6.89-4.26 11.526-.288 3.867 5.192 7.972-1.512 6.363-5.384-4.882-2.399-12.948 1.726-17.558-4.398-6.566-1.29-15.25 2.488-21.356 2.416-5.057 8.58-6.17 11.127-10.56 3.692-5.403 8.874-12.684 16.47-10.599 3.656.734 7.1 2.387 10.082 4.528 7.538-4.267 17.043-.792 21.971 5.714 2.675 3.503 4.418 7.654 5.694 11.847 7.424 1.489 15.781 6.021 17.265 14.063.659 5.234-.096 10.666-1.653 15.545 5.743 5.643 6.669 15.976 1.666 22.385-3.234 3.246-7.612 5.118-11.84 6.561.415 9.407-10.422 15.556-18.91 13.573-4.496-2.512-7.417 1.6-11.719 2.202-3.145.684-6.36.934-9.572.69zm-97.965-.03c.177-.248.177.248 0 0zm9.3-3.008c-1.598-1.857-1.723-4.945-3.308-7.02-1.418-3.716-4.516-6.84-7.681-9.073 1.08-4.028 1.265-8.022.418-12.448-.272-3.342-3.37-5.101-5.336-7.329-.162-3.095 5.843.085 7.243 1.788 3.976 3.997 3.785 10.505 3.208 15.627-1.852 2.726 1.808 3.432 3.103 5.266 2.812 2.946 4.321 7.02 5.944 10.545 2.19-1.493 4.793-2.253 7.3-.953-2.994 2.512-6.856 4.113-10.891 3.597zm-14.03-4.85c.076-.174.15.309 0 0zm-7.393-6.008c.135-.156.15.381 0 0zm3-1.58c.172-.364.172.364 0 0zm4.673-1.497c.256-.208.172.214 0 0zm50.72-25.71c-6.2-2.024-1.646-11.938 4.665-8.863 5.364.797.871 4.684 1.101 7.562-1.36 1.975-3.792 1.216-5.766 1.3zm1.8-1.747c.045-1.517 2.652-5.42 1.578-5.53-2.277.758-2.067.028-3.695 1.914 1.527-1.251-.783 1.29 1.368 2.887.312.236-.014 1.184.748.729zm-1.13-4.41c.497-.777-.175-.482 0 0zm-1.35 1.452c-.12.07.112.38 0 0zm7.929-2.453c-.413-1.128-.162.762 0 0zm-77.524 2.647c-5.902-3.947-5.882-12.054-3.521-17.958.97-6.513 10.96-8.003 14.358-2.465 2.608 5.098 1.23 11.446-2.007 15.989-1.963 2.636-5.62 4.382-8.83 4.434zm3.46-3.075c1.405-3.08 3.472-5.813 3.614-9.648.47-3.26-.097-7.159-3.353-8.626-2.042-1.695-2.216 2.016-2.758 3.267-2.27 4.778-1.512 11.29 2.264 15.164l.233-.157zm8.07-6.64c-.083-.252-.17.247 0 0zm-1.315 7.806c-3.599-.51 1.597-1.891 2.166-3.343 2.249-2.394 3.597-6.317 3.334-9.89.54-3.23-2.97-5.583-3.125-8.625 3.386.094 6.057 2.117 7.061 5.455 1.222 4.381 1.11 9.881-2.104 13.402-2.35 1.878-3.992 3.247-7.332 3.001zm45.338-.136c-3.492 1.473-8.524-3.362-4.728-6.103 4.973-2.226 4.387 2.068 6.329 4.579.386.972-.89 1.464-1.6 1.524zm-1.578-1.983c-1-2.834-3.028-2.62-.805.086.151.327.288.77.805-.086zm-1.496-2.645c-.084-.253-.17.246 0 0zm-.192-.233c.129-.665-.583.267 0 0zm-33.484 4.255c-1.165-1.984 2.254-3.579 2.783-5.578 1.983-3.303 2.609-7.727-.243-10.744-4.785-4.317 3.084-4.295 4.459-.52 2.656 3.391 2.968 8.195.45 11.782-1.341 2.873-3.929 5.707-7.449 5.06zm-10.168-1.177c.16-.208.16.207 0 0zm8.252-.534c.08-.243.184.226 0 0zm-7.257-1.205c.17-.247.084.252 0 0zm1.002-2.005c.17-.246.084.253 0 0zm28.459-.56c-4.72 1.377-4.05-5.187-.064-2.792-.358.782 4.74 2.468.064 2.791z"/></svg>