<?xml version="1.0" encoding="UTF-8" standalone="no"?>
<!-- Created with Inkscape (http://www.inkscape.org/) -->

<svg
   width="800"
   height="400"
   viewBox="0 0 211.66666 105.83333"
   version="1.1"
   id="svg8">
  <g
     id="layer1"
     transform="translate(0,-191.16665)">
    <path
       style="fill:#1c1e21;stroke-width:1"
       d="m 195.26836,224.31339 c -1.07018,-0.49979 -4.23016,4.14296 -7.54823,3.66723 -2.94908,1.16997 -4.59867,-3.01991 -1.90905,-3.47611 -12.54461,0.0215 -25.10652,-1.05981 -37.61556,-1.23839 -2.00031,2.74629 -6.5918,2.20643 -4.25266,6.86936 0.2016,8.42021 -0.1145,17.26057 3.84895,24.94701 1.27851,3.0999 3.25317,6.21882 5.77896,8.26021 4.26507,-2.94735 10.66344,-4.43856 15.12285,-1.17277 7.44927,-3.76748 11.48569,-11.55233 13.59299,-19.2877 1.94041,-4.66583 2.51073,-10.07578 4.96825,-14.37547 5.29234,-1.05233 -0.089,7.53304 -0.16965,10.38922 -2.38102,7.505 -4.44474,15.69236 -10.92628,20.87225 -2.33151,2.27893 -5.19441,3.39934 -3.93612,6.65926 1.74107,6.0536 -0.18836,12.42489 -0.15693,18.56851 -3.86576,4.66616 -3.73087,-2.24773 -3.15217,-5.13148 0.31794,-4.41516 1.64996,-9.60326 -0.9932,-13.49806 -2.20145,-3.75832 -7.00502,-3.61262 -10.64563,-2.39957 -6.01939,1.30628 -8.69521,7.86472 -8.39802,13.48075 1.21008,2.58101 -2.4617,11.99343 -3.08117,5.66126 -0.12369,-6.18627 0.43214,-12.87165 5.02414,-17.53478 -0.27023,-1.28946 -4.32634,-4.21945 -5.17008,-6.92792 -3.89436,-7.16288 -5.3834,-15.34472 -4.97209,-23.45738 -0.0531,-5.19335 1.24187,-8.14867 -2.54477,-10.79266 2.34242,-3.68641 -7.59718,0.41109 -5.17203,3.93056 -0.95943,10.41799 -2.84887,21.15833 -8.54426,30.11768 -4.37752,4.52896 -4.29433,4.61276 -3.80106,8.17297 0.97538,5.54728 -0.22374,11.15974 0.45766,16.71429 -1.25925,5.51559 -4.59008,2.48945 -3.41702,-1.92053 0.0696,-5.49348 0.98756,-11.13696 -0.54169,-16.53024 -3.55046,-3.9793 -10.36655,-2.25811 -14.07509,0.63895 -5.52629,4.6689 -3.389261,12.53839 -4.691521,18.81832 -3.650742,7.2758 -1.932691,-4.49974 -2.015255,-7.08675 0.09275,-4.69893 0.797676,-9.64471 3.960646,-13.04995 -4.841967,-3.37398 -7.677599,-8.14539 -10.439905,-13.29837 -3.549117,-7.66357 -4.829259,-16.0953 -5.999437,-24.38479 -4.107545,1.25956 -2.127948,-3.71997 -2.710209,-3.5653 -4.758409,-0.16601 -10.901043,-0.91057 -11.444426,4.54092 -0.567363,7.66878 -1.625199,15.4019 -3.482676,22.88484 -2.01944,5.46976 -3.892101,12.68025 -9.394856,15.51834 3.654027,5.71301 1.740825,11.88196 2.813083,18.27056 1.062894,1.74505 -2.03046,7.82905 -2.874088,3.8506 -0.99814,-6.60431 -0.210553,-13.55268 -2.608534,-19.88052 -2.531719,-4.48118 -9.097949,-2.49473 -12.34365,0.1403 -4.668884,4.04404 -5.54818,10.6857 -6.246867,16.45791 0.47489,4.62057 -4.032712,3.86279 -2.259195,-0.65679 0.533016,-5.76656 2.369461,-11.43855 5.846553,-16.10168 -8.273663,-3.80474 -12.091178,-13.25417 -13.135441,-21.78769 -0.582676,-6.06027 -1.82797,-12.27994 -0.760448,-18.31771 -3.243902,-0.9914 -4.359046,-3.61841 -1.017433,-5.43014 53.854999,-2.45048 107.787309,-1.29161 161.646299,0.31497 3.26785,-0.5044 6.25567,0.85215 9.38632,1.55648 z M 42.426419,264.8146 c 3.990235,-4.0916 9.530255,-1.00507 13.766388,-1.97011 4.225727,-3.27471 6.088054,-8.96032 7.552224,-13.98891 1.711806,-6.77813 2.267705,-13.76663 3.441194,-20.62234 3.859873,-1.56498 -4.542863,-1.38976 -2.168899,-5.01237 -11.799506,0.12154 -23.645275,-0.20679 -35.388517,1.13268 -4.083962,2.47253 -1.622509,7.03922 -1.839541,11.00701 0.825164,8.13508 1.382514,16.76344 6.211449,23.67507 1.73465,2.9018 4.582234,5.54112 8.019705,6.01786 l 0.405743,-0.23961 z m 1.046098,-5.2026 c -4.017024,-1.9667 -7.197404,-6.08488 -8.153306,-10.43747 -0.301284,-5.28186 0.33145,-11.30336 4.24352,-15.25699 -2.279474,-3.51644 5.732371,-4.78876 8.187767,-5.70572 5.549126,-0.48363 8.730819,5.13609 9.913025,9.80493 2.653309,8.73164 -2.823666,18.3713 -11.17634,21.41317 -0.993982,0.1626 -2.009087,0.19811 -3.014666,0.18208 z m 3.940202,-2.86865 c 6.484656,-2.53187 8.20344,-10.89187 7.11622,-17.13286 -0.830032,-3.50273 -2.246935,-8.21921 -6.524857,-8.61357 -4.887,-0.52892 -8.230583,4.08325 -9.270792,8.35512 -1.519373,5.2559 -0.504451,11.21601 3.518546,15.08242 1.374725,1.49068 2.888076,3.1635 5.160883,2.30889 z m 56.359301,5.22073 c 4.55192,-4.66133 11.85313,0.11791 16.09948,-2.28682 4.05818,-4.42219 5.7682,-10.48886 7.46372,-16.11915 1.40118,-5.78933 1.71782,-11.79068 2.84284,-17.58177 -0.84828,0.0514 -4.90506,-2.00486 -2.47159,-3.4746 -6.51596,0.0527 -13.02542,-0.6144 -19.52905,-0.0998 -6.31833,-0.077 -12.680217,-0.0919 -18.968454,0.35835 -3.841682,2.1917 -1.83767,5.87601 -1.376518,9.40516 1.762811,8.59557 3.771952,17.59698 9.675491,24.39653 3.035331,3.88382 2.392264,4.35969 6.264081,5.4021 z m 1.03814,-4.31139 c -6.196793,-1.6673 -8.454711,-9.7312 -6.529666,-15.31227 1.032379,-4.01753 3.181296,-7.63594 5.562786,-10.96847 1.15934,-3.90003 8.4465,-4.72735 11.49259,-1.58086 6.87571,4.87108 5.64933,15.27992 0.77322,21.11255 -2.96683,3.0718 -6.55067,7.25186 -11.29893,6.74905 z m 3.64898,-2.8693 c 5.75768,-2.36771 8.47636,-9.43603 8.48768,-15.33899 0.1965,-5.08386 -4.55861,-9.75798 -9.60298,-8.80239 -4.995,4.31325 -7.813988,11.74306 -6.21199,18.26623 1.08964,3.08149 3.39155,7.01272 7.32729,5.87515 z m 80.93727,-28.89873 c 6.32519,-1.49587 -0.65227,-2.38625 -2.53794,-0.9301 0.1462,1.26983 1.65082,0.98127 2.53794,0.9301 z M 26.130711,225.21134 c 4.074055,-1.65675 -5.347151,0.24539 0,0 z m 42.636731,-0.47004 c 4.717895,-2.09597 -5.96916,-1.82537 -0.768937,0.10094 l 0.768931,-0.10086 z m 75.080828,-0.37171 c 8.49113,-1.64883 -7.73715,-2.10008 -0.92325,0.0717 l 0.9232,-0.0717 z m -58.330191,-0.48723 c 6.22841,-1.62385 -7.31234,-1.56617 -1.015322,0.13756 l 1.015636,-0.1375 z m 47.332811,-0.32713 c 4.70082,-1.56833 -7.24722,-0.91803 -1.0899,0.0823 l 1.08989,-0.0822 z m 25.92113,35.43936 c -3.65476,0.06 -7.73495,-1.67203 -8.5755,-5.58606 -2.38776,-7.36247 3.06674,-14.20262 8.14278,-18.86136 2.78778,-2.62701 7.40765,-5.23979 11.14754,-2.80366 7.30813,4.18813 6.84242,15.21596 1.33537,20.73538 -3.16572,3.26234 -7.33645,6.37215 -12.05019,6.5157 z m 2.36064,-2.7029 c 5.24592,-0.39067 8.59481,-5.76348 9.93233,-10.36466 1.61772,-4.97719 -0.50158,-11.8218 -6.26441,-12.58228 -5.23147,0.47086 -8.17309,5.74687 -10.56546,9.87107 -1.74254,3.75815 -2.1469,9.41898 1.46751,12.14848 1.65793,0.86345 3.58943,1.08664 5.43003,0.92739 z"
       id="path843"/>
    <path
       style="fill:#4285f4;fill-opacity:1;stroke-width:1"
       d="m 133.01944,222.70202 c -21.15771,-0.75385 -42.413439,-0.091 -63.605469,0.54339 -15.215146,-0.0508 -30.502943,-0.17641 -45.61663,1.64032 -4.988686,-0.87266 -11.002667,3.8831 -14.6065863,-1.36461 -4.2351391,-4.8609 -2.4301212,-12.23281 1.0941143,-16.97751 2.030353,-4.63511 6.361208,-7.02048 11.664996,-7.2422 18.66447,-1.65851 37.415376,0.0702 56.111229,0.25658 16.794506,0.74592 33.615576,1.30011 50.426876,1.12895 6.72898,0.23858 13.57909,0.53772 20.17936,-0.47693 16.21196,0.0701 32.39226,1.16328 48.59713,1.52088 3.73125,-2.0635 6.29441,2.77774 7.14235,5.73539 1.61881,6.02891 0.23766,14.18226 -6.4952,16.46823 -3.99594,0.85425 -8.35614,0.0325 -12.47528,0.72716 -12.25458,-0.45401 -24.51961,-0.91316 -36.77313,-1.50924 m -133.529036,0.0874 c 4.371475,-3.04284 4.469229,-9.97296 3.765355,-14.89625 0.627687,-6.90056 -6.815856,-5.31845 -7.665894,0.31864 -2.2795773,4.67714 -2.1270221,11.87951 3.076276,14.4983 l 0.824232,0.0793 z m 4.763037,-0.43152 c 17.762876,-1.89859 35.621051,-1.84889 53.460389,-1.733 30.89429,-0.99281 61.8243,-0.79596 92.68473,1.01764 9.70368,0.51888 19.42057,0.90215 29.09706,0.25206 6.39456,0.28199 7.79436,-8.45476 6.59232,-13.38064 -0.76935,-3.03112 -3.33473,-7.12659 -6.83384,-5.33487 -11.96437,-0.0592 -23.8961,-0.89949 -35.85932,-0.89961 -7.39284,-0.32563 -14.76273,-0.12714 -22.15484,0.32452 -17.91026,-0.34281 -35.91107,0.27937 -53.798369,-0.86613 -18.959382,-0.12845 -37.935516,-1.10464 -56.90112,-0.52994 -4.593457,-0.10341 -6.26488,0.64297 -4.12419,4.82784 0.858102,5.67272 0.359602,11.62095 -3.189976,16.36434 0.179117,-0.1051 0.994661,0.30163 1.027156,-0.0422 z"
       id="path846"/>
  </g>
</svg>
