<?xml version="1.0" encoding="UTF-8" standalone="no"?>
<!-- Created with Inkscape (http://www.inkscape.org/) -->

<svg
   width="160mm"
   height="90mm"
   viewBox="0 0 160 90"
   version="1.1"
   id="svg8"
   >
  
  <g
     id="layer1"
     transform="translate(0,-207)">
    <g
       id="g858"
       transform="matrix(0.67128907,0,0,0.67128907,26.362948,82.965315)"
       style="stroke-width:1.48967123">
      <path
         id="path30"
         d="m 75.194912,196.51761 c -7.382034,-0.0474 -14.76248,1.30009 -21.260726,4.79454 -6.220169,3.51658 -11.98536,7.49269 -17.17466,12.49433 -5.282247,4.43135 -9.656074,10.08209 -12.843139,16.11736 -0.537316,1.03303 -1.030235,2.09603 -1.484154,3.17862 1.186339,1.26716 2.598817,2.33309 4.180099,3.21892 2.539312,-5.31783 6.064065,-10.1786 10.289831,-14.23685 5.334265,-5.86807 11.640952,-10.62016 18.481543,-14.59911 5.196416,-2.75336 11.138746,-3.92139 16.859435,-5.09478 6.544257,-1.6789 13.030861,0.67201 19.567815,0.40204 -1.196445,1.52515 2.133283,0.65304 3.936709,1.68517 7.428365,0.23308 14.698025,1.93207 21.658105,4.47466 3.95668,2.10544 8.5753,4.10211 11.28718,7.53339 2.69086,2.34914 4.63642,5.42862 6.39855,8.56124 0.57443,-0.44189 1.13943,-0.89321 1.6919,-1.35599 l 0.73639,-0.6165 c -1.43894,-2.34602 -3.00847,-4.60941 -4.73355,-6.75411 -3.18524,-3.17057 -6.13656,-7.45688 -9.81028,-9.64386 -5.21658,-4.36182 -11.65042,-6.88627 -18.20767,-8.43411 -5.966381,-1.33248 -12.185227,-0.17667 -18.098108,-0.6103 -3.741209,-0.68214 -7.608491,-1.08981 -11.47527,-1.11466 z m 62.854048,32.42179 c -0.19511,0.15009 -0.39751,0.29187 -0.59791,0.43615 0.03,0.0681 0.0601,0.13665 0.0899,0.20516 0.51454,0.10268 1.01391,0.26462 1.5198,0.46612 -0.33557,-0.37531 -0.69435,-0.7436 -1.01182,-1.10743 z m 2.63239,9.77667 c 0.64519,2.51231 0.55298,3.51423 0.65836,6.05286 0.0637,6.14606 -1.12826,11.95474 -3.54552,17.4532 -0.6858,3.3601 -2.57969,6.76547 -4.41317,9.98802 -1.74519,2.75869 -3.63252,3.85608 -5.83684,7.10447 -6.92147,6.26324 -15.80298,9.98931 -24.51944,13.23124 -10.725918,3.19061 -21.836619,5.626 -33.044501,5.6627 -7.926626,-0.2453 -15.400073,-3.05396 -22.24876,-6.81974 -8.697224,-5.41656 -17.042685,-12.35915 -22.465294,-21.24159 -4.1715,-5.60499 -2.878878,-12.76238 -2.838079,-19.26136 0.194759,-1.83535 0.514032,-3.65418 0.94308,-5.44721 -1.373399,-0.67403 -2.695918,-1.46067 -3.956341,-2.3611 -0.381687,1.88164 -0.671591,3.75716 -0.873336,5.59087 -0.635715,4.12776 -0.217567,8.67132 -0.301255,12.40028 0.448019,1.41639 0.818224,4.76707 1.750272,7.28224 1.180438,2.987 1.790673,5.75662 3.715544,8.44186 1.363847,1.73067 1.296114,1.93896 2.071713,2.88097 1.574668,1.94951 1.946408,2.82184 3.709326,4.47776 1.975882,2.1462 3.497289,3.42813 5.81152,5.4901 1.869837,2.07535 4.507125,3.60282 6.189292,5.45548 2.169266,1.3949 4.833409,2.92866 6.209454,4.17287 1.810014,0.51853 2.459804,1.40096 4.771786,2.37092 1.511353,0.73382 6.526927,2.78036 9.634035,3.62459 1.938443,0.58987 3.986821,1.42704 5.611548,1.19114 5.68235,0.97314 11.525382,0.66108 17.25631,0.20464 8.655949,-2.58526 17.884806,-3.47775 26.068706,-7.4719 4.63468,-1.92886 9.63285,-4.31793 13.24568,-7.5954 5.65385,-3.56452 10.34396,-8.49763 14.11232,-13.98416 3.62728,-7.63668 7.8649,-15.42011 8.42584,-24.05383 0.0311,-4.13794 -0.0914,-8.37234 -1.09294,-12.40493 -2.39043,-1.136 -2.57733,-1.18654 -5.04931,-2.43499 z M 21.10466,270.73995 c 0.54909,0.38006 -0.56351,0.18653 0,0 z"
         style="fill:#000000;stroke-width:1.48967123" />
      <path
         id="path32"
         d="m 187.66085,237.34872 c -13.98306,6.6439 -31.50368,8.41449 -44.83929,-0.84071 -5.22,-7.25913 -9.0707,-5.01123 -15.21622,-0.18862 -13.85011,7.75503 -31.544205,9.4489 -46.573895,1.5878 -8.24572,-8.05664 -12.25854,-4.2944 -20.12323,2.35394 -13.85346,7.80794 -35.45136,9.57995 -45.78901,-4.77518 -4.06242,-2.24047 -9.9841104,8.20052 -16.02838036,9.33811 -9.46751964,3.94887 -20.70084964,8.0276 -30.84222964,4.13381 -0.57634,-7.76996 17.21156,0.4121 23.6248796,-5.24995 10.60425,-0.4634 18.5639404,-13.48751 24.8903904,-15.49821 3.73614,11.96469 18.88345,15.56137 30.15254,13.05881 7.52713,-0.51924 15.30135,-9.94788 21.96372,-12.786 5.34689,-3.20676 6.14108,-3.16509 11.77226,4.04061 18.75807,11.34271 42.411285,5.92168 57.736705,-6.9159 2.84268,3.09938 4.93985,6.2538 10.5209,9.16543 17.28372,9.27047 21.93442,5.64169 38.19339,-4.72048 9.80752,2.96672 0.37165,4.86436 0.55747,7.29654 z"
         style="fill:#4285f4;fill-opacity:1;stroke-width:1.48967123"/>
    </g>
  </g>
</svg>
