<?xml version="1.0" encoding="UTF-8" standalone="no"?>
<svg
   id="svg8"
   version="1.1"
   viewBox="0 0 80 60"
   height="60mm"
   width="80mm">
  <metadata
     id="metadata5">
  </metadata>
  <g
     transform="matrix(1.3631961,0,0,1.3631961,-14.527844,-333.97336)"
     id="layer1"
     style="stroke-width:0.73357016">
    <path
       style="fill:#1c1e21;stroke-width:0.0832057"
       d="m 56.493905,283.98877 c 1.12676,0.0989 3.201101,-0.0113 3.744076,0.39437 -3.052048,0.22137 -6.126178,0.0657 -9.183353,0.036 v 10e-6 c -7.741834,-0.22216 -15.500928,-0.79655 -23.238357,-0.13767 -1.800062,0.68591 -3.138781,-0.73243 -2.35713,-2.5309 0.486912,-2.34408 0.860988,-4.70616 0.870093,-7.10772 0.407998,-2.50923 -0.0039,-5.0883 0.407277,-7.57642 -1.177184,0.30774 -3.218938,1.75532 -3.638429,3.27766 -0.218535,0.80041 -3.125976,1.42986 -1.128332,0.6332 1.439089,-0.73348 0.08076,-2.99086 -1.087275,-1.38087 -1.099987,0.56712 -0.07665,1.76162 -0.13321,1.87557 -2.439526,-0.382 0.294257,-2.37151 1.233684,-2.91012 1.472364,-1.96888 3.036775,-3.88198 4.637823,-5.73728 1.276494,-1.47303 3.41045,-1.91126 5.264904,-1.45796 2.291017,0.43676 3.181552,2.99739 5.160869,4.09034 1.387764,1.16928 2.955264,2.11286 4.522389,3.01585 0.672549,0.91804 2.123491,0.6731 2.092116,2.10901 l -0.203644,0.15681 c -0.244781,0.38248 -1.843234,0.0254 -2.742695,-0.29322 -1.019016,-1.29247 -2.966165,-1.69992 -4.439235,-2.45568 -1.2599,-0.65448 -3.063482,-1.31713 -2.748954,0.82243 -0.06522,1.02337 -0.259498,2.09835 -0.184963,3.10676 0.788011,1.77793 2.123965,3.19299 3.327215,4.68597 1.323287,2.06014 2.086298,4.41671 2.704019,6.76533 3.975936,0.29621 8.022178,0.44988 11.414292,0.56269 m -22.134047,-0.21319 c 2.960775,-0.27142 5.944655,-0.1283 8.90392,-0.39373 -1.712894,-1.54963 -3.638945,-2.84827 -5.169292,-4.60497 -1.077501,-0.71233 -2.342618,-3.82473 -3.023577,-1.13701 -0.79328,2.05302 -1.97997,3.92019 -2.911874,5.89898 -0.02412,0.85187 1.673305,0.068 2.200823,0.23673 z m 9.808558,-0.6949 c -0.613015,-2.39855 -1.453746,-4.84346 -2.939498,-6.85095 -1.217162,-1.3507 -2.557053,-2.80653 -2.950347,-4.5986 0.04687,-2.8224 0.953801,-5.58059 0.840236,-8.40315 -0.647843,-1.82708 -3.988022,-2.40202 -5.089873,-0.67667 -1.349547,2.49425 -1.003502,5.4549 -1.139909,8.19433 -0.05219,2.93072 -0.199358,5.87522 -0.62205,8.77576 -0.250613,0.57465 -0.712147,4.07347 0.140091,2.09359 1.090272,-1.79159 1.793238,-3.77517 2.832488,-5.59376 1.565765,-0.46591 2.468476,1.99002 3.711148,2.79244 1.590515,1.61289 3.285437,3.14051 5.130942,4.45151 l 0.06775,-0.0457 0.01902,-0.13876 z m 4.515353,-12.78321 c -0.50235,-2.54806 -2.959077,1.04712 0,0 z m -1.893983,-0.58448 c 1.602586,-0.89977 -1.655849,-1.76356 -2.260226,-2.4839 -1.6444,-0.94419 -3.054585,-2.33379 -4.529461,-3.42572 -0.66263,1.63976 -0.737166,3.63392 1.514528,3.70934 1.748355,0.63119 3.450135,1.40078 5.040743,2.35876 l 0.115055,-0.0324 z M 25.01938,267.57061 c 1.809126,-0.75647 1.913451,-2.47722 2.314033,-4.14225 -0.189018,-1.23711 -1.972674,1.88808 -2.674066,2.46074 -0.488312,0.72544 -3.068133,3.01624 -1.337895,3.04213 0.559194,-0.46197 1.120692,-0.9212 1.697928,-1.36062 z m 6.070929,-8.29679 c -1.811202,-0.34075 -3.669112,-1.78528 -4.010152,-3.67701 -0.421487,-0.64198 -2.675873,0.74535 -1.99906,-1.09184 0.628732,-0.70534 0.823948,-1.07913 0.02017,-1.70319 -0.261278,-2.1893 2.595372,-0.54212 2.956304,-1.8758 0.720737,-1.98962 3.424565,-1.53475 4.963944,-0.80116 2.26611,1.27841 3.294659,4.46508 2.104572,6.86154 -0.56452,1.61476 -2.400567,2.49856 -4.035774,2.28746 z m 1.84598,-0.535 c 1.554526,-0.71739 2.134396,-2.61975 1.964485,-4.21239 -2.023127,1.37317 -4.752042,1.46304 -7.003129,0.57459 -0.50821,1.34127 1.369178,2.68509 2.435265,3.4512 0.772963,0.48163 1.773815,0.59493 2.603379,0.1866 z m -0.653615,-5.69481 c 1.576916,-0.002 2.462404,-1.53065 0.763853,-2.27463 -1.614068,-1.42986 -4.295042,-1.2375 -4.978305,1.03072 0.194739,1.58794 3.006131,1.41341 4.214452,1.24391 z"
       id="path821"
   />
  </g>
  <g
     style="stroke-width:0.73357016"
     id="g816"
     transform="matrix(1.3631961,0,0,1.3631961,-14.527844,-333.97336)">
    <path
       id="path814"
       d="m 43.66105,270.58184 c 2.060552,1.75534 4.637453,2.85485 6.498965,4.84613 1.066033,-0.16615 0.256853,-4.73145 1.770117,-2.51789 1.297345,2.10023 2.383632,4.32354 3.406918,6.5672 -1.228498,1.43003 -2.712499,2.80752 -4.10998,4.12643 l -0.399115,0.14386 -1.89e-4,9e-5 c -0.753801,-1.15121 -1.171361,-2.87604 -1.439156,-3.87004 -0.483949,0.49103 -1.045074,2.23494 -0.754568,2.9564 0.776942,-4.3e-4 2.596362,0.66595 0.725892,0.44125 -1.224236,-0.0427 -2.21805,-0.19983 -1.296832,-1.61228 1.382135,-2.29999 -1.634112,-1.70034 -2.990113,-1.64008 -1.334531,-0.28629 -0.805174,1.52062 -1.261918,2.32693 0.561077,0.39677 1.988562,0.64694 0.371469,0.60721 -2.351677,0.16816 0.528441,-2.97311 -1.233759,-3.06778 0.04144,-1.48218 0.0015,-3.01979 0.539478,-4.42113 1.560838,-0.74539 3.633005,-0.0311 5.387167,-0.13885 1.530957,0.0552 -1.419263,-1.57675 -1.815876,-1.94012 -1.397882,-0.83946 -2.700187,-1.8565 -4.047226,-2.74941 -0.897281,-0.0382 -2.367912,-0.47224 -2.040211,1.03645 0.964588,1.40868 -0.735273,3.75736 -1.782365,3.20356 2.319432,-0.59461 0.726252,-2.94632 1.524963,-4.43432 -0.346517,0.22759 0.801759,-1.15116 2.946339,0.13639 z m 9.000585,10.99584 c 0.908935,-0.70548 -1.562677,-1.02827 -0.02375,-1.86502 0.135444,2.36627 1.799018,-0.48651 1.555782,-0.95287 -0.728277,-1.54034 -1.803321,-3.94368 -2.774568,-5.12234 -0.1577,1.8489 -1.249502,3.15757 -1.364195,5.04891 0.725548,1.02984 0.313784,3.82835 1.50064,3.88381 l 0.226569,-0.21592 0.308364,-0.26369 z m -0.209284,-3.98034 c 0.304971,-1.18815 0.978445,0.78958 0,0 z m -5.095505,1.9897 c 1.110102,0.0935 2.30681,0.13599 1.548075,-1.26323 -0.08534,-1.05224 1.593752,-3.01754 -0.511931,-2.70058 -1.479441,-0.0726 -2.960534,-0.10097 -4.440909,-0.14784 -0.176402,1.37851 -0.526651,2.78015 -0.298492,4.16601 1.227233,0.0818 2.469962,-0.0993 3.703257,-0.0544 z"
       style="fill:#4285F4;fill-opacity:1;stroke-width:0.0832057"
      />
  </g>
</svg>
