<svg viewBox="0 0 80 60" height="60mm" width="80mm"><path d="M51.055 47.42c-7.742-.223-15.501-.797-23.239-.139-1.8.686-3.139-.732-2.357-2.53.487-2.344.861-4.707.87-7.108.408-2.51-.004-5.088.408-7.577-1.178.308-3.22 1.756-3.639 3.278-.218.8-3.126 1.43-1.128.633 1.439-.733.08-2.99-1.088-1.38-1.1.567-.076 1.761-.133 1.875-2.44-.382.295-2.372 1.234-2.91a105.83 105.83 0 014.638-5.737c1.276-1.473 3.41-1.912 5.265-1.458 2.29.436 3.181 2.997 5.16 4.09 1.388 1.17 2.956 2.113 4.523 3.016.672.918 2.123.673 2.092 2.109 2.06 1.755 4.638 2.855 6.499 4.846 1.066-.166.257-4.731 1.77-2.518 1.297 2.1 2.384 4.324 3.407 6.567-1.228 1.43-2.712 2.808-4.11 4.127.899.795 3.68.121 5.267.385 1.127.099 3.201-.012 3.744.394-3.052.222-6.126.066-9.183.036zm-.227-.672c-.754-1.152-1.172-2.876-1.44-3.87-.483.49-1.044 2.235-.754 2.956.777 0 2.596.666.726.441-1.224-.042-2.218-.2-1.297-1.612 1.382-2.3-1.634-1.7-2.99-1.64-1.335-.286-.805 1.52-1.262 2.327.561.397 1.989.647.372.607-2.352.168.528-2.973-1.234-3.068.041-1.482.001-3.02.54-4.42 1.56-.746 3.632-.032 5.386-.14 1.531.055-1.419-1.576-1.815-1.94-1.398-.84-2.7-1.856-4.048-2.75-.897-.037-2.368-.471-2.04 1.037.965 1.409-.735 3.758-1.782 3.204 2.32-.595.726-2.947 1.525-4.435-1.02-1.292-2.966-1.7-4.44-2.455-1.26-.655-3.063-1.317-2.748.822-.066 1.024-.26 2.099-.185 3.107.788 1.778 2.124 3.193 3.327 4.686 1.323 2.06 2.086 4.417 2.704 6.765 3.765.263 7.543.415 11.313.624l.101-.061.041-.185zm-22.175-.028c2.96-.272 5.945-.129 8.904-.394-1.713-1.55-3.639-2.848-5.17-4.605-1.077-.712-2.342-3.825-3.023-1.137-.793 2.053-1.98 3.92-2.912 5.899-.024.852 1.674.068 2.201.237zm9.809-.695c-.613-2.399-1.454-4.844-2.94-6.851-1.217-1.35-2.557-2.807-2.95-4.599.047-2.822.954-5.58.84-8.403-.648-1.827-3.988-2.402-5.09-.677-1.35 2.495-1.003 5.455-1.14 8.195-.052 2.93-.2 5.875-.622 8.776-.25.574-.712 4.073.14 2.093 1.09-1.791 1.793-3.775 2.833-5.594 1.565-.465 2.468 1.99 3.71 2.793 1.591 1.613 3.286 3.14 5.132 4.451l.068-.045.019-.14zm13.594-.934c1.62-.706-.957-1.542.582-2.378.462 2.144 2.696-.359 1.323-1.443-.729-1.54-1.57-3.454-2.542-4.633-.158 1.85-1.25 3.158-1.364 5.05.725 1.03.314 3.828 1.5 3.883l.227-.216.274-.263zm.396-4.494c.305-1.188.979.79 0 0zm-5.095 1.99c1.11.094 2.307.136 1.548-1.263-.085-1.052 1.594-3.018-.512-2.7-1.48-.073-2.96-.102-4.44-.149-.177 1.379-.528 2.78-.3 4.166 1.228.082 2.47-.099 3.704-.054zm-4.38-9.345c-.502-2.548-2.96 1.047 0 0zm-1.894-.585c1.603-.9-1.656-1.763-2.26-2.484-1.645-.944-3.055-2.334-4.53-3.425-.662 1.64-.737 3.633 1.515 3.709 1.748.631 3.45 1.4 5.04 2.359l.116-.033zm-16.064-2.086c1.81-.757 1.914-2.478 2.314-4.143-.189-1.237-1.972 1.888-2.674 2.461-.488.726-3.068 3.016-1.338 3.042a54.65 54.65 0 011.698-1.36zm6.071-8.297c-1.81-.34-3.669-1.785-4.01-3.677-.421-.642-2.676.745-1.999-1.092.629-.705.824-1.08.02-1.703-.261-2.19 2.596-.542 2.957-1.876.72-1.99 3.424-1.535 4.964-.801 2.266 1.278 3.294 4.465 2.104 6.861-.564 1.615-2.4 2.499-4.036 2.288zm1.846-.535c1.555-.718 2.135-2.62 1.965-4.213-2.023 1.374-4.752 1.463-7.003.575-.509 1.341 1.369 2.685 2.435 3.451.773.482 1.774.595 2.603.187zm-.653-5.695c1.577-.002 2.462-1.53.764-2.275-1.615-1.43-4.296-1.237-4.979 1.031.195 1.588 3.006 1.414 4.215 1.244z"/></svg>