<?xml version="1.0" encoding="UTF-8" standalone="no"?>
<!-- Created with Inkscape (http://www.inkscape.org/) -->

<svg
   width="800"
   height="600"
   viewBox="0 0 211.66666 158.75"
   version="1.1"
   id="svg8">
  <g
     id="layer1"
     transform="translate(0,-138.24998)">
    <path
       style="fill:#1c1e21;stroke-width:1"
       d="m 185.90043,169.76783 c -0.39159,8.82011 -3.55774,17.86948 -10.64435,23.54934 -3.3676,3.07178 -7.82146,8.09481 -12.88776,6.11474 -6.74266,-4.59419 -9.08949,-13.24534 -7.58044,-20.99479 0.89889,-6.32753 3.11934,-12.64977 7.14404,-17.67006 -1.26162,-4.58259 4.19323,-8.43025 7.6089,-10.68956 5.96869,-5.12564 14.49787,1.09822 15.15357,7.85595 0.43452,3.95383 1.61238,7.8078 1.20604,11.83438 z m -5.52565,-1.52156 c -0.27511,-5.37086 0.056,-13.31464 -6.5127,-14.9249 -3.59234,-1.99684 -11.10798,6.25682 -3.85875,1.85172 1.48358,2.45217 -1.24319,3.60788 -3.07321,5.01444 -6.25929,6.05885 -7.92061,15.60667 -7.20884,24.00424 0.63704,4.2546 3.2026,10.60954 8.22476,10.11613 8.45326,-2.88431 11.33085,-12.77134 12.21886,-20.76583 0.19883,-1.75983 0.33677,-3.52741 0.20988,-5.2958 z m 4.46594,42.02833 c -2.07112,11.41035 -3.3216,22.88691 -4.78147,34.41025 -0.8241,6.00492 -0.004,12.3173 -1.78084,18.11812 -1.52146,1.68329 -6.86251,3.48907 -5.44374,-0.38141 0.73077,-10.38951 1.18622,-20.8758 3.08987,-31.18694 -0.12936,-3.38627 3.32754,-15.78077 -1.08617,-6.51686 -4.61901,7.67164 -9.0714,15.54741 -15.40343,21.99399 -4.61132,5.01713 -10.20725,9.50366 -14.68858,14.37275 -5.54179,4.03435 -10.29704,8.76231 -16.32733,12.10689 1.55523,2.50328 0.39586,6.55427 -2.7068,7.91912 -5.45036,3.93304 -1.36073,-5.03109 -3.09538,-4.32856 0.71028,4.92145 -7.57491,10.59747 -13.24455,8.14062 -5.29542,2.2046 0,0 -5.29542,2.2046 -4.468338,2.15681 -6.635913,-4.22381 -3.7076,-7.06718 -4.198672,-0.90846 -10.556005,-1.16218 -15.516693,-2.70781 -7.040389,-1.70506 -13.372619,-5.78563 -19.271609,-9.67969 -8.68837,-7.60587 -16.03032,-16.69193 -22.00246,-26.57206 -3.75548,-4.58376 -7.4752,-10.65719 -10.39531,-14.86829 0.32597,13.00283 0.64059,26.00458 1.38859,38.99323 -0.63755,2.2463 -1.45379,5.78212 -3.90294,6.34427 -3.95744,0.55165 -3.03676,-5.3782 -3.36826,-8.02436 -0.85121,-15.23931 -2.31858,-30.56356 -1.23361,-45.87248 5.2286,-6.37216 14.17677,-8.23034 21.90197,-9.96701 7.4092,-0.54326 15.09742,-2.49554 22.42599,-0.68046 5.1025,3.36893 2.24983,10.76264 2.74468,15.8979 0.4202,12.58097 -1.56353,25.09855 -1.53685,37.68028 -1.50138,5.85918 7.05495,6.46917 10.407268,9.3376 7.647151,2.83289 16.009846,4.5581 24.147214,3.94824 l 14.05267,-1.58398 c 2.80578,-3.70463 6.65733,0.30136 9.43107,-3.84868 3.46908,-3.88977 10.25943,-5.99457 10.80582,-11.61832 1.38628,-13.83776 4.07514,-27.49564 5.26468,-41.35978 1.33163,-3.60925 -0.85499,-8.92572 3.93691,-10.12858 7.80738,-1.74638 16.14051,-1.26026 24.1556,-0.68955 3.95421,0.39153 10.39408,-0.75102 11.03273,4.24104 l 0.002,1.37324 z m -6.17806,-1.92962 c -5.46983,0.71219 -11.09461,0.23201 -16.62414,-0.0493 -5.4995,-0.14492 -11.63922,-0.86874 -10.38482,6.17061 -1.26033,10.94177 -2.70566,21.88335 -4.38337,32.77704 -0.6117,3.61648 -1.16999,8.28607 2.53704,3.18013 7.4876,-6.92377 13.09623,-15.41996 18.07561,-24.21785 3.53458,-5.21659 6.0942,-11.10606 8.83424,-16.71524 0.25587,-0.23551 2.25844,-0.81591 1.94544,-1.14542 z m -61.53545,69.6756 c -0.49898,-2.83685 -3.77101,-4.40869 -4.11156,-0.77367 -2.91034,3.62836 0.61432,10.61965 3.67225,4.2113 0.65109,-1.03814 0.74364,-2.26461 0.43931,-3.43763 z m -8.66234,-1.85241 c -1.96758,1.49718 -3.69454,4.03831 -3.93054,6.57051 2.81056,0.82865 2.48108,-4.9818 3.93054,-6.57051 z M 67.656478,213.50605 c -0.71401,-5.94605 -9.78178,-1.6426 -13.83515,-1.60866 -5.44519,0.48079 -10.71333,2.08346 -15.96307,3.47649 -5.90686,-1.04013 -2.33832,2.25581 -0.88602,5.31943 3.99606,6.60892 8.63791,12.79295 13.12241,19.07332 4.31784,7.07128 9.56026,13.47282 15.48039,19.16107 1.08849,-4.64978 0.38749,-10.66998 1.14396,-15.80136 1.19697,-9.82122 0.72476,-19.74523 0.93748,-29.62029 z m -0.0051,-35.68325 c -0.9203,7.30539 -1.80234,15.22072 -7.09342,20.85094 -2.77762,4.287 -7.43338,9.36489 -13.04128,6.87326 -7.64039,-3.28654 -9.65537,-12.56713 -10.70682,-20.00722 -1.11011,-5.33673 1.60376,-11.97955 1.00464,-16.5699 -4.85668,0.0779 2.86939,-6.88583 4.5643,-8.25811 4.22757,-3.27886 8.57076,-9.56991 14.74092,-7.21015 7.63828,2.85278 9.83759,11.82818 10.39371,19.11716 0.48192,1.6721 0.25264,3.49008 0.13795,5.20402 z m -5.59294,-1.30096 c -0.8006,-6.09358 -0.96795,-13.81481 -6.77797,-17.39588 -5.5942,-2.21396 -11.58285,3.50531 -12.40455,8.81409 -1.55476,8.87602 -2.07807,18.31855 2.26523,26.49829 1.22909,5.68096 9.30364,8.30321 12.57854,2.77455 3.7266,-6.05269 4.14345,-13.76755 4.33875,-20.69105 z"
       id="path825" />
    <path
       id="path828"
       d="m 106.15726,273.88935 c -1.29889,-4.20601 -4.16488,-8.93619 -5.63214,-13.4915 -4.460555,-10.73661 -4.853811,-22.46232 -7.342297,-33.67668 -2.423641,12.4861 -2.25061,25.24791 -2.1268,37.93354 -2.440943,2.86901 -7.057006,3.88427 -5.891052,-1.64921 -0.373174,-14.27201 1.175891,-28.47584 3.334784,-42.53997 -0.14142,-4.96426 1.686694,-10.76796 -0.937901,-13.92287 4.445614,-3.64448 10.804642,-2.36298 16.203046,-3.05888 7.16003,0.16572 14.97866,-1.72973 21.70748,0.68945 4.75074,2.66723 0.87994,10.61542 1.29349,15.38885 -1.11381,11.54608 -1.46447,23.12283 -1.66997,34.72849 -0.50862,3.56954 0.65642,8.684 -3.11755,10.0464 -4.35465,2.90496 -3.69534,-2.75495 -3.17801,-5.42066 0.83159,-10.32612 0.45662,-20.47954 1.53578,-30.79783 0.1609,-6.83828 1.58719,-13.66505 1.51078,-20.47402 -8.71092,-0.56925 -17.5129,-0.0351 -26.190743,0.80944 -0.10392,8.72681 4.341742,16.7536 4.993843,25.45498 1.49443,12.80677 5.08636,25.48618 11.44903,36.73739 0.21081,4.01414 6.16417,-3.2602 8.1109,1.6591 0.80231,1.49219 1.60461,2.98439 2.40692,4.47658 0.71028,4.92145 -4.19153,7.98153 -7.57491,10.59747 -3.85151,4.08029 -10.96506,-0.25225 -6.57707,-11.21125 m 8.66234,1.85241 c -0.49898,-2.83685 -3.77101,-4.40869 -4.11156,-0.77367 -2.91034,3.62836 0.61432,10.61965 3.67225,4.2113 0.65109,-1.03814 0.74364,-2.26461 0.43931,-3.43763 z m 10.46243,-107.5278 c -0.49509,7.10647 -2.09965,14.49972 -7.41613,19.68289 -3.95424,4.80643 -9.4021,9.11767 -15.69075,10.07291 -6.463832,-1.14212 -9.229711,-8.97778 -10.401835,-14.69225 -1.570947,-7.82756 1.647733,-15.44851 2.888465,-22.98368 3.13688,-6.84146 8.15216,-13.9502 15.6553,-16.18736 6.3229,-0.069 9.91455,6.47824 12.42739,11.42819 1.867,3.95631 2.77445,8.26911 2.53756,12.6793 z m -5.25172,-2.86086 c -1.18109,-6.06561 -3.67831,-13.25222 -9.84075,-15.76872 -5.72494,-0.83932 -7.75205,5.14914 -10.28416,8.95051 -2.671137,6.33943 -4.224657,13.10604 -3.765162,19.75546 -0.05,5.0595 2.500582,9.73275 5.618152,13.49184 6.3616,1.26089 13.74218,-3.89041 15.98957,-9.89071 1.91008,-5.25766 2.52357,-10.97219 2.28235,-16.53838 z"
       style="fill:#4285f4;fill-opacity:1;stroke-width:1" />
  </g>
</svg>
