<?xml version="1.0" encoding="UTF-8" standalone="no"?>
<!-- Created with Inkscape (http://www.inkscape.org/) -->

<svg
   width="800"
   height="400"
   viewBox="0 0 211.66666 105.83333"
   version="1.1"
   id="svg8">
  <g
     id="layer1"
     transform="translate(0,-191.16665)">
    <path
       style="fill:#000000;stroke-width:1"
       d="m 207.58995,213.60843 c -3.03057,1.69231 -4.20471,-3.33572 -6.76321,-4.33886 -7.99248,-7.63061 -20.45413,-8.26463 -30.73996,-6.16701 3.15292,0.88743 8.74421,2.75127 11.97151,5.56412 9.87465,8.07433 10.69259,21.8628 10.64925,33.64611 -0.75278,8.75358 -2.38344,17.9206 -7.12084,25.4485 -4.87564,5.76124 -11.62794,10.53528 -19.10443,12.10953 -4.57062,2.10964 -8.79256,-4.95712 -11.98872,-1.56848 -6.51682,4.72707 -15.89093,3.12487 -21.67847,-2.07766 -3.06565,-5.36747 -6.14725,1.15644 -10.07325,2.09995 -7.56291,3.63737 -17.03915,4.60672 -24.251869,-0.46027 -2.8233,-3.97419 -4.906,-2.74352 -8.22988,-0.10326 -7.491,4.24568 -17.06107,7.20097 -25.19006,2.89722 -4.4598,-4.41081 -6.63018,-2.35108 -10.88389,1.28872 -7.49282,4.27465 -19.1743,5.24478 -24.76554,-2.61429 -2.19721,-1.2266 -5.40003,4.48958 -8.66915,5.11238 -5.12062,2.16191 -11.1963004,4.39491 -16.6813904,2.26316 -0.31172,-4.25386 9.3090804,0.22561 12.7778004,-2.87422 5.73544,-0.2537 10.04054,-7.38407 13.46227,-8.48488 2.02074,6.55037 10.21335,8.51946 16.30837,7.14937 6.5245,0.46918 6.78003,-2.67886 4.70931,-7.45212 0.36099,-3.19446 -2.89579,-8.18858 -0.49088,-10.45308 6.57119,-0.95351 13.62887,0.44075 20.32795,-0.71111 6.36664,0.864 0.16453,-7.5696 3.19105,-10.96212 -0.95603,-3.2788 6.59698,-10.16739 0.62474,-10.43038 -4.89704,-0.89594 -8.16179,2.41107 -9.76071,6.69146 -2.28249,4.23143 -2.86314,9.49251 -2.17487,13.95699 -4.01004,1.333 -2.93771,-5.02875 -2.53386,-7.29354 -0.87419,-4.38278 5.91087,-10.68148 3.83174,-12.21032 -5.91597,-2.75318 -7.94701,3.48312 -10.74824,7.27466 3.03476,3.84814 -5.82539,10.57901 -6.94806,5.53487 -6.51629,0.83569 -0.37633,9.56914 -1.73173,13.99286 -0.27787,3.34104 1.22382,6.69426 1.35421,9.83165 -2.80536,3.75268 -3.07698,-4.25435 -3.40032,-6.11681 2.00927,-5.99148 -5.70117,-4.41119 -7.17416,-1.82098 0.85828,1.67104 1.25555,8.83683 -2.02082,6.24984 0.54286,-3.69832 -2.7628,-9.96309 3.22865,-9.55235 6.68844,1.41045 5.62667,-3.56486 4.90548,-8.07739 -3.05764,-4.19308 3.03669,-7.18502 5.36003,-5.39289 0.94432,-3.33437 3.90577,-3.02815 5.67959,-5.76979 1.96217,-2.86894 3.77915,-6.12908 6.54383,-8.19892 6.74788,1.20133 13.99817,-3.00733 20.24505,0.42773 2.09657,2.16216 -2.32161,5.86558 -2.3733,8.77712 -0.92247,3.91794 -2.28549,8.63714 -0.32252,12.273 14.46548,-2.13277 29.182349,-3.7198 43.113939,-8.30891 3.9556,-2.9637 8.62997,-4.19375 8.82828,2.29141 1.03643,5.24003 1.46362,11.50635 -1.66504,15.99757 -3.60009,1.48521 1.78583,-8.29395 1.2e-4,-10.88881 0.99172,-8.54491 -7.15669,0.112 -11.605,0.14933 -6.28731,2.10989 -12.60322,4.14361 -19.186089,5.20515 -11.59571,2.4767 -23.57312,2.66011 -35.37763,3.40357 -4.71473,-0.10673 -10.8748,-1.46698 -7.02439,5.33377 0.4457,4.30114 -1.38035,5.20676 3.40391,1.58714 3.22324,-4.89604 4.39056,-4.07142 7.43625,-0.12648 10.14553,6.20985 22.93866,1.21403 31.2276,-5.81422 1.5375,1.69683 2.76627,4.46323 5.690359,5.01784 9.34811,5.07535 21.44442,1.47913 28.79272,-5.51081 3.85813,2.2927 8.02688,7.58333 13.64668,7.54383 5.56314,1.98949 10.19804,-3.9181 13.75419,-4.25206 5.96458,6.0547 15.47133,2.26077 21.1669,-2.29219 8.03503,-6.13291 9.54724,-16.93264 11.15133,-26.24143 0.60214,-11.15984 0.61618,-23.97238 -6.82552,-33.1297 -5.22154,-5.89386 -13.32829,-8.46816 -21.08713,-8.15846 0.59229,-3.82412 9.73813,-3.04697 13.43842,-4.12435 10.59627,-0.81964 22.20978,1.55381 29.54051,9.80482 0.51139,0.94384 2.42513,1.91402 2.22889,3.05448 z m -81.3669,42.51308 c -0.97268,-4.88131 -5.40527,1.05417 -8.57742,1.05264 -16.33904,4.69777 -33.244569,6.65241 -50.036619,9.0086 -4.28673,2.09007 -16.39319,-3.545 -14.93327,3.14094 5.6172,-0.0467 12.55855,0.31951 18.59171,-0.39109 7.93525,-0.86676 16.30905,-0.28734 23.86773,-2.79341 10.667629,-2.09578 21.254989,-5.35089 31.191929,-9.63103 l -0.10406,-0.38669 z m -74.177479,-2.47128 c -4.51875,-2.05988 -2.88224,7.00693 0.0283,0.93473 l 0.1029,-0.50022 z m 94.423159,-25.93905 c -2.87911,1.56994 -4.93572,6.36404 -8.20454,6.3461 -0.35492,-4.78858 -4.626,-1.04693 -7.33017,-0.81295 -3.57058,1.02581 -6.97261,2.55607 -10.52879,3.59114 1.7123,4.09195 7.19653,11.79364 2.72178,14.96148 -2.14752,-1.63519 -0.39325,-6.4588 -2.36418,-8.87825 -1.08216,-3.47725 -3.23845,-7.4438 -7.18905,-4.21846 -6.65077,1.27264 -1.85878,5.60575 -1.56439,9.61047 1.04136,2.34606 0.59354,9.6658 -2.2827,7.58568 0.37574,-4.84186 -0.49891,-10.06732 -2.46415,-14.23962 2.36778,-3.40987 6.52934,-6.35922 10.94646,-6.25515 7.11029,-1.89419 14.31325,-4.4163 21.5573,-6.12669 2.05945,-0.93246 4.46228,-1.44277 6.70243,-1.56375 z m -4.93479,2.43673 c -4.73701,0.17035 -0.83769,4.74429 0,0 z m -30.7766,8.00181 c -0.66914,0.44639 0.7064,-0.36154 0,0 z m 7.91766,-2.9599 c -0.31289,0.10738 0.2138,-0.37038 0,0 z m -0.23549,0.0858 c -0.18375,-0.13086 0.18375,-0.13086 0,0 z m -1.33252,-12.75336 c -0.3397,4.84049 -2.97489,9.73197 -6.94767,12.4819 -7.36725,-0.25828 -5.10661,-10.57604 -2.57971,-15.14525 2.59594,-5.47962 10.79245,-3.85745 9.52738,2.66335 z m -1.79723,-0.94754 c -2.23571,-7.39456 -9.90537,0.60838 -8.50343,5.53219 -1.24688,10.01071 9.85825,3.35338 8.55655,-3.32858 l 0.0227,-0.57527 -0.0758,-1.62834 z m -6.65378,25.30133 c -0.15088,-0.15823 0.18283,-0.0401 0,0 z m -6.40421,-21.8697 c -0.90903,5.81806 -4.491159,11.50762 -9.405929,14.68331 -6.2381,-1.30572 -2.13123,-10.48847 -0.38741,-14.56482 0.8415,-3.79475 7.348242,-7.46437 9.567249,-2.68242 0.29101,0.81724 0.29456,1.70977 0.22609,2.56393 z m -1.7019,-1.30607 c -1.379809,-3.72623 -5.659179,0.15518 -7.104889,2.00605 -1.39129,3.66758 -3.49463,8.53235 -0.94501,11.98672 4.69808,-1.57231 7.16092,-7.09189 8.060739,-11.79038 l 0.0773,-0.5634 -0.0881,-1.63899 z m 1.14154,24.35431 c -0.49039,3.30525 -0.088,6.74091 -0.79829,9.96196 -4.428489,1.28134 -0.33246,-9.53262 -1.253929,-12.35188 1.784009,-6.551 -7.3334,-0.19146 -10.01884,-0.96491 -0.84929,4.87866 1.51693,10.61762 -0.51272,15.01153 -3.42199,2.18105 -0.91447,-7.48426 -1.96759,-9.81306 -0.33493,-4.22418 -0.37746,-9.40647 5.6391,-8.14072 7.028562,-1.18625 10.209499,-2.27425 8.912269,6.29708 z M 84.804221,225.35831 c -2.19064,4.90114 -5.03649,10.07849 -9.51613,13.21035 -7.20655,0.40505 -5.79109,-8.90009 -2.8416,-12.86101 1.73484,-3.10611 3.54989,-6.71409 8.1939,-5.68732 2.49381,0.47123 4.43338,2.75105 4.16383,5.33798 z m -1.90918,-0.78323 c -1.22855,-4.56083 -7.32345,-3.32072 -8.65692,0.48882 -3.37611,3.03368 -3.90163,13.99532 2.71793,10.53155 2.39986,-2.94146 4.67747,-6.17098 5.98012,-9.74396 l -0.0411,-1.27641 z m -24.94785,31.06202 c -3.25316,2.94908 -7.93223,-0.32563 -1.34513,-0.46693 0.53397,-0.28353 1.1515,-0.0191 1.34513,0.46693 z m -3.37691,16.08039 c -0.18726,-0.062 0.18245,-0.12632 0,0 z"
       id="path826"/>
    <path
       id="path830"
       d="m 207.58995,213.60843 c -3.03057,1.69231 -4.20471,-3.33572 -6.76321,-4.33886 -7.99248,-7.63061 -20.45413,-8.26463 -30.73996,-6.16701 3.15292,0.88743 8.74421,2.75127 11.97151,5.56412 9.87465,8.07433 10.69259,21.8628 10.64925,33.64611 -0.75278,8.75358 -2.38344,17.9206 -7.12084,25.4485 -4.87564,5.76124 -11.62794,10.53528 -19.10443,12.10953 -4.57062,2.10964 -8.79256,-4.95712 -11.98872,-1.56848 -6.51682,4.72707 -15.89093,3.12487 -21.67847,-2.07766 -3.06565,-5.36747 -6.14725,1.15644 -10.07325,2.09995 -7.56291,3.63737 -17.03915,4.60672 -24.251869,-0.46027 -2.8233,-3.97419 -4.906,-2.74352 -8.22988,-0.10326 -7.491,4.24568 -17.06107,7.20097 -25.19006,2.89722 -4.4598,-4.41081 -6.63018,-2.35108 -10.88389,1.28872 -7.49282,4.27465 -19.1743,5.24478 -24.76554,-2.61429 -2.19721,-1.2266 -5.40003,4.48958 -8.66915,5.11238 -5.12062,2.16191 -11.1963004,4.39491 -16.6813904,2.26316 -0.31172,-4.25386 9.3090804,0.22561 12.7778004,-2.87422 5.73544,-0.2537 10.04054,-7.38407 13.46227,-8.48488 2.02074,6.55037 10.21335,8.51946 16.30837,7.14937 4.071142,-0.28427 8.275918,-5.44621 11.879338,-7.00001 2.891935,-1.75562 3.321482,-1.73281 6.367172,2.21213 10.14553,6.20985 22.93866,1.21403 31.2276,-5.81422 1.5375,1.69683 2.671776,3.4238 5.690359,5.01784 9.34811,5.07535 21.44442,1.47913 28.79272,-5.51081 3.85813,2.2927 8.02688,7.58333 13.64668,7.54383 5.56314,1.98949 10.19804,-3.9181 13.75419,-4.25206 5.96458,6.0547 15.47133,2.26077 21.1669,-2.29219 8.03503,-6.13291 9.54724,-16.93264 11.15133,-26.24143 0.60214,-11.15984 0.61618,-23.97238 -6.82552,-33.1297 -5.22154,-5.89386 -13.32829,-8.46816 -21.08713,-8.15846 0.59229,-3.82412 9.73813,-3.04697 13.43842,-4.12435 10.59627,-0.81964 22.20978,1.55381 29.54051,9.80482 0.51139,0.94384 2.42513,1.91402 2.22889,3.05448 z"
       style="fill:#16498a;fill-opacity:1;stroke-width:1"
       />
    <g
       id="g914"
       transform="matrix(0.8498453,0,0,0.8498453,-487.90578,321.97997)"
       style="fill:#16498a;fill-opacity:1;stroke-width:0.540572">
      <path
         style="fill:#fde050;fill-opacity:1;stroke-width:0.386123"
         d="m 195.20268,293.96976 c -0.82971,-2.16219 0.33693,-6.42194 2.20295,-8.04365 3.95601,-3.43806 12.52874,-5.71984 30.45151,-3.62998 13.54823,1.57977 20.04757,1.74844 24.28572,0.63025 3.76509,-0.99338 9.46535,-1.85562 49.18477,-7.43991 59.80678,-8.40844 90.40638,-14.03659 128.21753,-23.58289 17.83615,-4.50315 21.78975,-5.74561 26.42857,-8.30547 13.50838,-7.45439 16.46336,-7.79871 19.34798,-6.2549 1.41595,0.75779 3.464,6.65748 3.464,8.59579 0,2.13957 -39.09406,17.82315 -69.85714,27.03173 -7.83758,2.34609 -29.44491,7.75762 -40.12371,10.04893 -4.58591,0.98398 -11.97877,2.74373 -16.42857,3.91055 -14.56464,3.81912 -24.1522,4.95703 -58.0868,6.89409 -10.99791,0.62778 -22.40863,1.46937 -25.35714,1.8702 -2.9485,0.40084 -19.74244,0.89113 -37.31984,1.08954 -29.20564,0.32968 -35.99777,-1.74047 -36.40983,-2.81428 z"
         id="path138"
         transform="matrix(0.31133117,0,0,0.31133117,574.11129,-153.92604)"
         sodipodi:nodetypes="ssssssssssssssss" />
      <path
         style="fill:#000000;fill-opacity:1;stroke-width:134.418"
         d="m 661.74928,-104.65412 c -0.5099,-0.18151 -0.8772,-0.59318 -1.23538,-0.96832 0.22061,-0.004 -0.2617,-0.27703 0.009,-0.37816 0.18349,-0.2536 0.31293,-0.59331 0.63754,-0.71625 0.0532,-0.24063 0.39384,-0.5083 0.51981,-0.17029 0.37687,0.27609 1.43902,0.45389 1.86246,0.45262 0.48833,-0.0161 0.96076,-0.21181 1.45308,-0.2835 0.45119,-0.0257 0.90971,-0.12193 1.35958,-0.0541 0.0908,0.22914 -0.37831,0.4044 -0.43312,0.65729 -0.28428,0.13677 -0.57302,0.25886 -0.67344,0.55105 -0.0498,0.14498 -0.0774,-0.01 -0.0994,0.22803 -0.0214,0.23221 -0.43227,0.25054 -0.55051,0.44523 -0.33613,-0.01 -0.56057,0.2077 -0.87499,0.2648 -0.46202,0.0479 -1.51863,0.0499 -1.97396,-0.0283 z m 3.76432,-7.16271 c -0.12859,0.37018 -0.24859,0.79479 -0.61696,0.98293 -0.14982,0.0766 0,0 -0.20808,0.0825 -0.2108,0.0837 -0.56943,0.28544 -0.68908,0.18076 -0.0163,-0.0914 -0.29202,-0.0425 -0.17258,-0.26101 0.0245,-0.41431 0.0438,-0.83336 -0.006,-1.24611 -0.19223,-0.30342 -0.14889,-0.92778 0.18873,-1.11844 0.26131,-0.21377 0.5345,-0.42268 0.84555,-0.56495 0.34135,0.0372 0.56072,0.4244 0.71013,0.6961 0.0446,0.12646 0.0449,0.26245 0.0311,0.39388 m 0.86699,-0.19775 c 0.18573,-0.41525 0.57484,-0.71507 0.95001,-0.96956 0.32332,-0.30307 0.71269,0.0244 0.6092,0.3996 -0.006,0.42285 -0.0252,1.73614 -0.32096,2.07728 -0.10543,0.11982 -0.11466,0.11459 -0.29962,0.26653 -0.22422,0.1841 0.12155,-0.10936 -0.14311,0.10894 -0.22447,0.18507 -0.81519,0.4363 -0.85085,0.0552 -0.0103,-0.11091 -0.0117,-0.22233 -0.0147,-0.33357"
         id="path903"/>
      <g
         id="g960"
         transform="matrix(0.35277777,0,0,-0.35277777,558.25212,-1.9306258)"
         style="fill:#16498a;fill-opacity:1;stroke-width:0.540572" />
      <path
         id="path831"
         d="m 683.98295,-103.00098 c -0.4334,-0.15428 -0.7456,-0.50419 -1.05004,-0.82305 0.18751,-0.003 -0.22244,-0.23547 0.008,-0.32142 0.15596,-0.21556 0.26598,-0.5043 0.54189,-0.6088 0.0452,-0.20453 0.33475,-0.43204 0.44182,-0.14474 0.32033,0.23467 1.22313,0.3858 1.58305,0.38472 0.41506,-0.0137 0.81662,-0.18004 1.23508,-0.24097 0.3835,-0.0219 0.77323,-0.10364 1.1556,-0.046 0.0772,0.19477 -0.32155,0.34373 -0.36814,0.55868 -0.24163,0.11626 -0.48705,0.22003 -0.5724,0.46838 -0.0423,0.12323 -0.0658,-0.008 -0.0845,0.19382 -0.0182,0.19737 -0.36742,0.21295 -0.46792,0.37844 -0.2857,-0.008 -0.47647,0.17654 -0.74372,0.22507 -0.3927,0.0407 -1.29079,0.0424 -1.67781,-0.0241 z m 2.46429,-7.61955 c -0.10929,0.31465 -0.21129,0.67555 -0.5244,0.83547 -0.12734,0.0651 0,0 -0.17686,0.0701 -0.17917,0.0711 -0.484,0.24262 -0.5857,0.15364 -0.0138,-0.0777 -0.24821,-0.0361 -0.14669,-0.22185 0.0208,-0.35215 0.0372,-0.70833 -0.005,-1.05916 -0.16339,-0.2579 -0.12655,-0.78859 0.16042,-0.95065 0.22211,-0.1817 0.45431,-0.35926 0.71869,-0.48019 0.29014,0.0316 0.4766,0.36073 0.6036,0.59167 0.0379,0.10749 0.0382,0.22307 0.0264,0.33479 m 1.46633,-0.16809 c 0.15787,-0.35295 0.4886,-0.60779 0.80749,-0.8241 0.27481,-0.2576 0.60577,0.0207 0.5178,0.33965 -0.005,0.35941 -0.0214,1.47568 -0.27281,1.76564 -0.0896,0.10184 -0.0974,0.0974 -0.25466,0.22654 -0.19059,0.15648 0.10331,-0.093 -0.12164,0.0926 -0.1908,0.1573 -0.69289,0.37084 -0.7232,0.0469 -0.009,-0.0943 -0.01,-0.18897 -0.0125,-0.28352"
         style="fill:#000000;fill-opacity:1;stroke-width:114.252" />
      <path
         style="fill:#000000;fill-opacity:1;stroke-width:134.418"
         d="m 702.45749,-108.00742 c -0.5099,-0.18151 -0.8772,-0.59318 -1.23538,-0.96832 0.22061,-0.004 -0.2617,-0.27703 0.009,-0.37816 0.18349,-0.2536 0.31293,-0.59331 0.63754,-0.71625 0.0532,-0.24063 0.39384,-0.5083 0.51981,-0.17029 0.37687,0.27609 1.43902,0.45389 1.86246,0.45262 0.48833,-0.0161 0.96076,-0.21181 1.45308,-0.2835 0.45119,-0.0257 0.90971,-0.12193 1.35958,-0.0541 0.0908,0.22914 -0.37831,0.4044 -0.43312,0.65729 -0.28428,0.13677 -0.57302,0.25886 -0.67344,0.55105 -0.0498,0.14498 -0.0774,-0.01 -0.0994,0.22803 -0.0214,0.23221 -0.43227,0.25054 -0.55051,0.44523 -0.33613,-0.01 -0.56057,0.2077 -0.87499,0.2648 -0.46202,0.0479 -1.51863,0.0499 -1.97396,-0.0283 z m 2.23293,-7.44877 c -0.12859,0.37018 -0.24859,0.79479 -0.61696,0.98293 -0.14982,0.0766 0,0 -0.20808,0.0825 -0.2108,0.0837 -0.56943,0.28544 -0.68908,0.18076 -0.0163,-0.0914 -0.29202,-0.0425 -0.17258,-0.26101 0.0245,-0.41431 0.0438,-0.83336 -0.006,-1.24611 -0.19223,-0.30342 -0.14889,-0.92778 0.18873,-1.11844 0.26131,-0.21377 0.5345,-0.42268 0.84555,-0.56495 0.34135,0.0372 0.56072,0.4244 0.71013,0.6961 0.0446,0.12646 0.0449,0.26245 0.0311,0.39388 m 0.86699,-0.19775 c 0.18573,-0.41525 0.57484,-0.71507 0.95001,-0.96956 0.32332,-0.30307 0.71269,0.0244 0.6092,0.3996 -0.006,0.42285 -0.0252,1.73614 -0.32096,2.07728 -0.10543,0.11982 -0.11466,0.11459 -0.29962,0.26653 -0.22422,0.1841 0.12155,-0.10936 -0.14311,0.10894 -0.22447,0.18507 -0.81519,0.4363 -0.85085,0.0552 -0.0103,-0.11091 -0.0117,-0.22233 -0.0147,-0.33357"
         id="path833"/>
    </g>
  </g>
</svg>
