<?xml version="1.0" encoding="UTF-8" standalone="no"?>
<!-- Created with Inkscape (http://www.inkscape.org/) -->

<svg
   width="800"
   height="600"
   viewBox="0 0 211.66666 158.75"
   version="1.1"
   id="svg8">
  <g
     id="layer1"
     transform="translate(0,-138.24998)">
    <path
       style="fill:#151515;stroke-width:1"
       d="M 10.595124,285.00278 C 8.507079,279.82804 9.4622222,273.01965 8.9922429,267.23933 L 6.8281136,221.27463 6.4660635,182.64948 6.9297963,158.73072 c -0.3614807,-5.81529 4.7815757,-6.56292 9.4112927,-5.63708 25.18059,-0.74167 50.316878,-0.92966 75.48497,-0.64349 l 65.134791,-2.2389 c 15.92617,-0.94484 31.88488,-0.44294 47.83998,0.0351 2.0375,6.24256 -0.14047,14.10065 0.42265,20.9574 -1.14191,16.28919 1.07403,32.5074 -0.0462,48.81338 l -1.95552,35.80633 c -0.0239,5.8234 -0.001,20.24928 0.2512,25.9083 l -22.70838,1.26147 -80.61637,1.45379 -89.419019,0.64311 -0.133869,-0.0874 z m 4.3179,-2.67547 87.507866,-0.1963 29.46246,-0.0996 22.07227,0.0377 45.34925,-1.58201 c -2.2013,-14.55962 0.60717,-37.81138 1.2017,-52.46164 1.69673,-18.30307 -0.8572,-36.66004 0.83613,-54.96086 0.23589,-6.83325 0.30312,-13.6883 0.4624,-20.49629 -24.81471,-0.10503 -49.5512,0.27979 -74.28119,2.10645 l -76.896106,0.42252 c -13.380625,-0.65586 -26.867922,0.41383 -40.25799,1.42197 l -0.268156,55.03746 2.581188,64.96969 2.230178,5.80089 z"
       id="path861" />
    <path
       id="path864"
       d="m 40.676905,274.72006 c -3.26443,-3.3853 -5.591055,-8.53748 -6.860928,-13.3229 -3.01062,2.23243 -12.714601,11.7363 -6.914687,2.33884 2.677322,-2.78808 7.538053,-11.12407 10.985055,-5.69979 1.361079,3.85404 4.704477,16.36552 8.253485,6.73456 2.712961,-1.38023 5.306719,-11.0987 8.452769,-5.38631 4.063814,1.92267 8.055223,-7.69064 11.848034,-10.60558 4.367111,-1.81403 6.85065,-14.56754 11.916703,-7.74664 2.662816,2.84061 5.662421,9.06763 8.159465,2.70144 6.934774,-9.37484 15.491419,-17.49582 22.133459,-27.05388 4.54814,-2.80487 4.91648,7.75131 7.2593,10.45801 1.66231,8.58948 5.00979,4.79064 7.77775,-0.29648 4.13651,-5.21689 8.17636,-10.5613 12.68463,-15.44565 4.29711,1.08644 3.27497,8.48749 6.62619,11.49201 1.49219,2.86863 3.06192,6.22493 4.40908,8.87987 4.52186,-6.66313 8.04921,-14.22083 12.89418,-20.83008 6.61909,-9.70321 13.24979,-19.49307 18.19286,-30.19597 11.14799,-16.96698 12.30875,-12.19364 1.87098,3.82474 -7.74707,15.13842 -19.25979,28.06437 -26.98974,43.2759 -2.63575,3.36251 -3.36539,9.69673 -8.43048,9.87862 -2.82486,-6.90875 -7.16486,-13.19881 -10.28147,-20.01917 -7.01533,6.04213 -10.64331,15.08437 -17.52796,21.21279 -5.56931,-1.06829 -5.50647,-17.96241 -10.17971,-15.51204 -8.530137,9.61256 -16.624843,19.64515 -24.759698,29.54825 -3.386095,-0.84434 -6.11171,-12.13388 -9.84075,-6.5976 -6.365408,6.59311 -11.575487,14.26787 -18.417478,20.38939 -3.120517,-5.46685 -5.576511,-0.34682 -8.233509,3.47973 -1.328423,1.65192 -2.62298,4.36007 -5.02753,4.49794 z m 23.775734,-7.97733 c 0.183531,-0.26509 0.08998,0.27208 0,0 z M 109.2135,184.43926 c 0.18354,-0.26509 0.09,0.2721 0,0 z"
       style="fill:#151515;fill-opacity:1;stroke-width:1" />
    <path
       style="opacity:1;fill:none;fill-opacity:1;stroke:#4285f4;stroke-width:2.29999991;stroke-miterlimit:4;stroke-dasharray:6.89999974, 6.89999974000000016;stroke-dashoffset:2.5299999;stroke-opacity:1;stroke-linecap:round"
       d="M 27.214287,272.80949 189.36607,189.46574"
       id="rect814" />
  </g>
</svg>
