<?xml version="1.0" encoding="UTF-8" standalone="no"?>
<!-- Created with Inkscape (http://www.inkscape.org/) -->

<svg
   width="800"
   height="400"
   viewBox="0 0 211.66666 105.83333"
   version="1.1"
   id="svg8">
  <g
     id="layer1"
     transform="translate(0,-191.16665)">
    <path
       style="fill:#151515;stroke-width:1"
       d="m 198.37048,239.38732 c -2.76966,3.08848 -5.97589,7.14742 -10.08485,8.17661 -3.17579,-3.71246 -8.7633,-7.67707 -6.79159,1.47377 -0.3353,10.23866 -1.29958,20.73594 -0.2838,30.81493 -7.86523,2.11993 -16.30949,0.59949 -24.38755,1.76829 -6.62223,0.60051 -13.39708,0.34118 -19.90616,1.47198 -1.86824,-6.27836 -0.3183,-14.16002 -0.35362,-20.98085 -1.35319,-4.63229 3.07355,-20.02382 -2.04357,-18.86822 -3.10905,4.30857 -5.83445,1.64588 -8.56706,-1.41094 -5.30195,-3.17433 -4.41908,-6.78109 0.85564,-9.05208 10.33818,-4.94834 20.29356,-10.7745 30.56446,-15.80253 -4.17545,-6.03456 9.16187,-6.70716 -0.95775,-8.38912 -5.25446,-1.63631 12.01667,-3.65824 5.8767,2.99943 -5.59641,2.41551 -1.34356,7.03202 2.7816,7.67547 10.82839,4.49466 21.38026,9.66929 30.70933,16.83818 1.10284,0.75348 3.03967,1.67617 2.58822,3.28508 z m -3.18291,-1.20208 c -8.12183,-5.97243 -16.74004,-11.48712 -26.34645,-14.75923 -6.20723,4.56796 -15.81649,6.43233 -22.5797,2.08794 -2.6511,-1.50008 -6.70855,3.04433 -9.92436,4.02186 -3.73451,2.29142 -9.67272,3.72081 -11.51639,7.09714 3.92484,5.23811 8.06194,10.04778 11.97934,1.76539 5.24251,0.43948 1.98422,13.17974 2.90879,18.45654 0.0726,8.1192 -0.9122,16.22355 -0.27681,24.33491 12.83218,-1.0875 25.76571,-1.6527 38.64931,-1.81237 -1.62013,-13.59253 1.42116,-27.30018 0.28239,-40.8377 4.06031,-1.87044 10.07368,10.30316 14.39692,3.3542 0.0242,-0.64332 3.4633,-2.63975 2.42696,-3.70868 z m -29.1632,-16.08556 c -2.95677,-1.04447 -5.84954,-3.03204 -8.77593,-3.55953 -1.95641,2.24605 -9.94876,3.4031 -8.20558,5.70653 4.826,2.3402 14.56626,2.8263 16.98151,-2.147 z m -47.65611,21.24541 c -1.66362,2.79336 -3.96974,6.96853 -7.764,6.96992 -3.71366,-2.70186 -1.23757,12.00651 -2.37494,16.24725 3.25463,8.69461 -4.66895,9.20386 -11.047095,8.74806 -5.90622,0.83226 -11.960655,0.8598 -17.834723,0.81753 -0.543249,-9.45898 0.891143,-18.86168 0.984224,-28.27659 -3.520626,5.33211 -7.892848,0.73315 -10.370032,-2.94401 6.654297,-7.25743 15.855578,-11.83942 23.720851,-17.79582 -5.288195,-6.27806 9.390045,-7.83262 1.42294,-9.99498 -11.33695,1.83512 10.613655,-6.64077 4.74282,2.80216 -7.93,3.53788 -2.09772,9.6009 4.009825,11.52548 5.29256,3.2359 10.47054,7.47099 14.51013,11.901 z m -4.28062,-0.32588 c -4.30751,-3.49262 -8.4976,-8.0318 -13.69538,-9.91552 -4.362655,2.98238 -10.105005,2.96268 -14.936071,1.46698 -3.928567,2.27239 -6.697425,5.22378 -10.238365,7.56206 -4.823386,1.44429 0.903202,4.00062 2.857091,5.7185 5.351674,-9.41549 5.675691,2.97033 4.762035,8.18842 0.39521,8.1908 -5.438218,22.77497 8.379295,18.36055 8.55522,-0.39919 18.053675,0.59991 14.062565,-11.32952 2.34055,-5.39973 -2.5808,-17.35941 3.47612,-18.92978 2.22908,4.74063 8.0351,3.10642 5.33271,-1.12169 z M 98.651675,231.58333 c -3.69073,-6.60044 -15.800815,3.60018 -4.95336,1.73588 0.56153,0.5791 6.17178,-0.68533 4.95336,-1.73588 z m -42.677378,14.99723 c -2.891596,2.58189 -5.191871,9.05013 -9.390182,4.48072 -2.593872,6.1607 3.744772,20.0736 -7.302415,19.20882 -5.783373,-0.0206 -12.199028,2.67549 -17.501483,1.20352 0.57752,-7.51293 1.477279,-15.16539 1.346392,-22.69653 -1.762534,5.76052 -8.063179,-1.32068 -9.89744,-4.16425 4.683588,-5.75269 12.454428,-8.34906 18.611846,-12.52547 4.940835,-3.18283 5.065832,-8.95568 9.133734,-10.68456 -1.100532,-3.10062 -9.832629,-2.09359 -1.966771,-4.50722 9.435503,1.05951 0.951551,6.45954 0.861949,10.34439 0.893329,3.51958 6.191211,6.62085 8.53709,10.10244 2.779829,2.68515 6.17729,5.77074 7.56728,9.23814 z m -3.141753,0.6052 c -3.534895,-3.52002 -7.276219,-10.84533 -11.689183,-10.76392 -4.103253,2.50215 -9.523891,2.38916 -13.80698,0.55201 -1.784919,3.04758 -15.302588,5.05093 -8.848916,9.32122 3.048632,5.2615 5.902742,-3.30076 8.940712,-1.45776 -2.684327,5.91616 -1.29999,13.49923 -2.369175,20.08948 -2.026042,5.4855 1.494942,5.87049 6.202948,4.50841 7.862235,0.32131 14.944368,-1.16292 11.416075,-10.93607 1.307339,-4.18499 -1.257536,-11.30187 3.278641,-12.78898 1.2648,2.38997 6.274162,6.85611 6.875878,1.47561 z M 41.083879,233.97992 c -2.424209,-8.64828 -16.694904,4.97783 -4.284452,1.8384 0.84483,-0.32497 5.192321,-0.32658 4.284452,-1.8384 z"
       id="path857" />
    <path
       id="path860"
       d="m 170.39278,256.9945 c -6.97665,5.74447 -10.61105,-2.46593 -7.7099,-8.9393 2.87614,-7.72143 2.91928,4.79307 2.5332,7.93503 0.48963,2.01562 4.7805,-1.19749 5.1767,1.00427 z m -11.68559,-9.11663 c -6.80482,2.75286 -1.64139,6.77278 -2.66648,9.93452 -2.45852,1.68671 -3.96672,-6.80205 -6.62933,0.2416 -10.36166,1.8112 5.38857,-5.20884 0.0474,-7.24101 -5.26745,-6.52151 1.694,-5.21807 3.48659,-0.0374 0.18496,0.12509 8.70306,-8.22043 5.76184,-2.89771 z m -59.100595,10.99077 c -2.65544,2.03717 -11.354336,4.11307 -9.76703,-1.90303 0.92693,-3.13667 -1.764011,-16.42232 3.23028,-11.52786 0.57873,6.344 -3.65204,16.0495 6.53999,12.97085 l 0.21231,0.18148 -0.21532,0.27863 z M 37.62491,256.6198 c -1.240725,4.72734 -15.436358,4.3922 -4.23144,0.0854 4.199356,1.60647 -9.483828,-9.13261 -0.700504,-10.37093 10.275782,-2.72082 -2.553997,2.39425 1.634337,6.44824 0.777165,0.59458 3.464483,2.92607 3.297578,3.83732 z"
       style="fill:#4285f4;fill-opacity:1;stroke-width:1" />
  </g>
</svg>
